solid Onshape
  facet normal 0.984263 4.985e-7 0.176709
    outer loop
      vertex -90.6118 234.945 51.0398
      vertex -90.6118 215.164 51.0396
      vertex -90.5555 235.001 50.7263
    endloop
  endfacet
  facet normal 0.983261 9.00757e-5 0.182202
    outer loop
      vertex -90.6118 215.164 51.0396
      vertex -90.5641 215.116 50.7822
      vertex -90.5555 235.001 50.7263
    endloop
  endfacet
  facet normal 0.992167 -7.46856e-5 0.124918
    outer loop
      vertex -90.5555 235.001 50.7263
      vertex -90.5641 215.116 50.7822
      vertex -90.5299 235.027 50.523
    endloop
  endfacet
  facet normal 0.991445 -4.15525e-7 0.130529
    outer loop
      vertex -90.5641 215.116 50.7822
      vertex -90.5299 215.082 50.5226
      vertex -90.5299 235.027 50.523
    endloop
  endfacet
  facet normal 0.996035 3.15061e-7 0.0889626
    outer loop
      vertex -90.5299 235.027 50.523
      vertex -90.5299 215.082 50.5226
      vertex -90.5159 235.041 50.3662
    endloop
  endfacet
  facet normal 0.996916 -8.24662e-5 0.0784767
    outer loop
      vertex -90.5299 215.082 50.5226
      vertex -90.5094 215.061 50.2617
      vertex -90.5159 235.041 50.3662
    endloop
  endfacet
  facet normal 0.999328 0.000137193 0.0366588
    outer loop
      vertex -90.5159 235.041 50.3662
      vertex -90.5094 215.061 50.2617
      vertex -90.5025 235.054 50
    endloop
  endfacet
  facet normal 0.999657 0 0.0261854
    outer loop
      vertex -90.5094 215.061 50.2617
      vertex -90.5025 215.054 50
      vertex -90.5025 235.054 50
    endloop
  endfacet
  facet normal 0.977217 5.83193e-8 0.212244
    outer loop
      vertex -90.6118 234.945 51.0398
      vertex -90.621 234.935 51.0821
      vertex -90.6118 215.164 51.0396
    endloop
  endfacet
  facet normal 0.971126 -5.94148e-5 0.238568
    outer loop
      vertex -90.621 234.935 51.0821
      vertex -90.6754 234.881 51.3033
      vertex -90.6118 215.164 51.0396
    endloop
  endfacet
  facet normal 0.97237 1.31448e-5 0.233444
    outer loop
      vertex -90.6118 215.164 51.0396
      vertex -90.6754 234.881 51.3033
      vertex -90.6729 215.225 51.2941
    endloop
  endfacet
  facet normal 0.958519 -1.28195e-5 0.285028
    outer loop
      vertex -90.6754 234.881 51.3033
      vertex -90.7476 234.808 51.5461
      vertex -90.6729 215.225 51.2941
    endloop
  endfacet
  facet normal 0.927753 1.17619e-6 0.373194
    outer loop
      vertex -90.935 234.619 52.0342
      vertex -90.9348 215.487 52.0337
      vertex -90.7986 234.757 51.6952
    endloop
  endfacet
  facet normal 0.92391 0.000193733 0.382611
    outer loop
      vertex -90.9348 215.487 52.0337
      vertex -90.8346 215.386 51.7918
      vertex -90.7986 234.757 51.6952
    endloop
  endfacet
  facet normal 0.946005 -0.000138925 0.324151
    outer loop
      vertex -90.7986 234.757 51.6952
      vertex -90.8346 215.386 51.7918
      vertex -90.7476 234.808 51.5461
    endloop
  endfacet
  facet normal 0.942642 -1.6888e-6 0.333806
    outer loop
      vertex -90.8346 215.386 51.7918
      vertex -90.7472 215.299 51.5451
      vertex -90.7476 234.808 51.5461
    endloop
  endfacet
  facet normal 0.958816 1.19696e-6 0.284027
    outer loop
      vertex -90.7476 234.808 51.5461
      vertex -90.7472 215.299 51.5451
      vertex -90.6729 215.225 51.2941
    endloop
  endfacet
  facet normal 0.817292 1.50683e-6 0.576224
    outer loop
      vertex -91.4586 234.089 52.9405
      vertex -91.4574 216.009 52.9389
      vertex -91.3743 234.174 52.821
    endloop
  endfacet
  facet normal 0.824099 -9.3137e-5 0.566445
    outer loop
      vertex -91.4574 216.009 52.9389
      vertex -91.3092 215.861 52.7232
      vertex -91.3743 234.174 52.821
    endloop
  endfacet
  facet normal 0.846348 0.000166546 0.532631
    outer loop
      vertex -91.3743 234.174 52.821
      vertex -91.3092 215.861 52.7232
      vertex -91.1728 234.379 52.5008
    endloop
  endfacet
  facet normal 0.852636 -1.3479e-6 0.522506
    outer loop
      vertex -91.3092 215.861 52.7232
      vertex -91.1724 215.724 52.5
      vertex -91.1728 234.379 52.5008
    endloop
  endfacet
  facet normal 0.928477 6.8974e-6 0.371391
    outer loop
      vertex -91.1728 234.379 52.5008
      vertex -91.1724 215.724 52.5
      vertex -91.1728 234.379 52.5008
    endloop
  endfacet
  facet normal 0.878821 1.3356e-6 0.477152
    outer loop
      vertex -91.1724 215.724 52.5
      vertex -91.0475 215.599 52.27
      vertex -91.1728 234.379 52.5008
    endloop
  endfacet
  facet normal 0.869161 -0.00027672 0.494529
    outer loop
      vertex -91.1728 234.379 52.5008
      vertex -91.0475 215.599 52.27
      vertex -91.1414 234.411 52.4455
    endloop
  endfacet
  facet normal 0.902674 0.000489702 0.430324
    outer loop
      vertex -91.0475 215.599 52.27
      vertex -90.9348 215.487 52.0337
      vertex -91.1414 234.411 52.4455
    endloop
  endfacet
  facet normal 0.891812 -0.000109431 0.452407
    outer loop
      vertex -91.1414 234.411 52.4455
      vertex -90.9348 215.487 52.0337
      vertex -90.9535 234.601 52.0751
    endloop
  endfacet
  facet normal 0.911693 5.58183e-8 0.410871
    outer loop
      vertex -90.9348 215.487 52.0337
      vertex -90.935 234.619 52.0342
      vertex -90.9535 234.601 52.0751
    endloop
  endfacet
  facet normal 0.780871 -5.08404e-6 0.624693
    outer loop
      vertex -91.4586 234.089 52.9405
      vertex -91.4586 234.089 52.9406
      vertex -91.4574 216.009 52.9389
    endloop
  endfacet
  facet normal 0.787306 -3.91659e-6 0.616562
    outer loop
      vertex -91.4586 234.089 52.9406
      vertex -91.6784 233.865 53.2212
      vertex -91.4574 216.009 52.9389
    endloop
  endfacet
  facet normal 0.777014 -0.000335505 0.629483
    outer loop
      vertex -91.4574 216.009 52.9389
      vertex -91.6784 233.865 53.2212
      vertex -91.7868 216.339 53.3457
    endloop
  endfacet
  facet normal 0.75395 2.16639e-6 0.656932
    outer loop
      vertex -91.6784 233.865 53.2212
      vertex -91.7882 233.752 53.3472
      vertex -91.7868 216.339 53.3457
    endloop
  endfacet
  facet normal 0.743294 2.06699e-7 0.668965
    outer loop
      vertex -91.7868 216.339 53.3457
      vertex -91.7882 233.752 53.3472
      vertex -91.7883 233.752 53.3473
    endloop
  endfacet
  facet normal 0.673727 2.8917e-7 0.73898
    outer loop
      vertex -92.1577 233.373 53.7165
      vertex -92.1568 216.709 53.7157
      vertex -92.1104 233.422 53.6734
    endloop
  endfacet
  facet normal 0.70702 -0.000172756 0.707193
    outer loop
      vertex -92.1568 216.709 53.7157
      vertex -91.7868 216.339 53.3457
      vertex -92.1104 233.422 53.6734
    endloop
  endfacet
  facet normal 0.6875 -0.000906879 0.726184
    outer loop
      vertex -92.1104 233.422 53.6734
      vertex -91.7868 216.339 53.3457
      vertex -92.0253 233.509 53.5929
    endloop
  endfacet
  facet normal 0.719567 -4.23637e-6 0.694423
    outer loop
      vertex -91.7868 216.339 53.3457
      vertex -91.7883 233.752 53.3473
      vertex -92.0253 233.509 53.5929
    endloop
  endfacet
  facet normal 0.630595 -3.44808e-6 0.776112
    outer loop
      vertex -92.1577 233.373 53.7165
      vertex -92.1577 233.373 53.7165
      vertex -92.1568 216.709 53.7157
    endloop
  endfacet
  facet normal 0.631831 -3.33622e-6 0.775107
    outer loop
      vertex -92.1577 233.373 53.7165
      vertex -92.5366 232.982 54.0253
      vertex -92.1568 216.709 53.7157
    endloop
  endfacet
  facet normal 0.629257 -0.000103162 0.777197
    outer loop
      vertex -92.1568 216.709 53.7157
      vertex -92.5366 232.982 54.0253
      vertex -92.5636 217.115 54.0451
    endloop
  endfacet
  facet normal 0.590449 8.02685e-8 0.807075
    outer loop
      vertex -92.5366 232.982 54.0253
      vertex -92.5641 232.953 54.0455
      vertex -92.5636 217.115 54.0451
    endloop
  endfacet
  facet normal 0.544484 -2.19381e-6 0.838771
    outer loop
      vertex -92.5641 232.953 54.0455
      vertex -93.0036 232.496 54.3307
      vertex -92.5636 217.115 54.0451
    endloop
  endfacet
  facet normal 0.544638 4.06304e-6 0.838671
    outer loop
      vertex -92.5636 217.115 54.0451
      vertex -93.0036 232.496 54.3307
      vertex -93.0025 217.554 54.3301
    endloop
  endfacet
  facet normal 0.447247 7.15323e-6 0.89441
    outer loop
      vertex -93.4708 232.006 54.5686
      vertex -93.4688 218.021 54.5677
      vertex -93.0662 232.431 54.3663
    endloop
  endfacet
  facet normal 0.453817 -0.000222776 0.891095
    outer loop
      vertex -93.4688 218.021 54.5677
      vertex -93.0025 217.554 54.3301
      vertex -93.0662 232.431 54.3663
    endloop
  endfacet
  facet normal 0.493526 -8.58004e-7 0.869731
    outer loop
      vertex -93.0662 232.431 54.3663
      vertex -93.0025 217.554 54.3301
      vertex -93.0037 232.496 54.3308
    endloop
  endfacet
  facet normal 0.496139 -5.87524e-7 0.868243
    outer loop
      vertex -93.0025 217.554 54.3301
      vertex -93.0036 232.496 54.3307
      vertex -93.0037 232.496 54.3308
    endloop
  endfacet
  facet normal 0.389403 -2.71953e-6 0.921068
    outer loop
      vertex -93.4708 232.006 54.5686
      vertex -93.6409 231.827 54.6405
      vertex -93.4688 218.021 54.5677
    endloop
  endfacet
  facet normal 0.36006 -0.000430946 0.932929
    outer loop
      vertex -93.6409 231.827 54.6405
      vertex -93.7678 231.693 54.6894
      vertex -93.4688 218.021 54.5677
    endloop
  endfacet
  facet normal 0.357945 -0.000484436 0.933742
    outer loop
      vertex -93.4688 218.021 54.5677
      vertex -93.7678 231.693 54.6894
      vertex -93.9574 218.509 54.7553
    endloop
  endfacet
  facet normal 0.327857 3.21247e-6 0.944727
    outer loop
      vertex -93.7678 231.693 54.6894
      vertex -93.9594 231.489 54.7559
      vertex -93.9574 218.509 54.7553
    endloop
  endfacet
  facet normal 0.259551 -8.08453e-6 0.965729
    outer loop
      vertex -93.9594 231.489 54.7559
      vertex -94.4536 230.962 54.8887
      vertex -93.9574 218.509 54.7553
    endloop
  endfacet
  facet normal 0.258779 -4.10508e-5 0.965937
    outer loop
      vertex -93.9574 218.509 54.7553
      vertex -94.4536 230.962 54.8887
      vertex -94.4629 219.015 54.8907
    endloop
  endfacet
  facet normal 0.157219 4.17808e-5 0.987564
    outer loop
      vertex -94.4536 230.962 54.8887
      vertex -94.981 230.394 54.9727
      vertex -94.4629 219.015 54.8907
    endloop
  endfacet
  facet normal 0.156439 5.36308e-6 0.987688
    outer loop
      vertex -94.4629 219.015 54.8907
      vertex -94.981 230.394 54.9727
      vertex -94.9799 219.532 54.9726
    endloop
  endfacet
  facet normal 0.102899 -2.58751e-7 0.994692
    outer loop
      vertex -94.981 230.394 54.9727
      vertex -94.9814 230.394 54.9728
      vertex -94.9799 219.532 54.9726
    endloop
  endfacet
  facet normal 0.0974932 -1.04197e-6 0.995236
    outer loop
      vertex -94.9799 219.532 54.9726
      vertex -94.9814 230.394 54.9728
      vertex -95.0486 230.321 54.9794
    endloop
  endfacet
  facet normal 0.000778816 0 1
    outer loop
      vertex -95.5025 229.828 55
      vertex -95.5025 220.054 55
      vertex -95.4929 229.838 55
    endloop
  endfacet
  facet normal 0.0522886 -5.03673e-5 0.998632
    outer loop
      vertex -95.5025 220.054 55
      vertex -94.9799 219.532 54.9726
      vertex -95.4929 229.838 55
    endloop
  endfacet
  facet normal 0.0361058 -0.000857888 0.999348
    outer loop
      vertex -95.4929 229.838 55
      vertex -94.9799 219.532 54.9726
      vertex -95.1606 230.2 54.9883
    endloop
  endfacet
  facet normal 0.0797335 -0.000115136 0.996816
    outer loop
      vertex -94.9799 219.532 54.9726
      vertex -95.0486 230.321 54.9794
      vertex -95.1606 230.2 54.9883
    endloop
  endfacet
  facet normal 1 0 0
    outer loop
      vertex -90.5025 215.054 50
      vertex -90.5025 215.054 35
      vertex -90.5025 235.054 50
    endloop
  endfacet
  facet normal 1 0 0
    outer loop
      vertex -90.5025 215.054 35
      vertex -90.5025 235.054 35
      vertex -90.5025 235.054 50
    endloop
  endfacet
  facet normal 0 -0.999917 0.0128651
    outer loop
      vertex -136.553 215.056 50.1286
      vertex -136.557 215.054 50
      vertex -90.5025 215.054 50
    endloop
  endfacet
  facet normal 0.000102939 -0.948416 0.317029
    outer loop
      vertex -135.925 215.326 51.6255
      vertex -135.988 215.299 51.5455
      vertex -90.8346 215.386 51.7918
    endloop
  endfacet
  facet normal 0.000908741 -0.00364379 0.999993
    outer loop
      vertex -123.045 220.049 55
      vertex -94.9799 219.532 54.9726
      vertex -123.027 220.054 55
    endloop
  endfacet
  facet normal 0 -0.0523388 0.998629
    outer loop
      vertex -94.9799 219.532 54.9726
      vertex -95.5025 220.054 55
      vertex -123.027 220.054 55
    endloop
  endfacet
  facet normal 0.000800104 -0.00953773 0.999954
    outer loop
      vertex -123.045 220.049 55
      vertex -123.236 219.99 54.9996
      vertex -94.9799 219.532 54.9726
    endloop
  endfacet
  facet normal 3.68383e-6 -0.0585144 0.998287
    outer loop
      vertex -123.236 219.99 54.9996
      vertex -124.684 219.534 54.9729
      vertex -94.9799 219.532 54.9726
    endloop
  endfacet
  facet normal -4.06723e-6 -0.15644 0.987687
    outer loop
      vertex -94.9799 219.532 54.9726
      vertex -124.684 219.534 54.9729
      vertex -94.4629 219.015 54.8907
    endloop
  endfacet
  facet normal 0.000718333 -0.115286 0.993332
    outer loop
      vertex -124.684 219.534 54.9729
      vertex -124.963 219.444 54.9626
      vertex -94.4629 219.015 54.8907
    endloop
  endfacet
  facet normal 1.01614e-5 -0.16446 0.986384
    outer loop
      vertex -124.963 219.444 54.9626
      vertex -126.241 219.022 54.8923
      vertex -94.4629 219.015 54.8907
    endloop
  endfacet
  facet normal -1.2332e-5 -0.258825 0.965924
    outer loop
      vertex -94.4629 219.015 54.8907
      vertex -126.241 219.022 54.8923
      vertex -93.9574 218.509 54.7553
    endloop
  endfacet
  facet normal 0.000393824 -0.234884 0.972023
    outer loop
      vertex -126.241 219.022 54.8923
      vertex -127.042 218.75 54.8268
      vertex -93.9574 218.509 54.7553
    endloop
  endfacet
  facet normal 6.06153e-6 -0.284294 0.958737
    outer loop
      vertex -127.042 218.75 54.8268
      vertex -127.712 218.517 54.7578
      vertex -93.9574 218.509 54.7553
    endloop
  endfacet
  facet normal -1.29968e-5 -0.358379 0.933576
    outer loop
      vertex -93.9574 218.509 54.7553
      vertex -127.712 218.517 54.7578
      vertex -93.4688 218.021 54.5677
    endloop
  endfacet
  facet normal 5.93021e-5 -0.354027 0.935235
    outer loop
      vertex -127.712 218.517 54.7578
      vertex -129.004 218.057 54.5838
      vertex -93.4688 218.021 54.5677
    endloop
  endfacet
  facet normal 2.26094e-7 -0.402852 0.915265
    outer loop
      vertex -129.004 218.057 54.5838
      vertex -129.099 218.023 54.5686
      vertex -93.4688 218.021 54.5677
    endloop
  endfacet
  facet normal -3.167e-6 -0.453997 0.891003
    outer loop
      vertex -93.4688 218.021 54.5677
      vertex -129.099 218.023 54.5686
      vertex -93.0025 217.554 54.3301
    endloop
  endfacet
  facet normal 1.32005e-5 -0.452995 0.891513
    outer loop
      vertex -129.099 218.023 54.5686
      vertex -130.347 217.562 54.3348
      vertex -93.0025 217.554 54.3301
    endloop
  endfacet
  facet normal -1.25399e-7 -0.50002 0.866014
    outer loop
      vertex -130.347 217.562 54.3348
      vertex -130.348 217.562 54.3344
      vertex -93.0025 217.554 54.3301
    endloop
  endfacet
  facet normal -1.215e-5 -0.544644 0.838668
    outer loop
      vertex -93.0025 217.554 54.3301
      vertex -130.348 217.562 54.3344
      vertex -92.5636 217.115 54.0451
    endloop
  endfacet
  facet normal 0.000428287 -0.518139 0.855296
    outer loop
      vertex -130.348 217.562 54.3344
      vertex -130.843 217.375 54.2216
      vertex -92.5636 217.115 54.0451
    endloop
  endfacet
  facet normal 9.9996e-6 -0.561065 0.827772
    outer loop
      vertex -130.843 217.375 54.2216
      vertex -131.496 217.126 54.0525
      vertex -92.5636 217.115 54.0451
    endloop
  endfacet
  facet normal -1.74294e-5 -0.62933 0.777138
    outer loop
      vertex -92.5636 217.115 54.0451
      vertex -131.496 217.126 54.0525
      vertex -92.1568 216.709 53.7157
    endloop
  endfacet
  facet normal 0.000562398 -0.595683 0.803219
    outer loop
      vertex -131.496 217.126 54.0525
      vertex -131.727 217.036 53.9862
      vertex -92.1568 216.709 53.7157
    endloop
  endfacet
  facet normal 5.67548e-5 -0.632874 0.774255
    outer loop
      vertex -131.727 217.036 53.9862
      vertex -132.461 216.749 53.7517
      vertex -92.1568 216.709 53.7157
    endloop
  endfacet
  facet normal 2.76505e-7 -0.66485 0.746977
    outer loop
      vertex -132.461 216.749 53.7517
      vertex -132.559 216.71 53.7173
      vertex -92.1568 216.709 53.7157
    endloop
  endfacet
  facet normal -3.06449e-6 -0.707108 0.707105
    outer loop
      vertex -92.1568 216.709 53.7157
      vertex -132.559 216.71 53.7173
      vertex -91.7868 216.339 53.3457
    endloop
  endfacet
  facet normal 6.91198e-5 -0.703138 0.711053
    outer loop
      vertex -132.559 216.71 53.7173
      vertex -133.397 216.376 53.3864
      vertex -91.7868 216.339 53.3457
    endloop
  endfacet
  facet normal 2.94157e-7 -0.739172 0.673517
    outer loop
      vertex -133.397 216.376 53.3864
      vertex -133.485 216.34 53.3474
      vertex -91.7868 216.339 53.3457
    endloop
  endfacet
  facet normal -3.06298e-6 -0.777148 0.629318
    outer loop
      vertex -91.7868 216.339 53.3457
      vertex -133.485 216.34 53.3474
      vertex -91.4574 216.009 52.9389
    endloop
  endfacet
  facet normal -1.19562e-5 -0.852639 0.5225
    outer loop
      vertex -135.005 215.715 52.4841
      vertex -91.1724 215.724 52.5
      vertex -91.3092 215.861 52.7232
    endloop
  endfacet
  facet normal 9.7035e-5 -0.772088 0.635516
    outer loop
      vertex -133.485 216.34 53.3474
      vertex -134.182 216.056 53.0026
      vertex -91.4574 216.009 52.9389
    endloop
  endfacet
  facet normal 3.93396e-7 -0.804191 0.594371
    outer loop
      vertex -134.182 216.056 53.0026
      vertex -134.291 216.011 52.9416
      vertex -91.4574 216.009 52.9389
    endloop
  endfacet
  facet normal -2.27855e-6 -0.82413 0.566401
    outer loop
      vertex -91.4574 216.009 52.9389
      vertex -134.291 216.011 52.9416
      vertex -91.3092 215.861 52.7232
    endloop
  endfacet
  facet normal -8.52487e-5 -0.831675 0.555263
    outer loop
      vertex -134.291 216.011 52.9416
      vertex -134.833 215.787 52.6055
      vertex -91.3092 215.861 52.7232
    endloop
  endfacet
  facet normal 8.98145e-5 -0.860828 0.508897
    outer loop
      vertex -91.3092 215.861 52.7232
      vertex -134.833 215.787 52.6055
      vertex -135.005 215.715 52.4841
    endloop
  endfacet
  facet normal 1.56958e-6 -0.902583 0.430515
    outer loop
      vertex -135.545 215.488 52.0362
      vertex -90.9348 215.487 52.0337
      vertex -91.0475 215.599 52.27
    endloop
  endfacet
  facet normal 9.92278e-6 -0.878818 0.477156
    outer loop
      vertex -91.1724 215.724 52.5
      vertex -135.005 215.715 52.4841
      vertex -91.0475 215.599 52.27
    endloop
  endfacet
  facet normal -4.5559e-5 -0.883554 0.468329
    outer loop
      vertex -135.005 215.715 52.4841
      vertex -135.368 215.562 52.196
      vertex -91.0475 215.599 52.27
    endloop
  endfacet
  facet normal 4.84739e-5 -0.906023 0.423228
    outer loop
      vertex -91.0475 215.599 52.27
      vertex -135.368 215.562 52.196
      vertex -135.545 215.488 52.0362
    endloop
  endfacet
  facet normal -1.69315e-6 -0.923892 0.382655
    outer loop
      vertex -90.9348 215.487 52.0337
      vertex -135.545 215.488 52.0362
      vertex -90.8346 215.386 51.7918
    endloop
  endfacet
  facet normal 7.5057e-5 -0.91885 0.394607
    outer loop
      vertex -135.545 215.488 52.0362
      vertex -135.673 215.433 51.9098
      vertex -90.8346 215.386 51.7918
    endloop
  endfacet
  facet normal -4.9866e-5 -0.935359 0.353701
    outer loop
      vertex -90.8346 215.386 51.7918
      vertex -135.673 215.433 51.9098
      vertex -135.925 215.326 51.6255
    endloop
  endfacet
  facet normal 0.00025977 -0.960472 0.278378
    outer loop
      vertex -136.171 215.221 51.2792
      vertex -90.6118 215.164 51.0396
      vertex -136.018 215.286 51.5053
    endloop
  endfacet
  facet normal -0.000234426 -0.972395 0.23334
    outer loop
      vertex -90.6118 215.164 51.0396
      vertex -90.6729 215.225 51.2941
      vertex -136.018 215.286 51.5053
    endloop
  endfacet
  facet normal 0.000126651 -0.952349 0.30501
    outer loop
      vertex -136.018 215.286 51.5053
      vertex -90.6729 215.225 51.2941
      vertex -135.988 215.299 51.5455
    endloop
  endfacet
  facet normal -2.10848e-7 -0.958808 0.284053
    outer loop
      vertex -90.6729 215.225 51.2941
      vertex -90.7472 215.299 51.5451
      vertex -135.988 215.299 51.5455
    endloop
  endfacet
  facet normal 2.37332e-7 -0.942642 0.333806
    outer loop
      vertex -135.988 215.299 51.5455
      vertex -90.7472 215.299 51.5451
      vertex -90.8346 215.386 51.7918
    endloop
  endfacet
  facet normal 3.50307e-5 -0.992227 0.124439
    outer loop
      vertex -136.436 215.107 50.7213
      vertex -136.494 215.082 50.5227
      vertex -90.5641 215.116 50.7822
    endloop
  endfacet
  facet normal 4.23165e-8 -0.991445 0.130529
    outer loop
      vertex -136.494 215.082 50.5227
      vertex -90.5299 215.082 50.5226
      vertex -90.5641 215.116 50.7822
    endloop
  endfacet
  facet normal 9.75087e-6 -0.972314 0.233677
    outer loop
      vertex -136.171 215.221 51.2792
      vertex -136.295 215.167 51.0569
      vertex -90.6118 215.164 51.0396
    endloop
  endfacet
  facet normal 9.0315e-8 -0.977827 0.209412
    outer loop
      vertex -136.295 215.167 51.0569
      vertex -136.304 215.164 51.0399
      vertex -90.6118 215.164 51.0396
    endloop
  endfacet
  facet normal -9.37691e-8 -0.983248 0.182273
    outer loop
      vertex -90.6118 215.164 51.0396
      vertex -136.304 215.164 51.0399
      vertex -90.5641 215.116 50.7822
    endloop
  endfacet
  facet normal 3.17728e-5 -0.982219 0.187739
    outer loop
      vertex -136.304 215.164 51.0399
      vertex -136.394 215.125 50.8372
      vertex -90.5641 215.116 50.7822
    endloop
  endfacet
  facet normal -7.57154e-6 -0.987778 0.155867
    outer loop
      vertex -90.5641 215.116 50.7822
      vertex -136.394 215.125 50.8372
      vertex -136.436 215.107 50.7213
    endloop
  endfacet
  facet normal 2.54304e-8 -0.996919 0.078442
    outer loop
      vertex -90.5299 215.082 50.5226
      vertex -136.494 215.082 50.5227
      vertex -90.5094 215.061 50.2617
    endloop
  endfacet
  facet normal 0.000151397 -0.99448 0.104922
    outer loop
      vertex -136.494 215.082 50.5227
      vertex -136.494 215.081 50.5212
      vertex -90.5094 215.061 50.2617
    endloop
  endfacet
  facet normal -0.00029538 -0.999657 0.0261777
    outer loop
      vertex -90.5094 215.061 50.2617
      vertex -136.494 215.081 50.5212
      vertex -90.5025 215.054 50
    endloop
  endfacet
  facet normal 0.000366945 -0.996428 0.0844483
    outer loop
      vertex -136.494 215.081 50.5212
      vertex -136.533 215.065 50.3241
      vertex -90.5025 215.054 50
    endloop
  endfacet
  facet normal 9.05118e-5 -0.998975 0.0452756
    outer loop
      vertex -90.5025 215.054 50
      vertex -136.533 215.065 50.3241
      vertex -136.553 215.056 50.1286
    endloop
  endfacet
  facet normal 0 0 1
    outer loop
      vertex -95.5025 220.054 55
      vertex -95.5025 229.828 55
      vertex -99.7891 229.288 55
    endloop
  endfacet
  facet normal 0 0 1
    outer loop
      vertex -113.604 225.226 55
      vertex -117.934 223.129 55
      vertex -95.5025 220.054 55
    endloop
  endfacet
  facet normal 0 0 1
    outer loop
      vertex -117.934 223.129 55
      vertex -122.077 220.683 55
      vertex -95.5025 220.054 55
    endloop
  endfacet
  facet normal 0 0 1
    outer loop
      vertex -95.5025 220.054 55
      vertex -122.077 220.683 55
      vertex -123.027 220.054 55
    endloop
  endfacet
  facet normal 0 0 1
    outer loop
      vertex -99.7891 229.288 55
      vertex -104.501 228.316 55
      vertex -95.5025 220.054 55
    endloop
  endfacet
  facet normal 0 0 1
    outer loop
      vertex -104.501 228.316 55
      vertex -109.116 226.958 55
      vertex -95.5025 220.054 55
    endloop
  endfacet
  facet normal 0 0 1
    outer loop
      vertex -95.5025 220.054 55
      vertex -109.116 226.958 55
      vertex -113.604 225.226 55
    endloop
  endfacet
  facet normal 0 -1 0
    outer loop
      vertex -136.557 215.054 50
      vertex -136.557 215.054 35
      vertex -90.5025 215.054 50
    endloop
  endfacet
  facet normal 0 -1 0
    outer loop
      vertex -136.557 215.054 35
      vertex -90.5025 215.054 35
      vertex -90.5025 215.054 50
    endloop
  endfacet
  facet normal 0 0 -1
    outer loop
      vertex -115.596 229.812 35
      vertex -109.556 232.077 35
      vertex -90.5025 215.054 35
    endloop
  endfacet
  facet normal 0 0 -1
    outer loop
      vertex -109.556 232.077 35
      vertex -103.317 233.716 35
      vertex -90.5025 215.054 35
    endloop
  endfacet
  facet normal 0 0 -1
    outer loop
      vertex -103.317 233.716 35
      vertex -96.9439 234.712 35
      vertex -90.5025 215.054 35
    endloop
  endfacet
  facet normal 0 0 -1
    outer loop
      vertex -90.5025 215.054 35
      vertex -96.9439 234.712 35
      vertex -90.5025 235.054 35
    endloop
  endfacet
  facet normal 0 0 -1
    outer loop
      vertex -90.5025 215.054 35
      vertex -136.557 215.054 35
      vertex -131.909 219.527 35
    endloop
  endfacet
  facet normal 0 0 -1
    outer loop
      vertex -131.909 219.527 35
      vertex -126.831 223.504 35
      vertex -90.5025 215.054 35
    endloop
  endfacet
  facet normal 0 0 -1
    outer loop
      vertex -126.831 223.504 35
      vertex -121.374 226.944 35
      vertex -90.5025 215.054 35
    endloop
  endfacet
  facet normal 0 0 -1
    outer loop
      vertex -90.5025 215.054 35
      vertex -121.374 226.944 35
      vertex -115.596 229.812 35
    endloop
  endfacet
  facet normal -0.0409981 0.999159 0
    outer loop
      vertex -90.5025 235.054 50
      vertex -90.5025 235.054 35
      vertex -95.412 234.853 50
    endloop
  endfacet
  facet normal -0.0531289 0.99858 -0.00397818
    outer loop
      vertex -90.5025 235.054 35
      vertex -96.9439 234.712 35
      vertex -95.412 234.853 50
    endloop
  endfacet
  facet normal -0.091823 0.995775 0
    outer loop
      vertex -95.412 234.853 50
      vertex -96.9439 234.712 35
      vertex -96.9439 234.712 50
    endloop
  endfacet
  facet normal -0.132786 0.991145 0
    outer loop
      vertex -96.9439 234.712 50
      vertex -96.9439 234.712 35
      vertex -100.597 234.222 50
    endloop
  endfacet
  facet normal -0.154401 0.987994 -0.00536657
    outer loop
      vertex -96.9439 234.712 35
      vertex -103.317 233.716 35
      vertex -100.597 234.222 50
    endloop
  endfacet
  facet normal -0.183082 0.983098 0
    outer loop
      vertex -100.597 234.222 50
      vertex -103.317 233.716 35
      vertex -103.317 233.716 50
    endloop
  endfacet
  facet normal -0.22345 0.974715 0
    outer loop
      vertex -103.317 233.716 50
      vertex -103.317 233.716 35
      vertex -105.712 233.166 50
    endloop
  endfacet
  facet normal -0.254072 0.967172 -0.00516565
    outer loop
      vertex -103.317 233.716 35
      vertex -109.556 232.077 35
      vertex -105.712 233.166 50
    endloop
  endfacet
  facet normal -0.272786 0.962075 0
    outer loop
      vertex -105.712 233.166 50
      vertex -109.556 232.077 35
      vertex -109.556 232.077 50
    endloop
  endfacet
  facet normal -0.312214 0.950012 0
    outer loop
      vertex -109.556 232.077 50
      vertex -109.556 232.077 35
      vertex -110.723 231.693 50
    endloop
  endfacet
  facet normal -0.35111 0.936328 -0.00337683
    outer loop
      vertex -109.556 232.077 35
      vertex -115.596 229.812 35
      vertex -110.723 231.693 50
    endloop
  endfacet
  facet normal -0.360176 0.932884 0
    outer loop
      vertex -110.723 231.693 50
      vertex -115.596 229.812 35
      vertex -115.596 229.812 50
    endloop
  endfacet
  facet normal -0.435806 0.90004 0
    outer loop
      vertex -115.596 229.812 50
      vertex -115.596 229.812 35
      vertex -120.297 227.536 50
    endloop
  endfacet
  facet normal -0.44451 0.895768 -0.00337616
    outer loop
      vertex -115.596 229.812 35
      vertex -121.374 226.944 35
      vertex -120.297 227.536 50
    endloop
  endfacet
  facet normal -0.481056 0.87669 0
    outer loop
      vertex -120.297 227.536 50
      vertex -121.374 226.944 35
      vertex -121.374 226.944 50
    endloop
  endfacet
  facet normal -0.516796 0.856109 0
    outer loop
      vertex -121.374 226.944 50
      vertex -121.374 226.944 35
      vertex -124.794 224.88 50
    endloop
  endfacet
  facet normal -0.533293 0.845915 -0.00516501
    outer loop
      vertex -121.374 226.944 35
      vertex -126.831 223.504 35
      vertex -124.794 224.88 50
    endloop
  endfacet
  facet normal -0.559707 0.828691 0
    outer loop
      vertex -124.794 224.88 50
      vertex -126.831 223.504 35
      vertex -126.831 223.504 50
    endloop
  endfacet
  facet normal -0.593401 0.804907 0
    outer loop
      vertex -126.831 223.504 50
      vertex -126.831 223.504 35
      vertex -129.058 221.862 50
    endloop
  endfacet
  facet normal -0.616553 0.787295 -0.00536541
    outer loop
      vertex -126.831 223.504 35
      vertex -131.909 219.527 35
      vertex -129.058 221.862 50
    endloop
  endfacet
  facet normal -0.633607 0.773655 0
    outer loop
      vertex -129.058 221.862 50
      vertex -131.909 219.527 35
      vertex -131.909 219.527 50
    endloop
  endfacet
  facet normal -0.664962 0.746877 0
    outer loop
      vertex -131.909 219.527 50
      vertex -131.909 219.527 35
      vertex -133.058 218.504 50
    endloop
  endfacet
  facet normal -0.693423 0.72052 -0.00397763
    outer loop
      vertex -131.909 219.527 35
      vertex -136.557 215.054 35
      vertex -133.058 218.504 50
    endloop
  endfacet
  facet normal -0.702126 0.712052 0
    outer loop
      vertex -133.058 218.504 50
      vertex -136.557 215.054 35
      vertex -136.557 215.054 50
    endloop
  endfacet
  facet normal -0.132604 0.989788 0.0523139
    outer loop
      vertex -96.9439 234.712 50
      vertex -100.597 234.222 50
      vertex -100.592 234.195 50.5226
    endloop
  endfacet
  facet normal -0.223144 0.97338 0.0523165
    outer loop
      vertex -103.317 233.716 50
      vertex -105.712 233.166 50
      vertex -105.706 233.14 50.5226
    endloop
  endfacet
  facet normal -0.516089 0.854938 0.0522862
    outer loop
      vertex -121.374 226.944 50
      vertex -124.794 224.88 50
      vertex -124.779 224.857 50.5226
    endloop
  endfacet
  facet normal -0.592589 0.803805 0.0523015
    outer loop
      vertex -126.831 223.504 50
      vertex -129.058 221.862 50
      vertex -129.041 221.841 50.5226
    endloop
  endfacet
  facet normal -0.430148 0.469812 0.770875
    outer loop
      vertex -132.461 216.749 53.7517
      vertex -131.727 217.036 53.9862
      vertex -131.943 217.282 53.7157
    endloop
  endfacet
  facet normal -0.404035 0.482878 0.776907
    outer loop
      vertex -131.496 217.126 54.0525
      vertex -127.799 220.231 54.0451
      vertex -128.047 220.553 53.7157
    endloop
  endfacet
  facet normal -0.148799 0.211972 0.965881
    outer loop
      vertex -126.241 219.022 54.8923
      vertex -122.642 221.555 54.8907
      vertex -122.916 221.98 54.7553
    endloop
  endfacet
  facet normal -0.0288778 0.0436555 0.998629
    outer loop
      vertex -122.077 220.683 55
      vertex -122.361 221.121 54.9726
      vertex -123.027 220.054 55
    endloop
  endfacet
  facet normal -0.00995658 0.0318665 0.999443
    outer loop
      vertex -122.361 221.121 54.9726
      vertex -123.045 220.049 55
      vertex -123.027 220.054 55
    endloop
  endfacet
  facet normal -0.102435 0.146117 0.98395
    outer loop
      vertex -126.241 219.022 54.8923
      vertex -124.963 219.444 54.9626
      vertex -122.642 221.555 54.8907
    endloop
  endfacet
  facet normal -0.0733532 0.114371 0.990726
    outer loop
      vertex -124.963 219.444 54.9626
      vertex -124.684 219.534 54.9729
      vertex -122.642 221.555 54.8907
    endloop
  endfacet
  facet normal -0.0882013 0.129251 0.987681
    outer loop
      vertex -122.642 221.555 54.8907
      vertex -124.684 219.534 54.9729
      vertex -122.361 221.121 54.9726
    endloop
  endfacet
  facet normal -0.0342564 0.0502948 0.998147
    outer loop
      vertex -124.684 219.534 54.9729
      vertex -123.236 219.99 54.9996
      vertex -122.361 221.121 54.9726
    endloop
  endfacet
  facet normal -0.0123971 0.0334211 0.999364
    outer loop
      vertex -122.361 221.121 54.9726
      vertex -123.236 219.99 54.9996
      vertex -123.045 220.049 55
    endloop
  endfacet
  facet normal -0.284427 0.353951 0.890966
    outer loop
      vertex -127.531 219.883 54.3301
      vertex -129.099 218.023 54.5686
      vertex -127.246 219.514 54.5677
    endloop
  endfacet
  facet normal -0.263847 0.328388 0.906943
    outer loop
      vertex -129.099 218.023 54.5686
      vertex -129.004 218.057 54.5838
      vertex -127.246 219.514 54.5677
    endloop
  endfacet
  facet normal -0.223597 0.280108 0.933565
    outer loop
      vertex -127.246 219.514 54.5677
      vertex -129.004 218.057 54.5838
      vertex -126.947 219.127 54.7553
    endloop
  endfacet
  facet normal -0.228657 0.290542 0.92914
    outer loop
      vertex -129.004 218.057 54.5838
      vertex -127.712 218.517 54.7578
      vertex -126.947 219.127 54.7553
    endloop
  endfacet
  facet normal -0.176842 0.225699 0.958012
    outer loop
      vertex -126.947 219.127 54.7553
      vertex -127.712 218.517 54.7578
      vertex -127.042 218.75 54.8268
    endloop
  endfacet
  facet normal -0.383105 0.458019 0.802153
    outer loop
      vertex -131.496 217.126 54.0525
      vertex -130.843 217.375 54.2216
      vertex -127.799 220.231 54.0451
    endloop
  endfacet
  facet normal -0.350548 0.425305 0.834405
    outer loop
      vertex -130.843 217.375 54.2216
      vertex -130.348 217.562 54.3344
      vertex -127.799 220.231 54.0451
    endloop
  endfacet
  facet normal -0.345674 0.4211 0.838561
    outer loop
      vertex -127.799 220.231 54.0451
      vertex -130.348 217.562 54.3344
      vertex -127.531 219.883 54.3301
    endloop
  endfacet
  facet normal -0.33755 0.411254 0.846717
    outer loop
      vertex -130.348 217.562 54.3344
      vertex -130.347 217.562 54.3348
      vertex -127.531 219.883 54.3301
    endloop
  endfacet
  facet normal -0.300088 0.365869 0.880958
    outer loop
      vertex -127.531 219.883 54.3301
      vertex -130.347 217.562 54.3348
      vertex -129.099 218.023 54.5686
    endloop
  endfacet
  facet normal -0.482527 0.516916 0.707082
    outer loop
      vertex -132.193 217.555 53.3457
      vertex -133.397 216.376 53.3864
      vertex -131.943 217.282 53.7157
    endloop
  endfacet
  facet normal -0.485641 0.524814 0.699087
    outer loop
      vertex -133.397 216.376 53.3864
      vertex -132.559 216.71 53.7173
      vertex -131.943 217.282 53.7157
    endloop
  endfacet
  facet normal -0.455383 0.49235 0.741766
    outer loop
      vertex -131.943 217.282 53.7157
      vertex -132.559 216.71 53.7173
      vertex -132.461 216.749 53.7517
    endloop
  endfacet
  facet normal -0.534103 0.56459 0.629263
    outer loop
      vertex -132.415 217.799 52.9389
      vertex -134.182 216.056 53.0026
      vertex -132.193 217.555 53.3457
    endloop
  endfacet
  facet normal -0.538926 0.573881 0.616619
    outer loop
      vertex -134.182 216.056 53.0026
      vertex -133.485 216.34 53.3474
      vertex -132.193 217.555 53.3457
    endloop
  endfacet
  facet normal -0.51385 0.547285 0.660635
    outer loop
      vertex -132.193 217.555 53.3457
      vertex -133.485 216.34 53.3474
      vertex -133.397 216.376 53.3864
    endloop
  endfacet
  facet normal -0.579541 0.606312 0.544535
    outer loop
      vertex -132.607 218.009 52.5
      vertex -134.833 215.787 52.6055
      vertex -132.415 217.799 52.9389
    endloop
  endfacet
  facet normal -0.583969 0.613843 0.531203
    outer loop
      vertex -134.833 215.787 52.6055
      vertex -134.291 216.011 52.9416
      vertex -132.415 217.799 52.9389
    endloop
  endfacet
  facet normal -0.563713 0.592644 0.575327
    outer loop
      vertex -132.415 217.799 52.9389
      vertex -134.291 216.011 52.9416
      vertex -134.182 216.056 53.0026
    endloop
  endfacet
  facet normal -0.618446 0.641527 0.453837
    outer loop
      vertex -132.767 218.185 52.0337
      vertex -135.368 215.562 52.196
      vertex -132.607 218.009 52.5
    endloop
  endfacet
  facet normal -0.621793 0.646826 0.441576
    outer loop
      vertex -135.368 215.562 52.196
      vertex -135.005 215.715 52.4841
      vertex -132.607 218.009 52.5
    endloop
  endfacet
  facet normal -0.606016 0.630032 0.485597
    outer loop
      vertex -132.607 218.009 52.5
      vertex -135.005 215.715 52.4841
      vertex -134.833 215.787 52.6055
    endloop
  endfacet
  facet normal -0.668 0.683567 0.294129
    outer loop
      vertex -135.988 215.299 51.5455
      vertex -135.925 215.326 51.6255
      vertex -132.893 218.323 51.5451
    endloop
  endfacet
  facet normal -0.659252 0.675679 0.329915
    outer loop
      vertex -135.925 215.326 51.6255
      vertex -135.673 215.433 51.9098
      vertex -132.893 218.323 51.5451
    endloop
  endfacet
  facet normal -0.649915 0.670274 0.35825
    outer loop
      vertex -132.893 218.323 51.5451
      vertex -135.673 215.433 51.9098
      vertex -132.767 218.185 52.0337
    endloop
  endfacet
  facet normal -0.647241 0.666962 0.369109
    outer loop
      vertex -135.673 215.433 51.9098
      vertex -135.545 215.488 52.0362
      vertex -132.767 218.185 52.0337
    endloop
  endfacet
  facet normal -0.638713 0.658206 0.398509
    outer loop
      vertex -132.767 218.185 52.0337
      vertex -135.545 215.488 52.0362
      vertex -135.368 215.562 52.196
    endloop
  endfacet
  facet normal -0.687574 0.700091 0.192653
    outer loop
      vertex -136.304 215.164 51.0399
      vertex -136.295 215.167 51.0569
      vertex -132.985 218.424 51.0396
    endloop
  endfacet
  facet normal -0.684246 0.696827 0.215035
    outer loop
      vertex -136.295 215.167 51.0569
      vertex -136.171 215.221 51.2792
      vertex -132.985 218.424 51.0396
    endloop
  endfacet
  facet normal -0.675051 0.690943 0.258658
    outer loop
      vertex -132.985 218.424 51.0396
      vertex -136.171 215.221 51.2792
      vertex -132.893 218.323 51.5451
    endloop
  endfacet
  facet normal -0.675368 0.69147 0.256414
    outer loop
      vertex -136.171 215.221 51.2792
      vertex -136.018 215.286 51.5053
      vertex -132.893 218.323 51.5451
    endloop
  endfacet
  facet normal -0.670502 0.686126 0.282237
    outer loop
      vertex -132.893 218.323 51.5451
      vertex -136.018 215.286 51.5053
      vertex -135.988 215.299 51.5455
    endloop
  endfacet
  facet normal -0.690286 0.702851 0.171772
    outer loop
      vertex -136.304 215.164 51.0399
      vertex -132.985 218.424 51.0396
      vertex -136.394 215.125 50.8372
    endloop
  endfacet
  facet normal -0.691602 0.705157 0.156336
    outer loop
      vertex -132.985 218.424 51.0396
      vertex -133.04 218.484 50.5226
      vertex -136.394 215.125 50.8372
    endloop
  endfacet
  facet normal -0.693773 0.706006 0.142249
    outer loop
      vertex -136.394 215.125 50.8372
      vertex -133.04 218.484 50.5226
      vertex -136.436 215.107 50.7213
    endloop
  endfacet
  facet normal -0.702079 0.712004 0.0116723
    outer loop
      vertex -133.058 218.504 50
      vertex -136.557 215.054 50
      vertex -136.553 215.056 50.1286
    endloop
  endfacet
  facet normal -0.700984 0.711992 0.0411045
    outer loop
      vertex -136.553 215.056 50.1286
      vertex -136.533 215.065 50.3241
      vertex -133.058 218.504 50
    endloop
  endfacet
  facet normal -0.697843 0.712154 0.0764971
    outer loop
      vertex -136.533 215.065 50.3241
      vertex -136.494 215.081 50.5212
      vertex -133.058 218.504 50
    endloop
  endfacet
  facet normal -0.7008 0.711438 0.0523015
    outer loop
      vertex -133.058 218.504 50
      vertex -136.494 215.081 50.5212
      vertex -133.04 218.484 50.5226
    endloop
  endfacet
  facet normal -0.698613 0.7092 0.0947346
    outer loop
      vertex -136.494 215.081 50.5212
      vertex -136.494 215.082 50.5227
      vertex -133.04 218.484 50.5226
    endloop
  endfacet
  facet normal -0.697228 0.707794 0.113583
    outer loop
      vertex -133.04 218.484 50.5226
      vertex -136.494 215.082 50.5227
      vertex -136.436 215.107 50.7213
    endloop
  endfacet
  facet normal -0.0409727 0.998541 0.035183
    outer loop
      vertex -90.5025 235.054 50
      vertex -95.412 234.853 50
      vertex -90.5159 235.041 50.3662
    endloop
  endfacet
  facet normal -0.0422237 0.997737 0.0523191
    outer loop
      vertex -95.412 234.853 50
      vertex -95.4098 234.825 50.5226
      vertex -90.5159 235.041 50.3662
    endloop
  endfacet
  facet normal -0.0410651 0.995493 0.0854829
    outer loop
      vertex -90.5159 235.041 50.3662
      vertex -95.4098 234.825 50.5226
      vertex -90.5299 235.027 50.523
    endloop
  endfacet
  facet normal -0.0409201 0.991917 0.120107
    outer loop
      vertex -90.5299 235.027 50.523
      vertex -95.4098 234.825 50.5226
      vertex -90.5555 235.001 50.7263
    endloop
  endfacet
  facet normal -0.042254 0.986804 0.156308
    outer loop
      vertex -95.4098 234.825 50.5226
      vertex -95.4033 234.744 51.0396
      vertex -90.5555 235.001 50.7263
    endloop
  endfacet
  facet normal -0.0412535 0.984586 0.169969
    outer loop
      vertex -90.5555 235.001 50.7263
      vertex -95.4033 234.744 51.0396
      vertex -90.6118 234.945 51.0398
    endloop
  endfacet
  facet normal -0.0423741 0.965033 0.258682
    outer loop
      vertex -95.3925 234.609 51.5451
      vertex -90.6754 234.881 51.3033
      vertex -95.4033 234.744 51.0396
    endloop
  endfacet
  facet normal -0.0409801 0.972352 0.229897
    outer loop
      vertex -90.6754 234.881 51.3033
      vertex -90.621 234.935 51.0821
      vertex -95.4033 234.744 51.0396
    endloop
  endfacet
  facet normal -0.0409807 0.978033 0.204382
    outer loop
      vertex -95.4033 234.744 51.0396
      vertex -90.621 234.935 51.0821
      vertex -90.6118 234.945 51.0398
    endloop
  endfacet
  facet normal -0.0417357 0.932726 0.358162
    outer loop
      vertex -95.3775 234.422 52.0337
      vertex -90.7986 234.757 51.6952
      vertex -95.3925 234.609 51.5451
    endloop
  endfacet
  facet normal -0.0407856 0.94879 0.313262
    outer loop
      vertex -90.7986 234.757 51.6952
      vertex -90.7476 234.808 51.5461
      vertex -95.3925 234.609 51.5451
    endloop
  endfacet
  facet normal -0.0412827 0.96057 0.274957
    outer loop
      vertex -95.3925 234.609 51.5451
      vertex -90.7476 234.808 51.5461
      vertex -90.6754 234.881 51.3033
    endloop
  endfacet
  facet normal -0.0403746 0.897225 0.439725
    outer loop
      vertex -91.1414 234.411 52.4455
      vertex -90.9535 234.601 52.0751
      vertex -95.3775 234.422 52.0337
    endloop
  endfacet
  facet normal -0.0407573 0.91624 0.398552
    outer loop
      vertex -90.9535 234.601 52.0751
      vertex -90.935 234.619 52.0342
      vertex -95.3775 234.422 52.0337
    endloop
  endfacet
  facet normal -0.041436 0.931604 0.361105
    outer loop
      vertex -95.3775 234.422 52.0337
      vertex -90.935 234.619 52.0342
      vertex -90.7986 234.757 51.6952
    endloop
  endfacet
  facet normal -0.048075 0.798374 0.600239
    outer loop
      vertex -91.4586 234.089 52.9405
      vertex -95.3586 234.185 52.5
      vertex -91.4586 234.089 52.9406
    endloop
  endfacet
  facet normal -0.0407983 0.837799 0.544452
    outer loop
      vertex -95.3586 234.185 52.5
      vertex -95.3359 233.901 52.9389
      vertex -91.4586 234.089 52.9406
    endloop
  endfacet
  facet normal -0.0387741 0.795466 0.604757
    outer loop
      vertex -91.4586 234.089 52.9406
      vertex -95.3359 233.901 52.9389
      vertex -91.6784 233.865 53.2212
    endloop
  endfacet
  facet normal -0.0430638 0.826063 0.56193
    outer loop
      vertex -91.4586 234.089 52.9405
      vertex -91.3743 234.174 52.821
      vertex -95.3586 234.185 52.5
    endloop
  endfacet
  facet normal -0.0396044 0.853314 0.519891
    outer loop
      vertex -91.3743 234.174 52.821
      vertex -91.1728 234.379 52.5008
      vertex -95.3586 234.185 52.5
    endloop
  endfacet
  facet normal -0.041297 0.890144 0.453804
    outer loop
      vertex -95.3586 234.185 52.5
      vertex -91.1728 234.379 52.5008
      vertex -95.3775 234.422 52.0337
    endloop
  endfacet
  facet normal 0.00980568 0.999944 0.00392227
    outer loop
      vertex -91.1728 234.379 52.5008
      vertex -91.1728 234.379 52.5008
      vertex -95.3775 234.422 52.0337
    endloop
  endfacet
  facet normal -0.0443316 0.876226 0.479856
    outer loop
      vertex -95.3775 234.422 52.0337
      vertex -91.1728 234.379 52.5008
      vertex -91.1414 234.411 52.4455
    endloop
  endfacet
  facet normal -0.0404156 0.697366 0.715575
    outer loop
      vertex -92.1104 233.422 53.6734
      vertex -92.0253 233.509 53.5929
      vertex -95.3096 233.573 53.3457
    endloop
  endfacet
  facet normal -0.0374709 0.72819 0.68435
    outer loop
      vertex -92.0253 233.509 53.5929
      vertex -91.7883 233.752 53.3473
      vertex -95.3096 233.573 53.3457
    endloop
  endfacet
  facet normal -0.0398972 0.776256 0.629154
    outer loop
      vertex -95.3096 233.573 53.3457
      vertex -91.7883 233.752 53.3473
      vertex -95.3359 233.901 52.9389
    endloop
  endfacet
  facet normal -0.0361995 0.795997 0.604218
    outer loop
      vertex -91.7883 233.752 53.3473
      vertex -91.7882 233.752 53.3472
      vertex -95.3359 233.901 52.9389
    endloop
  endfacet
  facet normal -0.042105 0.763972 0.643874
    outer loop
      vertex -95.3359 233.901 52.9389
      vertex -91.7882 233.752 53.3472
      vertex -91.6784 233.865 53.2212
    endloop
  endfacet
  facet normal -0.0363897 0.62836 0.777071
    outer loop
      vertex -95.2801 233.204 53.7157
      vertex -95.2477 232.798 54.0451
      vertex -92.5641 232.953 54.0455
    endloop
  endfacet
  facet normal -0.0412384 0.602295 0.797208
    outer loop
      vertex -92.5641 232.953 54.0455
      vertex -92.5366 232.982 54.0253
      vertex -95.2801 233.204 53.7157
    endloop
  endfacet
  facet normal -0.0348882 0.639752 0.767789
    outer loop
      vertex -92.5366 232.982 54.0253
      vertex -92.1577 233.373 53.7165
      vertex -95.2801 233.204 53.7157
    endloop
  endfacet
  facet normal -0.0384752 0.706173 0.706993
    outer loop
      vertex -95.2801 233.204 53.7157
      vertex -92.1577 233.373 53.7165
      vertex -95.3096 233.573 53.3457
    endloop
  endfacet
  facet normal -0.0468211 0.657687 0.751835
    outer loop
      vertex -92.1577 233.373 53.7165
      vertex -92.1577 233.373 53.7165
      vertex -95.3096 233.573 53.3457
    endloop
  endfacet
  facet normal -0.0421719 0.68521 0.727123
    outer loop
      vertex -95.3096 233.573 53.3457
      vertex -92.1577 233.373 53.7165
      vertex -92.1104 233.422 53.6734
    endloop
  endfacet
  facet normal -0.0297214 0.45305 0.89099
    outer loop
      vertex -95.2127 232.361 54.3301
      vertex -95.1755 231.896 54.5677
      vertex -93.4708 232.006 54.5686
    endloop
  endfacet
  facet normal -0.0297316 0.453012 0.891008
    outer loop
      vertex -93.4708 232.006 54.5686
      vertex -93.0662 232.431 54.3663
      vertex -95.2127 232.361 54.3301
    endloop
  endfacet
  facet normal -0.030819 0.499569 0.865726
    outer loop
      vertex -93.0662 232.431 54.3663
      vertex -93.0037 232.496 54.3308
      vertex -95.2127 232.361 54.3301
    endloop
  endfacet
  facet normal -0.0335081 0.543671 0.83863
    outer loop
      vertex -95.2127 232.361 54.3301
      vertex -93.0037 232.496 54.3308
      vertex -95.2477 232.798 54.0451
    endloop
  endfacet
  facet normal -0.0377276 0.52396 0.850907
    outer loop
      vertex -93.0037 232.496 54.3308
      vertex -93.0036 232.496 54.3307
      vertex -95.2477 232.798 54.0451
    endloop
  endfacet
  facet normal -0.0319288 0.550957 0.833922
    outer loop
      vertex -95.2477 232.798 54.0451
      vertex -93.0036 232.496 54.3307
      vertex -92.5641 232.953 54.0455
    endloop
  endfacet
  facet normal -0.0324059 0.338417 0.940438
    outer loop
      vertex -93.9594 231.489 54.7559
      vertex -93.7678 231.693 54.6894
      vertex -95.1755 231.896 54.5677
    endloop
  endfacet
  facet normal -0.0276409 0.365411 0.930436
    outer loop
      vertex -93.7678 231.693 54.6894
      vertex -93.6409 231.827 54.6405
      vertex -95.1755 231.896 54.5677
    endloop
  endfacet
  facet normal -0.0258596 0.393035 0.91916
    outer loop
      vertex -95.1755 231.896 54.5677
      vertex -93.6409 231.827 54.6405
      vertex -93.4708 232.006 54.5686
    endloop
  endfacet
  facet normal -0.0249622 0.35751 0.933576
    outer loop
      vertex -95.1755 231.896 54.5677
      vertex -95.1366 231.409 54.7553
      vertex -93.9594 231.489 54.7559
    endloop
  endfacet
  facet normal -0.0181846 0.258192 0.965922
    outer loop
      vertex -95.1366 231.409 54.7553
      vertex -95.0963 230.905 54.8907
      vertex -93.9594 231.489 54.7559
    endloop
  endfacet
  facet normal -0.0203562 0.26216 0.96481
    outer loop
      vertex -93.9594 231.489 54.7559
      vertex -95.0963 230.905 54.8907
      vertex -94.4536 230.962 54.8887
    endloop
  endfacet
  facet normal -0.0243767 0.0957702 0.995105
    outer loop
      vertex -95.1606 230.2 54.9883
      vertex -95.0486 230.321 54.9794
      vertex -95.0551 230.39 54.9726
    endloop
  endfacet
  facet normal -0.0078684 0.0973457 0.99522
    outer loop
      vertex -95.0486 230.321 54.9794
      vertex -94.9814 230.394 54.9728
      vertex -95.0551 230.39 54.9726
    endloop
  endfacet
  facet normal -0.0112598 0.156033 0.987688
    outer loop
      vertex -95.0551 230.39 54.9726
      vertex -94.9814 230.394 54.9728
      vertex -95.0963 230.905 54.8907
    endloop
  endfacet
  facet normal -0.0542861 0.146371 0.987739
    outer loop
      vertex -94.9814 230.394 54.9728
      vertex -94.981 230.394 54.9727
      vertex -95.0963 230.905 54.8907
    endloop
  endfacet
  facet normal -0.0108479 0.156169 0.987671
    outer loop
      vertex -95.0963 230.905 54.8907
      vertex -94.981 230.394 54.9727
      vertex -94.4536 230.962 54.8887
    endloop
  endfacet
  facet normal -0.0065425 0.0519647 0.998627
    outer loop
      vertex -99.7891 229.288 55
      vertex -95.5025 229.828 55
      vertex -99.8735 229.804 54.9726
    endloop
  endfacet
  facet normal -0.00630194 0.00647554 0.999959
    outer loop
      vertex -95.5025 229.828 55
      vertex -95.4929 229.838 55
      vertex -99.8735 229.804 54.9726
    endloop
  endfacet
  facet normal -0.4092 0.488178 0.770868
    outer loop
      vertex -131.727 217.036 53.9862
      vertex -131.496 217.126 54.0525
      vertex -131.943 217.282 53.7157
    endloop
  endfacet
  facet normal -0.409453 0.48775 0.771005
    outer loop
      vertex -131.496 217.126 54.0525
      vertex -128.047 220.553 53.7157
      vertex -131.943 217.282 53.7157
    endloop
  endfacet
  facet normal -0.454832 0.541807 0.706805
    outer loop
      vertex -131.943 217.282 53.7157
      vertex -128.047 220.553 53.7157
      vertex -132.193 217.555 53.3457
    endloop
  endfacet
  facet normal -0.454834 0.541809 0.706802
    outer loop
      vertex -128.047 220.553 53.7157
      vertex -128.273 220.846 53.3457
      vertex -132.193 217.555 53.3457
    endloop
  endfacet
  facet normal -0.499836 0.595417 0.629002
    outer loop
      vertex -132.193 217.555 53.3457
      vertex -128.273 220.846 53.3457
      vertex -132.415 217.799 52.9389
    endloop
  endfacet
  facet normal -0.499835 0.595416 0.629003
    outer loop
      vertex -128.273 220.846 53.3457
      vertex -128.474 221.106 52.9389
      vertex -132.415 217.799 52.9389
    endloop
  endfacet
  facet normal -0.539364 0.642504 0.544312
    outer loop
      vertex -132.415 217.799 52.9389
      vertex -128.474 221.106 52.9389
      vertex -132.607 218.009 52.5
    endloop
  endfacet
  facet normal -0.539365 0.642504 0.54431
    outer loop
      vertex -128.474 221.106 52.9389
      vertex -128.649 221.332 52.5
      vertex -132.607 218.009 52.5
    endloop
  endfacet
  facet normal -0.572983 0.682552 0.453667
    outer loop
      vertex -132.607 218.009 52.5
      vertex -128.649 221.332 52.5
      vertex -132.767 218.185 52.0337
    endloop
  endfacet
  facet normal -0.57298 0.682546 0.453678
    outer loop
      vertex -128.649 221.332 52.5
      vertex -128.794 221.52 52.0337
      vertex -132.767 218.185 52.0337
    endloop
  endfacet
  facet normal -0.60031 0.715102 0.358129
    outer loop
      vertex -132.767 218.185 52.0337
      vertex -128.794 221.52 52.0337
      vertex -132.893 218.323 51.5451
    endloop
  endfacet
  facet normal -0.600315 0.715112 0.358102
    outer loop
      vertex -128.794 221.52 52.0337
      vertex -128.908 221.669 51.5451
      vertex -132.893 218.323 51.5451
    endloop
  endfacet
  facet normal -0.621084 0.739853 0.258594
    outer loop
      vertex -132.893 218.323 51.5451
      vertex -128.908 221.669 51.5451
      vertex -132.985 218.424 51.0396
    endloop
  endfacet
  facet normal -0.621082 0.739847 0.258618
    outer loop
      vertex -128.908 221.669 51.5451
      vertex -128.991 221.776 51.0396
      vertex -132.985 218.424 51.0396
    endloop
  endfacet
  facet normal -0.635053 0.756489 0.156306
    outer loop
      vertex -132.985 218.424 51.0396
      vertex -128.991 221.776 51.0396
      vertex -133.04 218.484 50.5226
    endloop
  endfacet
  facet normal -0.635053 0.756487 0.156318
    outer loop
      vertex -128.991 221.776 51.0396
      vertex -129.041 221.841 50.5226
      vertex -133.04 218.484 50.5226
    endloop
  endfacet
  facet normal -0.0147775 0.0502556 0.998627
    outer loop
      vertex -109.116 226.958 55
      vertex -104.501 228.316 55
      vertex -109.284 227.453 54.9726
    endloop
  endfacet
  facet normal -0.0147774 0.0502552 0.998627
    outer loop
      vertex -104.501 228.316 55
      vertex -104.627 228.823 54.9726
      vertex -109.284 227.453 54.9726
    endloop
  endfacet
  facet normal -0.0441672 0.150204 0.987668
    outer loop
      vertex -109.284 227.453 54.9726
      vertex -104.627 228.823 54.9726
      vertex -109.45 227.943 54.8907
    endloop
  endfacet
  facet normal -0.0441679 0.150208 0.987667
    outer loop
      vertex -104.627 228.823 54.9726
      vertex -104.753 229.324 54.8907
      vertex -109.45 227.943 54.8907
    endloop
  endfacet
  facet normal -0.0730715 0.248504 0.965871
    outer loop
      vertex -109.45 227.943 54.8907
      vertex -104.753 229.324 54.8907
      vertex -109.613 228.421 54.7553
    endloop
  endfacet
  facet normal -0.0730706 0.248499 0.965872
    outer loop
      vertex -104.753 229.324 54.8907
      vertex -104.875 229.815 54.7553
      vertex -109.613 228.421 54.7553
    endloop
  endfacet
  facet normal -0.10117 0.34406 0.933481
    outer loop
      vertex -109.613 228.421 54.7553
      vertex -104.875 229.815 54.7553
      vertex -109.77 228.884 54.5677
    endloop
  endfacet
  facet normal -0.101171 0.344065 0.933479
    outer loop
      vertex -104.875 229.815 54.7553
      vertex -104.993 230.289 54.5677
      vertex -109.77 228.884 54.5677
    endloop
  endfacet
  facet normal -0.128161 0.435854 0.890846
    outer loop
      vertex -109.77 228.884 54.5677
      vertex -104.993 230.289 54.5677
      vertex -109.92 229.326 54.3301
    endloop
  endfacet
  facet normal -0.128161 0.435853 0.890846
    outer loop
      vertex -104.993 230.289 54.5677
      vertex -105.106 230.741 54.3301
      vertex -109.92 229.326 54.3301
    endloop
  endfacet
  facet normal -0.153736 0.522827 0.838461
    outer loop
      vertex -109.92 229.326 54.3301
      vertex -105.106 230.741 54.3301
      vertex -110.061 229.741 54.0451
    endloop
  endfacet
  facet normal -0.153736 0.522829 0.83846
    outer loop
      vertex -105.106 230.741 54.3301
      vertex -105.213 231.167 54.0451
      vertex -110.061 229.741 54.0451
    endloop
  endfacet
  facet normal -0.177623 0.604065 0.776888
    outer loop
      vertex -110.061 229.741 54.0451
      vertex -105.213 231.167 54.0451
      vertex -110.191 230.126 53.7157
    endloop
  endfacet
  facet normal -0.177623 0.604065 0.776888
    outer loop
      vertex -105.213 231.167 54.0451
      vertex -105.311 231.561 53.7157
      vertex -110.191 230.126 53.7157
    endloop
  endfacet
  facet normal -0.199563 0.678678 0.706804
    outer loop
      vertex -110.191 230.126 53.7157
      vertex -105.311 231.561 53.7157
      vertex -110.31 230.477 53.3457
    endloop
  endfacet
  facet normal -0.199562 0.678673 0.706808
    outer loop
      vertex -105.311 231.561 53.7157
      vertex -105.401 231.92 53.3457
      vertex -110.31 230.477 53.3457
    endloop
  endfacet
  facet normal -0.219311 0.745836 0.628992
    outer loop
      vertex -110.31 230.477 53.3457
      vertex -105.401 231.92 53.3457
      vertex -110.416 230.789 52.9389
    endloop
  endfacet
  facet normal -0.219311 0.745836 0.628992
    outer loop
      vertex -105.401 231.92 53.3457
      vertex -105.481 232.24 52.9389
      vertex -110.416 230.789 52.9389
    endloop
  endfacet
  facet normal -0.236652 0.804808 0.544315
    outer loop
      vertex -110.416 230.789 52.9389
      vertex -105.481 232.24 52.9389
      vertex -110.508 231.059 52.5
    endloop
  endfacet
  facet normal -0.236652 0.804809 0.544315
    outer loop
      vertex -105.481 232.24 52.9389
      vertex -105.55 232.517 52.5
      vertex -110.508 231.059 52.5
    endloop
  endfacet
  facet normal -0.251401 0.854967 0.453684
    outer loop
      vertex -110.508 231.059 52.5
      vertex -105.55 232.517 52.5
      vertex -110.584 231.284 52.0337
    endloop
  endfacet
  facet normal -0.251401 0.854965 0.453688
    outer loop
      vertex -105.55 232.517 52.5
      vertex -105.607 232.747 52.0337
      vertex -110.584 231.284 52.0337
    endloop
  endfacet
  facet normal -0.263396 0.895757 0.358108
    outer loop
      vertex -110.584 231.284 52.0337
      vertex -105.607 232.747 52.0337
      vertex -110.645 231.461 51.5451
    endloop
  endfacet
  facet normal -0.263396 0.895766 0.358087
    outer loop
      vertex -105.607 232.747 52.0337
      vertex -105.653 232.929 51.5451
      vertex -110.645 231.461 51.5451
    endloop
  endfacet
  facet normal -0.272505 0.926747 0.258614
    outer loop
      vertex -110.645 231.461 51.5451
      vertex -105.653 232.929 51.5451
      vertex -110.688 231.59 51.0396
    endloop
  endfacet
  facet normal -0.272506 0.926741 0.258633
    outer loop
      vertex -105.653 232.929 51.5451
      vertex -105.686 233.06 51.0396
      vertex -110.688 231.59 51.0396
    endloop
  endfacet
  facet normal -0.278637 0.947591 0.156312
    outer loop
      vertex -110.688 231.59 51.0396
      vertex -105.686 233.06 51.0396
      vertex -110.714 231.667 50.5226
    endloop
  endfacet
  facet normal -0.278635 0.947595 0.156288
    outer loop
      vertex -105.686 233.06 51.0396
      vertex -105.706 233.14 50.5226
      vertex -110.714 231.667 50.5226
    endloop
  endfacet
  facet normal -0.642078 0.764856 0.0522688
    outer loop
      vertex -129.041 221.841 50.5226
      vertex -129.058 221.862 50
      vertex -133.04 218.484 50.5226
    endloop
  endfacet
  facet normal -0.624262 0.762243 0.171122
    outer loop
      vertex -129.058 221.862 50
      vertex -131.909 219.527 50
      vertex -133.04 218.484 50.5226
    endloop
  endfacet
  facet normal -0.664051 0.745853 0.0523359
    outer loop
      vertex -133.04 218.484 50.5226
      vertex -131.909 219.527 50
      vertex -133.058 218.504 50
    endloop
  endfacet
  facet normal -0.558941 0.827556 0.052303
    outer loop
      vertex -124.794 224.88 50
      vertex -126.831 223.504 50
      vertex -124.779 224.857 50.5226
    endloop
  endfacet
  facet normal -0.570855 0.80663 0.15321
    outer loop
      vertex -126.831 223.504 50
      vertex -129.041 221.841 50.5226
      vertex -124.779 224.857 50.5226
    endloop
  endfacet
  facet normal -0.570574 0.806233 0.156311
    outer loop
      vertex -124.779 224.857 50.5226
      vertex -129.041 221.841 50.5226
      vertex -124.735 224.788 51.0396
    endloop
  endfacet
  facet normal -0.570574 0.806232 0.156316
    outer loop
      vertex -129.041 221.841 50.5226
      vertex -128.991 221.776 51.0396
      vertex -124.735 224.788 51.0396
    endloop
  endfacet
  facet normal -0.558021 0.788494 0.258633
    outer loop
      vertex -124.735 224.788 51.0396
      vertex -128.991 221.776 51.0396
      vertex -124.661 224.674 51.5451
    endloop
  endfacet
  facet normal -0.558021 0.788497 0.25862
    outer loop
      vertex -128.991 221.776 51.0396
      vertex -128.908 221.669 51.5451
      vertex -124.661 224.674 51.5451
    endloop
  endfacet
  facet normal -0.539365 0.762136 0.358098
    outer loop
      vertex -124.661 224.674 51.5451
      vertex -128.908 221.669 51.5451
      vertex -124.559 224.517 52.0337
    endloop
  endfacet
  facet normal -0.539365 0.762135 0.358101
    outer loop
      vertex -128.908 221.669 51.5451
      vertex -128.794 221.52 52.0337
      vertex -124.559 224.517 52.0337
    endloop
  endfacet
  facet normal -0.514801 0.727426 0.453686
    outer loop
      vertex -124.559 224.517 52.0337
      vertex -128.794 221.52 52.0337
      vertex -124.43 224.317 52.5
    endloop
  endfacet
  facet normal -0.514803 0.727429 0.45368
    outer loop
      vertex -128.794 221.52 52.0337
      vertex -128.649 221.332 52.5
      vertex -124.43 224.317 52.5
    endloop
  endfacet
  facet normal -0.484605 0.684759 0.544301
    outer loop
      vertex -124.43 224.317 52.5
      vertex -128.649 221.332 52.5
      vertex -124.275 224.078 52.9389
    endloop
  endfacet
  facet normal -0.484603 0.684754 0.544309
    outer loop
      vertex -128.649 221.332 52.5
      vertex -128.474 221.106 52.9389
      vertex -124.275 224.078 52.9389
    endloop
  endfacet
  facet normal -0.449088 0.634571 0.628999
    outer loop
      vertex -124.275 224.078 52.9389
      vertex -128.474 221.106 52.9389
      vertex -124.096 223.802 53.3457
    endloop
  endfacet
  facet normal -0.449086 0.634567 0.629004
    outer loop
      vertex -128.474 221.106 52.9389
      vertex -128.273 220.846 53.3457
      vertex -124.096 223.802 53.3457
    endloop
  endfacet
  facet normal -0.408654 0.577436 0.706803
    outer loop
      vertex -124.096 223.802 53.3457
      vertex -128.273 220.846 53.3457
      vertex -123.895 223.491 53.7157
    endloop
  endfacet
  facet normal -0.408654 0.577436 0.706802
    outer loop
      vertex -128.273 220.846 53.3457
      vertex -128.047 220.553 53.7157
      vertex -123.895 223.491 53.7157
    endloop
  endfacet
  facet normal -0.363724 0.513949 0.776892
    outer loop
      vertex -123.895 223.491 53.7157
      vertex -128.047 220.553 53.7157
      vertex -123.674 223.15 54.0451
    endloop
  endfacet
  facet normal -0.363727 0.513955 0.776886
    outer loop
      vertex -128.047 220.553 53.7157
      vertex -127.799 220.231 54.0451
      vertex -123.674 223.15 54.0451
    endloop
  endfacet
  facet normal -0.314815 0.444841 0.838455
    outer loop
      vertex -123.674 223.15 54.0451
      vertex -127.799 220.231 54.0451
      vertex -123.435 222.781 54.3301
    endloop
  endfacet
  facet normal -0.31481 0.444832 0.838463
    outer loop
      vertex -127.799 220.231 54.0451
      vertex -127.531 219.883 54.3301
      vertex -123.435 222.781 54.3301
    endloop
  endfacet
  facet normal -0.262437 0.370828 0.89085
    outer loop
      vertex -123.435 222.781 54.3301
      vertex -127.531 219.883 54.3301
      vertex -123.182 222.39 54.5677
    endloop
  endfacet
  facet normal -0.262441 0.370835 0.890845
    outer loop
      vertex -127.531 219.883 54.3301
      vertex -127.246 219.514 54.5677
      vertex -123.182 222.39 54.5677
    endloop
  endfacet
  facet normal -0.207172 0.292738 0.93348
    outer loop
      vertex -123.182 222.39 54.5677
      vertex -127.246 219.514 54.5677
      vertex -122.916 221.98 54.7553
    endloop
  endfacet
  facet normal -0.207172 0.292739 0.933479
    outer loop
      vertex -127.246 219.514 54.5677
      vertex -126.947 219.127 54.7553
      vertex -122.916 221.98 54.7553
    endloop
  endfacet
  facet normal -0.154371 0.21813 0.963633
    outer loop
      vertex -122.916 221.98 54.7553
      vertex -126.947 219.127 54.7553
      vertex -126.241 219.022 54.8923
    endloop
  endfacet
  facet normal -0.153851 0.220911 0.963083
    outer loop
      vertex -126.947 219.127 54.7553
      vertex -127.042 218.75 54.8268
      vertex -126.241 219.022 54.8923
    endloop
  endfacet
  facet normal -0.480397 0.87549 0.0523078
    outer loop
      vertex -120.297 227.536 50
      vertex -121.374 226.944 50
      vertex -120.284 227.511 50.5226
    endloop
  endfacet
  facet normal -0.504448 0.854275 0.125487
    outer loop
      vertex -121.374 226.944 50
      vertex -124.779 224.857 50.5226
      vertex -120.284 227.511 50.5226
    endloop
  endfacet
  facet normal -0.502217 0.850495 0.156321
    outer loop
      vertex -120.284 227.511 50.5226
      vertex -124.779 224.857 50.5226
      vertex -120.245 227.439 51.0396
    endloop
  endfacet
  facet normal -0.502217 0.850497 0.156311
    outer loop
      vertex -124.779 224.857 50.5226
      vertex -124.735 224.788 51.0396
      vertex -120.245 227.439 51.0396
    endloop
  endfacet
  facet normal -0.49117 0.83179 0.258607
    outer loop
      vertex -120.245 227.439 51.0396
      vertex -124.735 224.788 51.0396
      vertex -120.181 227.32 51.5451
    endloop
  endfacet
  facet normal -0.491169 0.831782 0.258633
    outer loop
      vertex -124.735 224.788 51.0396
      vertex -124.661 224.674 51.5451
      vertex -120.181 227.32 51.5451
    endloop
  endfacet
  facet normal -0.474747 0.803972 0.358113
    outer loop
      vertex -120.181 227.32 51.5451
      vertex -124.661 224.674 51.5451
      vertex -120.093 227.155 52.0337
    endloop
  endfacet
  facet normal -0.474748 0.803978 0.358098
    outer loop
      vertex -124.661 224.674 51.5451
      vertex -124.559 224.517 52.0337
      vertex -120.093 227.155 52.0337
    endloop
  endfacet
  facet normal -0.453131 0.767369 0.453671
    outer loop
      vertex -120.093 227.155 52.0337
      vertex -124.559 224.517 52.0337
      vertex -119.98 226.945 52.5
    endloop
  endfacet
  facet normal -0.453128 0.767362 0.453686
    outer loop
      vertex -124.559 224.517 52.0337
      vertex -124.43 224.317 52.5
      vertex -119.98 226.945 52.5
    endloop
  endfacet
  facet normal -0.426544 0.722341 0.54432
    outer loop
      vertex -119.98 226.945 52.5
      vertex -124.43 224.317 52.5
      vertex -119.846 226.694 52.9389
    endloop
  endfacet
  facet normal -0.426548 0.722353 0.544301
    outer loop
      vertex -124.43 224.317 52.5
      vertex -124.275 224.078 52.9389
      vertex -119.846 226.694 52.9389
    endloop
  endfacet
  facet normal -0.39529 0.669418 0.628987
    outer loop
      vertex -119.846 226.694 52.9389
      vertex -124.275 224.078 52.9389
      vertex -119.69 226.404 53.3457
    endloop
  endfacet
  facet normal -0.395287 0.669409 0.628999
    outer loop
      vertex -124.275 224.078 52.9389
      vertex -124.096 223.802 53.3457
      vertex -119.69 226.404 53.3457
    endloop
  endfacet
  facet normal -0.35969 0.609128 0.706814
    outer loop
      vertex -119.69 226.404 53.3457
      vertex -124.096 223.802 53.3457
      vertex -119.515 226.078 53.7157
    endloop
  endfacet
  facet normal -0.359695 0.609139 0.706803
    outer loop
      vertex -124.096 223.802 53.3457
      vertex -123.895 223.491 53.7157
      vertex -119.515 226.078 53.7157
    endloop
  endfacet
  facet normal -0.320154 0.542177 0.776882
    outer loop
      vertex -119.515 226.078 53.7157
      vertex -123.895 223.491 53.7157
      vertex -119.323 225.719 54.0451
    endloop
  endfacet
  facet normal -0.320149 0.542165 0.776892
    outer loop
      vertex -123.895 223.491 53.7157
      vertex -123.674 223.15 54.0451
      vertex -119.323 225.719 54.0451
    endloop
  endfacet
  facet normal -0.277095 0.469254 0.838462
    outer loop
      vertex -119.323 225.719 54.0451
      vertex -123.674 223.15 54.0451
      vertex -119.115 225.332 54.3301
    endloop
  endfacet
  facet normal -0.2771 0.469264 0.838455
    outer loop
      vertex -123.674 223.15 54.0451
      vertex -123.435 222.781 54.3301
      vertex -119.115 225.332 54.3301
    endloop
  endfacet
  facet normal -0.230996 0.391188 0.890849
    outer loop
      vertex -119.115 225.332 54.3301
      vertex -123.435 222.781 54.3301
      vertex -118.895 224.921 54.5677
    endloop
  endfacet
  facet normal -0.230995 0.391187 0.89085
    outer loop
      vertex -123.435 222.781 54.3301
      vertex -123.182 222.39 54.5677
      vertex -118.895 224.921 54.5677
    endloop
  endfacet
  facet normal -0.182353 0.308813 0.933479
    outer loop
      vertex -118.895 224.921 54.5677
      vertex -123.182 222.39 54.5677
      vertex -118.664 224.491 54.7553
    endloop
  endfacet
  facet normal -0.182352 0.30881 0.93348
    outer loop
      vertex -123.182 222.39 54.5677
      vertex -122.916 221.98 54.7553
      vertex -118.664 224.491 54.7553
    endloop
  endfacet
  facet normal -0.131706 0.223041 0.965871
    outer loop
      vertex -118.664 224.491 54.7553
      vertex -122.916 221.98 54.7553
      vertex -118.425 224.045 54.8907
    endloop
  endfacet
  facet normal -0.131704 0.223038 0.965872
    outer loop
      vertex -122.916 221.98 54.7553
      vertex -122.642 221.555 54.8907
      vertex -118.425 224.045 54.8907
    endloop
  endfacet
  facet normal -0.0796077 0.134814 0.987668
    outer loop
      vertex -118.425 224.045 54.8907
      vertex -122.642 221.555 54.8907
      vertex -118.181 223.59 54.9726
    endloop
  endfacet
  facet normal -0.0796075 0.134813 0.987668
    outer loop
      vertex -122.642 221.555 54.8907
      vertex -122.361 221.121 54.9726
      vertex -118.181 223.59 54.9726
    endloop
  endfacet
  facet normal -0.0266354 0.0451064 0.998627
    outer loop
      vertex -118.181 223.59 54.9726
      vertex -122.361 221.121 54.9726
      vertex -117.934 223.129 55
    endloop
  endfacet
  facet normal -0.0266358 0.0451072 0.998627
    outer loop
      vertex -122.361 221.121 54.9726
      vertex -122.077 220.683 55
      vertex -117.934 223.129 55
    endloop
  endfacet
  facet normal -0.0228289 0.0471473 0.998627
    outer loop
      vertex -117.934 223.129 55
      vertex -113.604 225.226 55
      vertex -118.181 223.59 54.9726
    endloop
  endfacet
  facet normal -0.022829 0.0471475 0.998627
    outer loop
      vertex -113.604 225.226 55
      vertex -113.812 225.705 54.9726
      vertex -118.181 223.59 54.9726
    endloop
  endfacet
  facet normal -0.0682309 0.140914 0.987668
    outer loop
      vertex -118.181 223.59 54.9726
      vertex -113.812 225.705 54.9726
      vertex -118.425 224.045 54.8907
    endloop
  endfacet
  facet normal -0.0682303 0.140912 0.987668
    outer loop
      vertex -113.812 225.705 54.9726
      vertex -114.018 226.179 54.8907
      vertex -118.425 224.045 54.8907
    endloop
  endfacet
  facet normal -0.112884 0.233132 0.965871
    outer loop
      vertex -118.425 224.045 54.8907
      vertex -114.018 226.179 54.8907
      vertex -118.664 224.491 54.7553
    endloop
  endfacet
  facet normal -0.112884 0.233132 0.965871
    outer loop
      vertex -114.018 226.179 54.8907
      vertex -114.22 226.643 54.7553
      vertex -118.664 224.491 54.7553
    endloop
  endfacet
  facet normal -0.156294 0.322785 0.933478
    outer loop
      vertex -118.664 224.491 54.7553
      vertex -114.22 226.643 54.7553
      vertex -118.895 224.921 54.5677
    endloop
  endfacet
  facet normal -0.156292 0.32278 0.933481
    outer loop
      vertex -114.22 226.643 54.7553
      vertex -114.414 227.091 54.5677
      vertex -118.895 224.921 54.5677
    endloop
  endfacet
  facet normal -0.197986 0.408887 0.89085
    outer loop
      vertex -118.895 224.921 54.5677
      vertex -114.414 227.091 54.5677
      vertex -119.115 225.332 54.3301
    endloop
  endfacet
  facet normal -0.197987 0.40889 0.890848
    outer loop
      vertex -114.414 227.091 54.5677
      vertex -114.6 227.519 54.3301
      vertex -119.115 225.332 54.3301
    endloop
  endfacet
  facet normal -0.237496 0.490486 0.838462
    outer loop
      vertex -119.115 225.332 54.3301
      vertex -114.6 227.519 54.3301
      vertex -119.323 225.719 54.0451
    endloop
  endfacet
  facet normal -0.237498 0.490492 0.838459
    outer loop
      vertex -114.6 227.519 54.3301
      vertex -114.775 227.921 54.0451
      vertex -119.323 225.719 54.0451
    endloop
  endfacet
  facet normal -0.274402 0.566708 0.776882
    outer loop
      vertex -119.323 225.719 54.0451
      vertex -114.775 227.921 54.0451
      vertex -119.515 226.078 53.7157
    endloop
  endfacet
  facet normal -0.274401 0.566705 0.776884
    outer loop
      vertex -114.775 227.921 54.0451
      vertex -114.937 228.294 53.7157
      vertex -119.515 226.078 53.7157
    endloop
  endfacet
  facet normal -0.308287 0.636688 0.706815
    outer loop
      vertex -119.515 226.078 53.7157
      vertex -114.937 228.294 53.7157
      vertex -119.69 226.404 53.3457
    endloop
  endfacet
  facet normal -0.308289 0.636693 0.70681
    outer loop
      vertex -114.937 228.294 53.7157
      vertex -115.084 228.634 53.3457
      vertex -119.69 226.404 53.3457
    endloop
  endfacet
  facet normal -0.3388 0.699707 0.628987
    outer loop
      vertex -119.69 226.404 53.3457
      vertex -115.084 228.634 53.3457
      vertex -119.846 226.694 52.9389
    endloop
  endfacet
  facet normal -0.338797 0.699696 0.629001
    outer loop
      vertex -115.084 228.634 53.3457
      vertex -115.215 228.936 52.9389
      vertex -119.846 226.694 52.9389
    endloop
  endfacet
  facet normal -0.365587 0.755024 0.54432
    outer loop
      vertex -119.846 226.694 52.9389
      vertex -115.215 228.936 52.9389
      vertex -119.98 226.945 52.5
    endloop
  endfacet
  facet normal -0.365592 0.755039 0.544296
    outer loop
      vertex -115.215 228.936 52.9389
      vertex -115.329 229.197 52.5
      vertex -119.98 226.945 52.5
    endloop
  endfacet
  facet normal -0.388374 0.80209 0.453671
    outer loop
      vertex -119.98 226.945 52.5
      vertex -115.329 229.197 52.5
      vertex -120.093 227.155 52.0337
    endloop
  endfacet
  facet normal -0.388371 0.802078 0.453695
    outer loop
      vertex -115.329 229.197 52.5
      vertex -115.424 229.415 52.0337
      vertex -120.093 227.155 52.0337
    endloop
  endfacet
  facet normal -0.406902 0.840349 0.358113
    outer loop
      vertex -120.093 227.155 52.0337
      vertex -115.424 229.415 52.0337
      vertex -120.181 227.32 51.5451
    endloop
  endfacet
  facet normal -0.406903 0.840353 0.358102
    outer loop
      vertex -115.424 229.415 52.0337
      vertex -115.498 229.587 51.5451
      vertex -120.181 227.32 51.5451
    endloop
  endfacet
  facet normal -0.420979 0.869425 0.258606
    outer loop
      vertex -120.181 227.32 51.5451
      vertex -115.498 229.587 51.5451
      vertex -120.245 227.439 51.0396
    endloop
  endfacet
  facet normal -0.420979 0.869422 0.258616
    outer loop
      vertex -115.498 229.587 51.5451
      vertex -115.552 229.712 51.0396
      vertex -120.245 227.439 51.0396
    endloop
  endfacet
  facet normal -0.430447 0.888976 0.156323
    outer loop
      vertex -120.245 227.439 51.0396
      vertex -115.552 229.712 51.0396
      vertex -120.284 227.511 50.5226
    endloop
  endfacet
  facet normal -0.430447 0.888978 0.156315
    outer loop
      vertex -115.552 229.712 51.0396
      vertex -115.585 229.787 50.5226
      vertex -120.284 227.511 50.5226
    endloop
  endfacet
  facet normal -0.435209 0.898811 0.0522653
    outer loop
      vertex -120.284 227.511 50.5226
      vertex -115.585 229.787 50.5226
      vertex -120.297 227.536 50
    endloop
  endfacet
  facet normal -0.43521 0.898809 0.0522885
    outer loop
      vertex -115.585 229.787 50.5226
      vertex -115.596 229.812 50
      vertex -120.297 227.536 50
    endloop
  endfacet
  facet normal -0.0188674 0.0488679 0.998627
    outer loop
      vertex -113.604 225.226 55
      vertex -109.116 226.958 55
      vertex -113.812 225.705 54.9726
    endloop
  endfacet
  facet normal -0.0188673 0.0488675 0.998627
    outer loop
      vertex -109.116 226.958 55
      vertex -109.284 227.453 54.9726
      vertex -113.812 225.705 54.9726
    endloop
  endfacet
  facet normal -0.0563902 0.146054 0.987668
    outer loop
      vertex -113.812 225.705 54.9726
      vertex -109.284 227.453 54.9726
      vertex -114.018 226.179 54.8907
    endloop
  endfacet
  facet normal -0.0563905 0.146055 0.987668
    outer loop
      vertex -109.284 227.453 54.9726
      vertex -109.45 227.943 54.8907
      vertex -114.018 226.179 54.8907
    endloop
  endfacet
  facet normal -0.0932945 0.241639 0.965871
    outer loop
      vertex -114.018 226.179 54.8907
      vertex -109.45 227.943 54.8907
      vertex -114.22 226.643 54.7553
    endloop
  endfacet
  facet normal -0.0932947 0.24164 0.965871
    outer loop
      vertex -109.45 227.943 54.8907
      vertex -109.613 228.421 54.7553
      vertex -114.22 226.643 54.7553
    endloop
  endfacet
  facet normal -0.12917 0.334558 0.933481
    outer loop
      vertex -114.22 226.643 54.7553
      vertex -109.613 228.421 54.7553
      vertex -114.414 227.091 54.5677
    endloop
  endfacet
  facet normal -0.129169 0.334557 0.933481
    outer loop
      vertex -109.613 228.421 54.7553
      vertex -109.77 228.884 54.5677
      vertex -114.414 227.091 54.5677
    endloop
  endfacet
  facet normal -0.163629 0.423811 0.890848
    outer loop
      vertex -114.414 227.091 54.5677
      vertex -109.77 228.884 54.5677
      vertex -114.6 227.519 54.3301
    endloop
  endfacet
  facet normal -0.16363 0.423814 0.890846
    outer loop
      vertex -109.77 228.884 54.5677
      vertex -109.92 229.326 54.3301
      vertex -114.6 227.519 54.3301
    endloop
  endfacet
  facet normal -0.196284 0.50839 0.838459
    outer loop
      vertex -114.6 227.519 54.3301
      vertex -109.92 229.326 54.3301
      vertex -114.775 227.921 54.0451
    endloop
  endfacet
  facet normal -0.196283 0.508386 0.838461
    outer loop
      vertex -109.92 229.326 54.3301
      vertex -110.061 229.741 54.0451
      vertex -114.775 227.921 54.0451
    endloop
  endfacet
  facet normal -0.226783 0.587385 0.776884
    outer loop
      vertex -114.775 227.921 54.0451
      vertex -110.061 229.741 54.0451
      vertex -114.937 228.294 53.7157
    endloop
  endfacet
  facet normal -0.226782 0.587379 0.776888
    outer loop
      vertex -110.061 229.741 54.0451
      vertex -110.191 230.126 53.7157
      vertex -114.937 228.294 53.7157
    endloop
  endfacet
  facet normal -0.254792 0.659925 0.70681
    outer loop
      vertex -114.937 228.294 53.7157
      vertex -110.191 230.126 53.7157
      vertex -115.084 228.634 53.3457
    endloop
  endfacet
  facet normal -0.254793 0.659931 0.706804
    outer loop
      vertex -110.191 230.126 53.7157
      vertex -110.31 230.477 53.3457
      vertex -115.084 228.634 53.3457
    endloop
  endfacet
  facet normal -0.280004 0.725228 0.629001
    outer loop
      vertex -115.084 228.634 53.3457
      vertex -110.31 230.477 53.3457
      vertex -115.215 228.936 52.9389
    endloop
  endfacet
  facet normal -0.280005 0.725235 0.628992
    outer loop
      vertex -110.31 230.477 53.3457
      vertex -110.416 230.789 52.9389
      vertex -115.215 228.936 52.9389
    endloop
  endfacet
  facet normal -0.302149 0.782591 0.544296
    outer loop
      vertex -115.215 228.936 52.9389
      vertex -110.416 230.789 52.9389
      vertex -115.329 229.197 52.5
    endloop
  endfacet
  facet normal -0.302147 0.782578 0.544316
    outer loop
      vertex -110.416 230.789 52.9389
      vertex -110.508 231.059 52.5
      vertex -115.329 229.197 52.5
    endloop
  endfacet
  facet normal -0.320976 0.831346 0.453695
    outer loop
      vertex -115.329 229.197 52.5
      vertex -110.508 231.059 52.5
      vertex -115.424 229.415 52.0337
    endloop
  endfacet
  facet normal -0.320977 0.831351 0.453684
    outer loop
      vertex -110.508 231.059 52.5
      vertex -110.584 231.284 52.0337
      vertex -115.424 229.415 52.0337
    endloop
  endfacet
  facet normal -0.336291 0.871017 0.358102
    outer loop
      vertex -115.424 229.415 52.0337
      vertex -110.584 231.284 52.0337
      vertex -115.498 229.587 51.5451
    endloop
  endfacet
  facet normal -0.336291 0.871015 0.358108
    outer loop
      vertex -110.584 231.284 52.0337
      vertex -110.645 231.461 51.5451
      vertex -115.498 229.587 51.5451
    endloop
  endfacet
  facet normal -0.347925 0.901147 0.258616
    outer loop
      vertex -115.498 229.587 51.5451
      vertex -110.645 231.461 51.5451
      vertex -115.552 229.712 51.0396
    endloop
  endfacet
  facet normal -0.347925 0.901148 0.258614
    outer loop
      vertex -110.645 231.461 51.5451
      vertex -110.688 231.59 51.0396
      vertex -115.552 229.712 51.0396
    endloop
  endfacet
  facet normal -0.35575 0.921416 0.156315
    outer loop
      vertex -115.552 229.712 51.0396
      vertex -110.688 231.59 51.0396
      vertex -115.585 229.787 50.5226
    endloop
  endfacet
  facet normal -0.35575 0.921417 0.156312
    outer loop
      vertex -110.688 231.59 51.0396
      vertex -110.714 231.667 50.5226
      vertex -115.585 229.787 50.5226
    endloop
  endfacet
  facet normal -0.359685 0.931608 0.0522889
    outer loop
      vertex -115.585 229.787 50.5226
      vertex -110.714 231.667 50.5226
      vertex -115.596 229.812 50
    endloop
  endfacet
  facet normal -0.359684 0.931609 0.0522772
    outer loop
      vertex -110.714 231.667 50.5226
      vertex -110.723 231.693 50
      vertex -115.596 229.812 50
    endloop
  endfacet
  facet normal -0.281716 0.958072 0.0522822
    outer loop
      vertex -105.706 233.14 50.5226
      vertex -105.712 233.166 50
      vertex -110.714 231.667 50.5226
    endloop
  endfacet
  facet normal -0.269798 0.951537 0.147603
    outer loop
      vertex -105.712 233.166 50
      vertex -109.556 232.077 50
      vertex -110.714 231.667 50.5226
    endloop
  endfacet
  facet normal -0.311786 0.948711 0.0523186
    outer loop
      vertex -110.714 231.667 50.5226
      vertex -109.556 232.077 50
      vertex -110.723 231.693 50
    endloop
  endfacet
  facet normal -0.0105871 0.0513017 0.998627
    outer loop
      vertex -104.501 228.316 55
      vertex -99.7891 229.288 55
      vertex -104.627 228.823 54.9726
    endloop
  endfacet
  facet normal -0.0105872 0.0513025 0.998627
    outer loop
      vertex -99.7891 229.288 55
      vertex -99.8735 229.804 54.9726
      vertex -104.627 228.823 54.9726
    endloop
  endfacet
  facet normal -0.0316436 0.153336 0.987667
    outer loop
      vertex -104.627 228.823 54.9726
      vertex -99.8735 229.804 54.9726
      vertex -104.753 229.324 54.8907
    endloop
  endfacet
  facet normal -0.0316432 0.153331 0.987668
    outer loop
      vertex -99.8735 229.804 54.9726
      vertex -99.957 230.314 54.8907
      vertex -104.753 229.324 54.8907
    endloop
  endfacet
  facet normal -0.052351 0.253674 0.965872
    outer loop
      vertex -104.753 229.324 54.8907
      vertex -99.957 230.314 54.8907
      vertex -104.875 229.815 54.7553
    endloop
  endfacet
  facet normal -0.0523519 0.253683 0.96587
    outer loop
      vertex -99.957 230.314 54.8907
      vertex -100.039 230.813 54.7553
      vertex -104.875 229.815 54.7553
    endloop
  endfacet
  facet normal -0.0724824 0.35123 0.933479
    outer loop
      vertex -104.875 229.815 54.7553
      vertex -100.039 230.813 54.7553
      vertex -104.993 230.289 54.5677
    endloop
  endfacet
  facet normal -0.0724819 0.351225 0.933481
    outer loop
      vertex -100.039 230.813 54.7553
      vertex -100.118 231.295 54.5677
      vertex -104.993 230.289 54.5677
    endloop
  endfacet
  facet normal -0.0918196 0.444929 0.890846
    outer loop
      vertex -104.993 230.289 54.5677
      vertex -100.118 231.295 54.5677
      vertex -105.106 230.741 54.3301
    endloop
  endfacet
  facet normal -0.0918191 0.444924 0.890849
    outer loop
      vertex -100.118 231.295 54.5677
      vertex -100.193 231.755 54.3301
      vertex -105.106 230.741 54.3301
    endloop
  endfacet
  facet normal -0.110143 0.533716 0.83846
    outer loop
      vertex -105.106 230.741 54.3301
      vertex -100.193 231.755 54.3301
      vertex -105.213 231.167 54.0451
    endloop
  endfacet
  facet normal -0.110143 0.533714 0.838461
    outer loop
      vertex -100.193 231.755 54.3301
      vertex -100.264 232.188 54.0451
      vertex -105.213 231.167 54.0451
    endloop
  endfacet
  facet normal -0.127257 0.616644 0.776889
    outer loop
      vertex -105.213 231.167 54.0451
      vertex -100.264 232.188 54.0451
      vertex -105.311 231.561 53.7157
    endloop
  endfacet
  facet normal -0.127258 0.616654 0.776881
    outer loop
      vertex -100.264 232.188 54.0451
      vertex -100.33 232.59 53.7157
      vertex -105.311 231.561 53.7157
    endloop
  endfacet
  facet normal -0.142974 0.692806 0.706808
    outer loop
      vertex -105.311 231.561 53.7157
      vertex -100.33 232.59 53.7157
      vertex -105.401 231.92 53.3457
    endloop
  endfacet
  facet normal -0.142973 0.692805 0.70681
    outer loop
      vertex -100.33 232.59 53.7157
      vertex -100.389 232.955 53.3457
      vertex -105.401 231.92 53.3457
    endloop
  endfacet
  facet normal -0.157123 0.761368 0.628992
    outer loop
      vertex -105.401 231.92 53.3457
      vertex -100.389 232.955 53.3457
      vertex -105.481 232.24 52.9389
    endloop
  endfacet
  facet normal -0.157123 0.761373 0.628986
    outer loop
      vertex -100.389 232.955 53.3457
      vertex -100.443 233.28 52.9389
      vertex -105.481 232.24 52.9389
    endloop
  endfacet
  facet normal -0.169546 0.821569 0.544315
    outer loop
      vertex -105.481 232.24 52.9389
      vertex -100.443 233.28 52.9389
      vertex -105.55 232.517 52.5
    endloop
  endfacet
  facet normal -0.169546 0.821566 0.54432
    outer loop
      vertex -100.443 233.28 52.9389
      vertex -100.489 233.561 52.5
      vertex -105.55 232.517 52.5
    endloop
  endfacet
  facet normal -0.180112 0.87277 0.453688
    outer loop
      vertex -105.55 232.517 52.5
      vertex -100.489 233.561 52.5
      vertex -105.607 232.747 52.0337
    endloop
  endfacet
  facet normal -0.180113 0.872767 0.453692
    outer loop
      vertex -100.489 233.561 52.5
      vertex -100.527 233.796 52.0337
      vertex -105.607 232.747 52.0337
    endloop
  endfacet
  facet normal -0.188708 0.914419 0.358088
    outer loop
      vertex -105.607 232.747 52.0337
      vertex -100.527 233.796 52.0337
      vertex -105.653 232.929 51.5451
    endloop
  endfacet
  facet normal -0.188708 0.914416 0.358096
    outer loop
      vertex -100.527 233.796 52.0337
      vertex -100.557 233.981 51.5451
      vertex -105.653 232.929 51.5451
    endloop
  endfacet
  facet normal -0.195235 0.94604 0.258633
    outer loop
      vertex -105.653 232.929 51.5451
      vertex -100.557 233.981 51.5451
      vertex -105.686 233.06 51.0396
    endloop
  endfacet
  facet normal -0.195234 0.946044 0.25862
    outer loop
      vertex -100.557 233.981 51.5451
      vertex -100.579 234.114 51.0396
      vertex -105.686 233.06 51.0396
    endloop
  endfacet
  facet normal -0.199626 0.967328 0.156288
    outer loop
      vertex -105.686 233.06 51.0396
      vertex -100.579 234.114 51.0396
      vertex -105.706 233.14 50.5226
    endloop
  endfacet
  facet normal -0.199627 0.967326 0.156301
    outer loop
      vertex -100.579 234.114 51.0396
      vertex -100.592 234.195 50.5226
      vertex -105.706 233.14 50.5226
    endloop
  endfacet
  facet normal -0.199726 0.967802 0.153197
    outer loop
      vertex -105.706 233.14 50.5226
      vertex -100.592 234.195 50.5226
      vertex -103.317 233.716 50
    endloop
  endfacet
  facet normal -0.182831 0.981751 0.0523236
    outer loop
      vertex -100.592 234.195 50.5226
      vertex -100.597 234.222 50
      vertex -103.317 233.716 50
    endloop
  endfacet
  facet normal -0.091697 0.99441 0.0523518
    outer loop
      vertex -95.412 234.853 50
      vertex -96.9439 234.712 50
      vertex -95.4098 234.825 50.5226
    endloop
  endfacet
  facet normal -0.119609 0.983366 0.13669
    outer loop
      vertex -96.9439 234.712 50
      vertex -100.592 234.195 50.5226
      vertex -95.4098 234.825 50.5226
    endloop
  endfacet
  facet normal -0.119259 0.980486 0.156283
    outer loop
      vertex -95.4098 234.825 50.5226
      vertex -100.592 234.195 50.5226
      vertex -95.4033 234.744 51.0396
    endloop
  endfacet
  facet normal -0.11926 0.980483 0.156302
    outer loop
      vertex -100.592 234.195 50.5226
      vertex -100.579 234.114 51.0396
      vertex -95.4033 234.744 51.0396
    endloop
  endfacet
  facet normal -0.116636 0.958908 0.258633
    outer loop
      vertex -95.4033 234.744 51.0396
      vertex -100.579 234.114 51.0396
      vertex -95.3925 234.609 51.5451
    endloop
  endfacet
  facet normal -0.116635 0.958912 0.25862
    outer loop
      vertex -100.579 234.114 51.0396
      vertex -100.557 233.981 51.5451
      vertex -95.3925 234.609 51.5451
    endloop
  endfacet
  facet normal -0.112736 0.926856 0.358089
    outer loop
      vertex -95.3925 234.609 51.5451
      vertex -100.557 233.981 51.5451
      vertex -95.3775 234.422 52.0337
    endloop
  endfacet
  facet normal -0.112737 0.926854 0.358096
    outer loop
      vertex -100.557 233.981 51.5451
      vertex -100.527 233.796 52.0337
      vertex -95.3775 234.422 52.0337
    endloop
  endfacet
  facet normal -0.107601 0.884635 0.453698
    outer loop
      vertex -95.3775 234.422 52.0337
      vertex -100.527 233.796 52.0337
      vertex -95.3586 234.185 52.5
    endloop
  endfacet
  facet normal -0.107601 0.884638 0.453692
    outer loop
      vertex -100.527 233.796 52.0337
      vertex -100.489 233.561 52.5
      vertex -95.3586 234.185 52.5
    endloop
  endfacet
  facet normal -0.101289 0.832745 0.544312
    outer loop
      vertex -95.3586 234.185 52.5
      vertex -100.489 233.561 52.5
      vertex -95.3359 233.901 52.9389
    endloop
  endfacet
  facet normal -0.101289 0.83274 0.54432
    outer loop
      vertex -100.489 233.561 52.5
      vertex -100.443 233.28 52.9389
      vertex -95.3359 233.901 52.9389
    endloop
  endfacet
  facet normal -0.0938686 0.77173 0.628985
    outer loop
      vertex -95.3359 233.901 52.9389
      vertex -100.443 233.28 52.9389
      vertex -95.3096 233.573 53.3457
    endloop
  endfacet
  facet normal -0.0938686 0.771729 0.628986
    outer loop
      vertex -100.443 233.28 52.9389
      vertex -100.389 232.955 53.3457
      vertex -95.3096 233.573 53.3457
    endloop
  endfacet
  facet normal -0.0854153 0.702232 0.706806
    outer loop
      vertex -95.3096 233.573 53.3457
      vertex -100.389 232.955 53.3457
      vertex -95.2801 233.204 53.7157
    endloop
  endfacet
  facet normal -0.0854154 0.702228 0.70681
    outer loop
      vertex -100.389 232.955 53.3457
      vertex -100.33 232.59 53.7157
      vertex -95.2801 233.204 53.7157
    endloop
  endfacet
  facet normal -0.0760264 0.625038 0.776884
    outer loop
      vertex -95.2801 233.204 53.7157
      vertex -100.33 232.59 53.7157
      vertex -95.2477 232.798 54.0451
    endloop
  endfacet
  facet normal -0.0760264 0.625041 0.776881
    outer loop
      vertex -100.33 232.59 53.7157
      vertex -100.264 232.188 54.0451
      vertex -95.2477 232.798 54.0451
    endloop
  endfacet
  facet normal -0.0658013 0.540977 0.838459
    outer loop
      vertex -95.2477 232.798 54.0451
      vertex -100.264 232.188 54.0451
      vertex -95.2127 232.361 54.3301
    endloop
  endfacet
  facet normal -0.0658013 0.540974 0.838461
    outer loop
      vertex -100.264 232.188 54.0451
      vertex -100.193 231.755 54.3301
      vertex -95.2127 232.361 54.3301
    endloop
  endfacet
  facet normal -0.0548537 0.45097 0.890852
    outer loop
      vertex -95.2127 232.361 54.3301
      vertex -100.193 231.755 54.3301
      vertex -95.1755 231.896 54.5677
    endloop
  endfacet
  facet normal -0.0548537 0.450975 0.890849
    outer loop
      vertex -100.193 231.755 54.3301
      vertex -100.118 231.295 54.5677
      vertex -95.1755 231.896 54.5677
    endloop
  endfacet
  facet normal -0.0433022 0.356006 0.93348
    outer loop
      vertex -95.1755 231.896 54.5677
      vertex -100.118 231.295 54.5677
      vertex -95.1366 231.409 54.7553
    endloop
  endfacet
  facet normal -0.0433022 0.356002 0.933481
    outer loop
      vertex -100.118 231.295 54.5677
      vertex -100.039 230.813 54.7553
      vertex -95.1366 231.409 54.7553
    endloop
  endfacet
  facet normal -0.0312761 0.257131 0.96587
    outer loop
      vertex -95.1366 231.409 54.7553
      vertex -100.039 230.813 54.7553
      vertex -95.0963 230.905 54.8907
    endloop
  endfacet
  facet normal -0.0312761 0.257133 0.96587
    outer loop
      vertex -100.039 230.813 54.7553
      vertex -99.957 230.314 54.8907
      vertex -95.0963 230.905 54.8907
    endloop
  endfacet
  facet normal -0.0189042 0.155419 0.987668
    outer loop
      vertex -95.0963 230.905 54.8907
      vertex -99.957 230.314 54.8907
      vertex -95.0551 230.39 54.9726
    endloop
  endfacet
  facet normal -0.0189041 0.155417 0.987668
    outer loop
      vertex -99.957 230.314 54.8907
      vertex -99.8735 229.804 54.9726
      vertex -95.0551 230.39 54.9726
    endloop
  endfacet
  facet normal -0.0107363 0.0882665 0.996039
    outer loop
      vertex -95.0551 230.39 54.9726
      vertex -99.8735 229.804 54.9726
      vertex -95.1606 230.2 54.9883
    endloop
  endfacet
  facet normal -0.00654734 0.038315 0.999244
    outer loop
      vertex -99.8735 229.804 54.9726
      vertex -95.4929 229.838 55
      vertex -95.1606 230.2 54.9883
    endloop
  endfacet
endsolid Onshape
