solid Onshape
  facet normal 0 0.999657 0.0261854
    outer loop
      vertex -90.5094 125.047 50.2617
      vertex -90.5025 125.054 50
      vertex -136.557 125.054 50
    endloop
  endfacet
  facet normal 3.57927e-5 0.991444 0.130533
    outer loop
      vertex -90.5641 124.993 50.7822
      vertex -90.5299 125.027 50.5226
      vertex -136.466 125.015 50.6251
    endloop
  endfacet
  facet normal -1.61545e-5 0.454007 0.890998
    outer loop
      vertex -129.077 122.078 54.5721
      vertex -93.4688 122.088 54.5677
      vertex -93.0025 122.554 54.3301
    endloop
  endfacet
  facet normal 0.000800086 0.00953888 0.999954
    outer loop
      vertex -123.236 120.118 54.9996
      vertex -123.045 120.06 55
      vertex -94.9799 120.577 54.9726
    endloop
  endfacet
  facet normal 0.000908827 0.00363917 0.999993
    outer loop
      vertex -123.045 120.06 55
      vertex -123.027 120.054 55
      vertex -94.9799 120.577 54.9726
    endloop
  endfacet
  facet normal 0 0.0523388 0.998629
    outer loop
      vertex -94.9799 120.577 54.9726
      vertex -123.027 120.054 55
      vertex -95.5025 120.054 55
    endloop
  endfacet
  facet normal -6.66947e-7 0.212428 0.977177
    outer loop
      vertex -94.4629 121.094 54.8907
      vertex -126.25 121.09 54.8916
      vertex -126.249 121.089 54.8917
    endloop
  endfacet
  facet normal 1.44174e-6 0.198448 0.980111
    outer loop
      vertex -126.249 121.089 54.8917
      vertex -125.994 121.004 54.909
      vertex -94.4629 121.094 54.8907
    endloop
  endfacet
  facet normal 0.000125554 0.156475 0.987682
    outer loop
      vertex -125.994 121.004 54.909
      vertex -124.963 120.665 54.9626
      vertex -94.4629 121.094 54.8907
    endloop
  endfacet
  facet normal 0.000127955 0.156309 0.987708
    outer loop
      vertex -94.4629 121.094 54.8907
      vertex -124.963 120.665 54.9626
      vertex -94.9799 120.577 54.9726
    endloop
  endfacet
  facet normal -5.56922e-7 0.113102 0.993583
    outer loop
      vertex -124.963 120.665 54.9626
      vertex -124.685 120.575 54.9728
      vertex -94.9799 120.577 54.9726
    endloop
  endfacet
  facet normal 3.17124e-6 0.0585458 0.998285
    outer loop
      vertex -94.9799 120.577 54.9726
      vertex -124.685 120.575 54.9728
      vertex -123.236 120.118 54.9996
    endloop
  endfacet
  facet normal -2.18481e-6 0.223731 0.974651
    outer loop
      vertex -126.25 121.09 54.8916
      vertex -94.4629 121.094 54.8907
      vertex -126.741 121.256 54.8535
    endloop
  endfacet
  facet normal 0.000183097 0.258647 0.965972
    outer loop
      vertex -94.4629 121.094 54.8907
      vertex -93.9574 121.599 54.7553
      vertex -126.741 121.256 54.8535
    endloop
  endfacet
  facet normal 1.25852e-5 0.273729 0.961807
    outer loop
      vertex -126.741 121.256 54.8535
      vertex -93.9574 121.599 54.7553
      vertex -127.702 121.588 54.7589
    endloop
  endfacet
  facet normal 9.31634e-7 0.403106 0.915153
    outer loop
      vertex -129.077 122.078 54.5721
      vertex -129.075 122.077 54.5725
      vertex -93.4688 122.088 54.5677
    endloop
  endfacet
  facet normal 7.86648e-6 0.383912 0.92337
    outer loop
      vertex -129.075 122.077 54.5725
      vertex -128.498 121.869 54.6589
      vertex -93.4688 122.088 54.5677
    endloop
  endfacet
  facet normal 0.000195119 0.358197 0.933646
    outer loop
      vertex -93.4688 122.088 54.5677
      vertex -128.498 121.869 54.6589
      vertex -93.9574 121.599 54.7553
    endloop
  endfacet
  facet normal -8.98159e-6 0.335128 0.942173
    outer loop
      vertex -128.498 121.869 54.6589
      vertex -127.706 121.589 54.7586
      vertex -93.9574 121.599 54.7553
    endloop
  endfacet
  facet normal 5.70203e-7 0.306396 0.951904
    outer loop
      vertex -93.9574 121.599 54.7553
      vertex -127.706 121.589 54.7586
      vertex -127.702 121.588 54.7589
    endloop
  endfacet
  facet normal 1.26425e-8 0.586697 0.809807
    outer loop
      vertex -131.493 122.982 54.0531
      vertex -131.491 122.981 54.0536
      vertex -92.5636 122.993 54.0451
    endloop
  endfacet
  facet normal 1.36436e-5 0.556766 0.83067
    outer loop
      vertex -131.491 122.981 54.0536
      vertex -130.732 122.691 54.2481
      vertex -92.5636 122.993 54.0451
    endloop
  endfacet
  facet normal 0.000153411 0.544527 0.838743
    outer loop
      vertex -92.5636 122.993 54.0451
      vertex -130.732 122.691 54.2481
      vertex -93.0025 122.554 54.3301
    endloop
  endfacet
  facet normal -3.69745e-6 0.513011 0.858382
    outer loop
      vertex -130.732 122.691 54.2481
      vertex -130.348 122.547 54.3345
      vertex -93.0025 122.554 54.3301
    endloop
  endfacet
  facet normal 1.26732e-5 0.452271 0.89188
    outer loop
      vertex -93.0025 122.554 54.3301
      vertex -130.348 122.547 54.3345
      vertex -129.077 122.078 54.5721
    endloop
  endfacet
  facet normal -3.45846e-6 0.594688 0.803957
    outer loop
      vertex -131.493 122.982 54.0531
      vertex -92.5636 122.993 54.0451
      vertex -131.728 123.073 53.986
    endloop
  endfacet
  facet normal 0.000107225 0.629255 0.777199
    outer loop
      vertex -92.5636 122.993 54.0451
      vertex -92.1568 123.4 53.7157
      vertex -131.728 123.073 53.986
    endloop
  endfacet
  facet normal 5.68248e-5 0.632901 0.774233
    outer loop
      vertex -131.728 123.073 53.986
      vertex -92.1568 123.4 53.7157
      vertex -132.461 123.359 53.7517
    endloop
  endfacet
  facet normal 3.34247e-7 0.664886 0.746944
    outer loop
      vertex -132.461 123.359 53.7517
      vertex -92.1568 123.4 53.7157
      vertex -132.559 123.398 53.7173
    endloop
  endfacet
  facet normal -3.0645e-6 0.707108 0.707105
    outer loop
      vertex -92.1568 123.4 53.7157
      vertex -91.7868 123.77 53.3457
      vertex -132.559 123.398 53.7173
    endloop
  endfacet
  facet normal 2.77526e-5 0.705416 0.708793
    outer loop
      vertex -132.559 123.398 53.7173
      vertex -91.7868 123.77 53.3457
      vertex -133.452 123.755 53.362
    endloop
  endfacet
  facet normal -2.7595e-5 0.775564 0.631269
    outer loop
      vertex -133.452 123.755 53.362
      vertex -91.7868 123.77 53.3457
      vertex -134.292 124.098 52.941
    endloop
  endfacet
  facet normal 3.15429e-6 0.777145 0.629321
    outer loop
      vertex -91.7868 123.77 53.3457
      vertex -91.4574 124.099 52.9389
      vertex -134.292 124.098 52.941
    endloop
  endfacet
  facet normal -8.10737e-7 0.816967 0.576684
    outer loop
      vertex -134.292 124.098 52.941
      vertex -91.4574 124.099 52.9389
      vertex -134.292 124.098 52.9409
    endloop
  endfacet
  facet normal -2.50948e-7 0.81139 0.584506
    outer loop
      vertex -134.292 124.098 52.9409
      vertex -91.4574 124.099 52.9389
      vertex -134.358 124.125 52.9036
    endloop
  endfacet
  facet normal 2.21782e-5 0.824122 0.566412
    outer loop
      vertex -91.4574 124.099 52.9389
      vertex -91.3092 124.248 52.7232
      vertex -134.358 124.125 52.9036
    endloop
  endfacet
  facet normal -0.000141008 0.841922 0.539599
    outer loop
      vertex -134.358 124.125 52.9036
      vertex -91.3092 124.248 52.7232
      vertex -135.005 124.394 52.4841
    endloop
  endfacet
  facet normal -1.16664e-5 0.852639 0.5225
    outer loop
      vertex -91.3092 124.248 52.7232
      vertex -91.1724 124.384 52.5
      vertex -135.005 124.394 52.4841
    endloop
  endfacet
  facet normal 1.80977e-5 0.887657 0.460505
    outer loop
      vertex -135.005 124.394 52.4841
      vertex -91.1724 124.384 52.5
      vertex -135.457 124.584 52.1173
    endloop
  endfacet
  facet normal -0.000164798 0.878858 0.477083
    outer loop
      vertex -91.1724 124.384 52.5
      vertex -91.0475 124.509 52.27
      vertex -135.457 124.584 52.1173
    endloop
  endfacet
  facet normal 9.92495e-5 0.909674 0.415324
    outer loop
      vertex -135.457 124.584 52.1173
      vertex -91.0475 124.509 52.27
      vertex -135.545 124.621 52.0361
    endloop
  endfacet
  facet normal 1.62509e-6 0.902583 0.430515
    outer loop
      vertex -91.0475 124.509 52.27
      vertex -90.9348 124.622 52.0337
      vertex -135.545 124.621 52.0361
    endloop
  endfacet
  facet normal -1.172e-5 0.976185 0.21694
    outer loop
      vertex -135.545 124.621 52.0361
      vertex -90.9348 124.622 52.0337
      vertex -135.545 124.621 52.0361
    endloop
  endfacet
  facet normal 0.000454535 0.955191 0.295989
    outer loop
      vertex -136.053 124.837 51.4572
      vertex -136.018 124.822 51.5053
      vertex -90.6118 124.945 51.0396
    endloop
  endfacet
  facet normal 0.000154627 0.964069 0.265652
    outer loop
      vertex -136.053 124.837 51.4572
      vertex -90.6118 124.945 51.0396
      vertex -136.219 124.908 51.1992
    endloop
  endfacet
  facet normal -1.56545e-6 0.92357 0.383429
    outer loop
      vertex -135.545 124.621 52.0361
      vertex -90.9348 124.622 52.0337
      vertex -135.779 124.72 51.7967
    endloop
  endfacet
  facet normal 3.07302e-6 0.923881 0.382681
    outer loop
      vertex -90.9348 124.622 52.0337
      vertex -90.8346 124.722 51.7918
      vertex -135.779 124.72 51.7967
    endloop
  endfacet
  facet normal -2.91305e-6 0.942428 0.334409
    outer loop
      vertex -135.779 124.72 51.7967
      vertex -90.8346 124.722 51.7918
      vertex -135.987 124.809 51.5463
    endloop
  endfacet
  facet normal 7.78217e-7 0.942642 0.333806
    outer loop
      vertex -90.8346 124.722 51.7918
      vertex -90.7472 124.81 51.5451
      vertex -135.987 124.809 51.5463
    endloop
  endfacet
  facet normal -6.46266e-8 0.952307 0.30514
    outer loop
      vertex -135.987 124.809 51.5463
      vertex -90.7472 124.81 51.5451
      vertex -136.018 124.822 51.5053
    endloop
  endfacet
  facet normal 2.03099e-5 0.958815 0.284033
    outer loop
      vertex -90.7472 124.81 51.5451
      vertex -90.6729 124.884 51.2941
      vertex -136.018 124.822 51.5053
    endloop
  endfacet
  facet normal -0.000233998 0.972382 0.233394
    outer loop
      vertex -136.018 124.822 51.5053
      vertex -90.6729 124.884 51.2941
      vertex -90.6118 124.945 51.0396
    endloop
  endfacet
  facet normal 2.10689e-5 0.990879 0.134756
    outer loop
      vertex -136.466 125.015 50.6251
      vertex -136.436 125.002 50.7213
      vertex -90.5641 124.993 50.7822
    endloop
  endfacet
  facet normal -2.18951e-5 0.986058 0.1664
    outer loop
      vertex -136.436 125.002 50.7213
      vertex -136.349 124.965 50.9425
      vertex -90.5641 124.993 50.7822
    endloop
  endfacet
  facet normal 3.52224e-5 0.983257 0.182225
    outer loop
      vertex -90.5641 124.993 50.7822
      vertex -136.349 124.965 50.9425
      vertex -90.6118 124.945 51.0396
    endloop
  endfacet
  facet normal -3.41038e-7 0.980132 0.198346
    outer loop
      vertex -136.349 124.965 50.9425
      vertex -136.303 124.945 51.041
      vertex -90.6118 124.945 51.0396
    endloop
  endfacet
  facet normal 5.22816e-7 0.974577 0.224053
    outer loop
      vertex -90.6118 124.945 51.0396
      vertex -136.303 124.945 51.041
      vertex -136.219 124.908 51.1992
    endloop
  endfacet
  facet normal 2.96637e-5 0.99978 0.0209687
    outer loop
      vertex -136.557 125.054 50
      vertex -136.547 125.05 50.2096
      vertex -90.5094 125.047 50.2617
    endloop
  endfacet
  facet normal -1.76677e-5 0.998032 0.0627084
    outer loop
      vertex -136.547 125.05 50.2096
      vertex -136.517 125.037 50.4173
      vertex -90.5094 125.047 50.2617
    endloop
  endfacet
  facet normal 3.583e-5 0.996918 0.0784448
    outer loop
      vertex -90.5094 125.047 50.2617
      vertex -136.517 125.037 50.4173
      vertex -90.5299 125.027 50.5226
    endloop
  endfacet
  facet normal -1.25158e-7 0.99557 0.0940189
    outer loop
      vertex -136.517 125.037 50.4173
      vertex -136.494 125.027 50.5232
      vertex -90.5299 125.027 50.5226
    endloop
  endfacet
  facet normal 1.35009e-7 0.993392 0.114772
    outer loop
      vertex -90.5299 125.027 50.5226
      vertex -136.494 125.027 50.5232
      vertex -136.466 125.015 50.6251
    endloop
  endfacet
  facet normal -0.632739 -0.772597 0.0522912
    outer loop
      vertex -131.909 120.581 50
      vertex -129.058 118.246 50
      vertex -129.041 118.268 50.5226
    endloop
  endfacet
  facet normal -0.558942 -0.827554 0.0523265
    outer loop
      vertex -126.831 116.604 50
      vertex -124.794 115.229 50
      vertex -124.779 115.252 50.5226
    endloop
  endfacet
  facet normal -0.272412 -0.960757 0.0523143
    outer loop
      vertex -109.556 108.032 50
      vertex -105.712 106.942 50
      vertex -105.706 106.969 50.5226
    endloop
  endfacet
  facet normal -0.182828 -0.981752 0.0523236
    outer loop
      vertex -103.317 106.393 50
      vertex -100.597 105.886 50
      vertex -100.592 105.913 50.5226
    endloop
  endfacet
  facet normal -0.0078678 -0.0973353 0.995221
    outer loop
      vertex -95.0486 109.787 54.9794
      vertex -95.0551 109.719 54.9726
      vertex -94.9814 109.715 54.9728
    endloop
  endfacet
  facet normal -0.701998 -0.711924 0.0190581
    outer loop
      vertex -136.547 125.05 50.2096
      vertex -136.557 125.054 50
      vertex -133.058 121.604 50
    endloop
  endfacet
  facet normal -0.696178 -0.707283 0.122827
    outer loop
      vertex -136.436 125.002 50.7213
      vertex -136.466 125.015 50.6251
      vertex -133.04 121.625 50.5226
    endloop
  endfacet
  facet normal -0.697901 -0.708481 0.104824
    outer loop
      vertex -136.466 125.015 50.6251
      vertex -136.494 125.027 50.5232
      vertex -133.04 121.625 50.5226
    endloop
  endfacet
  facet normal -0.700812 -0.711427 0.0523015
    outer loop
      vertex -133.04 121.625 50.5226
      vertex -136.494 125.027 50.5232
      vertex -133.058 121.604 50
    endloop
  endfacet
  facet normal -0.696717 -0.712302 0.084916
    outer loop
      vertex -136.494 125.027 50.5232
      vertex -136.517 125.037 50.4173
      vertex -133.058 121.604 50
    endloop
  endfacet
  facet normal -0.699838 -0.712035 0.056857
    outer loop
      vertex -133.058 121.604 50
      vertex -136.517 125.037 50.4173
      vertex -136.547 125.05 50.2096
    endloop
  endfacet
  facet normal -0.674965 -0.691026 0.258659
    outer loop
      vertex -132.893 121.785 51.5451
      vertex -136.018 124.822 51.5053
      vertex -132.985 121.685 51.0396
    endloop
  endfacet
  facet normal -0.67118 -0.689413 0.272446
    outer loop
      vertex -136.018 124.822 51.5053
      vertex -136.053 124.837 51.4572
      vertex -132.985 121.685 51.0396
    endloop
  endfacet
  facet normal -0.678334 -0.69273 0.244923
    outer loop
      vertex -136.053 124.837 51.4572
      vertex -136.219 124.908 51.1992
      vertex -132.985 121.685 51.0396
    endloop
  endfacet
  facet normal -0.685682 -0.69817 0.205912
    outer loop
      vertex -136.219 124.908 51.1992
      vertex -136.303 124.945 51.041
      vertex -132.985 121.685 51.0396
    endloop
  endfacet
  facet normal -0.692093 -0.704675 0.156333
    outer loop
      vertex -132.985 121.685 51.0396
      vertex -136.303 124.945 51.041
      vertex -133.04 121.625 50.5226
    endloop
  endfacet
  facet normal -0.68722 -0.703662 0.180524
    outer loop
      vertex -136.303 124.945 51.041
      vertex -136.349 124.965 50.9425
      vertex -133.04 121.625 50.5226
    endloop
  endfacet
  facet normal -0.692478 -0.705271 0.151878
    outer loop
      vertex -133.04 121.625 50.5226
      vertex -136.349 124.965 50.9425
      vertex -136.436 125.002 50.7213
    endloop
  endfacet
  facet normal -0.650202 -0.670003 0.358237
    outer loop
      vertex -132.767 121.924 52.0337
      vertex -135.545 124.621 52.0361
      vertex -132.893 121.785 51.5451
    endloop
  endfacet
  facet normal -0.628725 -0.659292 0.412358
    outer loop
      vertex -135.545 124.621 52.0361
      vertex -135.545 124.621 52.0361
      vertex -132.893 121.785 51.5451
    endloop
  endfacet
  facet normal -0.650384 -0.670088 0.357747
    outer loop
      vertex -135.545 124.621 52.0361
      vertex -135.779 124.72 51.7967
      vertex -132.893 121.785 51.5451
    endloop
  endfacet
  facet normal -0.664196 -0.679682 0.311248
    outer loop
      vertex -135.779 124.72 51.7967
      vertex -135.987 124.809 51.5463
      vertex -132.893 121.785 51.5451
    endloop
  endfacet
  facet normal -0.670452 -0.686072 0.282489
    outer loop
      vertex -132.893 121.785 51.5451
      vertex -135.987 124.809 51.5463
      vertex -136.018 124.822 51.5053
    endloop
  endfacet
  facet normal -0.54025 -0.588377 0.601617
    outer loop
      vertex -134.292 124.098 52.941
      vertex -134.292 124.098 52.9409
      vertex -132.607 122.099 52.5
    endloop
  endfacet
  facet normal -0.56856 -0.602984 0.559598
    outer loop
      vertex -134.292 124.098 52.9409
      vertex -134.358 124.125 52.9036
      vertex -132.607 122.099 52.5
    endloop
  endfacet
  facet normal -0.592533 -0.615703 0.519436
    outer loop
      vertex -134.358 124.125 52.9036
      vertex -135.005 124.394 52.4841
      vertex -132.607 122.099 52.5
    endloop
  endfacet
  facet normal -0.617585 -0.642341 0.453858
    outer loop
      vertex -132.607 122.099 52.5
      vertex -135.005 124.394 52.4841
      vertex -132.767 121.924 52.0337
    endloop
  endfacet
  facet normal -0.625674 -0.64651 0.436529
    outer loop
      vertex -135.005 124.394 52.4841
      vertex -135.457 124.584 52.1173
      vertex -132.767 121.924 52.0337
    endloop
  endfacet
  facet normal -0.641179 -0.660738 0.390275
    outer loop
      vertex -132.767 121.924 52.0337
      vertex -135.457 124.584 52.1173
      vertex -135.545 124.621 52.0361
    endloop
  endfacet
  facet normal -0.45532 -0.492288 0.741847
    outer loop
      vertex -132.461 123.359 53.7517
      vertex -132.559 123.398 53.7173
      vertex -131.943 122.826 53.7157
    endloop
  endfacet
  facet normal -0.487474 -0.526781 0.696327
    outer loop
      vertex -132.559 123.398 53.7173
      vertex -133.452 123.755 53.362
      vertex -131.943 122.826 53.7157
    endloop
  endfacet
  facet normal -0.483418 -0.5161 0.70707
    outer loop
      vertex -131.943 122.826 53.7157
      vertex -133.452 123.755 53.362
      vertex -132.193 122.553 53.3457
    endloop
  endfacet
  facet normal -0.541663 -0.575835 0.612385
    outer loop
      vertex -133.452 123.755 53.362
      vertex -134.292 124.098 52.941
      vertex -132.193 122.553 53.3457
    endloop
  endfacet
  facet normal -0.535608 -0.563191 0.629237
    outer loop
      vertex -132.193 122.553 53.3457
      vertex -134.292 124.098 52.941
      vertex -132.415 122.31 52.9389
    endloop
  endfacet
  facet normal -0.578073 -0.607687 0.544562
    outer loop
      vertex -134.292 124.098 52.941
      vertex -132.607 122.099 52.5
      vertex -132.415 122.31 52.9389
    endloop
  endfacet
  facet normal -0.403484 -0.497787 0.76773
    outer loop
      vertex -131.491 122.981 54.0536
      vertex -131.493 122.982 54.0531
      vertex -131.943 122.826 53.7157
    endloop
  endfacet
  facet normal -0.409166 -0.488192 0.770877
    outer loop
      vertex -131.493 122.982 54.0531
      vertex -131.728 123.073 53.986
      vertex -131.943 122.826 53.7157
    endloop
  endfacet
  facet normal -0.430171 -0.469826 0.770854
    outer loop
      vertex -131.943 122.826 53.7157
      vertex -131.728 123.073 53.986
      vertex -132.461 123.359 53.7517
    endloop
  endfacet
  facet normal -0.345675 -0.4211 0.838561
    outer loop
      vertex -127.799 119.878 54.0451
      vertex -127.531 120.225 54.3301
      vertex -130.348 122.547 54.3345
    endloop
  endfacet
  facet normal -0.201321 -0.273539 0.940556
    outer loop
      vertex -127.706 121.589 54.7586
      vertex -127.246 120.595 54.5677
      vertex -127.702 121.588 54.7589
    endloop
  endfacet
  facet normal -0.221711 -0.281564 0.933577
    outer loop
      vertex -127.246 120.595 54.5677
      vertex -126.947 120.982 54.7553
      vertex -127.702 121.588 54.7589
    endloop
  endfacet
  facet normal -0.169316 -0.216524 0.961483
    outer loop
      vertex -127.702 121.588 54.7589
      vertex -126.947 120.982 54.7553
      vertex -126.741 121.256 54.8535
    endloop
  endfacet
  facet normal -0.216585 -0.279601 0.935369
    outer loop
      vertex -127.706 121.589 54.7586
      vertex -128.498 121.869 54.6589
      vertex -127.246 120.595 54.5677
    endloop
  endfacet
  facet normal -0.249074 -0.310222 0.917455
    outer loop
      vertex -128.498 121.869 54.6589
      vertex -129.075 122.077 54.5725
      vertex -127.246 120.595 54.5677
    endloop
  endfacet
  facet normal -0.284529 -0.353872 0.890965
    outer loop
      vertex -127.246 120.595 54.5677
      vertex -129.075 122.077 54.5725
      vertex -127.531 120.225 54.3301
    endloop
  endfacet
  facet normal -0.269016 -0.342161 0.900309
    outer loop
      vertex -129.075 122.077 54.5725
      vertex -129.077 122.078 54.5721
      vertex -127.531 120.225 54.3301
    endloop
  endfacet
  facet normal -0.299503 -0.365148 0.881456
    outer loop
      vertex -127.531 120.225 54.3301
      vertex -129.077 122.078 54.5721
      vertex -130.348 122.547 54.3345
    endloop
  endfacet
  facet normal -0.0733689 -0.114387 0.990723
    outer loop
      vertex -124.685 120.575 54.9728
      vertex -124.963 120.665 54.9626
      vertex -122.642 118.553 54.8907
    endloop
  endfacet
  facet normal -0.0976022 -0.140845 0.985209
    outer loop
      vertex -124.963 120.665 54.9626
      vertex -125.994 121.004 54.909
      vertex -122.642 118.553 54.8907
    endloop
  endfacet
  facet normal -0.126695 -0.180567 0.975369
    outer loop
      vertex -125.994 121.004 54.909
      vertex -126.249 121.089 54.8917
      vertex -122.642 118.553 54.8907
    endloop
  endfacet
  facet normal -0.154215 -0.219703 0.963301
    outer loop
      vertex -122.642 118.553 54.8907
      vertex -126.249 121.089 54.8917
      vertex -126.947 120.982 54.7553
    endloop
  endfacet
  facet normal -0.150247 -0.240072 0.959057
    outer loop
      vertex -126.249 121.089 54.8917
      vertex -126.25 121.09 54.8916
      vertex -126.947 120.982 54.7553
    endloop
  endfacet
  facet normal -0.152378 -0.22925 0.961366
    outer loop
      vertex -126.947 120.982 54.7553
      vertex -126.25 121.09 54.8916
      vertex -126.741 121.256 54.8535
    endloop
  endfacet
  facet normal -0.00997282 -0.0318767 0.999442
    outer loop
      vertex -123.027 120.054 55
      vertex -123.045 120.06 55
      vertex -122.361 118.987 54.9726
    endloop
  endfacet
  facet normal -0.0123954 -0.0334198 0.999365
    outer loop
      vertex -123.045 120.06 55
      vertex -123.236 120.118 54.9996
      vertex -122.361 118.987 54.9726
    endloop
  endfacet
  facet normal -0.034271 -0.0503061 0.998146
    outer loop
      vertex -122.361 118.987 54.9726
      vertex -123.236 120.118 54.9996
      vertex -124.685 120.575 54.9728
    endloop
  endfacet
  facet normal -0.0117941 -0.096963 0.995218
    outer loop
      vertex -95.0551 109.719 54.9726
      vertex -95.0486 109.787 54.9794
      vertex -99.8735 110.305 54.9726
    endloop
  endfacet
  facet normal -0.0102853 -0.0828832 0.996506
    outer loop
      vertex -95.0486 109.787 54.9794
      vertex -95.1606 109.909 54.9883
      vertex -99.8735 110.305 54.9726
    endloop
  endfacet
  facet normal -0.00654734 -0.038315 0.999244
    outer loop
      vertex -99.8735 110.305 54.9726
      vertex -95.1606 109.909 54.9883
      vertex -95.4929 110.271 55
    endloop
  endfacet
  facet normal -0.018332 -0.2604 0.965327
    outer loop
      vertex -95.1366 108.7 54.7553
      vertex -93.9594 108.619 54.7559
      vertex -94.4536 109.146 54.8887
    endloop
  endfacet
  facet normal -0.0231253 -0.330644 0.943472
    outer loop
      vertex -93.9594 108.619 54.7559
      vertex -95.1366 108.7 54.7553
      vertex -93.7678 108.416 54.6894
    endloop
  endfacet
  facet normal -0.0291001 -0.357181 0.933582
    outer loop
      vertex -95.1366 108.7 54.7553
      vertex -95.1755 108.213 54.5677
      vertex -93.7678 108.416 54.6894
    endloop
  endfacet
  facet normal -0.027642 -0.365394 0.930443
    outer loop
      vertex -93.7678 108.416 54.6894
      vertex -95.1755 108.213 54.5677
      vertex -93.6409 108.282 54.6405
    endloop
  endfacet
  facet normal -0.0297359 -0.45306 0.890984
    outer loop
      vertex -95.2127 107.748 54.3301
      vertex -93.0662 107.678 54.3663
      vertex -95.1755 108.213 54.5677
    endloop
  endfacet
  facet normal -0.0297158 -0.452994 0.891018
    outer loop
      vertex -93.0662 107.678 54.3663
      vertex -93.4708 108.102 54.5686
      vertex -95.1755 108.213 54.5677
    endloop
  endfacet
  facet normal -0.0258587 -0.393048 0.919154
    outer loop
      vertex -95.1755 108.213 54.5677
      vertex -93.4708 108.102 54.5686
      vertex -93.6409 108.282 54.6405
    endloop
  endfacet
  facet normal -0.0335128 -0.543664 0.838634
    outer loop
      vertex -95.2477 107.31 54.0451
      vertex -93.0036 107.613 54.3307
      vertex -95.2127 107.748 54.3301
    endloop
  endfacet
  facet normal -0.0303772 -0.492297 0.869897
    outer loop
      vertex -93.0036 107.613 54.3307
      vertex -93.0037 107.613 54.3308
      vertex -95.2127 107.748 54.3301
    endloop
  endfacet
  facet normal -0.0308235 -0.499616 0.865699
    outer loop
      vertex -95.2127 107.748 54.3301
      vertex -93.0037 107.613 54.3308
      vertex -93.0662 107.678 54.3663
    endloop
  endfacet
  facet normal -0.0368606 -0.628326 0.777076
    outer loop
      vertex -95.2801 106.905 53.7157
      vertex -92.5366 107.127 54.0253
      vertex -95.2477 107.31 54.0451
    endloop
  endfacet
  facet normal -0.0346648 -0.598398 0.800449
    outer loop
      vertex -92.5366 107.127 54.0253
      vertex -92.5641 107.155 54.0455
      vertex -95.2477 107.31 54.0451
    endloop
  endfacet
  facet normal -0.0319304 -0.550958 0.833922
    outer loop
      vertex -95.2477 107.31 54.0451
      vertex -92.5641 107.155 54.0455
      vertex -93.0036 107.613 54.3307
    endloop
  endfacet
  facet normal -0.0404156 -0.697366 0.715575
    outer loop
      vertex -92.0253 106.599 53.5929
      vertex -92.1104 106.687 53.6734
      vertex -95.3096 106.536 53.3457
    endloop
  endfacet
  facet normal -0.0421795 -0.685157 0.727173
    outer loop
      vertex -92.1104 106.687 53.6734
      vertex -92.1577 106.735 53.7165
      vertex -95.3096 106.536 53.3457
    endloop
  endfacet
  facet normal -0.0384753 -0.706173 0.706993
    outer loop
      vertex -95.3096 106.536 53.3457
      vertex -92.1577 106.735 53.7165
      vertex -95.2801 106.905 53.7157
    endloop
  endfacet
  facet normal -0.0383099 -0.703112 0.710047
    outer loop
      vertex -92.1577 106.735 53.7165
      vertex -92.1577 106.735 53.7165
      vertex -95.2801 106.905 53.7157
    endloop
  endfacet
  facet normal -0.0348882 -0.639752 0.767789
    outer loop
      vertex -95.2801 106.905 53.7157
      vertex -92.1577 106.735 53.7165
      vertex -92.5366 107.127 54.0253
    endloop
  endfacet
  facet normal -0.0387736 -0.795456 0.60477
    outer loop
      vertex -91.4586 106.02 52.9406
      vertex -91.6784 106.244 53.2212
      vertex -95.3359 106.208 52.9389
    endloop
  endfacet
  facet normal -0.0421014 -0.763992 0.64385
    outer loop
      vertex -91.6784 106.244 53.2212
      vertex -91.7882 106.356 53.3472
      vertex -95.3359 106.208 52.9389
    endloop
  endfacet
  facet normal -0.0398976 -0.776249 0.629163
    outer loop
      vertex -95.3359 106.208 52.9389
      vertex -91.7882 106.356 53.3472
      vertex -95.3096 106.536 53.3457
    endloop
  endfacet
  facet normal -0.0372156 -0.723165 0.689671
    outer loop
      vertex -91.7882 106.356 53.3472
      vertex -91.7883 106.356 53.3473
      vertex -95.3096 106.536 53.3457
    endloop
  endfacet
  facet normal -0.0374699 -0.7282 0.68434
    outer loop
      vertex -95.3096 106.536 53.3457
      vertex -91.7883 106.356 53.3473
      vertex -92.0253 106.599 53.5929
    endloop
  endfacet
  facet normal -0.0412015 -0.846243 0.531201
    outer loop
      vertex -91.4586 106.02 52.9406
      vertex -95.3359 106.208 52.9389
      vertex -91.4586 106.02 52.9405
    endloop
  endfacet
  facet normal -0.040798 -0.837799 0.544452
    outer loop
      vertex -95.3359 106.208 52.9389
      vertex -95.3586 105.923 52.5
      vertex -91.4586 106.02 52.9405
    endloop
  endfacet
  facet normal -0.0430666 -0.82604 0.561963
    outer loop
      vertex -91.4586 106.02 52.9405
      vertex -95.3586 105.923 52.5
      vertex -91.3743 105.934 52.821
    endloop
  endfacet
  facet normal -0.0403762 -0.897225 0.439724
    outer loop
      vertex -90.9535 105.508 52.0751
      vertex -91.1414 105.698 52.4455
      vertex -95.3775 105.687 52.0337
    endloop
  endfacet
  facet normal -0.0443331 -0.876227 0.479856
    outer loop
      vertex -91.1414 105.698 52.4455
      vertex -91.1728 105.73 52.5008
      vertex -95.3775 105.687 52.0337
    endloop
  endfacet
  facet normal -0.0412952 -0.89015 0.453792
    outer loop
      vertex -95.3775 105.687 52.0337
      vertex -91.1728 105.73 52.5008
      vertex -95.3586 105.923 52.5
    endloop
  endfacet
  facet normal -0.0432822 -0.933456 0.35607
    outer loop
      vertex -91.1728 105.73 52.5008
      vertex -91.1728 105.73 52.5008
      vertex -95.3586 105.923 52.5
    endloop
  endfacet
  facet normal -0.0396032 -0.853322 0.519877
    outer loop
      vertex -95.3586 105.923 52.5
      vertex -91.1728 105.73 52.5008
      vertex -91.3743 105.934 52.821
    endloop
  endfacet
  facet normal -0.0417329 -0.932722 0.358174
    outer loop
      vertex -95.3925 105.5 51.5451
      vertex -90.7986 105.352 51.6952
      vertex -95.3775 105.687 52.0337
    endloop
  endfacet
  facet normal -0.0414363 -0.931611 0.361088
    outer loop
      vertex -90.7986 105.352 51.6952
      vertex -90.935 105.489 52.0342
      vertex -95.3775 105.687 52.0337
    endloop
  endfacet
  facet normal -0.04076 -0.916301 0.398411
    outer loop
      vertex -95.3775 105.687 52.0337
      vertex -90.935 105.489 52.0342
      vertex -90.9535 105.508 52.0751
    endloop
  endfacet
  facet normal -0.0409807 -0.978033 0.204382
    outer loop
      vertex -90.6118 105.164 51.0398
      vertex -90.621 105.173 51.0821
      vertex -95.4033 105.365 51.0396
    endloop
  endfacet
  facet normal -0.0409801 -0.972352 0.229897
    outer loop
      vertex -90.621 105.173 51.0821
      vertex -90.6754 105.228 51.3033
      vertex -95.4033 105.365 51.0396
    endloop
  endfacet
  facet normal -0.0423735 -0.965036 0.258669
    outer loop
      vertex -95.4033 105.365 51.0396
      vertex -90.6754 105.228 51.3033
      vertex -95.3925 105.5 51.5451
    endloop
  endfacet
  facet normal -0.0412811 -0.96057 0.274958
    outer loop
      vertex -90.6754 105.228 51.3033
      vertex -90.7476 105.3 51.5461
      vertex -95.3925 105.5 51.5451
    endloop
  endfacet
  facet normal -0.0407835 -0.948776 0.313305
    outer loop
      vertex -95.3925 105.5 51.5451
      vertex -90.7476 105.3 51.5461
      vertex -90.7986 105.352 51.6952
    endloop
  endfacet
  facet normal -0.0412535 -0.984586 0.169969
    outer loop
      vertex -90.6118 105.164 51.0398
      vertex -95.4033 105.365 51.0396
      vertex -90.5555 105.107 50.7263
    endloop
  endfacet
  facet normal -0.0422529 -0.986802 0.156322
    outer loop
      vertex -95.4033 105.365 51.0396
      vertex -95.4098 105.283 50.5226
      vertex -90.5555 105.107 50.7263
    endloop
  endfacet
  facet normal -0.0409199 -0.991913 0.120143
    outer loop
      vertex -90.5555 105.107 50.7263
      vertex -95.4098 105.283 50.5226
      vertex -90.5299 105.082 50.523
    endloop
  endfacet
  facet normal -0.0410653 -0.995497 0.085436
    outer loop
      vertex -90.5299 105.082 50.523
      vertex -95.4098 105.283 50.5226
      vertex -90.5159 105.068 50.3662
    endloop
  endfacet
  facet normal -0.0422227 -0.997738 0.0523049
    outer loop
      vertex -95.4098 105.283 50.5226
      vertex -95.412 105.256 50
      vertex -90.5159 105.068 50.3662
    endloop
  endfacet
  facet normal -0.0409742 -0.99854 0.0352032
    outer loop
      vertex -90.5159 105.068 50.3662
      vertex -95.412 105.256 50
      vertex -90.5025 105.054 50
    endloop
  endfacet
  facet normal -0.0288772 -0.0436552 0.998629
    outer loop
      vertex -123.027 120.054 55
      vertex -122.361 118.987 54.9726
      vertex -122.077 119.426 55
    endloop
  endfacet
  facet normal -0.0266355 -0.0451066 0.998627
    outer loop
      vertex -122.361 118.987 54.9726
      vertex -118.181 116.519 54.9726
      vertex -122.077 119.426 55
    endloop
  endfacet
  facet normal -0.0266353 -0.0451065 0.998627
    outer loop
      vertex -122.077 119.426 55
      vertex -118.181 116.519 54.9726
      vertex -117.934 116.98 55
    endloop
  endfacet
  facet normal -0.0228289 -0.0471473 0.998627
    outer loop
      vertex -118.181 116.519 54.9726
      vertex -113.812 114.404 54.9726
      vertex -117.934 116.98 55
    endloop
  endfacet
  facet normal -0.0228287 -0.0471469 0.998627
    outer loop
      vertex -117.934 116.98 55
      vertex -113.812 114.404 54.9726
      vertex -113.604 114.883 55
    endloop
  endfacet
  facet normal -0.0188672 -0.0488672 0.998627
    outer loop
      vertex -113.812 114.404 54.9726
      vertex -109.284 112.655 54.9726
      vertex -113.604 114.883 55
    endloop
  endfacet
  facet normal -0.0188673 -0.0488675 0.998627
    outer loop
      vertex -113.604 114.883 55
      vertex -109.284 112.655 54.9726
      vertex -109.116 113.15 55
    endloop
  endfacet
  facet normal -0.0147774 -0.0502556 0.998627
    outer loop
      vertex -109.284 112.655 54.9726
      vertex -104.627 111.286 54.9726
      vertex -109.116 113.15 55
    endloop
  endfacet
  facet normal -0.0147775 -0.0502559 0.998627
    outer loop
      vertex -109.116 113.15 55
      vertex -104.627 111.286 54.9726
      vertex -104.501 111.793 55
    endloop
  endfacet
  facet normal -0.0105873 -0.0513024 0.998627
    outer loop
      vertex -104.627 111.286 54.9726
      vertex -99.8735 110.305 54.9726
      vertex -104.501 111.793 55
    endloop
  endfacet
  facet normal -0.0105873 -0.0513025 0.998627
    outer loop
      vertex -104.501 111.793 55
      vertex -99.8735 110.305 54.9726
      vertex -99.7891 110.821 55
    endloop
  endfacet
  facet normal -0.00665046 -0.051947 0.998628
    outer loop
      vertex -99.8735 110.305 54.9726
      vertex -95.4929 110.271 55
      vertex -99.7891 110.821 55
    endloop
  endfacet
  facet normal -0.000101426 -0.000805582 1
    outer loop
      vertex -99.7891 110.821 55
      vertex -95.4929 110.271 55
      vertex -95.5025 110.281 55
    endloop
  endfacet
  facet normal -0.0881978 -0.129253 0.987681
    outer loop
      vertex -124.685 120.575 54.9728
      vertex -122.642 118.553 54.8907
      vertex -122.361 118.987 54.9726
    endloop
  endfacet
  facet normal -0.0796075 -0.134813 0.987668
    outer loop
      vertex -122.642 118.553 54.8907
      vertex -118.425 116.063 54.8907
      vertex -122.361 118.987 54.9726
    endloop
  endfacet
  facet normal -0.0796066 -0.134812 0.987668
    outer loop
      vertex -122.361 118.987 54.9726
      vertex -118.425 116.063 54.8907
      vertex -118.181 116.519 54.9726
    endloop
  endfacet
  facet normal -0.0682302 -0.140912 0.987668
    outer loop
      vertex -118.425 116.063 54.8907
      vertex -114.018 113.929 54.8907
      vertex -118.181 116.519 54.9726
    endloop
  endfacet
  facet normal -0.0682304 -0.140912 0.987668
    outer loop
      vertex -118.181 116.519 54.9726
      vertex -114.018 113.929 54.8907
      vertex -113.812 114.404 54.9726
    endloop
  endfacet
  facet normal -0.0563901 -0.146054 0.987668
    outer loop
      vertex -114.018 113.929 54.8907
      vertex -109.45 112.166 54.8907
      vertex -113.812 114.404 54.9726
    endloop
  endfacet
  facet normal -0.0563906 -0.146055 0.987668
    outer loop
      vertex -113.812 114.404 54.9726
      vertex -109.45 112.166 54.8907
      vertex -109.284 112.655 54.9726
    endloop
  endfacet
  facet normal -0.0441668 -0.150204 0.987668
    outer loop
      vertex -109.45 112.166 54.8907
      vertex -104.753 110.784 54.8907
      vertex -109.284 112.655 54.9726
    endloop
  endfacet
  facet normal -0.0441666 -0.150204 0.987668
    outer loop
      vertex -109.284 112.655 54.9726
      vertex -104.753 110.784 54.8907
      vertex -104.627 111.286 54.9726
    endloop
  endfacet
  facet normal -0.031643 -0.153331 0.987668
    outer loop
      vertex -104.753 110.784 54.8907
      vertex -99.957 109.795 54.8907
      vertex -104.627 111.286 54.9726
    endloop
  endfacet
  facet normal -0.0316429 -0.153331 0.987668
    outer loop
      vertex -104.627 111.286 54.9726
      vertex -99.957 109.795 54.8907
      vertex -99.8735 110.305 54.9726
    endloop
  endfacet
  facet normal -0.0189039 -0.155417 0.987668
    outer loop
      vertex -99.957 109.795 54.8907
      vertex -95.0963 109.204 54.8907
      vertex -99.8735 110.305 54.9726
    endloop
  endfacet
  facet normal -0.0189044 -0.155419 0.987668
    outer loop
      vertex -99.8735 110.305 54.9726
      vertex -95.0963 109.204 54.8907
      vertex -95.0551 109.719 54.9726
    endloop
  endfacet
  facet normal -0.0115852 -0.156007 0.987688
    outer loop
      vertex -95.0963 109.204 54.8907
      vertex -94.981 109.714 54.9727
      vertex -95.0551 109.719 54.9726
    endloop
  endfacet
  facet normal -0.00815156 -0.10224 0.994726
    outer loop
      vertex -95.0551 109.719 54.9726
      vertex -94.981 109.714 54.9727
      vertex -94.9814 109.715 54.9728
    endloop
  endfacet
  facet normal -0.0433026 -0.356006 0.93348
    outer loop
      vertex -95.1366 108.7 54.7553
      vertex -100.039 109.296 54.7553
      vertex -95.1755 108.213 54.5677
    endloop
  endfacet
  facet normal -0.0433029 -0.356007 0.93348
    outer loop
      vertex -100.039 109.296 54.7553
      vertex -100.118 108.814 54.5677
      vertex -95.1755 108.213 54.5677
    endloop
  endfacet
  facet normal -0.054855 -0.450981 0.890846
    outer loop
      vertex -95.1755 108.213 54.5677
      vertex -100.118 108.814 54.5677
      vertex -95.2127 107.748 54.3301
    endloop
  endfacet
  facet normal -0.0548537 -0.450975 0.890849
    outer loop
      vertex -100.118 108.814 54.5677
      vertex -100.193 108.354 54.3301
      vertex -95.2127 107.748 54.3301
    endloop
  endfacet
  facet normal -0.0658001 -0.540971 0.838463
    outer loop
      vertex -95.2127 107.748 54.3301
      vertex -100.193 108.354 54.3301
      vertex -95.2477 107.31 54.0451
    endloop
  endfacet
  facet normal -0.0658009 -0.540974 0.838461
    outer loop
      vertex -100.193 108.354 54.3301
      vertex -100.264 107.92 54.0451
      vertex -95.2477 107.31 54.0451
    endloop
  endfacet
  facet normal -0.0760259 -0.625038 0.776884
    outer loop
      vertex -95.2477 107.31 54.0451
      vertex -100.264 107.92 54.0451
      vertex -95.2801 106.905 53.7157
    endloop
  endfacet
  facet normal -0.0760268 -0.625041 0.776881
    outer loop
      vertex -100.264 107.92 54.0451
      vertex -100.33 107.519 53.7157
      vertex -95.2801 106.905 53.7157
    endloop
  endfacet
  facet normal -0.0854159 -0.702232 0.706806
    outer loop
      vertex -95.2801 106.905 53.7157
      vertex -100.33 107.519 53.7157
      vertex -95.3096 106.536 53.3457
    endloop
  endfacet
  facet normal -0.0854148 -0.702228 0.70681
    outer loop
      vertex -100.33 107.519 53.7157
      vertex -100.389 107.154 53.3457
      vertex -95.3096 106.536 53.3457
    endloop
  endfacet
  facet normal -0.0938678 -0.771723 0.628993
    outer loop
      vertex -95.3096 106.536 53.3457
      vertex -100.389 107.154 53.3457
      vertex -95.3359 106.208 52.9389
    endloop
  endfacet
  facet normal -0.0938677 -0.771722 0.628994
    outer loop
      vertex -100.389 107.154 53.3457
      vertex -100.443 106.829 52.9389
      vertex -95.3359 106.208 52.9389
    endloop
  endfacet
  facet normal -0.10129 -0.832745 0.544312
    outer loop
      vertex -95.3359 106.208 52.9389
      vertex -100.443 106.829 52.9389
      vertex -95.3586 105.923 52.5
    endloop
  endfacet
  facet normal -0.10129 -0.832746 0.54431
    outer loop
      vertex -100.443 106.829 52.9389
      vertex -100.489 106.547 52.5
      vertex -95.3586 105.923 52.5
    endloop
  endfacet
  facet normal -0.107603 -0.884641 0.453687
    outer loop
      vertex -95.3586 105.923 52.5
      vertex -100.489 106.547 52.5
      vertex -95.3775 105.687 52.0337
    endloop
  endfacet
  facet normal -0.107604 -0.884644 0.453681
    outer loop
      vertex -100.489 106.547 52.5
      vertex -100.527 106.313 52.0337
      vertex -95.3775 105.687 52.0337
    endloop
  endfacet
  facet normal -0.112738 -0.926851 0.358101
    outer loop
      vertex -95.3775 105.687 52.0337
      vertex -100.527 106.313 52.0337
      vertex -95.3925 105.5 51.5451
    endloop
  endfacet
  facet normal -0.112737 -0.926849 0.358108
    outer loop
      vertex -100.527 106.313 52.0337
      vertex -100.557 106.128 51.5451
      vertex -95.3925 105.5 51.5451
    endloop
  endfacet
  facet normal -0.116636 -0.958912 0.25862
    outer loop
      vertex -95.3925 105.5 51.5451
      vertex -100.557 106.128 51.5451
      vertex -95.4033 105.365 51.0396
    endloop
  endfacet
  facet normal -0.116636 -0.958912 0.25862
    outer loop
      vertex -100.557 106.128 51.5451
      vertex -100.579 105.994 51.0396
      vertex -95.4033 105.365 51.0396
    endloop
  endfacet
  facet normal -0.11926 -0.980484 0.156297
    outer loop
      vertex -95.4033 105.365 51.0396
      vertex -100.579 105.994 51.0396
      vertex -95.4098 105.283 50.5226
    endloop
  endfacet
  facet normal -0.11926 -0.980483 0.156302
    outer loop
      vertex -100.579 105.994 51.0396
      vertex -100.592 105.913 50.5226
      vertex -95.4098 105.283 50.5226
    endloop
  endfacet
  facet normal -0.182351 -0.308809 0.93348
    outer loop
      vertex -118.664 115.618 54.7553
      vertex -122.916 118.129 54.7553
      vertex -118.895 115.187 54.5677
    endloop
  endfacet
  facet normal -0.182352 -0.30881 0.93348
    outer loop
      vertex -122.916 118.129 54.7553
      vertex -123.182 117.719 54.5677
      vertex -118.895 115.187 54.5677
    endloop
  endfacet
  facet normal -0.230999 -0.391192 0.890847
    outer loop
      vertex -118.895 115.187 54.5677
      vertex -123.182 117.719 54.5677
      vertex -119.115 114.776 54.3301
    endloop
  endfacet
  facet normal -0.230998 -0.391191 0.890847
    outer loop
      vertex -123.182 117.719 54.5677
      vertex -123.435 117.327 54.3301
      vertex -119.115 114.776 54.3301
    endloop
  endfacet
  facet normal -0.277095 -0.469255 0.838462
    outer loop
      vertex -119.115 114.776 54.3301
      vertex -123.435 117.327 54.3301
      vertex -119.323 114.389 54.0451
    endloop
  endfacet
  facet normal -0.277094 -0.469254 0.838462
    outer loop
      vertex -123.435 117.327 54.3301
      vertex -123.674 116.959 54.0451
      vertex -119.323 114.389 54.0451
    endloop
  endfacet
  facet normal -0.320152 -0.542171 0.776887
    outer loop
      vertex -119.323 114.389 54.0451
      vertex -123.674 116.959 54.0451
      vertex -119.515 114.031 53.7157
    endloop
  endfacet
  facet normal -0.320155 -0.542175 0.776883
    outer loop
      vertex -123.674 116.959 54.0451
      vertex -123.895 116.617 53.7157
      vertex -119.515 114.031 53.7157
    endloop
  endfacet
  facet normal -0.359697 -0.609138 0.706802
    outer loop
      vertex -119.515 114.031 53.7157
      vertex -123.895 116.617 53.7157
      vertex -119.69 113.705 53.3457
    endloop
  endfacet
  facet normal -0.359692 -0.609133 0.706809
    outer loop
      vertex -123.895 116.617 53.7157
      vertex -124.096 116.307 53.3457
      vertex -119.69 113.705 53.3457
    endloop
  endfacet
  facet normal -0.395285 -0.669408 0.629002
    outer loop
      vertex -119.69 113.705 53.3457
      vertex -124.096 116.307 53.3457
      vertex -119.846 113.415 52.9389
    endloop
  endfacet
  facet normal -0.395286 -0.66941 0.628999
    outer loop
      vertex -124.096 116.307 53.3457
      vertex -124.275 116.03 52.9389
      vertex -119.846 113.415 52.9389
    endloop
  endfacet
  facet normal -0.426545 -0.722347 0.544311
    outer loop
      vertex -119.846 113.415 52.9389
      vertex -124.275 116.03 52.9389
      vertex -119.98 113.163 52.5
    endloop
  endfacet
  facet normal -0.426546 -0.722347 0.544309
    outer loop
      vertex -124.275 116.03 52.9389
      vertex -124.43 115.791 52.5
      vertex -119.98 113.163 52.5
    endloop
  endfacet
  facet normal -0.453129 -0.767364 0.453681
    outer loop
      vertex -119.98 113.163 52.5
      vertex -124.43 115.791 52.5
      vertex -120.093 112.954 52.0337
    endloop
  endfacet
  facet normal -0.453127 -0.767363 0.453685
    outer loop
      vertex -124.43 115.791 52.5
      vertex -124.559 115.592 52.0337
      vertex -120.093 112.954 52.0337
    endloop
  endfacet
  facet normal -0.474747 -0.803976 0.358102
    outer loop
      vertex -120.093 112.954 52.0337
      vertex -124.559 115.592 52.0337
      vertex -120.181 112.789 51.5451
    endloop
  endfacet
  facet normal -0.474748 -0.803977 0.358098
    outer loop
      vertex -124.559 115.592 52.0337
      vertex -124.661 115.434 51.5451
      vertex -120.181 112.789 51.5451
    endloop
  endfacet
  facet normal -0.49117 -0.831787 0.258618
    outer loop
      vertex -120.181 112.789 51.5451
      vertex -124.661 115.434 51.5451
      vertex -120.245 112.669 51.0396
    endloop
  endfacet
  facet normal -0.491169 -0.831786 0.258622
    outer loop
      vertex -124.661 115.434 51.5451
      vertex -124.735 115.32 51.0396
      vertex -120.245 112.669 51.0396
    endloop
  endfacet
  facet normal -0.502219 -0.850498 0.156297
    outer loop
      vertex -120.245 112.669 51.0396
      vertex -124.735 115.32 51.0396
      vertex -120.284 112.597 50.5226
    endloop
  endfacet
  facet normal -0.502218 -0.850498 0.156299
    outer loop
      vertex -124.735 115.32 51.0396
      vertex -124.779 115.252 50.5226
      vertex -120.284 112.597 50.5226
    endloop
  endfacet
  facet normal -0.120579 -0.991326 0.0522916
    outer loop
      vertex -100.592 105.913 50.5226
      vertex -100.597 105.886 50
      vertex -95.4098 105.283 50.5226
    endloop
  endfacet
  facet normal -0.13083 -0.976526 0.171117
    outer loop
      vertex -100.597 105.886 50
      vertex -96.9439 105.397 50
      vertex -95.4098 105.283 50.5226
    endloop
  endfacet
  facet normal -0.0916923 -0.994411 0.0523377
    outer loop
      vertex -95.4098 105.283 50.5226
      vertex -96.9439 105.397 50
      vertex -95.412 105.256 50
    endloop
  endfacet
  facet normal -0.223144 -0.97338 0.0523303
    outer loop
      vertex -105.712 106.942 50
      vertex -103.317 106.393 50
      vertex -105.706 106.969 50.5226
    endloop
  endfacet
  facet normal -0.199725 -0.9678 0.15321
    outer loop
      vertex -103.317 106.393 50
      vertex -100.592 105.913 50.5226
      vertex -105.706 106.969 50.5226
    endloop
  endfacet
  facet normal -0.199627 -0.967326 0.156302
    outer loop
      vertex -105.706 106.969 50.5226
      vertex -100.592 105.913 50.5226
      vertex -105.686 107.048 51.0396
    endloop
  endfacet
  facet normal -0.199627 -0.967326 0.156301
    outer loop
      vertex -100.592 105.913 50.5226
      vertex -100.579 105.994 51.0396
      vertex -105.686 107.048 51.0396
    endloop
  endfacet
  facet normal -0.195236 -0.946047 0.258607
    outer loop
      vertex -105.686 107.048 51.0396
      vertex -100.579 105.994 51.0396
      vertex -105.653 107.179 51.5451
    endloop
  endfacet
  facet normal -0.195234 -0.946044 0.25862
    outer loop
      vertex -100.579 105.994 51.0396
      vertex -100.557 106.128 51.5451
      vertex -105.653 107.179 51.5451
    endloop
  endfacet
  facet normal -0.188707 -0.914415 0.3581
    outer loop
      vertex -105.653 107.179 51.5451
      vertex -100.557 106.128 51.5451
      vertex -105.607 107.361 52.0337
    endloop
  endfacet
  facet normal -0.188705 -0.914412 0.358108
    outer loop
      vertex -100.557 106.128 51.5451
      vertex -100.527 106.313 52.0337
      vertex -105.607 107.361 52.0337
    endloop
  endfacet
  facet normal -0.180112 -0.87277 0.453688
    outer loop
      vertex -105.607 107.361 52.0337
      vertex -100.527 106.313 52.0337
      vertex -105.55 107.592 52.5
    endloop
  endfacet
  facet normal -0.180113 -0.872773 0.453681
    outer loop
      vertex -100.527 106.313 52.0337
      vertex -100.489 106.547 52.5
      vertex -105.55 107.592 52.5
    endloop
  endfacet
  facet normal -0.169546 -0.821569 0.544315
    outer loop
      vertex -105.55 107.592 52.5
      vertex -100.489 106.547 52.5
      vertex -105.481 107.868 52.9389
    endloop
  endfacet
  facet normal -0.169547 -0.821572 0.54431
    outer loop
      vertex -100.489 106.547 52.5
      vertex -100.443 106.829 52.9389
      vertex -105.481 107.868 52.9389
    endloop
  endfacet
  facet normal -0.157123 -0.761368 0.628992
    outer loop
      vertex -105.481 107.868 52.9389
      vertex -100.443 106.829 52.9389
      vertex -105.401 108.188 53.3457
    endloop
  endfacet
  facet normal -0.157123 -0.761367 0.628994
    outer loop
      vertex -100.443 106.829 52.9389
      vertex -100.389 107.154 53.3457
      vertex -105.401 108.188 53.3457
    endloop
  endfacet
  facet normal -0.142974 -0.692806 0.706808
    outer loop
      vertex -105.401 108.188 53.3457
      vertex -100.389 107.154 53.3457
      vertex -105.311 108.547 53.7157
    endloop
  endfacet
  facet normal -0.142973 -0.692805 0.70681
    outer loop
      vertex -100.389 107.154 53.3457
      vertex -100.33 107.519 53.7157
      vertex -105.311 108.547 53.7157
    endloop
  endfacet
  facet normal -0.127257 -0.616651 0.776883
    outer loop
      vertex -105.311 108.547 53.7157
      vertex -100.33 107.519 53.7157
      vertex -105.213 108.942 54.0451
    endloop
  endfacet
  facet normal -0.127258 -0.616654 0.776881
    outer loop
      vertex -100.33 107.519 53.7157
      vertex -100.264 107.92 54.0451
      vertex -105.213 108.942 54.0451
    endloop
  endfacet
  facet normal -0.110143 -0.533716 0.83846
    outer loop
      vertex -105.213 108.942 54.0451
      vertex -100.264 107.92 54.0451
      vertex -105.106 109.368 54.3301
    endloop
  endfacet
  facet normal -0.110142 -0.533715 0.838461
    outer loop
      vertex -100.264 107.92 54.0451
      vertex -100.193 108.354 54.3301
      vertex -105.106 109.368 54.3301
    endloop
  endfacet
  facet normal -0.0918185 -0.444924 0.890849
    outer loop
      vertex -105.106 109.368 54.3301
      vertex -100.193 108.354 54.3301
      vertex -104.993 109.82 54.5677
    endloop
  endfacet
  facet normal -0.0918185 -0.444924 0.890849
    outer loop
      vertex -100.193 108.354 54.3301
      vertex -100.118 108.814 54.5677
      vertex -104.993 109.82 54.5677
    endloop
  endfacet
  facet normal -0.072483 -0.35123 0.933479
    outer loop
      vertex -104.993 109.82 54.5677
      vertex -100.118 108.814 54.5677
      vertex -104.875 110.294 54.7553
    endloop
  endfacet
  facet normal -0.0724829 -0.35123 0.93348
    outer loop
      vertex -100.118 108.814 54.5677
      vertex -100.039 109.296 54.7553
      vertex -104.875 110.294 54.7553
    endloop
  endfacet
  facet normal -0.311786 -0.94871 0.0523321
    outer loop
      vertex -110.723 108.415 50
      vertex -109.556 108.032 50
      vertex -110.714 108.441 50.5226
    endloop
  endfacet
  facet normal -0.279872 -0.9518 0.125493
    outer loop
      vertex -109.556 108.032 50
      vertex -105.706 106.969 50.5226
      vertex -110.714 108.441 50.5226
    endloop
  endfacet
  facet normal -0.278634 -0.947591 0.156312
    outer loop
      vertex -110.714 108.441 50.5226
      vertex -105.706 106.969 50.5226
      vertex -110.688 108.519 51.0396
    endloop
  endfacet
  facet normal -0.278636 -0.947593 0.156301
    outer loop
      vertex -105.706 106.969 50.5226
      vertex -105.686 107.048 51.0396
      vertex -110.688 108.519 51.0396
    endloop
  endfacet
  facet normal -0.272506 -0.926746 0.258614
    outer loop
      vertex -110.688 108.519 51.0396
      vertex -105.686 107.048 51.0396
      vertex -110.645 108.647 51.5451
    endloop
  endfacet
  facet normal -0.272507 -0.926748 0.258608
    outer loop
      vertex -105.686 107.048 51.0396
      vertex -105.653 107.179 51.5451
      vertex -110.645 108.647 51.5451
    endloop
  endfacet
  facet normal -0.263396 -0.895762 0.358096
    outer loop
      vertex -110.645 108.647 51.5451
      vertex -105.653 107.179 51.5451
      vertex -110.584 108.825 52.0337
    endloop
  endfacet
  facet normal -0.263395 -0.895761 0.358099
    outer loop
      vertex -105.653 107.179 51.5451
      vertex -105.607 107.361 52.0337
      vertex -110.584 108.825 52.0337
    endloop
  endfacet
  facet normal -0.2514 -0.854967 0.453684
    outer loop
      vertex -110.584 108.825 52.0337
      vertex -105.607 107.361 52.0337
      vertex -110.508 109.05 52.5
    endloop
  endfacet
  facet normal -0.251399 -0.854965 0.453688
    outer loop
      vertex -105.607 107.361 52.0337
      vertex -105.55 107.592 52.5
      vertex -110.508 109.05 52.5
    endloop
  endfacet
  facet normal -0.236651 -0.804809 0.544315
    outer loop
      vertex -110.508 109.05 52.5
      vertex -105.55 107.592 52.5
      vertex -110.416 109.32 52.9389
    endloop
  endfacet
  facet normal -0.236651 -0.804809 0.544315
    outer loop
      vertex -105.55 107.592 52.5
      vertex -105.481 107.868 52.9389
      vertex -110.416 109.32 52.9389
    endloop
  endfacet
  facet normal -0.21931 -0.745837 0.628992
    outer loop
      vertex -110.416 109.32 52.9389
      vertex -105.481 107.868 52.9389
      vertex -110.31 109.632 53.3457
    endloop
  endfacet
  facet normal -0.21931 -0.745836 0.628992
    outer loop
      vertex -105.481 107.868 52.9389
      vertex -105.401 108.188 53.3457
      vertex -110.31 109.632 53.3457
    endloop
  endfacet
  facet normal -0.19956 -0.678671 0.706811
    outer loop
      vertex -110.31 109.632 53.3457
      vertex -105.401 108.188 53.3457
      vertex -110.191 109.982 53.7157
    endloop
  endfacet
  facet normal -0.199561 -0.678673 0.706808
    outer loop
      vertex -105.401 108.188 53.3457
      vertex -105.311 108.547 53.7157
      vertex -110.191 109.982 53.7157
    endloop
  endfacet
  facet normal -0.177625 -0.604072 0.776883
    outer loop
      vertex -110.191 109.982 53.7157
      vertex -105.311 108.547 53.7157
      vertex -110.061 110.367 54.0451
    endloop
  endfacet
  facet normal -0.177625 -0.604072 0.776883
    outer loop
      vertex -105.311 108.547 53.7157
      vertex -105.213 108.942 54.0451
      vertex -110.061 110.367 54.0451
    endloop
  endfacet
  facet normal -0.153735 -0.522827 0.838461
    outer loop
      vertex -110.061 110.367 54.0451
      vertex -105.213 108.942 54.0451
      vertex -109.92 110.783 54.3301
    endloop
  endfacet
  facet normal -0.153736 -0.522829 0.83846
    outer loop
      vertex -105.213 108.942 54.0451
      vertex -105.106 109.368 54.3301
      vertex -109.92 110.783 54.3301
    endloop
  endfacet
  facet normal -0.12816 -0.435848 0.890849
    outer loop
      vertex -109.92 110.783 54.3301
      vertex -105.106 109.368 54.3301
      vertex -109.77 111.224 54.5677
    endloop
  endfacet
  facet normal -0.128159 -0.435847 0.890849
    outer loop
      vertex -105.106 109.368 54.3301
      vertex -104.993 109.82 54.5677
      vertex -109.77 111.224 54.5677
    endloop
  endfacet
  facet normal -0.101171 -0.344065 0.933479
    outer loop
      vertex -109.77 111.224 54.5677
      vertex -104.993 109.82 54.5677
      vertex -109.613 111.687 54.7553
    endloop
  endfacet
  facet normal -0.101171 -0.344065 0.933479
    outer loop
      vertex -104.993 109.82 54.5677
      vertex -104.875 110.294 54.7553
      vertex -109.613 111.687 54.7553
    endloop
  endfacet
  facet normal -0.129171 -0.334561 0.933479
    outer loop
      vertex -109.613 111.687 54.7553
      vertex -114.22 113.466 54.7553
      vertex -109.77 111.224 54.5677
    endloop
  endfacet
  facet normal -0.12917 -0.334558 0.933481
    outer loop
      vertex -114.22 113.466 54.7553
      vertex -114.414 113.018 54.5677
      vertex -109.77 111.224 54.5677
    endloop
  endfacet
  facet normal -0.163629 -0.423809 0.890849
    outer loop
      vertex -109.77 111.224 54.5677
      vertex -114.414 113.018 54.5677
      vertex -109.92 110.783 54.3301
    endloop
  endfacet
  facet normal -0.163629 -0.423811 0.890848
    outer loop
      vertex -114.414 113.018 54.5677
      vertex -114.6 112.59 54.3301
      vertex -109.92 110.783 54.3301
    endloop
  endfacet
  facet normal -0.196283 -0.508386 0.838461
    outer loop
      vertex -109.92 110.783 54.3301
      vertex -114.6 112.59 54.3301
      vertex -110.061 110.367 54.0451
    endloop
  endfacet
  facet normal -0.196285 -0.508389 0.838459
    outer loop
      vertex -114.6 112.59 54.3301
      vertex -114.775 112.187 54.0451
      vertex -110.061 110.367 54.0451
    endloop
  endfacet
  facet normal -0.226785 -0.587385 0.776883
    outer loop
      vertex -110.061 110.367 54.0451
      vertex -114.775 112.187 54.0451
      vertex -110.191 109.982 53.7157
    endloop
  endfacet
  facet normal -0.226784 -0.587384 0.776884
    outer loop
      vertex -114.775 112.187 54.0451
      vertex -114.937 111.814 53.7157
      vertex -110.191 109.982 53.7157
    endloop
  endfacet
  facet normal -0.254791 -0.659924 0.706811
    outer loop
      vertex -110.191 109.982 53.7157
      vertex -114.937 111.814 53.7157
      vertex -110.31 109.632 53.3457
    endloop
  endfacet
  facet normal -0.254792 -0.659925 0.70681
    outer loop
      vertex -114.937 111.814 53.7157
      vertex -115.084 111.475 53.3457
      vertex -110.31 109.632 53.3457
    endloop
  endfacet
  facet normal -0.280007 -0.725235 0.628992
    outer loop
      vertex -110.31 109.632 53.3457
      vertex -115.084 111.475 53.3457
      vertex -110.416 109.32 52.9389
    endloop
  endfacet
  facet normal -0.280003 -0.725228 0.629001
    outer loop
      vertex -115.084 111.475 53.3457
      vertex -115.215 111.173 52.9389
      vertex -110.416 109.32 52.9389
    endloop
  endfacet
  facet normal -0.302146 -0.782578 0.544316
    outer loop
      vertex -110.416 109.32 52.9389
      vertex -115.215 111.173 52.9389
      vertex -110.508 109.05 52.5
    endloop
  endfacet
  facet normal -0.302149 -0.782584 0.544305
    outer loop
      vertex -115.215 111.173 52.9389
      vertex -115.329 110.911 52.5
      vertex -110.508 109.05 52.5
    endloop
  endfacet
  facet normal -0.320978 -0.831351 0.453684
    outer loop
      vertex -110.508 109.05 52.5
      vertex -115.329 110.911 52.5
      vertex -110.584 108.825 52.0337
    endloop
  endfacet
  facet normal -0.320977 -0.831351 0.453685
    outer loop
      vertex -115.329 110.911 52.5
      vertex -115.424 110.693 52.0337
      vertex -110.584 108.825 52.0337
    endloop
  endfacet
  facet normal -0.336293 -0.871019 0.358096
    outer loop
      vertex -110.584 108.825 52.0337
      vertex -115.424 110.693 52.0337
      vertex -110.645 108.647 51.5451
    endloop
  endfacet
  facet normal -0.336292 -0.871017 0.358102
    outer loop
      vertex -115.424 110.693 52.0337
      vertex -115.498 110.521 51.5451
      vertex -110.645 108.647 51.5451
    endloop
  endfacet
  facet normal -0.347925 -0.901148 0.258614
    outer loop
      vertex -110.645 108.647 51.5451
      vertex -115.498 110.521 51.5451
      vertex -110.688 108.519 51.0396
    endloop
  endfacet
  facet normal -0.347925 -0.901147 0.258616
    outer loop
      vertex -115.498 110.521 51.5451
      vertex -115.552 110.397 51.0396
      vertex -110.688 108.519 51.0396
    endloop
  endfacet
  facet normal -0.35575 -0.921416 0.156312
    outer loop
      vertex -110.688 108.519 51.0396
      vertex -115.552 110.397 51.0396
      vertex -110.714 108.441 50.5226
    endloop
  endfacet
  facet normal -0.355752 -0.921418 0.156302
    outer loop
      vertex -115.552 110.397 51.0396
      vertex -115.585 110.322 50.5226
      vertex -110.714 108.441 50.5226
    endloop
  endfacet
  facet normal -0.359686 -0.931607 0.0522905
    outer loop
      vertex -110.714 108.441 50.5226
      vertex -115.585 110.322 50.5226
      vertex -110.723 108.415 50
    endloop
  endfacet
  facet normal -0.359686 -0.931607 0.0522889
    outer loop
      vertex -115.585 110.322 50.5226
      vertex -115.596 110.297 50
      vertex -110.723 108.415 50
    endloop
  endfacet
  facet normal -0.156291 -0.32278 0.933481
    outer loop
      vertex -114.22 113.466 54.7553
      vertex -118.664 115.618 54.7553
      vertex -114.414 113.018 54.5677
    endloop
  endfacet
  facet normal -0.156292 -0.322781 0.93348
    outer loop
      vertex -118.664 115.618 54.7553
      vertex -118.895 115.187 54.5677
      vertex -114.414 113.018 54.5677
    endloop
  endfacet
  facet normal -0.197987 -0.40889 0.890848
    outer loop
      vertex -114.414 113.018 54.5677
      vertex -118.895 115.187 54.5677
      vertex -114.6 112.59 54.3301
    endloop
  endfacet
  facet normal -0.197988 -0.408892 0.890847
    outer loop
      vertex -118.895 115.187 54.5677
      vertex -119.115 114.776 54.3301
      vertex -114.6 112.59 54.3301
    endloop
  endfacet
  facet normal -0.237499 -0.490491 0.838459
    outer loop
      vertex -114.6 112.59 54.3301
      vertex -119.115 114.776 54.3301
      vertex -114.775 112.187 54.0451
    endloop
  endfacet
  facet normal -0.237496 -0.490487 0.838462
    outer loop
      vertex -119.115 114.776 54.3301
      vertex -119.323 114.389 54.0451
      vertex -114.775 112.187 54.0451
    endloop
  endfacet
  facet normal -0.274401 -0.566706 0.776884
    outer loop
      vertex -114.775 112.187 54.0451
      vertex -119.323 114.389 54.0451
      vertex -114.937 111.814 53.7157
    endloop
  endfacet
  facet normal -0.274399 -0.566703 0.776887
    outer loop
      vertex -119.323 114.389 54.0451
      vertex -119.515 114.031 53.7157
      vertex -114.937 111.814 53.7157
    endloop
  endfacet
  facet normal -0.308289 -0.636693 0.70681
    outer loop
      vertex -114.937 111.814 53.7157
      vertex -119.515 114.031 53.7157
      vertex -115.084 111.475 53.3457
    endloop
  endfacet
  facet normal -0.308293 -0.6367 0.706802
    outer loop
      vertex -119.515 114.031 53.7157
      vertex -119.69 113.705 53.3457
      vertex -115.084 111.475 53.3457
    endloop
  endfacet
  facet normal -0.338796 -0.699696 0.629001
    outer loop
      vertex -115.084 111.475 53.3457
      vertex -119.69 113.705 53.3457
      vertex -115.215 111.173 52.9389
    endloop
  endfacet
  facet normal -0.338796 -0.699695 0.629002
    outer loop
      vertex -119.69 113.705 53.3457
      vertex -119.846 113.415 52.9389
      vertex -115.215 111.173 52.9389
    endloop
  endfacet
  facet normal -0.365591 -0.755033 0.544305
    outer loop
      vertex -115.215 111.173 52.9389
      vertex -119.846 113.415 52.9389
      vertex -115.329 110.911 52.5
    endloop
  endfacet
  facet normal -0.365588 -0.75503 0.544311
    outer loop
      vertex -119.846 113.415 52.9389
      vertex -119.98 113.163 52.5
      vertex -115.329 110.911 52.5
    endloop
  endfacet
  facet normal -0.388372 -0.802083 0.453685
    outer loop
      vertex -115.329 110.911 52.5
      vertex -119.98 113.163 52.5
      vertex -115.424 110.693 52.0337
    endloop
  endfacet
  facet normal -0.388373 -0.802085 0.453681
    outer loop
      vertex -119.98 113.163 52.5
      vertex -120.093 112.954 52.0337
      vertex -115.424 110.693 52.0337
    endloop
  endfacet
  facet normal -0.406903 -0.840353 0.358102
    outer loop
      vertex -115.424 110.693 52.0337
      vertex -120.093 112.954 52.0337
      vertex -115.498 110.521 51.5451
    endloop
  endfacet
  facet normal -0.406903 -0.840353 0.358101
    outer loop
      vertex -120.093 112.954 52.0337
      vertex -120.181 112.789 51.5451
      vertex -115.498 110.521 51.5451
    endloop
  endfacet
  facet normal -0.420978 -0.869422 0.258616
    outer loop
      vertex -115.498 110.521 51.5451
      vertex -120.181 112.789 51.5451
      vertex -115.552 110.397 51.0396
    endloop
  endfacet
  facet normal -0.420978 -0.869422 0.258618
    outer loop
      vertex -120.181 112.789 51.5451
      vertex -120.245 112.669 51.0396
      vertex -115.552 110.397 51.0396
    endloop
  endfacet
  facet normal -0.430447 -0.88898 0.156302
    outer loop
      vertex -115.552 110.397 51.0396
      vertex -120.245 112.669 51.0396
      vertex -115.585 110.322 50.5226
    endloop
  endfacet
  facet normal -0.430448 -0.88898 0.156298
    outer loop
      vertex -120.245 112.669 51.0396
      vertex -120.284 112.597 50.5226
      vertex -115.585 110.322 50.5226
    endloop
  endfacet
  facet normal -0.435208 -0.89881 0.0522885
    outer loop
      vertex -115.585 110.322 50.5226
      vertex -120.284 112.597 50.5226
      vertex -115.596 110.297 50
    endloop
  endfacet
  facet normal -0.435208 -0.89881 0.0522909
    outer loop
      vertex -120.284 112.597 50.5226
      vertex -120.297 112.573 50
      vertex -115.596 110.297 50
    endloop
  endfacet
  facet normal -0.507772 -0.859903 0.0522921
    outer loop
      vertex -124.779 115.252 50.5226
      vertex -124.794 115.229 50
      vertex -120.284 112.597 50.5226
    endloop
  endfacet
  facet normal -0.511132 -0.846729 0.147625
    outer loop
      vertex -124.794 115.229 50
      vertex -121.374 113.164 50
      vertex -120.284 112.597 50.5226
    endloop
  endfacet
  facet normal -0.480401 -0.875486 0.0523327
    outer loop
      vertex -120.284 112.597 50.5226
      vertex -121.374 113.164 50
      vertex -120.297 112.573 50
    endloop
  endfacet
  facet normal -0.592589 -0.803805 0.0523015
    outer loop
      vertex -129.058 118.246 50
      vertex -126.831 116.604 50
      vertex -129.041 118.268 50.5226
    endloop
  endfacet
  facet normal -0.570853 -0.80663 0.153216
    outer loop
      vertex -126.831 116.604 50
      vertex -124.779 115.252 50.5226
      vertex -129.041 118.268 50.5226
    endloop
  endfacet
  facet normal -0.570572 -0.806232 0.156327
    outer loop
      vertex -129.041 118.268 50.5226
      vertex -124.779 115.252 50.5226
      vertex -128.991 118.333 51.0396
    endloop
  endfacet
  facet normal -0.570577 -0.806234 0.1563
    outer loop
      vertex -124.779 115.252 50.5226
      vertex -124.735 115.32 51.0396
      vertex -128.991 118.333 51.0396
    endloop
  endfacet
  facet normal -0.558027 -0.788501 0.258598
    outer loop
      vertex -128.991 118.333 51.0396
      vertex -124.735 115.32 51.0396
      vertex -128.908 118.44 51.5451
    endloop
  endfacet
  facet normal -0.558021 -0.788497 0.258622
    outer loop
      vertex -124.735 115.32 51.0396
      vertex -124.661 115.434 51.5451
      vertex -128.908 118.44 51.5451
    endloop
  endfacet
  facet normal -0.539363 -0.762132 0.358111
    outer loop
      vertex -128.908 118.44 51.5451
      vertex -124.661 115.434 51.5451
      vertex -128.794 118.588 52.0337
    endloop
  endfacet
  facet normal -0.539367 -0.762135 0.358098
    outer loop
      vertex -124.661 115.434 51.5451
      vertex -124.559 115.592 52.0337
      vertex -128.794 118.588 52.0337
    endloop
  endfacet
  facet normal -0.514804 -0.727428 0.45368
    outer loop
      vertex -128.794 118.588 52.0337
      vertex -124.559 115.592 52.0337
      vertex -128.649 118.776 52.5
    endloop
  endfacet
  facet normal -0.514802 -0.727426 0.453686
    outer loop
      vertex -124.559 115.592 52.0337
      vertex -124.43 115.791 52.5
      vertex -128.649 118.776 52.5
    endloop
  endfacet
  facet normal -0.484603 -0.684754 0.544309
    outer loop
      vertex -128.649 118.776 52.5
      vertex -124.43 115.791 52.5
      vertex -128.474 119.002 52.9389
    endloop
  endfacet
  facet normal -0.484603 -0.684754 0.544309
    outer loop
      vertex -124.43 115.791 52.5
      vertex -124.275 116.03 52.9389
      vertex -128.474 119.002 52.9389
    endloop
  endfacet
  facet normal -0.449089 -0.634572 0.628997
    outer loop
      vertex -128.474 119.002 52.9389
      vertex -124.275 116.03 52.9389
      vertex -128.273 119.263 53.3457
    endloop
  endfacet
  facet normal -0.449088 -0.634571 0.628999
    outer loop
      vertex -124.275 116.03 52.9389
      vertex -124.096 116.307 53.3457
      vertex -128.273 119.263 53.3457
    endloop
  endfacet
  facet normal -0.408651 -0.577432 0.706808
    outer loop
      vertex -128.273 119.263 53.3457
      vertex -124.096 116.307 53.3457
      vertex -128.047 119.556 53.7157
    endloop
  endfacet
  facet normal -0.40865 -0.577432 0.706808
    outer loop
      vertex -124.096 116.307 53.3457
      vertex -123.895 116.617 53.7157
      vertex -128.047 119.556 53.7157
    endloop
  endfacet
  facet normal -0.363728 -0.513955 0.776886
    outer loop
      vertex -128.047 119.556 53.7157
      vertex -123.895 116.617 53.7157
      vertex -127.799 119.878 54.0451
    endloop
  endfacet
  facet normal -0.363731 -0.513959 0.776883
    outer loop
      vertex -123.895 116.617 53.7157
      vertex -123.674 116.959 54.0451
      vertex -127.799 119.878 54.0451
    endloop
  endfacet
  facet normal -0.31481 -0.444832 0.838463
    outer loop
      vertex -127.799 119.878 54.0451
      vertex -123.674 116.959 54.0451
      vertex -127.531 120.225 54.3301
    endloop
  endfacet
  facet normal -0.31481 -0.444832 0.838462
    outer loop
      vertex -123.674 116.959 54.0451
      vertex -123.435 117.327 54.3301
      vertex -127.531 120.225 54.3301
    endloop
  endfacet
  facet normal -0.262442 -0.370835 0.890845
    outer loop
      vertex -127.531 120.225 54.3301
      vertex -123.435 117.327 54.3301
      vertex -127.246 120.595 54.5677
    endloop
  endfacet
  facet normal -0.262439 -0.370832 0.890848
    outer loop
      vertex -123.435 117.327 54.3301
      vertex -123.182 117.719 54.5677
      vertex -127.246 120.595 54.5677
    endloop
  endfacet
  facet normal -0.20717 -0.292736 0.933481
    outer loop
      vertex -127.246 120.595 54.5677
      vertex -123.182 117.719 54.5677
      vertex -126.947 120.982 54.7553
    endloop
  endfacet
  facet normal -0.207172 -0.292738 0.93348
    outer loop
      vertex -123.182 117.719 54.5677
      vertex -122.916 118.129 54.7553
      vertex -126.947 120.982 54.7553
    endloop
  endfacet
  facet normal -0.149632 -0.211433 0.965871
    outer loop
      vertex -126.947 120.982 54.7553
      vertex -122.916 118.129 54.7553
      vertex -122.642 118.553 54.8907
    endloop
  endfacet
  facet normal -0.131706 -0.223041 0.965871
    outer loop
      vertex -122.916 118.129 54.7553
      vertex -118.664 115.618 54.7553
      vertex -122.642 118.553 54.8907
    endloop
  endfacet
  facet normal -0.131707 -0.223043 0.96587
    outer loop
      vertex -122.642 118.553 54.8907
      vertex -118.664 115.618 54.7553
      vertex -118.425 116.063 54.8907
    endloop
  endfacet
  facet normal -0.112885 -0.233135 0.96587
    outer loop
      vertex -118.664 115.618 54.7553
      vertex -114.22 113.466 54.7553
      vertex -118.425 116.063 54.8907
    endloop
  endfacet
  facet normal -0.112885 -0.233135 0.96587
    outer loop
      vertex -118.425 116.063 54.8907
      vertex -114.22 113.466 54.7553
      vertex -114.018 113.929 54.8907
    endloop
  endfacet
  facet normal -0.0932959 -0.241642 0.96587
    outer loop
      vertex -114.22 113.466 54.7553
      vertex -109.613 111.687 54.7553
      vertex -114.018 113.929 54.8907
    endloop
  endfacet
  facet normal -0.0932947 -0.24164 0.965871
    outer loop
      vertex -114.018 113.929 54.8907
      vertex -109.613 111.687 54.7553
      vertex -109.45 112.166 54.8907
    endloop
  endfacet
  facet normal -0.0730717 -0.248504 0.965871
    outer loop
      vertex -109.613 111.687 54.7553
      vertex -104.875 110.294 54.7553
      vertex -109.45 112.166 54.8907
    endloop
  endfacet
  facet normal -0.073071 -0.248502 0.965871
    outer loop
      vertex -109.45 112.166 54.8907
      vertex -104.875 110.294 54.7553
      vertex -104.753 110.784 54.8907
    endloop
  endfacet
  facet normal -0.0523511 -0.253677 0.965871
    outer loop
      vertex -104.875 110.294 54.7553
      vertex -100.039 109.296 54.7553
      vertex -104.753 110.784 54.8907
    endloop
  endfacet
  facet normal -0.0523518 -0.25368 0.965871
    outer loop
      vertex -104.753 110.784 54.8907
      vertex -100.039 109.296 54.7553
      vertex -99.957 109.795 54.8907
    endloop
  endfacet
  facet normal -0.0312759 -0.25713 0.965871
    outer loop
      vertex -100.039 109.296 54.7553
      vertex -95.1366 108.7 54.7553
      vertex -99.957 109.795 54.8907
    endloop
  endfacet
  facet normal -0.0312754 -0.257128 0.965871
    outer loop
      vertex -99.957 109.795 54.8907
      vertex -95.1366 108.7 54.7553
      vertex -95.0963 109.204 54.8907
    endloop
  endfacet
  facet normal -0.0199894 -0.258045 0.965926
    outer loop
      vertex -95.1366 108.7 54.7553
      vertex -94.4536 109.146 54.8887
      vertex -95.0963 109.204 54.8907
    endloop
  endfacet
  facet normal -0.0108499 -0.15617 0.987671
    outer loop
      vertex -95.0963 109.204 54.8907
      vertex -94.4536 109.146 54.8887
      vertex -94.981 109.714 54.9727
    endloop
  endfacet
  facet normal -0.664054 -0.745851 0.0523359
    outer loop
      vertex -133.058 121.604 50
      vertex -131.909 120.581 50
      vertex -133.04 121.625 50.5226
    endloop
  endfacet
  facet normal -0.636921 -0.758712 0.136701
    outer loop
      vertex -131.909 120.581 50
      vertex -129.041 118.268 50.5226
      vertex -133.04 121.625 50.5226
    endloop
  endfacet
  facet normal -0.635054 -0.756489 0.156306
    outer loop
      vertex -133.04 121.625 50.5226
      vertex -129.041 118.268 50.5226
      vertex -132.985 121.685 51.0396
    endloop
  endfacet
  facet normal -0.63505 -0.756487 0.156329
    outer loop
      vertex -129.041 118.268 50.5226
      vertex -128.991 118.333 51.0396
      vertex -132.985 121.685 51.0396
    endloop
  endfacet
  facet normal -0.621085 -0.739853 0.258594
    outer loop
      vertex -132.985 121.685 51.0396
      vertex -128.991 118.333 51.0396
      vertex -132.893 121.785 51.5451
    endloop
  endfacet
  facet normal -0.621085 -0.739852 0.258597
    outer loop
      vertex -128.991 118.333 51.0396
      vertex -128.908 118.44 51.5451
      vertex -132.893 121.785 51.5451
    endloop
  endfacet
  facet normal -0.600311 -0.715106 0.358119
    outer loop
      vertex -132.893 121.785 51.5451
      vertex -128.908 118.44 51.5451
      vertex -132.767 121.924 52.0337
    endloop
  endfacet
  facet normal -0.600314 -0.715108 0.358112
    outer loop
      vertex -128.908 118.44 51.5451
      vertex -128.794 118.588 52.0337
      vertex -132.767 121.924 52.0337
    endloop
  endfacet
  facet normal -0.572981 -0.682548 0.453676
    outer loop
      vertex -132.767 121.924 52.0337
      vertex -128.794 118.588 52.0337
      vertex -132.607 122.099 52.5
    endloop
  endfacet
  facet normal -0.572979 -0.682547 0.453678
    outer loop
      vertex -128.794 118.588 52.0337
      vertex -128.649 118.776 52.5
      vertex -132.607 122.099 52.5
    endloop
  endfacet
  facet normal -0.539361 -0.6425 0.544319
    outer loop
      vertex -132.607 122.099 52.5
      vertex -128.649 118.776 52.5
      vertex -132.415 122.31 52.9389
    endloop
  endfacet
  facet normal -0.539366 -0.642504 0.54431
    outer loop
      vertex -128.649 118.776 52.5
      vertex -128.474 119.002 52.9389
      vertex -132.415 122.31 52.9389
    endloop
  endfacet
  facet normal -0.49984 -0.59542 0.628995
    outer loop
      vertex -132.415 122.31 52.9389
      vertex -128.474 119.002 52.9389
      vertex -132.193 122.553 53.3457
    endloop
  endfacet
  facet normal -0.499839 -0.595419 0.628997
    outer loop
      vertex -128.474 119.002 52.9389
      vertex -128.273 119.263 53.3457
      vertex -132.193 122.553 53.3457
    endloop
  endfacet
  facet normal -0.454836 -0.54181 0.7068
    outer loop
      vertex -132.193 122.553 53.3457
      vertex -128.273 119.263 53.3457
      vertex -131.943 122.826 53.7157
    endloop
  endfacet
  facet normal -0.45483 -0.541805 0.706807
    outer loop
      vertex -128.273 119.263 53.3457
      vertex -128.047 119.556 53.7157
      vertex -131.943 122.826 53.7157
    endloop
  endfacet
  facet normal -0.409421 -0.487712 0.771046
    outer loop
      vertex -131.943 122.826 53.7157
      vertex -128.047 119.556 53.7157
      vertex -131.491 122.981 54.0536
    endloop
  endfacet
  facet normal -0.404037 -0.482877 0.776907
    outer loop
      vertex -128.047 119.556 53.7157
      vertex -127.799 119.878 54.0451
      vertex -131.491 122.981 54.0536
    endloop
  endfacet
  facet normal -0.379722 -0.454027 0.806021
    outer loop
      vertex -131.491 122.981 54.0536
      vertex -127.799 119.878 54.0451
      vertex -130.732 122.691 54.2481
    endloop
  endfacet
  facet normal -0.347534 -0.422705 0.836983
    outer loop
      vertex -127.799 119.878 54.0451
      vertex -130.348 122.547 54.3345
      vertex -130.732 122.691 54.2481
    endloop
  endfacet
  facet normal 0 1 0
    outer loop
      vertex -90.5025 125.054 50
      vertex -90.5025 125.054 35
      vertex -136.557 125.054 50
    endloop
  endfacet
  facet normal 0 1 0
    outer loop
      vertex -90.5025 125.054 35
      vertex -136.557 125.054 35
      vertex -136.557 125.054 50
    endloop
  endfacet
  facet normal 1 0 0
    outer loop
      vertex -90.5025 105.054 50
      vertex -90.5025 105.054 35
      vertex -90.5025 125.054 50
    endloop
  endfacet
  facet normal 1 0 0
    outer loop
      vertex -90.5025 105.054 35
      vertex -90.5025 125.054 35
      vertex -90.5025 125.054 50
    endloop
  endfacet
  facet normal -0.702126 -0.712053 0
    outer loop
      vertex -136.557 125.054 50
      vertex -136.557 125.054 35
      vertex -133.058 121.604 50
    endloop
  endfacet
  facet normal -0.693423 -0.72052 -0.00397728
    outer loop
      vertex -136.557 125.054 35
      vertex -131.909 120.581 35
      vertex -133.058 121.604 50
    endloop
  endfacet
  facet normal -0.664965 -0.746874 0
    outer loop
      vertex -133.058 121.604 50
      vertex -131.909 120.581 35
      vertex -131.909 120.581 50
    endloop
  endfacet
  facet normal -0.633606 -0.773656 0
    outer loop
      vertex -131.909 120.581 50
      vertex -131.909 120.581 35
      vertex -129.058 118.246 50
    endloop
  endfacet
  facet normal -0.616553 -0.787295 -0.00536524
    outer loop
      vertex -131.909 120.581 35
      vertex -126.831 116.604 35
      vertex -129.058 118.246 50
    endloop
  endfacet
  facet normal -0.593401 -0.804907 0
    outer loop
      vertex -129.058 118.246 50
      vertex -126.831 116.604 35
      vertex -126.831 116.604 50
    endloop
  endfacet
  facet normal -0.559709 -0.828689 0
    outer loop
      vertex -126.831 116.604 50
      vertex -126.831 116.604 35
      vertex -124.794 115.229 50
    endloop
  endfacet
  facet normal -0.533293 -0.845915 -0.00516544
    outer loop
      vertex -126.831 116.604 35
      vertex -121.374 113.164 35
      vertex -124.794 115.229 50
    endloop
  endfacet
  facet normal -0.516795 -0.856109 0
    outer loop
      vertex -124.794 115.229 50
      vertex -121.374 113.164 35
      vertex -121.374 113.164 50
    endloop
  endfacet
  facet normal -0.48106 -0.876688 0
    outer loop
      vertex -121.374 113.164 50
      vertex -121.374 113.164 35
      vertex -120.297 112.573 50
    endloop
  endfacet
  facet normal -0.444509 -0.895768 -0.00337669
    outer loop
      vertex -121.374 113.164 35
      vertex -115.596 110.297 35
      vertex -120.297 112.573 50
    endloop
  endfacet
  facet normal -0.435804 -0.900042 0
    outer loop
      vertex -120.297 112.573 50
      vertex -115.596 110.297 35
      vertex -115.596 110.297 50
    endloop
  endfacet
  facet normal -0.360179 -0.932883 0
    outer loop
      vertex -115.596 110.297 50
      vertex -115.596 110.297 35
      vertex -110.723 108.415 50
    endloop
  endfacet
  facet normal -0.351112 -0.936327 -0.00337701
    outer loop
      vertex -115.596 110.297 35
      vertex -109.556 108.032 35
      vertex -110.723 108.415 50
    endloop
  endfacet
  facet normal -0.312214 -0.950012 0
    outer loop
      vertex -110.723 108.415 50
      vertex -109.556 108.032 35
      vertex -109.556 108.032 50
    endloop
  endfacet
  facet normal -0.272786 -0.962075 0
    outer loop
      vertex -109.556 108.032 50
      vertex -109.556 108.032 35
      vertex -105.712 106.942 50
    endloop
  endfacet
  facet normal -0.254072 -0.967172 -0.00516565
    outer loop
      vertex -109.556 108.032 35
      vertex -103.317 106.393 35
      vertex -105.712 106.942 50
    endloop
  endfacet
  facet normal -0.22345 -0.974715 0
    outer loop
      vertex -105.712 106.942 50
      vertex -103.317 106.393 35
      vertex -103.317 106.393 50
    endloop
  endfacet
  facet normal -0.183079 -0.983098 0
    outer loop
      vertex -103.317 106.393 50
      vertex -103.317 106.393 35
      vertex -100.597 105.886 50
    endloop
  endfacet
  facet normal -0.154401 -0.987994 -0.00536608
    outer loop
      vertex -103.317 106.393 35
      vertex -96.9439 105.397 35
      vertex -100.597 105.886 50
    endloop
  endfacet
  facet normal -0.132788 -0.991144 0
    outer loop
      vertex -100.597 105.886 50
      vertex -96.9439 105.397 35
      vertex -96.9439 105.397 50
    endloop
  endfacet
  facet normal -0.0918181 -0.995776 0
    outer loop
      vertex -96.9439 105.397 50
      vertex -96.9439 105.397 35
      vertex -95.412 105.256 50
    endloop
  endfacet
  facet normal -0.0531289 -0.99858 -0.00397769
    outer loop
      vertex -96.9439 105.397 35
      vertex -90.5025 105.054 35
      vertex -95.412 105.256 50
    endloop
  endfacet
  facet normal -0.0409996 -0.999159 0
    outer loop
      vertex -95.412 105.256 50
      vertex -90.5025 105.054 35
      vertex -90.5025 105.054 50
    endloop
  endfacet
  facet normal 0.78087 5.0841e-6 0.624693
    outer loop
      vertex -91.4586 106.02 52.9406
      vertex -91.4586 106.02 52.9405
      vertex -91.4574 124.099 52.9389
    endloop
  endfacet
  facet normal 0.977217 -5.83193e-8 0.212244
    outer loop
      vertex -90.621 105.173 51.0821
      vertex -90.6118 105.164 51.0398
      vertex -90.6118 124.945 51.0396
    endloop
  endfacet
  facet normal 0.984263 -4.98499e-7 0.176709
    outer loop
      vertex -90.6118 105.164 51.0398
      vertex -90.5555 105.107 50.7263
      vertex -90.6118 124.945 51.0396
    endloop
  endfacet
  facet normal 0.983261 -9.00757e-5 0.182202
    outer loop
      vertex -90.6118 124.945 51.0396
      vertex -90.5555 105.107 50.7263
      vertex -90.5641 124.993 50.7822
    endloop
  endfacet
  facet normal 0.992167 7.46856e-5 0.124918
    outer loop
      vertex -90.5555 105.107 50.7263
      vertex -90.5299 105.082 50.523
      vertex -90.5641 124.993 50.7822
    endloop
  endfacet
  facet normal 0.991445 4.15525e-7 0.130529
    outer loop
      vertex -90.5641 124.993 50.7822
      vertex -90.5299 105.082 50.523
      vertex -90.5299 125.027 50.5226
    endloop
  endfacet
  facet normal 0.996035 -3.15061e-7 0.0889626
    outer loop
      vertex -90.5299 105.082 50.523
      vertex -90.5159 105.068 50.3662
      vertex -90.5299 125.027 50.5226
    endloop
  endfacet
  facet normal 0.996916 8.24662e-5 0.0784767
    outer loop
      vertex -90.5299 125.027 50.5226
      vertex -90.5159 105.068 50.3662
      vertex -90.5094 125.047 50.2617
    endloop
  endfacet
  facet normal 0.999328 -0.000137193 0.0366588
    outer loop
      vertex -90.5159 105.068 50.3662
      vertex -90.5025 105.054 50
      vertex -90.5094 125.047 50.2617
    endloop
  endfacet
  facet normal 0.999657 0 0.0261854
    outer loop
      vertex -90.5094 125.047 50.2617
      vertex -90.5025 105.054 50
      vertex -90.5025 125.054 50
    endloop
  endfacet
  facet normal 0.971126 5.94148e-5 0.238568
    outer loop
      vertex -90.621 105.173 51.0821
      vertex -90.6118 124.945 51.0396
      vertex -90.6754 105.228 51.3033
    endloop
  endfacet
  facet normal 0.97237 -1.31448e-5 0.233444
    outer loop
      vertex -90.6118 124.945 51.0396
      vertex -90.6729 124.884 51.2941
      vertex -90.6754 105.228 51.3033
    endloop
  endfacet
  facet normal 0.958519 1.28195e-5 0.285028
    outer loop
      vertex -90.6754 105.228 51.3033
      vertex -90.6729 124.884 51.2941
      vertex -90.7476 105.3 51.5461
    endloop
  endfacet
  facet normal 0.958816 -1.19696e-6 0.284027
    outer loop
      vertex -90.6729 124.884 51.2941
      vertex -90.7472 124.81 51.5451
      vertex -90.7476 105.3 51.5461
    endloop
  endfacet
  facet normal 0.942642 1.6888e-6 0.333806
    outer loop
      vertex -90.7472 124.81 51.5451
      vertex -90.8346 124.722 51.7918
      vertex -90.7476 105.3 51.5461
    endloop
  endfacet
  facet normal 0.946005 0.000138925 0.324151
    outer loop
      vertex -90.7476 105.3 51.5461
      vertex -90.8346 124.722 51.7918
      vertex -90.7986 105.352 51.6952
    endloop
  endfacet
  facet normal 0.92391 -0.000193733 0.382611
    outer loop
      vertex -90.8346 124.722 51.7918
      vertex -90.9348 124.622 52.0337
      vertex -90.7986 105.352 51.6952
    endloop
  endfacet
  facet normal 0.927753 -1.1762e-6 0.373194
    outer loop
      vertex -90.7986 105.352 51.6952
      vertex -90.9348 124.622 52.0337
      vertex -90.935 105.489 52.0342
    endloop
  endfacet
  facet normal 0.82413 -2.80789e-6 0.566401
    outer loop
      vertex -91.4574 124.099 52.9389
      vertex -91.4586 106.02 52.9405
      vertex -91.3092 124.248 52.7232
    endloop
  endfacet
  facet normal 0.817349 0.00016892 0.576142
    outer loop
      vertex -91.4586 106.02 52.9405
      vertex -91.3743 105.934 52.821
      vertex -91.3092 124.248 52.7232
    endloop
  endfacet
  facet normal 0.846348 -0.000166546 0.532631
    outer loop
      vertex -91.3743 105.934 52.821
      vertex -91.1728 105.73 52.5008
      vertex -91.3092 124.248 52.7232
    endloop
  endfacet
  facet normal 0.852636 1.3479e-6 0.522506
    outer loop
      vertex -91.3092 124.248 52.7232
      vertex -91.1728 105.73 52.5008
      vertex -91.1724 124.384 52.5
    endloop
  endfacet
  facet normal 0.928476 -6.89728e-6 0.371393
    outer loop
      vertex -91.1728 105.73 52.5008
      vertex -91.1728 105.73 52.5008
      vertex -91.1724 124.384 52.5
    endloop
  endfacet
  facet normal 0.878821 -1.3356e-6 0.477152
    outer loop
      vertex -91.1724 124.384 52.5
      vertex -91.1728 105.73 52.5008
      vertex -91.0475 124.509 52.27
    endloop
  endfacet
  facet normal 0.869161 0.00027672 0.494529
    outer loop
      vertex -91.1728 105.73 52.5008
      vertex -91.1414 105.698 52.4455
      vertex -91.0475 124.509 52.27
    endloop
  endfacet
  facet normal 0.902674 -0.000489702 0.430324
    outer loop
      vertex -91.0475 124.509 52.27
      vertex -91.1414 105.698 52.4455
      vertex -90.9348 124.622 52.0337
    endloop
  endfacet
  facet normal 0.891812 0.000109431 0.452407
    outer loop
      vertex -91.1414 105.698 52.4455
      vertex -90.9535 105.508 52.0751
      vertex -90.9348 124.622 52.0337
    endloop
  endfacet
  facet normal 0.911693 -5.58183e-8 0.410871
    outer loop
      vertex -90.9348 124.622 52.0337
      vertex -90.9535 105.508 52.0751
      vertex -90.935 105.489 52.0342
    endloop
  endfacet
  facet normal 0.777149 -6.56122e-6 0.629316
    outer loop
      vertex -91.7868 123.77 53.3457
      vertex -91.7882 106.356 53.3472
      vertex -91.4574 124.099 52.9389
    endloop
  endfacet
  facet normal 0.75441 0.0010407 0.656403
    outer loop
      vertex -91.7882 106.356 53.3472
      vertex -91.6784 106.244 53.2212
      vertex -91.4574 124.099 52.9389
    endloop
  endfacet
  facet normal 0.787306 3.91659e-6 0.616562
    outer loop
      vertex -91.4574 124.099 52.9389
      vertex -91.6784 106.244 53.2212
      vertex -91.4586 106.02 52.9406
    endloop
  endfacet
  facet normal 0.707108 -3.31965e-6 0.707105
    outer loop
      vertex -92.1568 123.4 53.7157
      vertex -92.1577 106.735 53.7165
      vertex -91.7868 123.77 53.3457
    endloop
  endfacet
  facet normal 0.674505 0.0013849 0.738269
    outer loop
      vertex -92.1577 106.735 53.7165
      vertex -92.1104 106.687 53.6734
      vertex -91.7868 123.77 53.3457
    endloop
  endfacet
  facet normal 0.6875 0.00090688 0.726184
    outer loop
      vertex -92.1104 106.687 53.6734
      vertex -92.0253 106.599 53.5929
      vertex -91.7868 123.77 53.3457
    endloop
  endfacet
  facet normal 0.719567 4.23638e-6 0.694423
    outer loop
      vertex -92.0253 106.599 53.5929
      vertex -91.7883 106.356 53.3473
      vertex -91.7868 123.77 53.3457
    endloop
  endfacet
  facet normal 0.743294 -2.06696e-7 0.668965
    outer loop
      vertex -91.7868 123.77 53.3457
      vertex -91.7883 106.356 53.3473
      vertex -91.7882 106.356 53.3472
    endloop
  endfacet
  facet normal 0.591487 0.00153846 0.806313
    outer loop
      vertex -92.5641 107.155 54.0455
      vertex -92.5366 107.127 54.0253
      vertex -92.1568 123.4 53.7157
    endloop
  endfacet
  facet normal 0.631831 3.33622e-6 0.775107
    outer loop
      vertex -92.5366 107.127 54.0253
      vertex -92.1577 106.735 53.7165
      vertex -92.1568 123.4 53.7157
    endloop
  endfacet
  facet normal 0.630594 3.44811e-6 0.776113
    outer loop
      vertex -92.1568 123.4 53.7157
      vertex -92.1577 106.735 53.7165
      vertex -92.1577 106.735 53.7165
    endloop
  endfacet
  facet normal 0.496139 5.87521e-7 0.868243
    outer loop
      vertex -93.0037 107.613 54.3308
      vertex -93.0036 107.613 54.3307
      vertex -93.0025 122.554 54.3301
    endloop
  endfacet
  facet normal 0.544479 -4.04759e-6 0.838774
    outer loop
      vertex -93.0036 107.613 54.3307
      vertex -92.5641 107.155 54.0455
      vertex -93.0025 122.554 54.3301
    endloop
  endfacet
  facet normal 0.544633 2.18656e-6 0.838674
    outer loop
      vertex -93.0025 122.554 54.3301
      vertex -92.5641 107.155 54.0455
      vertex -92.5636 122.993 54.0451
    endloop
  endfacet
  facet normal 0.629321 -2.07836e-6 0.777146
    outer loop
      vertex -92.5641 107.155 54.0455
      vertex -92.1568 123.4 53.7157
      vertex -92.5636 122.993 54.0451
    endloop
  endfacet
  facet normal 0.454001 -8.32459e-6 0.891001
    outer loop
      vertex -93.4688 122.088 54.5677
      vertex -93.4708 108.102 54.5686
      vertex -93.0025 122.554 54.3301
    endloop
  endfacet
  facet normal 0.447469 0.00025774 0.894299
    outer loop
      vertex -93.4708 108.102 54.5686
      vertex -93.0662 107.678 54.3663
      vertex -93.0025 122.554 54.3301
    endloop
  endfacet
  facet normal 0.493526 8.58005e-7 0.869731
    outer loop
      vertex -93.0025 122.554 54.3301
      vertex -93.0662 107.678 54.3663
      vertex -93.0037 107.613 54.3308
    endloop
  endfacet
  facet normal 0.329006 0.00121148 0.944327
    outer loop
      vertex -93.9594 108.619 54.7559
      vertex -93.7678 108.416 54.6894
      vertex -93.4688 122.088 54.5677
    endloop
  endfacet
  facet normal 0.36006 0.000430946 0.932929
    outer loop
      vertex -93.7678 108.416 54.6894
      vertex -93.6409 108.282 54.6405
      vertex -93.4688 122.088 54.5677
    endloop
  endfacet
  facet normal 0.389403 2.71953e-6 0.921068
    outer loop
      vertex -93.4688 122.088 54.5677
      vertex -93.6409 108.282 54.6405
      vertex -93.4708 108.102 54.5686
    endloop
  endfacet
  facet normal 0.102899 2.58751e-7 0.994692
    outer loop
      vertex -94.9814 109.715 54.9728
      vertex -94.981 109.714 54.9727
      vertex -94.9799 120.577 54.9726
    endloop
  endfacet
  facet normal 0.157257 -5.44927e-6 0.987558
    outer loop
      vertex -94.981 109.714 54.9727
      vertex -94.4536 109.146 54.8887
      vertex -94.9799 120.577 54.9726
    endloop
  endfacet
  facet normal 0.156475 -4.23811e-5 0.987682
    outer loop
      vertex -94.9799 120.577 54.9726
      vertex -94.4536 109.146 54.8887
      vertex -94.4629 121.094 54.8907
    endloop
  endfacet
  facet normal 0.259584 4.17149e-5 0.96572
    outer loop
      vertex -94.4536 109.146 54.8887
      vertex -93.9594 108.619 54.7559
      vertex -94.4629 121.094 54.8907
    endloop
  endfacet
  facet normal 0.25881 8.20567e-6 0.965928
    outer loop
      vertex -94.4629 121.094 54.8907
      vertex -93.9594 108.619 54.7559
      vertex -93.9574 121.599 54.7553
    endloop
  endfacet
  facet normal 0.358375 -8.34592e-6 0.933578
    outer loop
      vertex -93.9594 108.619 54.7559
      vertex -93.4688 122.088 54.5677
      vertex -93.9574 121.599 54.7553
    endloop
  endfacet
  facet normal 0.0523388 0 0.998629
    outer loop
      vertex -95.5025 120.054 55
      vertex -95.5025 110.281 55
      vertex -94.9799 120.577 54.9726
    endloop
  endfacet
  facet normal 0.00349213 0.00248319 0.999991
    outer loop
      vertex -95.5025 110.281 55
      vertex -95.4929 110.271 55
      vertex -94.9799 120.577 54.9726
    endloop
  endfacet
  facet normal 0.0361058 0.000857889 0.999348
    outer loop
      vertex -95.4929 110.271 55
      vertex -95.1606 109.909 54.9883
      vertex -94.9799 120.577 54.9726
    endloop
  endfacet
  facet normal 0.0797335 0.000115136 0.996816
    outer loop
      vertex -95.1606 109.909 54.9883
      vertex -95.0486 109.787 54.9794
      vertex -94.9799 120.577 54.9726
    endloop
  endfacet
  facet normal 0.0974932 1.04197e-6 0.995236
    outer loop
      vertex -94.9799 120.577 54.9726
      vertex -95.0486 109.787 54.9794
      vertex -94.9814 109.715 54.9728
    endloop
  endfacet
  facet normal 0 0 1
    outer loop
      vertex -99.7891 110.821 55
      vertex -95.5025 110.281 55
      vertex -95.5025 120.054 55
    endloop
  endfacet
  facet normal 0 0 1
    outer loop
      vertex -123.027 120.054 55
      vertex -122.077 119.426 55
      vertex -95.5025 120.054 55
    endloop
  endfacet
  facet normal 0 0 1
    outer loop
      vertex -122.077 119.426 55
      vertex -117.934 116.98 55
      vertex -95.5025 120.054 55
    endloop
  endfacet
  facet normal 0 0 1
    outer loop
      vertex -95.5025 120.054 55
      vertex -117.934 116.98 55
      vertex -113.604 114.883 55
    endloop
  endfacet
  facet normal 0 0 1
    outer loop
      vertex -113.604 114.883 55
      vertex -109.116 113.15 55
      vertex -95.5025 120.054 55
    endloop
  endfacet
  facet normal 0 0 1
    outer loop
      vertex -109.116 113.15 55
      vertex -104.501 111.793 55
      vertex -95.5025 120.054 55
    endloop
  endfacet
  facet normal 0 0 1
    outer loop
      vertex -95.5025 120.054 55
      vertex -104.501 111.793 55
      vertex -99.7891 110.821 55
    endloop
  endfacet
  facet normal 0 0 -1
    outer loop
      vertex -131.909 120.581 35
      vertex -136.557 125.054 35
      vertex -90.5025 125.054 35
    endloop
  endfacet
  facet normal 0 0 -1
    outer loop
      vertex -90.5025 125.054 35
      vertex -90.5025 105.054 35
      vertex -96.9439 105.397 35
    endloop
  endfacet
  facet normal 0 0 -1
    outer loop
      vertex -96.9439 105.397 35
      vertex -103.317 106.393 35
      vertex -90.5025 125.054 35
    endloop
  endfacet
  facet normal 0 0 -1
    outer loop
      vertex -103.317 106.393 35
      vertex -109.556 108.032 35
      vertex -90.5025 125.054 35
    endloop
  endfacet
  facet normal 0 0 -1
    outer loop
      vertex -90.5025 125.054 35
      vertex -109.556 108.032 35
      vertex -115.596 110.297 35
    endloop
  endfacet
  facet normal 0 0 -1
    outer loop
      vertex -115.596 110.297 35
      vertex -121.374 113.164 35
      vertex -90.5025 125.054 35
    endloop
  endfacet
  facet normal 0 0 -1
    outer loop
      vertex -121.374 113.164 35
      vertex -126.831 116.604 35
      vertex -90.5025 125.054 35
    endloop
  endfacet
  facet normal 0 0 -1
    outer loop
      vertex -90.5025 125.054 35
      vertex -126.831 116.604 35
      vertex -131.909 120.581 35
    endloop
  endfacet
endsolid Onshape
