<?xml version="1.0" encoding="UTF-8" standalone="no"?>
<!-- Created with Inkscape (http://www.inkscape.org/) -->

<svg
   xmlns:dc="http://purl.org/dc/elements/1.1/"
   xmlns:cc="http://creativecommons.org/ns#"
   xmlns:rdf="http://www.w3.org/1999/02/22-rdf-syntax-ns#"
   xmlns:svg="http://www.w3.org/2000/svg"
   xmlns="http://www.w3.org/2000/svg"
   xmlns:sodipodi="http://sodipodi.sourceforge.net/DTD/sodipodi-0.dtd"
   xmlns:inkscape="http://www.inkscape.org/namespaces/inkscape"
   width="210mm"
   height="297mm"
   viewBox="0 0 210 297"
   version="1.1"
   id="svg8"
   inkscape:version="0.92.3 (2405546, 2018-03-11)"
   sodipodi:docname="logo_Rifedal.svg">
  <defs
     id="defs2" />
  <sodipodi:namedview
     id="base"
     pagecolor="#ffffff"
     bordercolor="#666666"
     borderopacity="1.0"
     inkscape:pageopacity="0.0"
     inkscape:pageshadow="2"
     inkscape:zoom="0.7"
     inkscape:cx="491.33281"
     inkscape:cy="587.33214"
     inkscape:document-units="mm"
     inkscape:current-layer="layer1"
     showgrid="false"
     inkscape:window-width="1853"
     inkscape:window-height="1025"
     inkscape:window-x="67"
     inkscape:window-y="27"
     inkscape:window-maximized="1" />
  <metadata
     id="metadata5">
    <rdf:RDF>
      <cc:Work
         rdf:about="">
        <dc:format>image/svg+xml</dc:format>
        <dc:type
           rdf:resource="http://purl.org/dc/dcmitype/StillImage" />
        <dc:title></dc:title>
      </cc:Work>
    </rdf:RDF>
  </metadata>
  <g
     inkscape:label="Calque 1"
     inkscape:groupmode="layer"
     id="layer1">
    <ellipse
       style="fill:#000080;stroke-width:0.27742785"
       id="path833"
       cx="107.15625"
       cy="114.2485"
       rx="88.635414"
       ry="84.477676" />
    <path
       sodipodi:type="star"
       style="fill:#ffff00;stroke-width:0.26458332"
       id="path835"
       sodipodi:sides="5"
       sodipodi:cx="102.43155"
       sodipodi:cy="72.104187"
       sodipodi:r1="36.718204"
       sodipodi:r2="22.581009"
       sodipodi:arg1="-1.2132305"
       sodipodi:arg2="-2.2932391"
       inkscape:flatsided="false"
       inkscape:rounded="0"
       inkscape:randomized="0"
       d="M 115.28274,37.708352 87.500553,55.164078 139.11517,73.697498 113.92862,52.669184 112.25208,107.48474 124.46813,77.032804 71.817353,92.377262 104.55383,94.585243 73.690402,49.253081 81.706616,81.069627 Z"
       inkscape:transform-center-x="-2.3358921"
       inkscape:transform-center-y="0.32699814"
       transform="matrix(0.76972471,0,0,0.66414823,27.877048,11.908465)" />
    <path
       sodipodi:type="star"
       style="fill:#00ffff;stroke-width:0.26458332"
       id="path837"
       sodipodi:sides="5"
       sodipodi:cx="39.6875"
       sodipodi:cy="252.3988"
       sodipodi:r1="37.035881"
       sodipodi:r2="23.695826"
       sodipodi:arg1="-0.24745391"
       sodipodi:arg2="-1.3895891"
       inkscape:flatsided="false"
       inkscape:rounded="0"
       inkscape:randomized="0"
       d="m 75.595238,243.32737 -31.637343,-14.23642 15.453148,54.65492 3.763164,-34.4882 -47.204625,31.58611 33.963107,-7.07845 L 5.3054775,238.6317 22.532668,268.74518 42.15616,215.44529 18.840042,241.1349 Z"
       inkscape:transform-center-x="-0.72193713"
       inkscape:transform-center-y="-0.92070772"
       transform="matrix(0.68811077,0,0,0.65689128,21.309483,-52.700865)" />
    <path
       sodipodi:type="star"
       style="fill:#00ffff;stroke-width:0.26458332"
       id="path839"
       sodipodi:sides="5"
       sodipodi:cx="107.34524"
       sodipodi:cy="169.24405"
       sodipodi:r1="17.647886"
       sodipodi:r2="10.170771"
       sodipodi:arg1="-0.81569193"
       sodipodi:arg2="-2.069992"
       inkscape:flatsided="false"
       inkscape:rounded="0"
       inkscape:randomized="0"
       d="m 119.44048,156.39286 -16.96419,3.92158 20.82879,16.46163 -8.97187,-14.92207 -9.21949,24.89628 11.41927,-13.14392 -26.526746,-1.07488 16.029366,6.79867 -7.174947,-25.56059 -1.512576,17.34573 z"
       inkscape:transform-center-x="0.47398857"
       inkscape:transform-center-y="0.63713288" />
    <path
       sodipodi:type="star"
       style="fill:#ff0000;stroke-width:0.26458332"
       id="path841"
       sodipodi:sides="5"
       sodipodi:cx="65.011902"
       sodipodi:cy="245.97321"
       sodipodi:r1="48.182697"
       sodipodi:r2="32.585896"
       sodipodi:arg1="-1.0896067"
       sodipodi:arg2="-2.3439931"
       inkscape:flatsided="false"
       inkscape:rounded="0"
       inkscape:randomized="0"
       d="m 87.312494,203.2619 -45.059451,19.39018 70.270987,31.33173 -32.365293,-36.86219 -8.083316,76.51372 25.056599,-42.17227 -75.266754,15.95635 47.851125,10.79829 -38.434096,-66.65215 4.517023,48.84598 z"
       inkscape:transform-center-x="-1.5002202"
       inkscape:transform-center-y="1.4918653"
       transform="matrix(0.68730862,0,0,0.60267378,114.18232,-46.238718)" />
    <path
       sodipodi:type="star"
       style="fill:#ffff00;stroke-width:0.26458332"
       id="path843"
       sodipodi:sides="5"
       sodipodi:cx="29.482143"
       sodipodi:cy="262.98215"
       sodipodi:r1="37.266613"
       sodipodi:r2="83.553185"
       sodipodi:arg1="-2.2772224"
       sodipodi:arg2="2.9109973"
       inkscape:flatsided="false"
       inkscape:rounded="0"
       inkscape:randomized="0"
       d="M 5.2916662,234.63393 -51.85943,282.07883 48.967629,231.21556 -13.815806,191.52291 65.715313,271.69753 84.064112,199.72123 32.389988,300.13514 106.5136,295.34399 -4.9538792,277.22858 22.508235,346.24378 Z"
       inkscape:transform-center-x="-0.2208949"
       inkscape:transform-center-y="0.61411679"
       transform="matrix(0.2458282,0,0,0.22802606,95.826581,53.734626)" />
    <path
       sodipodi:type="star"
       style="fill:#ff0000;stroke-width:0.26458332"
       id="path845"
       sodipodi:sides="5"
       sodipodi:cx="32.883926"
       sodipodi:cy="258.06845"
       sodipodi:r1="25.267927"
       sodipodi:r2="9.790205"
       sodipodi:arg1="-0.96619774"
       sodipodi:arg2="-2.2128067"
       inkscape:flatsided="false"
       inkscape:rounded="0"
       inkscape:randomized="0"
       d="m 47.247021,237.27976 -20.225535,12.94778 30.0721,15.07697 -18.564103,-15.23455 -5.046259,33.25931 8.752289,-22.36324 -33.1908602,5.47841 23.9733152,1.4133 -15.466821,-29.87346 6.064035,23.23671 z"
       inkscape:transform-center-x="-0.10361017"
       inkscape:transform-center-y="1.2449774"
       transform="matrix(0.55947682,0,0,0.55676592,48.585569,13.322281)" />
    <path
       style="fill:#800080;stroke:#000000;stroke-width:0.26458332px;stroke-linecap:butt;stroke-linejoin:miter;stroke-opacity:1"
       d="m 8.6934523,87.979164 c 0,-1.133927 0,-2.267855 0,-3.401785 0,-0.377975 -0.074127,-0.763291 0,-1.133927 0.055251,-0.276257 0.3096474,-0.482637 0.3779761,-0.755954 0.1482259,-0.592903 -0.1482259,-1.296977 0,-1.889879 0.068329,-0.273315 0.2888863,-0.488683 0.3779763,-0.755955 0.039842,-0.119525 -0.056345,-0.265284 0,-0.377975 0.079684,-0.15937 0.2982918,-0.218607 0.3779761,-0.377976 0.056345,-0.112692 -0.056345,-0.265285 0,-0.377976 0.079684,-0.159369 0.2791402,-0.229722 0.3779762,-0.377976 0.156274,-0.23441 0.221702,-0.521541 0.377976,-0.755952 0.09884,-0.148256 0.27914,-0.229721 0.377976,-0.377978 0.156274,-0.23441 0.221703,-0.521541 0.377977,-0.755952 0.197672,-0.296508 0.558279,-0.459443 0.755952,-0.755951 0.156274,-0.23441 0.221702,-0.521542 0.377976,-0.755952 0.217437,-0.326157 0.838697,-0.838697 1.133929,-1.13393 0.125992,-0.125992 0.298292,-0.218607 0.377976,-0.377976 0.05635,-0.112691 -0.03984,-0.25845 0,-0.377976 0.08909,-0.267268 0.251984,-0.503967 0.377976,-0.755951 0.125992,-0.251984 0.221702,-0.521541 0.377976,-0.755954 0.09884,-0.148254 0.298292,-0.218607 0.377976,-0.377976 0.05635,-0.112692 -0.05635,-0.265285 0,-0.377976 0.07968,-0.159369 0.298292,-0.218607 0.377977,-0.377976 0.05635,-0.112691 -0.05635,-0.265284 0,-0.377976 0.07968,-0.159369 0.298292,-0.218609 0.377976,-0.377975 0.05635,-0.112692 0,-0.251984 0,-0.377979 0,-0.125992 0,-0.251984 0,-0.377976 0,-0.755951 0,-1.511903 0,-2.267857 0,-2.393847 0,-4.787696 0,-7.181546 0,-1.385914 0,-2.771825 0,-4.157739 0,-0.437518 -0.08436,-1.552429 0,-1.889882 0.06833,-0.273314 0.288886,-0.488682 0.377976,-0.755951 0.119526,-0.358579 -0.09167,-0.767236 0,-1.133928 0.06833,-0.273314 0.309647,-0.482637 0.377976,-0.755954 0.06112,-0.244459 -0.07968,-0.516898 0,-0.755952 0.05635,-0.169034 0.27914,-0.229721 0.377976,-0.377975 0.312548,-0.468821 0.443405,-1.043083 0.755953,-1.511906 0.09884,-0.148254 0.321631,-0.208939 0.377976,-0.377976 0.07968,-0.239051 -0.06112,-0.51149 0,-0.755952 0.274055,-1.096219 0.294888,-0.44233 0.755952,-1.133927 0.579388,-0.869082 0.176565,-1.0208 0.755953,-1.889882 0.217437,-0.326157 0.838696,-0.838697 1.133928,-1.13393 0.125992,-0.125992 0.298292,-0.218607 0.377976,-0.377976 0.05635,-0.112688 -0.05635,-0.265284 0,-0.377975 0.07969,-0.15937 0.298292,-0.218607 0.377976,-0.377976 0.05635,-0.112692 -0.03984,-0.258451 0,-0.377976 0.08909,-0.267269 0.309648,-0.482637 0.377977,-0.755952 0.06111,-0.244461 -0.07968,-0.5169 0,-0.755954 0.05635,-0.169034 0.298292,-0.218607 0.377976,-0.377976 0.05635,-0.112691 0,-0.251984 0,-0.377976 0.125992,-0.251983 0.221702,-0.521541 0.377976,-0.755951 0.09884,-0.148254 0.298292,-0.21861 0.377976,-0.377976 0.05635,-0.112691 -0.03984,-0.25845 0,-0.377978 0.456758,-1.370272 0.179336,-0.269002 0.755953,-1.133928 0.716048,0.04304 0.251984,-0.881943 0.377976,-1.133927 0.07968,-0.159369 0.298292,-0.21861 0.377976,-0.377979 0.05635,-0.112688 -0.05635,-0.265284 0,-0.377976 0.100935,-0.201869 0.934938,-0.934937 1.133929,-1.133927 0.125992,-0.125992 0.251984,-0.251984 0.377976,-0.377976 0.125992,-0.125992 0.218607,-0.298291 0.377976,-0.377976 0.112691,-0.05635 0.265284,0.05634 0.377976,0 0.09031,-0.04516 0.665641,-0.710797 0.755951,-0.755954 0.112692,-0.05635 0.265288,0.05635 0.377979,0 0.159366,-0.07968 0.218607,-0.298291 0.377976,-0.377976 0.112688,-0.05635 0.258447,0.03984 0.377975,0 0.267269,-0.08909 0.488683,-0.288885 0.755952,-0.377975 0.119528,-0.03984 0.265287,0.05635 0.377976,0 0.159369,-0.07968 0.218609,-0.298292 0.377976,-0.377976 0.112691,-0.05635 0.251986,0 0.377978,0 0.251984,-0.125992 0.521542,-0.221703 0.755952,-0.377976 0.148254,-0.09884 0.229722,-0.279141 0.377976,-0.377976 0.23441,-0.156276 0.503967,-0.251986 0.755951,-0.377978 0.251984,-0.125992 0.482637,-0.309648 0.755954,-0.377976 0.24446,-0.06111 0.516898,0.07968 0.755952,0 0.169037,-0.05635 0.218607,-0.298291 0.377976,-0.377976 0.225383,-0.112691 0.5169,0.07968 0.755952,0 0.267271,-0.08909 0.482637,-0.309647 0.755954,-0.377976 0.244459,-0.06112 0.516898,0.07968 0.755951,0 0.169037,-0.05635 0.218607,-0.298291 0.377976,-0.377976 0.225383,-0.112691 0.530572,0.112692 0.755952,0 0.159369,-0.07968 0.218609,-0.298291 0.377976,-0.377975 0.112691,-0.05635 0.251986,0 0.377978,0 0.125992,0 0.251984,0 0.377976,0 0.755951,0 1.511903,0 2.267857,0 0.503968,0 1.007936,0 1.511904,0 0.251983,0 0.503967,0 0.755951,0 0.125992,0 0.258451,-0.03984 0.377979,0 0.333695,0.11123 1.968762,0.934532 2.267855,1.133927 0.148256,0.09884 0.229721,0.279141 0.377978,0.377976 0.23441,0.156273 0.530569,0.208941 0.755952,0.377976 0.42763,0.320725 0.755951,0.755954 1.133927,1.13393 0.629962,0.629959 1.259922,1.259919 1.889882,1.889881 0.125992,0.125992 0.251984,0.251984 0.377976,0.377976 0.125991,0.125992 0.298291,0.218607 0.377975,0.377976 0.04969,0.09938 0,1.314254 0,1.511903 0,0.17244 0.04925,1.816005 0,1.889882 -0.296508,0.444764 -0.755951,0.755952 -1.133927,1.13393 -0.62996,0.62996 -1.259922,1.259919 -1.889882,1.889879 -1.007935,1.007938 -2.015873,2.015874 -3.023809,3.023809 -0.411403,0.411403 -1.089289,1.230162 -1.511906,1.511906 -0.10483,0.06989 -0.265284,-0.05635 -0.377976,0 -0.159369,0.07968 -0.229721,0.279141 -0.377975,0.377976 -0.234411,0.156273 -0.521542,0.221702 -0.755952,0.377976 -0.296508,0.197672 -0.459444,0.558281 -0.755952,0.755954 -0.234413,0.156273 -0.521541,0.221702 -0.755954,0.377976 -0.326154,0.217437 -0.838695,0.838694 -1.133927,1.133927 -0.125992,0.125992 -0.218607,0.298291 -0.377976,0.377976 -0.112691,0.05635 -0.251984,0 -0.377976,0 -0.251986,0.125992 -0.521541,0.221702 -0.755954,0.377976 -0.436126,0.290753 -0.697802,0.843179 -1.133928,1.13393 -0.23441,0.156273 -0.521541,0.221702 -0.755951,0.377976 -0.148257,0.09884 -0.229722,0.27914 -0.377979,0.377975 -1.372981,0.915321 -0.26729,-0.110683 -1.133927,0.755952 -0.295233,0.295233 -0.807773,0.916493 -1.133928,1.13393 -0.234412,0.156274 -0.521541,0.221702 -0.755954,0.377976 -0.155281,0.103521 -1.030406,0.978646 -1.133927,1.133927 -0.156274,0.234413 -0.221703,0.521544 -0.377976,0.755955 -0.09884,0.148254 -0.298291,0.218606 -0.377976,0.377975 -0.05635,0.112692 0.05634,0.265285 0,0.377976 -0.07968,0.159369 -0.298294,0.218607 -0.377978,0.377976 -0.05634,0.112691 0.05635,0.265287 0,0.377976 -0.07968,0.159369 -0.298292,0.218609 -0.377976,0.377976 -0.118782,0.237566 0.118785,1.274339 0,1.511906 -0.07969,0.159369 -0.298291,0.218606 -0.377976,0.377975 -0.112691,0.225383 0.112691,0.530572 0,0.755952 -0.07968,0.159369 -0.298291,0.218609 -0.377976,0.377978 -0.05635,0.112689 0.03984,0.258448 0,0.377976 -0.08909,0.267269 -0.288885,0.488683 -0.377976,0.755952 -0.03984,0.119525 0.05635,0.265284 0,0.377976 -0.576331,1.152662 -0.299645,-0.691298 -0.755951,1.13393 -0.06112,0.244459 0.07968,0.516898 0,0.755951 -0.112691,0.338072 -0.596585,0.437214 -0.755954,0.755952 -0.05635,0.112691 0,0.251984 0,0.377976 0,0.562586 0.05635,0.482446 -0.377976,1.13393 -0.370787,0.55618 -1.141117,0.955722 -1.511904,1.511903 -0.312548,0.468823 -0.443405,1.043083 -0.755953,1.511906 -0.197672,0.296508 -0.55828,0.459444 -0.755952,0.755952 -0.156274,0.23441 -0.221703,0.521541 -0.377976,0.755951 -0.217438,0.326157 -0.838697,0.838698 -1.133929,1.13393 -0.125992,0.125992 -0.298292,0.218607 -0.377976,0.377976 -0.05635,0.112691 0.05635,0.265284 0,0.377976 -0.159369,0.318738 -0.596584,0.437216 -0.755953,0.755951 -0.11269,0.225383 0.112691,0.530572 0,0.755955 -0.07968,0.159369 -0.298291,0.218606 -0.377976,0.377975 -0.05635,0.112692 0,0.251984 0,0.377976 -0.125992,0.251984 -0.221702,0.521542 -0.377976,0.755952 -0.09884,0.148254 -0.298292,0.218609 -0.377976,0.377976 -0.112691,0.225382 0.11269,0.530571 0,0.755954 -0.07968,0.159369 -0.298292,0.218607 -0.377976,0.377976 -0.05635,0.112691 0.03984,0.25845 0,0.377976 -0.08909,0.267268 -0.288887,0.488682 -0.377976,0.755951 -0.113393,0.34018 0.113392,0.79375 0,1.13393 -0.05635,0.169035 -0.298292,0.218607 -0.377977,0.377976 -0.05635,0.112691 0.03984,0.25845 0,0.377976 -0.08909,0.267269 -0.288886,0.488683 -0.377976,0.755952 -0.07968,0.239053 0.07968,0.5169 0,0.755954 -0.08909,0.267269 -0.309647,0.482637 -0.377976,0.755951 -0.06112,0.24446 0.07968,0.516898 0,0.755952 -0.05635,0.169037 -0.298292,0.218607 -0.377976,0.377976 -0.05635,0.112691 0.05635,0.265287 0,0.377976 -0.864925,1.729851 0.15666,-1.60391 -0.755953,1.13393 -0.113392,0.340177 0.113393,0.79375 0,1.133927 -0.08909,0.267272 -0.288886,0.488683 -0.377976,0.755954 -0.03984,0.119526 0.05635,0.265285 0,0.377976 -0.07968,0.159369 -0.298292,0.218607 -0.377976,0.377976 -0.112691,0.22538 0.112691,0.530572 0,0.755952 -0.07968,0.159369 -0.298292,0.218606 -0.377976,0.377975 -1.056371,2.112743 0.152212,0.147103 -0.377976,2.267858 -0.04322,0.17286 -0.321631,0.208941 -0.377977,0.377976 -0.07968,0.239053 0,0.50397 0,0.755954 0,0.125992 0.05635,0.265284 0,0.377976 -0.07968,0.159369 -0.298291,0.218606 -0.377976,0.377976 -0.05752,0.11503 0,0.963705 0,1.133927 0,0.755954 0,1.511906 0,2.267858 0,1.763889 0,3.527779 0,5.291667 0,0.75595 0,1.5119 0,2.26786 0,0.37797 0.119527,0.77534 0,1.13392 -0.05635,0.16904 -0.298291,0.21861 -0.377976,0.37798 -0.125247,0.2505 0.105597,1.19511 0,1.51191 -0.17818,0.53454 -0.577773,0.97736 -0.755952,1.5119 -0.07969,0.23906 0.07968,0.5169 0,0.75595 -0.08909,0.26727 -0.288887,0.48869 -0.377976,0.75595 -0.03984,0.11953 0.05635,0.26529 0,0.37798 -0.07968,0.15937 -0.298292,0.21861 -0.377977,0.37798 -0.05635,0.11269 0.05635,0.26528 0,0.37797 -0.07968,0.15937 -0.298292,0.21861 -0.377976,0.37798 -0.119227,0.23845 0.119227,1.65143 0,1.88988 -0.159369,0.31874 -0.596583,0.43722 -0.755952,0.75595 -0.05635,0.1127 0.05635,0.26529 0,0.37798 -0.07968,0.15937 -0.298292,0.21861 -0.377976,0.37798 -0.05635,0.11269 0.03984,0.25845 0,0.37797 -0.08909,0.26727 -0.309648,0.48264 -0.377977,0.75596 -0.06111,0.24445 0,0.50396 0,0.75595 0,0.62996 0,1.25992 0,1.88988 0,0.12599 0.03984,0.25845 0,0.37797 -0.08909,0.26727 -0.309647,0.48264 -0.377976,0.75596 -0.06111,0.24446 0,0.50396 0,0.75595 0,0.25198 0,0.50397 0,0.75595 0,0.75595 0,1.51191 0,2.26786 0,0.36621 -0.07512,2.04248 0,2.26785 0.08909,0.26728 0.288887,0.48869 0.377976,0.75596 0.07968,0.23905 -0.07968,0.5169 0,0.75595 0.08909,0.26727 0.288887,0.48868 0.377977,0.75595 0.03742,0.11225 0.03879,1.81231 0,1.88988 -0.07968,0.15937 -0.251985,0.25199 -0.377977,0.37798 -0.461388,0.46139 -1.0182751,0.72493 -0.755952,1.51191 0.05635,0.16903 0.251984,0.25198 0.377976,0.37797 0.251984,0.25199 0.55828,0.45944 0.755953,0.75595 0.312547,0.46883 0.503968,1.00794 0.755952,1.51191 0.125992,0.25198 0.20894,0.53057 0.377976,0.75595 0.213816,0.28509 0.572607,0.45038 0.755952,0.75595 0.204987,0.34165 0.199797,0.77757 0.377977,1.13393 0.203156,0.40631 0.530571,0.73951 0.755952,1.13393 0.0244,0.0427 1.432581,2.70651 1.511905,3.02381 0.06111,0.24446 -0.06111,0.51149 0,0.75595 0.06833,0.27332 0.251984,0.50397 0.377976,0.75595 0.125992,0.37798 0.299839,0.74325 0.377976,1.13393 0.04942,0.24709 -0.06112,0.51149 0,0.75595 0.06833,0.27332 0.309648,0.48264 0.377976,0.75596 0.06112,0.24446 -0.04942,0.50886 0,0.75595 -0.08674,0.75903 0.591395,1.23165 0.755953,1.88988 0.06112,0.24446 -0.04942,0.50886 0,0.75595 -0.08674,0.75903 0.591394,1.23165 0.755952,1.88988 0.06112,0.24446 -0.04942,0.50886 0,0.75596 0.07814,0.39068 0.230006,0.764 0.377976,1.13392 0.104631,0.26158 0.322725,0.4797 0.377977,0.75596 0.07413,0.37063 -0.07413,0.76329 0,1.13393 0.110502,0.55251 0.619294,0.96527 0.755952,1.5119 0.06112,0.24446 -0.04942,0.50886 0,0.75595 0.07814,0.39069 0.281345,0.74741 0.377976,1.13393 0.03056,0.12223 -0.03984,0.25845 0,0.37798 0.08909,0.26727 0.309647,0.48264 0.377976,0.75595 0.152788,0.61115 -0.123545,1.27215 0,1.88988 0.05525,0.27626 0.322725,0.4797 0.377976,0.75595 0.07413,0.37064 -0.06214,0.7611 0,1.13393 0.0655,0.393 0.281345,0.7474 0.377976,1.13393 0.03056,0.12223 -0.03056,0.25575 0,0.37798 0.193264,0.77305 0.56269,1.4948 0.755953,2.26785 0.03056,0.12223 -0.03984,0.25845 0,0.37798 0.782046,2.34614 -0.03057,-1.25621 0.755952,1.88988 0.07576,0.30302 -0.09686,1.31818 0,1.5119 0.07969,0.15937 0.298292,0.21861 0.377977,0.37798 0.05635,0.11269 0,0.25198 0,0.37798 0,0.37797 -0.07413,0.76329 0,1.13393 0.110502,0.55251 0.577772,0.97736 0.755952,1.5119 0.164273,0.49282 0.213702,1.01908 0.377976,1.51191 0.08909,0.26726 0.273346,0.49437 0.377976,0.75595 0.147971,0.36992 0.230006,0.764 0.377977,1.13393 0.3456,0.864 0.601485,1.00247 1.133928,1.88988 0.144947,0.24158 0.221702,0.52154 0.377976,0.75595 0.09884,0.14825 0.279141,0.22972 0.377976,0.37798 0.312549,0.46882 0.41788,1.06114 0.755954,1.5119 0.213815,0.28509 0.542136,0.47087 0.755951,0.75595 0.169037,0.22538 0.221703,0.52155 0.377976,0.75596 0.324753,0.48713 1.142135,1.01887 1.511906,1.5119 0.272561,0.36342 0.483389,0.77051 0.755952,1.13393 0.357814,0.47709 1.071316,1.07132 1.511903,1.5119 0.125992,0.126 0.279141,0.22973 0.377978,0.37798 0.312547,0.46882 0.443405,1.04308 0.755952,1.5119 0.290751,0.43613 0.843177,0.69781 1.133928,1.13393 0.716049,-0.043 0.251983,0.88195 0.377975,1.13393 0.07968,0.15937 0.279141,0.22972 0.377979,0.37798 0.156273,0.23441 0.221702,0.52154 0.377976,0.75595 0.217437,0.32616 0.838694,0.8387 1.133927,1.13393 0.19899,0.19899 0.932058,1.03299 1.13393,1.13393 0.112689,0.0563 0.265285,-0.0564 0.377976,0 0.159369,0.0797 0.218607,0.29829 0.377976,0.37797 0.199863,0.0999 1.327758,-0.046 1.511903,0 0.273317,0.0683 0.488683,0.28889 0.755954,0.37798 0.360064,0.12002 1.521714,-0.12272 1.889879,0 0.267272,0.0891 0.488683,0.28889 0.755954,0.37798 0.119526,0.0398 0.251984,0 0.377976,0 0.354852,0 1.673305,-0.0722 1.889882,0 0.169034,0.0563 0.218607,0.29829 0.377976,0.37797 0.250494,0.12525 1.195112,-0.1056 1.511903,0 0.267272,0.0891 0.488683,0.28889 0.755954,0.37798 0.352573,0.11752 1.540537,-0.11645 1.889879,0 0.338074,0.11269 0.459444,0.55828 0.755955,0.75595 0.23441,0.15628 0.521541,0.2217 0.755951,0.37798 0.148254,0.0988 0.229722,0.27914 0.377976,0.37797 0.23441,0.15628 0.521541,0.22171 0.755952,0.37798 0.148254,0.0988 0.251983,0.25198 0.377975,0.37798 0.402786,0.40278 1.02933,1.14997 1.511906,1.5119 0.363416,0.27256 0.770512,0.48339 1.133928,0.75595 0.482576,0.36193 1.10912,1.10912 1.511906,1.51191 0.125992,0.12599 0.229721,0.27914 0.377975,0.37797 0.234411,0.15628 0.521542,0.22171 0.755952,0.37798 0.148257,0.0988 0.218609,0.29829 0.377978,0.37798 0.239755,0.11987 1.644338,-0.12278 1.88988,0 0.159369,0.0797 0.208941,0.32163 0.377975,0.37797 0.239054,0.0797 0.503971,0 0.755955,0 0.377975,0 0.763291,-0.0741 1.133927,0 0.276257,0.0553 0.488683,0.28889 0.755952,0.37798 0.119528,0.0398 0.251986,0 0.377978,0 0.503968,0 1.017723,-0.0988 1.511903,0 0.759029,-0.0867 1.231652,0.59139 1.889882,0.75595 0.244459,0.0611 0.511492,-0.0611 0.755952,0 0.273314,0.0683 0.503967,0.25199 0.755951,0.37798 0.744509,0.37225 1.495311,0.82491 2.267858,1.13393 2.610244,1.04409 -0.324872,-0.14058 2.267857,0.37797 0.276257,0.0553 0.488683,0.28889 0.755952,0.37798 0.119528,0.0398 0.265287,-0.0564 0.377978,0 0.159367,0.0797 0.218607,0.29829 0.377976,0.37797 0.22538,0.11269 0.516898,-0.0797 0.755952,0 0.251984,0.126 0.503967,0.25199 0.755951,0.37798 0.125992,0 0.258451,-0.0398 0.377976,0 0.267272,0.0891 0.521541,0.2217 0.755954,0.37798 0.148254,0.0988 0.208939,0.32163 0.377976,0.37797 0.239054,0.0797 0.530572,-0.11269 0.755952,0 0.318738,0.15937 0.450376,0.57261 0.755951,0.75595 1.370275,0.82217 0.737222,0.14745 1.889882,0.37798 0.390686,0.0781 0.755952,0.25198 1.13393,0.37798 0.755952,0.25198 1.494803,0.56269 2.267855,0.75595 0.122232,0.0306 0.251987,0 0.377978,0 0.503968,0 1.007936,0 1.511904,0 0.629959,0 1.259922,0 1.889881,0 0.251984,0 0.511493,0.0611 0.755952,0 0.273315,-0.0683 0.503968,-0.25198 0.755952,-0.37798 0.50397,-0.12599 0.999495,-0.29257 1.511906,-0.37797 0.248554,-0.0414 0.511492,0.0611 0.755951,0 0.546632,-0.13666 0.977366,-0.57777 1.511906,-0.75596 0.358579,-0.11952 0.775348,0.11953 1.133927,0 0.169037,-0.0563 0.21861,-0.29829 0.377976,-0.37797 0.112692,-0.0564 0.265287,0.0563 0.377979,0 0.159366,-0.0797 0.208938,-0.32163 0.377975,-0.37798 0.478105,-0.15937 1.017723,0.0988 1.511904,0 0.390686,-0.0781 0.740928,-0.31247 1.13393,-0.37797 0.372836,-0.0621 0.755956,0 1.133926,0 0.50397,0 1.00794,0 1.51191,0 1.00793,0 2.01587,0 3.02381,0 0.50396,0 1.00793,0 1.5119,0 0.37798,0 0.76109,0.0621 1.13393,0 0.393,-0.0655 0.74093,-0.31248 1.13393,-0.37798 0.37283,-0.0621 0.75595,0 1.13393,0 0.37797,0 0.75595,0 1.13392,0 1.25993,0 2.51985,0 3.77977,0 1.25992,0 2.51984,0 3.77976,0 0.12877,0 1.30734,0.0682 1.5119,0 0.26727,-0.0891 0.48869,-0.28889 0.75596,-0.37798 0.35858,-0.11952 0.77534,0.11953 1.13392,0 0.16904,-0.0563 0.21861,-0.29829 0.37798,-0.37797 0.11269,-0.0564 0.26529,0.0563 0.37798,0 0.31873,-0.15937 0.45944,-0.55828 0.75595,-0.75595 0.13477,-0.92851 0.80242,-0.15698 1.13393,-0.37798 0.43612,-0.29075 0.6978,-0.84318 1.13393,-1.13393 0.23441,-0.15627 0.51437,-0.23303 0.75595,-0.37798 0.77907,-0.46744 1.45523,-1.10559 2.26786,-1.5119 0.35636,-0.17818 0.77756,-0.1998 1.13392,-0.37798 0.15937,-0.0797 0.22973,-0.27914 0.37798,-0.37797 0.23441,-0.15628 0.52154,-0.2217 0.75595,-0.37798 0.14826,-0.0988 0.21861,-0.29829 0.37798,-0.37798 0.11269,-0.0563 0.26528,0.0563 0.37798,0 0.15936,-0.0797 0.25198,-0.25198 0.37797,-0.37797 0.43246,-0.43246 0.44744,-0.52712 1.13393,-0.75595 0.24999,-0.0833 1.89655,0 2.26786,0 0.12599,0 0.25845,0.0398 0.37797,0 0.26727,-0.0891 0.4797,-0.32273 0.75596,-0.37798 0.37063,-0.0741 0.75595,0 1.13392,0 0.62997,0 1.25993,0 1.88988,0 0.37798,0 0.7633,0.0741 1.13393,0 0.27626,-0.0553 0.48869,-0.28889 0.75596,-0.37798 0.11952,-0.0398 0.25198,0 0.37797,0 0.28855,0 2.02972,0.0794 2.26786,0 0.26727,-0.0891 0.48264,-0.30964 0.75595,-0.37797 0.36669,-0.0917 0.77535,0.11953 1.13393,0 0.26727,-0.0891 0.48868,-0.28889 0.75595,-0.37798 0.11953,-0.0398 0.25199,0 0.37798,0 0.37797,0 0.75595,0 1.13393,0 0.25198,0 0.50886,0.0494 0.75595,0 0.39068,-0.0781 0.74093,-0.31247 1.13393,-0.37797 0.50748,-0.0846 2.45055,0 3.02381,0 0.25198,0 0.51149,0.0611 0.75595,0 0.27332,-0.0683 0.48264,-0.30965 0.75595,-0.37798 0.55997,-0.13999 1.36492,0.20999 1.88988,0 0.33087,-0.13235 0.43722,-0.59659 0.75596,-0.75595 0.22538,-0.11269 0.52199,0.0936 0.75595,0 0.42178,-0.16872 0.72762,-0.5528 1.13393,-0.75596 0.11269,-0.0563 0.26528,0.0563 0.37797,0 0.40631,-0.20315 0.72762,-0.55279 1.13393,-0.75595 0.35636,-0.17818 0.764,-0.23 1.13393,-0.37797 0.26158,-0.10464 0.50397,-0.25199 0.75595,-0.37798 0.25199,-0.12599 0.52154,-0.2217 0.75595,-0.37798 0.34408,-0.22938 0.79892,-0.96642 1.13393,-1.13393 0.11269,-0.0563 0.25199,0 0.37798,0 0.25198,-0.12599 0.52154,-0.2217 0.75595,-0.37797 0.14826,-0.0988 0.22972,-0.27914 0.37798,-0.37798 0.23441,-0.15627 0.52154,-0.2217 0.75595,-0.37797 0.46428,-0.30952 0.29167,-0.44644 0.75595,-0.75596 0.46882,-0.31254 1.06114,-0.41787 1.51191,-0.75595 0.28509,-0.21381 0.50396,-0.50397 0.75595,-0.75595 0.25199,-0.25198 0.50397,-0.50397 0.75595,-0.75595 0.37798,-0.37798 0.81321,-0.7063 1.13393,-1.13393 0.27256,-0.36342 0.52223,-0.7444 0.75595,-1.13393 0.14495,-0.24158 0.20894,-0.53057 0.37798,-0.75595 0.21382,-0.28509 0.50397,-0.50397 0.75595,-0.75596 0.37798,-0.37797 0.75595,-0.75595 1.13393,-1.13392 0.12599,-0.12599 0.27914,-0.22972 0.37798,-0.37798 0.15627,-0.23441 0.2217,-0.52154 0.37797,-0.75595 0.21744,-0.32616 0.8387,-0.8387 1.13393,-1.13393 0.62996,-0.62996 1.25992,-1.25992 1.88988,-1.88988 0.62996,-0.62996 1.25992,-1.25992 1.88988,-1.88988 0.25199,-0.25199 0.45945,-0.55828 0.75596,-0.75596 0.88272,-0.58848 2.14108,-0.92342 3.02381,-1.5119 0.43612,-0.29075 0.6978,-0.84318 1.13392,-1.13393 0.23442,-0.15627 0.52154,-0.2217 0.75596,-0.37797 0.14825,-0.0988 0.25198,-0.25199 0.37797,-0.37798 0.25199,-0.25198 0.50397,-0.50397 0.75595,-0.75595 0.50397,-0.50397 1.00794,-1.00794 1.51191,-1.51191 0.37798,-0.37797 0.85891,-0.67556 1.13393,-1.13393 0.76228,-1.27047 -0.009,-0.87 0.75595,-1.88988 0.21382,-0.28509 0.54214,-0.47086 0.75595,-0.75595 0.33807,-0.45076 0.44341,-1.04308 0.75596,-1.5119 0.0988,-0.14826 0.32163,-0.20894 0.37797,-0.37798 0.0797,-0.23905 -0.0611,-0.51149 0,-0.75595 0.0683,-0.27332 0.28889,-0.48868 0.37798,-0.75596 0.0398,-0.11952 -0.0398,-0.25844 0,-0.37797 0.50396,-1.5119 0.36269,0.0764 0.75595,-1.88988 0.0494,-0.24709 -0.0611,-0.51149 0,-0.75595 0.0683,-0.27332 0.27334,-0.49438 0.37798,-0.75596 0.72801,-1.82003 0.0391,-0.49538 0.75595,-2.64583 0.0891,-0.26727 0.32272,-0.4797 0.37797,-0.75595 0.0741,-0.37064 -0.11952,-0.77535 0,-1.13393 0.14366,-0.43096 0.52224,-0.7444 0.75596,-1.13393 0.14495,-0.24158 0.25198,-0.50397 0.37797,-0.75595 0.25199,-0.37798 0.52223,-0.7444 0.75596,-1.13393 0.28989,-0.48316 0.4434,-1.04308 0.75595,-1.51191 0.0988,-0.14825 0.25198,-0.25198 0.37797,-0.37797 0.126,-0.25199 0.22171,-0.52154 0.37798,-0.75595 0.0988,-0.14826 0.29829,-0.21861 0.37797,-0.37798 0.0564,-0.11269 -0.0398,-0.25845 0,-0.37798 0.0891,-0.26726 0.28889,-0.48868 0.37798,-0.75595 0.0711,-0.21325 0,-0.88555 0,-1.13393 0,-0.75595 0,-1.5119 0,-2.26785 0,-1.25992 0,-2.51985 0,-3.77977 0,-0.25198 0,-0.50396 0,-0.75595 0,-0.25198 0.0611,-0.51149 0,-0.75595 -0.0683,-0.27332 -0.28888,-0.48868 -0.37798,-0.75595 -0.1747,-0.52414 0.29325,-1.55095 0.37798,-1.88988 0.0805,-0.32207 0,-0.80069 0,-1.13393 0,-0.75596 0,-1.51191 0,-2.26786 0,-1.00794 0,-2.01587 0,-3.02381 0,-0.17022 -0.0575,-1.0189 0,-1.13393 0.0797,-0.15937 0.29829,-0.21861 0.37798,-0.37797 0.11269,-0.22538 -0.11269,-0.53058 0,-0.75596 0.0797,-0.15937 0.29829,-0.2186 0.37797,-0.37797 0.1512,-0.30238 -0.15119,-0.83155 0,-1.13393 0.0797,-0.15937 0.2983,-0.21861 0.37798,-0.37798 0.0564,-0.11269 -0.0398,-0.25845 0,-0.37797 0.0891,-0.26727 0.28889,-0.48869 0.37798,-0.75596 0.0398,-0.11952 -0.0398,-0.25845 0,-0.37797 0.17818,-0.53454 0.57777,-0.97737 0.75595,-1.51191 0.0398,-0.11952 0,-0.25198 0,-0.37797 0.12599,-0.25199 0.28889,-0.48869 0.37798,-0.75595 0.0398,-0.11953 0,-0.25199 0,-0.37798 0,-0.25199 -0.0797,-0.5169 0,-0.75595 0.0563,-0.16904 0.29829,-0.21861 0.37797,-0.37798 0.11269,-0.22538 -0.0797,-0.5169 0,-0.75595 0.0891,-0.26727 0.28889,-0.48868 0.37798,-0.75596 0.0398,-0.11952 -0.0399,-0.25844 0,-0.37797 0.0891,-0.26727 0.28888,-0.48868 0.37797,-0.75595 0.0751,-0.22538 0,-1.90165 0,-2.26786 0,-2.01587 0,-4.03175 0,-6.04762 0,-1.6379 0,-3.27579 0,-4.91369 0,-0.44116 0.0737,-1.97297 0,-2.26786 -0.0683,-0.27331 -0.32272,-0.47969 -0.37797,-0.75595 -0.0741,-0.37064 0,-0.75595 0,-1.13393 0,-0.7423 0.0871,-2.791888 0,-3.401784 -0.0564,-0.394417 -0.32856,-0.738582 -0.37798,-1.133928 -0.0781,-0.625096 0,-1.259922 0,-1.889881 0,-0.503968 0,-1.007936 0,-1.511906 0,-2.141863 0,-4.283729 0,-6.425594 0,-1.25992 0,-2.519842 0,-3.779761 0,-0.251984 0,-0.50397 0,-0.755954 0,-0.125992 0.0564,-0.265285 0,-0.377976 -0.10093,-0.201872 -0.93493,-0.934937 -1.13393,-1.133927 -0.50397,-0.503968 -1.00793,-1.007939 -1.5119,-1.511906 -0.12599,-0.125992 -0.21861,-0.298292 -0.37798,-0.377976 -0.11269,-0.05635 -0.26528,0.05635 -0.37798,0 -0.15936,-0.07968 -0.22971,-0.279141 -0.37797,-0.377976 -0.23441,-0.156273 -0.52154,-0.221702 -0.75595,-0.377976 -0.14826,-0.09884 -0.22972,-0.27914 -0.37798,-0.377976 -0.23441,-0.156276 -0.53057,-0.208941 -0.75595,-0.377978 -0.28509,-0.213815 -0.43722,-0.596582 -0.75595,-0.755952 -0.22538,-0.112691 -0.5169,0.07969 -0.75596,0 -0.16903,-0.05634 -0.25198,-0.251983 -0.37797,-0.377975 -0.50397,-0.503968 -1.00794,-1.007936 -1.51191,-1.511906 -0.25198,-0.251984 -0.50397,-0.503968 -0.75595,-0.755952 -0.12599,-0.125992 -0.21861,-0.298291 -0.37797,-0.377976 -0.1127,-0.05634 -0.26529,0.05635 -0.37798,0 -0.15937,-0.07968 -0.25198,-0.251984 -0.37798,-0.377976 -0.29523,-0.295232 -0.80777,-0.916492 -1.13393,-1.13393 -0.23441,-0.156273 -0.52154,-0.221702 -0.75595,-0.377975 -0.18458,-0.123055 -1.38885,-1.32732 -1.5119,-1.511904 -0.31255,-0.468823 -0.44341,-1.043082 -0.75596,-1.511905 -0.0988,-0.148254 -0.27914,-0.229722 -0.37797,-0.377976 -1.37028,-2.740546 0.39842,0.597633 -0.75595,-1.133928 -0.15628,-0.234413 -0.22171,-0.521541 -0.37798,-0.755954 -0.0988,-0.148254 -0.27914,-0.229722 -0.37798,-0.377976 -0.15627,-0.23441 -0.20894,-0.530571 -0.37797,-0.755951 -0.32073,-0.427633 -0.83742,-0.689166 -1.13393,-1.13393 -0.15627,-0.234411 -0.2217,-0.521542 -0.37798,-0.755952 -0.37079,-0.556181 -1.14112,-0.955723 -1.5119,-1.511903 -0.15628,-0.234413 -0.2217,-0.521542 -0.37798,-0.755955 -0.0988,-0.148254 -0.25198,-0.251983 -0.37797,-0.377975 -0.126,-0.251984 -0.22171,-0.521542 -0.37798,-0.755952 -0.0988,-0.148254 -0.27914,-0.229722 -0.37798,-0.377976 -0.15627,-0.23441 -0.2217,-0.521541 -0.37797,-0.755954 -0.19768,-0.296508 -0.59659,-0.437213 -0.75596,-0.755952 -0.0563,-0.112691 0.0563,-0.265284 0,-0.377975 -0.0797,-0.15937 -0.27914,-0.229722 -0.37797,-0.377976 -0.15627,-0.234411 -0.2217,-0.521542 -0.37798,-0.755952 -0.19767,-0.296511 -0.59658,-0.437216 -0.75595,-0.755954 -0.0563,-0.112689 0.0563,-0.265285 0,-0.377976 -0.0797,-0.159369 -0.29829,-0.218607 -0.37798,-0.377976 -0.0563,-0.112691 0.0564,-0.265284 0,-0.377976 -0.0797,-0.159369 -0.29829,-0.218606 -0.37797,-0.377975 -0.0564,-0.112692 0.0563,-0.265288 0,-0.377976 -0.15937,-0.318738 -0.59659,-0.437216 -0.75595,-0.755954 -0.0564,-0.112689 0,-0.251984 0,-0.377976 -0.126,-0.251984 -0.20895,-0.530572 -0.37798,-0.755952 -0.21382,-0.285088 -0.55828,-0.459444 -0.75595,-0.755952 -0.0699,-0.104833 0.0563,-0.265287 0,-0.377978 -0.0797,-0.159366 -0.2983,-0.218607 -0.37798,-0.377976 -0.0564,-0.112688 0.0563,-0.265284 0,-0.377976 -0.0797,-0.159369 -0.25198,-0.251983 -0.37798,-0.377975 -0.43246,-0.432462 -0.52712,-0.447437 -0.75595,-1.133928 -0.0797,-0.239054 0.11269,-0.530571 0,-0.755954 -0.15937,-0.318736 -0.59658,-0.437213 -0.75595,-0.755952 -0.0564,-0.112691 0.0563,-0.265284 0,-0.377976 -0.15937,-0.318738 -0.59658,-0.437216 -0.75595,-0.755951 -0.0564,-0.112691 0.0563,-0.265287 0,-0.377979 -0.86493,-1.729848 0.15666,1.603913 -0.75596,-1.133927 -0.0398,-0.119526 0,-0.251984 0,-0.377976 -0.12599,-0.125992 -0.29829,-0.218606 -0.37797,-0.377976 -0.0564,-0.112691 0.0563,-0.265287 0,-0.377975 -0.0797,-0.15937 -0.29829,-0.21861 -0.37798,-0.377979 -0.0575,-0.114916 0,-1.250902 0,-1.511903 0,-0.304284 -0.0791,-1.274667 0,-1.511906 0.0891,-0.267269 0.22171,-0.521541 0.37798,-0.755952 0.10479,-0.157186 1.37672,-1.444312 1.5119,-1.511905 0.22538,-0.112689 0.57778,0.178181 0.75596,0 0.0891,-0.08909 -0.0891,-0.288886 0,-0.377976 0.0891,-0.08909 0.25198,0 0.37797,0 1.00794,0 2.01588,0 3.02381,0 0.17099,0 2.16713,-0.05036 2.26786,0 0.15937,0.07968 0.21861,0.298294 0.37797,0.377976 0.22302,0.111508 0.87395,-0.08666 1.13393,0 2.1415,1.070747 -0.56345,-0.140862 1.51191,0.377978 0.27331,0.06833 0.48263,0.309647 0.75595,0.377976 0.24446,0.06111 0.5169,-0.07968 0.75595,0 0.16904,0.05635 0.21861,0.298291 0.37798,0.377976 0.22538,0.112691 0.53057,-0.112692 0.75595,0 0.15937,0.07968 0.21861,0.298291 0.37798,0.377975 0.16819,0.0841 1.33902,-0.05763 1.5119,0 0.16904,0.05635 0.21861,0.298292 0.37798,0.377976 0.11269,0.05635 0.26528,-0.05635 0.37797,0 0.15937,0.07968 0.21861,0.298291 0.37798,0.377976 0.11269,0.05635 0.25575,-0.03056 0.37798,0 0.38652,0.09663 0.7474,0.281345 1.13393,0.377976 0.12223,0.03056 0.26528,-0.05634 0.37797,0 0.15937,0.07968 0.21861,0.298294 0.37798,0.377978 0.11269,0.05634 0.26528,-0.05635 0.37797,0 0.31874,0.159367 0.45945,0.558279 0.75596,0.755952 0.23441,0.156273 0.52154,0.221702 0.75595,0.377976 0.29651,0.197673 0.45944,0.558278 0.75595,0.755951 0.23441,0.156274 0.52154,0.221703 0.75595,0.377976 0.14826,0.09884 0.25199,0.251987 0.37798,0.377979 0.25198,0.125992 0.52154,0.221702 0.75595,0.377975 0.32616,0.217438 0.8387,0.838695 1.13393,1.133928 0.75595,0.755951 1.51191,1.511906 2.26786,2.267857 0.88194,0.881944 1.76389,1.76389 2.64583,2.645834 0.37798,0.377975 0.83742,0.689165 1.13393,1.133927 0.0699,0.104833 -0.0563,0.265287 0,0.377978 0.0797,0.159367 0.27914,0.229722 0.37798,0.377976 0.4652,0.697802 0.66872,1.570054 1.13392,2.267858 0.0988,0.148254 0.27914,0.229722 0.37798,0.377976 0.15627,0.23441 0.20894,0.530569 0.37798,0.755951 0.12141,0.161878 1.39732,1.282737 1.5119,1.511906 0.0564,0.112689 -0.0306,0.255744 0,0.377976 0.0966,0.386524 0.29984,0.743244 0.37798,1.133927 0.0494,0.247092 -0.0797,0.516901 0,0.755952 0.0563,0.169037 0.32163,0.208941 0.37797,0.377978 0.0797,0.239051 -0.0797,0.516898 0,0.755952 0.0564,0.169037 0.32163,0.208939 0.37798,0.377976 0.0797,0.239053 -0.0611,0.511492 0,0.755951 0.0683,0.273318 0.28889,0.488683 0.37797,0.755955 0.0797,0.239051 -0.0797,0.516898 0,0.755951 0.0891,0.267269 0.28889,0.488683 0.37798,0.755952 0.0398,0.119528 -0.0306,0.255746 0,0.377976 0.0966,0.386527 0.28135,0.747403 0.37798,1.13393 0.0826,0.330433 -0.0988,2.070211 0,2.267857 0.0797,0.159367 0.29829,0.218607 0.37797,0.377976 0.12525,0.250494 -0.10559,1.195112 0,1.511903 0.0891,0.267272 0.28889,0.488683 0.37798,0.755955 0.0867,0.259982 -0.11151,0.910912 0,1.133927 0.0797,0.159369 0.29829,0.218607 0.37798,0.377976 0.11269,0.225382 -0.11269,0.530571 0,0.755951 0.0797,0.15937 0.29829,0.21861 0.37797,0.377979 0.0564,0.112689 0,0.251984 0,0.377976 0,0.125992 0,0.251984 0,0.377975 0,0.324427 -0.0737,2.046711 0,2.267858 0.0564,0.169034 0.2983,0.218607 0.37798,0.377976 0.11878,0.237567 -0.11878,1.274339 0,1.511903 0.0797,0.159369 0.29829,0.218609 0.37798,0.377978 0.0683,0.13669 0,1.626982 0,1.88988 0,1.385913 0,2.771825 0,4.157739 0,0.755951 0,1.511903 0,2.267857 0,0.170225 0.0575,1.018897 0,1.133928 -0.0797,0.159369 -0.2983,0.218606 -0.37798,0.377975 -0.11269,0.225383 0.0797,0.516901 0,0.755955 -0.0891,0.267269 -0.28889,0.488682 -0.37798,0.755951 -0.0711,0.213254 0,0.885558 0,1.133928 0,0.755954 0,1.511906 0,2.267857 0,2.015874 0,4.031747 0,6.047618 0,1.385914 0,2.771833 0,4.157743 0,0.0898 -0.0423,1.42719 0,1.5119 0.0797,0.15937 0.2983,0.21861 0.37798,0.37798 0.12077,0.24153 -0.10141,1.20767 0,1.5119 0.0891,0.26727 0.28889,0.48868 0.37798,0.75596 0.0682,0.20456 0,1.38313 0,1.5119 0,1.00794 0,2.01587 0,3.02381 0,3.1498 0,6.2996 0,9.4494 0,3.40179 0,6.80357 0,10.20536 0,1.5119 0,3.02381 0,4.53571 0,0.43909 0.0857,1.54723 0,1.88989 -0.0683,0.27331 -0.30965,0.48263 -0.37798,0.75595 -0.0768,0.30737 0,1.87218 0,2.26785 0,0.126 0.0398,0.25845 0,0.37798 -0.0891,0.26727 -0.28889,0.48869 -0.37798,0.75595 -0.11339,0.34018 0.11339,0.79375 0,1.13393 -0.0891,0.26727 -0.28888,0.48868 -0.37797,0.75595 -0.12073,0.36219 0.11672,1.53973 0,1.88989 -0.55616,1.66846 -0.37798,-1.37325 -0.37798,1.13393 0,0.261 0.0575,1.39698 0,1.5119 -0.0797,0.15937 -0.29829,0.21861 -0.37798,0.37797 -0.11269,0.22539 0.1127,0.53058 0,0.75596 -0.0797,0.15937 -0.32163,0.20894 -0.37797,0.37797 -0.0797,0.23906 0.0611,0.5115 0,0.75596 -0.0683,0.27331 -0.28889,0.48868 -0.37798,0.75595 -0.0398,0.11953 0,0.25198 0,0.37797 -0.12599,0.25199 -0.28888,0.48869 -0.37798,0.75596 -0.0797,0.23905 0.0797,0.5169 0,0.75595 -0.91261,2.73784 0.10898,-0.59592 -0.75595,1.13393 -0.12524,0.25049 0.1056,1.19511 0,1.5119 -0.0891,0.26727 -0.28888,0.48869 -0.37797,0.75595 -0.0398,0.11953 0.0563,0.26529 0,0.37798 -0.0797,0.15937 -0.29829,0.21861 -0.37798,0.37798 -0.11878,0.23757 0.11878,1.27433 0,1.5119 -0.0797,0.15937 -0.29829,0.21861 -0.37797,0.37798 -0.0563,0.11269 0.0563,0.26528 0,0.37797 -0.0797,0.15937 -0.2983,0.21861 -0.37798,0.37798 -0.11269,0.22538 0.0797,0.5169 0,0.75595 -0.0891,0.26727 -0.25198,0.50397 -0.37798,0.75596 -0.25198,0.50396 -0.50397,1.00793 -0.75595,1.5119 -0.12599,0.25198 -0.28889,0.48868 -0.37798,0.75595 -0.0398,0.11953 0.0563,0.26529 0,0.37798 -0.86492,1.72985 0.15666,-1.60391 -0.75595,1.13393 -0.37505,1.12517 0.895,-0.77554 -0.37797,1.13393 -0.0988,0.14825 -0.32164,0.20894 -0.37798,0.37797 -0.0797,0.23906 0.0797,0.5169 0,0.75595 -0.0563,0.16904 -0.27107,0.23544 -0.37798,0.37798 -0.58762,0.7835 -1.14463,1.72766 -1.5119,2.64583 -0.14797,0.36993 -0.23001,0.76401 -0.37798,1.13393 -0.20926,0.52316 -0.54669,0.98875 -0.75595,1.51191 -0.14797,0.36992 -0.1998,0.77757 -0.37798,1.13393 -0.0797,0.15936 -0.27914,0.22972 -0.37797,0.37797 -0.15628,0.23441 -0.2217,0.52154 -0.37798,0.75595 -0.29651,0.44477 -0.8,0.71653 -1.13393,1.13393 -1.59952,-0.60142 -0.54137,1.19004 -0.75595,1.51191 -0.19767,0.29651 -0.50397,0.50397 -0.75595,0.75595 -0.50397,0.50397 -1.00794,1.00794 -1.51191,1.5119 -0.12599,0.126 -0.25198,0.25199 -0.37797,0.37798 -0.126,0.12599 -0.29829,0.21861 -0.37798,0.37798 -0.17818,0.35636 -0.1998,0.77757 -0.37797,1.13393 -0.0797,0.15936 -0.27915,0.22972 -0.37798,0.37797 -0.15627,0.23441 -0.2217,0.52154 -0.37798,0.75595 -0.19767,0.29651 -0.55828,0.45945 -0.75595,0.75596 -0.15627,0.23441 -0.2217,0.52154 -0.37798,0.75595 -0.19767,0.29651 -0.50396,0.50397 -0.75595,0.75595 -0.37797,0.37798 -0.75595,0.75595 -1.13393,1.13393 -0.12599,0.12599 -0.27914,0.22972 -0.37797,0.37798 -0.91532,1.37298 0.11068,0.26729 -0.75596,1.13392 -0.62996,0.62997 -1.25992,1.25993 -1.88988,1.88989 -0.25198,0.25198 -0.55828,0.45944 -0.75595,0.75595 -0.15627,0.23441 -0.20894,0.53057 -0.37797,0.75595 -0.34931,0.46574 -1.19112,1.03072 -1.51191,1.5119 -0.15627,0.23441 -0.20894,0.53058 -0.37798,0.75596 -0.21381,0.28508 -0.55828,0.45944 -0.75595,0.75595 -0.0699,0.10483 0.0699,0.27314 0,0.37798 -0.28174,0.42261 -1.1005,1.1005 -1.5119,1.5119 -0.29523,0.29523 -0.80778,0.91649 -1.13393,1.13393 -0.46882,0.31255 -1.04308,0.4434 -1.51191,0.75595 -0.14825,0.0988 -0.22972,0.27914 -0.37797,0.37798 -0.23441,0.15627 -0.52154,0.2217 -0.75595,0.37797 -0.14826,0.0988 -0.23544,0.27107 -0.37798,0.37798 -0.36342,0.27256 -0.77051,0.48339 -1.13393,0.75595 -0.28509,0.21382 -0.45944,0.55828 -0.75595,0.75595 -0.23441,0.15628 -0.52154,0.22171 -0.75595,0.37798 -0.48713,0.32476 -1.01888,1.14214 -1.51191,1.51191 -0.36342,0.27256 -0.74439,0.52223 -1.13393,0.75595 -0.24158,0.14494 -0.50396,0.25198 -0.75595,0.37797 -0.25199,0.126 -0.48264,0.30965 -0.75595,0.37798 -0.24446,0.0611 -0.5169,-0.0797 -0.75595,0 -0.16904,0.0564 -0.21861,0.29829 -0.37798,0.37798 -0.35636,0.17818 -0.77757,0.19979 -1.13393,0.37797 -0.15937,0.0797 -0.20894,0.32163 -0.37798,0.37798 -0.23905,0.0797 -0.53057,-0.11269 -0.75595,0 -2.46126,1.23063 0.75347,0.37881 -1.5119,1.13393 -0.49282,0.16427 -1.01909,0.2137 -1.51191,0.37797 -0.26727,0.0891 -0.48263,0.30965 -0.75595,0.37798 -0.24446,0.0611 -0.51149,-0.0611 -0.75595,0 -0.27332,0.0683 -0.49438,0.27334 -0.75595,0.37798 -0.36993,0.14797 -0.74741,0.28134 -1.13393,0.37797 -0.25669,0.0642 -0.87725,-0.0642 -1.13393,0 -0.27332,0.0683 -0.48868,0.28889 -0.75595,0.37798 -0.23906,0.0797 -0.5169,-0.0797 -0.75596,0 -0.26727,0.0891 -0.48868,0.28888 -0.75595,0.37797 -0.11953,0.0399 -0.25845,-0.0398 -0.37798,0 -0.26726,0.0891 -0.48868,0.28889 -0.75595,0.37798 -0.23905,0.0797 -0.5169,-0.0797 -0.75595,0 -0.26727,0.0891 -0.48868,0.28889 -0.75595,0.37798 -0.11953,0.0398 -0.26529,-0.0564 -0.37798,0 -0.15937,0.0797 -0.20894,0.32163 -0.37797,0.37797 -0.23906,0.0797 -0.5115,-0.0611 -0.75596,0 -0.27331,0.0683 -0.48868,0.28889 -0.75595,0.37798 -0.23905,0.0797 -0.5169,-0.0797 -0.75595,0 -2.73784,0.91261 0.59592,-0.10897 -1.13393,0.75595 -0.11269,0.0564 -0.26529,-0.0563 -0.37798,0 -0.15936,0.0797 -0.2186,0.29829 -0.37797,0.37798 -0.22538,0.11269 -0.5169,-0.0797 -0.75596,0 -0.26726,0.0891 -0.52154,0.2217 -0.75595,0.37797 -0.14825,0.0988 -0.20894,0.32164 -0.37797,0.37798 -0.23906,0.0797 -0.5115,-0.0611 -0.75596,0 -0.56573,0.14143 -1.48341,0.9307 -1.88988,1.13393 -0.35636,0.17818 -0.764,0.23 -1.13393,0.37798 -0.78201,0.3128 -1.48583,0.82112 -2.26785,1.13392 -0.37798,0.126 -0.75596,0.25199 -1.13393,0.37798 -0.12599,0 -0.25845,-0.0398 -0.37798,0 -0.68411,-0.22782 -0.70297,0.6123 -1.13393,0.75595 -0.23905,0.0797 -0.51689,-0.0797 -0.75595,0 -0.16904,0.0564 -0.21861,0.29829 -0.37797,0.37798 -0.22539,0.11269 -0.53058,-0.11269 -0.75596,0 -0.15936,0.0797 -0.21861,0.29829 -0.37797,0.37797 -0.11269,0.0563 -0.25199,0 -0.37798,0 -0.25198,0 -0.5169,-0.0797 -0.75595,0 -0.16904,0.0563 -0.20512,0.33477 -0.37798,0.37798 -0.36669,0.0917 -0.76109,-0.0621 -1.13393,0 -0.786,0.131 -1.47902,0.64326 -2.26785,0.75595 -0.49891,0.0713 -1.01183,-0.0625 -1.51191,0 -0.51546,0.0644 -0.99643,0.31355 -1.5119,0.37798 -1.00016,0.12502 -2.02366,-0.12502 -3.02381,0 -0.51547,0.0644 -0.99644,0.31354 -1.51191,0.37798 -0.50007,0.0625 -1.01772,-0.0988 -1.5119,0 -0.17472,0.0349 -0.20894,0.32163 -0.37798,0.37797 -0.22476,0.0749 -1.82139,0 -2.26786,0 -0.12599,0 -0.26528,-0.0563 -0.37797,0 -0.15937,0.0797 -0.21861,0.29829 -0.37798,0.37798 -0.11269,0.0563 -0.25198,0 -0.37797,0 -0.37798,0 -0.75975,-0.0535 -1.13393,0 -4.09473,1.02368 1.03895,-0.12987 -3.02381,0.37797 -0.51547,0.0644 -0.99644,0.31355 -1.51191,0.37798 -0.50007,0.0625 -1.013,-0.0713 -1.5119,0 -0.39442,0.0563 -0.74093,0.31248 -1.13393,0.37798 -0.37283,0.0621 -0.75595,0 -1.13393,0 -0.37797,0.12599 -0.74324,0.29984 -1.13393,0.37797 -0.41456,0.0829 -1.74412,0 -2.26785,0 -0.126,0 -0.25845,-0.0398 -0.37798,0 -0.26727,0.0891 -0.48868,0.28889 -0.75595,0.37798 -0.35858,0.11952 -0.76724,-0.0917 -1.13393,0 -0.27332,0.0683 -0.48264,0.30965 -0.75595,0.37798 -0.48892,0.12222 -1.02299,-0.12223 -1.51191,0 -0.27331,0.0683 -0.48264,0.30964 -0.75595,0.37797 -0.56583,0.14146 -1.669474,-0.11968 -2.267858,0 -0.390684,0.0781 -0.743244,0.29984 -1.133927,0.37798 -0.494184,0.0988 -1.007938,0 -1.511906,0 -1.385914,0 -2.771825,0 -4.157739,0 -0.62996,0 -1.264785,-0.0781 -1.889879,0 -0.637477,0.0797 -1.252408,0.29829 -1.889882,0.37797 -0.868376,0.10855 -1.777458,-0.10854 -2.645833,0 -1.030933,0.12887 -1.992876,0.62709 -3.02381,0.75596 -0.500075,0.0625 -1.014793,-0.0829 -1.511905,0 -0.277892,0.0463 -0.482637,0.30964 -0.755952,0.37797 -0.391541,0.0979 -1.078495,0 -1.511906,0 -0.881943,0 -1.763887,0 -2.645833,0 -1.25992,0 -2.519842,0 -3.779761,0 -0.503968,0 -1.011827,0.0625 -1.511906,0 -0.515466,-0.0644 -0.996436,-0.31354 -1.511903,-0.37797 -0.500076,-0.0625 -1.013002,0.0713 -1.511906,0 -0.394417,-0.0564 -0.755951,-0.25199 -1.133927,-0.37798 -0.377976,-0.12599 -0.764003,-0.23001 -1.13393,-0.37798 -0.261575,-0.10463 -0.494374,-0.27334 -0.755952,-0.37797 -0.369925,-0.14797 -0.764003,-0.23001 -1.133927,-0.37798 -0.523156,-0.20926 -1.007939,-0.50397 -1.511906,-0.75595 -0.251984,-0.12599 -0.530572,-0.20894 -0.755952,-0.37798 -0.285088,-0.21381 -0.450376,-0.57261 -0.755952,-0.75595 -0.341645,-0.20499 -0.77757,-0.1998 -1.13393,-0.37798 -0.406312,-0.20315 -0.73951,-0.53057 -1.133927,-0.75595 -0.489215,-0.27955 -1.007938,-0.50397 -1.511906,-0.75595 -0.503968,-0.25198 -0.984327,-0.55811 -1.511903,-0.75595 -0.486405,-0.18241 -1.034431,-0.17335 -1.511906,-0.37798 -0.417542,-0.17895 -0.727617,-0.5528 -1.133927,-0.75595 -0.35636,-0.17818 -0.764006,-0.23001 -1.13393,-0.37798 -0.772547,-0.30902 -1.52335,-0.76167 -2.267858,-1.13393 -0.251984,-0.12599 -0.488683,-0.28888 -0.755952,-0.37797 -0.119525,-0.0398 -0.265284,0.0563 -0.377975,0 -0.318739,-0.15937 -0.437216,-0.59659 -0.755952,-0.75595 -0.356359,-0.17818 -0.777571,-0.1998 -1.13393,-0.37798 -0.45357,-0.22679 -0.680358,-0.90714 -1.133928,-1.13393 -0.112691,-0.0563 -0.265287,0.0563 -0.377975,0 -0.159369,-0.0797 -0.251987,-0.25198 -0.377979,-0.37798 -0.251984,-0.25198 -0.459441,-0.55828 -0.755951,-0.75595 -0.104831,-0.0699 -0.258451,0.0399 -0.377976,0 -2.141495,-1.07075 0.563454,0.14087 -1.511906,-0.37797 -0.546629,-0.13666 -0.977366,-0.57778 -1.511903,-0.75596 -0.35858,-0.11952 -0.767239,0.0917 -1.13393,0 -0.273315,-0.0683 -0.503968,-0.25198 -0.755952,-0.37797 -0.251984,-0.126 -0.503968,-0.25199 -0.755952,-0.37798 -0.746172,-0.37309 -1.552733,-0.70485 -2.267857,-1.13393 -0.779068,-0.46744 -1.541023,-0.96678 -2.267858,-1.5119 -0.42763,-0.32073 -0.706297,-0.81321 -1.133927,-1.13393 -0.225383,-0.16904 -0.503968,-0.25198 -0.755954,-0.37798 -0.377976,-0.25198 -0.779201,-0.47217 -1.133928,-0.75595 -0.27827,-0.22262 -0.48219,-0.52782 -0.755951,-0.75595 -0.48395,-0.40329 -1.027957,-0.73064 -1.511906,-1.13393 -0.273762,-0.22814 -0.477682,-0.53334 -0.755952,-0.75595 -1.060177,-0.84814 -2.341609,-1.41972 -3.401786,-2.26786 -0.529909,-0.42393 -1.024913,-1.02491 -1.511905,-1.5119 -0.198991,-0.199 -1.032993,-0.93206 -1.133928,-1.13393 -0.05634,-0.11269 0.03984,-0.25845 0,-0.37798 -0.08909,-0.26727 -0.221702,-0.52154 -0.377976,-0.75595 -0.09884,-0.14826 -0.321631,-0.20894 -0.377976,-0.37798 -0.07969,-0.23905 0.06111,-0.51149 0,-0.75595 -0.06833,-0.27331 -0.288887,-0.48868 -0.377977,-0.75595 -0.07968,-0.23905 0.07969,-0.5169 0,-0.75596 -0.17818,-0.53453 -0.64545,-0.95939 -0.755952,-1.5119 -0.07413,-0.37063 0.07413,-0.76329 0,-1.13393 -0.110502,-0.55251 -0.619295,-0.96527 -0.755952,-1.5119 -0.467855,-1.87142 0.467855,0.35951 0,-1.51191 -0.06833,-0.27331 -0.288887,-0.48868 -0.377977,-0.75595 -0.13388,-0.40164 0.133881,-1.11026 0,-1.51191 -0.125992,-0.25198 -0.251984,-0.50396 -0.377976,-0.75595 0,-0.12599 0.03984,-0.25845 0,-0.37797 -0.08909,-0.26727 -0.288886,-0.48869 -0.377976,-0.75596 -0.460177,-1.38053 0.836686,1.37613 0,-1.13392 -0.05635,-0.16904 -0.321631,-0.20894 -0.377976,-0.37798 -0.07167,-0.21502 0,-1.53389 0,-1.88988 0,-0.12599 0.03984,-0.25845 0,-0.37798 -0.125992,-0.25198 -0.251984,-0.50397 -0.377976,-0.75595 0,-0.12599 0.03984,-0.25845 0,-0.37798 -0.08909,-0.26727 -0.288887,-0.48868 -0.377977,-0.75595 -0.03984,-0.11952 0.03984,-0.25845 0,-0.37798 -0.08909,-0.26726 -0.288886,-0.48868 -0.377976,-0.75595 -0.03984,-0.11952 0.05635,-0.26528 0,-0.37797 -0.07968,-0.15937 -0.298291,-0.21861 -0.377976,-0.37798 -0.05635,-0.11269 0,-0.25198 0,-0.37798 -0.125992,-0.25198 -0.221702,-0.52154 -0.377976,-0.75595 -0.09884,-0.14825 -0.298292,-0.21861 -0.377976,-0.37797 -0.112691,-0.22538 0.11269,-0.53058 0,-0.75596 -0.07969,-0.15937 -0.27914,-0.22972 -0.377976,-0.37797 -0.156275,-0.23441 -0.251985,-0.50397 -0.377977,-0.75596 -0.125992,-0.25198 -0.288886,-0.48868 -0.377976,-0.75595 -0.03984,-0.11952 0.05635,-0.26528 0,-0.37797 -0.07968,-0.15937 -0.321631,-0.20894 -0.377976,-0.37798 -0.07968,-0.23905 0.112691,-0.53057 0,-0.75595 -0.159369,-0.31874 -0.55828,-0.45944 -0.755952,-0.75596 -0.06989,-0.10483 0.03984,-0.25845 0,-0.37797 -0.17818,-0.53454 -0.619295,-0.96527 -0.755953,-1.51191 -0.06111,-0.24446 0.06112,-0.51149 0,-0.75595 -0.136657,-0.54663 -0.577773,-0.97736 -0.7559522,-1.5119 -0.039842,-0.11953 0.030558,-0.25575 0,-0.37798 -0.096631,-0.38652 -0.2813447,-0.7474 -0.3779761,-1.13393 -0.030558,-0.12223 0.039842,-0.25845 0,-0.37797 -0.2635469,-0.79064 -0.8241781,-1.49348 -1.1339287,-2.26786 -0.9341318,-2.33533 0.1304692,-0.11704 -0.7559522,-1.88988 -0.2519841,-0.50397 -0.5777727,-0.97737 -0.7559524,-1.51191 -0.039842,-0.11952 0.039842,-0.25845 0,-0.37797 -0.1781797,-0.53454 -0.5777727,-0.97737 -0.7559524,-1.51191 -0.039842,-0.11952 0.056345,-0.26528 0,-0.37797 -0.079684,-0.15937 -0.2982918,-0.21861 -0.3779763,-0.37798 -0.056345,-0.11269 0.039842,-0.25845 0,-0.37797 -0.1781797,-0.53455 -0.5777725,-0.97737 -0.7559522,-1.51191 -0.039842,-0.11953 0.039842,-0.25845 0,-0.37798 -0.08909,-0.26727 -0.2888863,-0.48868 -0.3779763,-0.75595 -0.079684,-0.23905 0.079684,-0.5169 0,-0.75595 -0.1781797,-0.53454 -0.5777727,-0.97737 -0.7559524,-1.51191 -0.081632,-0.24489 0,-1.58043 0,-1.88988 0,-0.12599 0.056345,-0.26528 0,-0.37797 -0.079684,-0.15937 -0.3216307,-0.20894 -0.3779761,-0.37798 -0.079684,-0.23905 0.061115,-0.51149 0,-0.75595 -0.068329,-0.27332 -0.2888864,-0.48869 -0.3779763,-0.75595 -0.039842,-0.11953 0.039842,-0.25846 0,-0.37798 -0.08909,-0.26727 -0.2888861,-0.48868 -0.3779761,-0.75595 -0.1200211,-0.36007 0.1227222,-1.52172 0,-1.88988 -0.08909,-0.26727 -0.2888863,-0.48869 -0.3779762,-0.75596 -0.1202312,-0.36069 0.1046457,-1.47129 0,-1.88988 -0.096631,-0.38652 -0.2998392,-0.74324 -0.3779762,-1.13392 -0.096357,-0.48179 0.1276928,-1.88479 0,-2.26786 -0.056345,-0.16904 -0.3216308,-0.20894 -0.3779762,-0.37798 -0.079684,-0.23905 0,-0.50397 0,-0.75595 0,-0.32067 0.062694,-2.01708 0,-2.26786 -0.068329,-0.27331 -0.3096474,-0.48264 -0.3779761,-0.75595 -0.061115,-0.24446 0,-0.50397 0,-0.75595 0,-0.25199 0,-0.50397 0,-0.75595 0,-1.00794 0,-2.01588 0,-3.02382 0,-0.75595 0,-1.5119 0,-2.26785 0,-0.17023 -0.057516,-1.0189 0,-1.13393 0.079684,-0.15937 0.2982918,-0.21861 0.3779761,-0.37798 0.1115068,-0.22301 -0.086661,-0.87394 0,-1.13392 0.08909,-0.26728 0.2888864,-0.48869 0.3779762,-0.75596 0.039842,-0.11952 -0.039842,-0.25845 0,-0.37797 0.1781797,-0.53454 0.5777727,-0.97737 0.7559524,-1.51191 0.039842,-0.11953 -0.039842,-0.25845 0,-0.37798 0.1781797,-0.53453 0.5777727,-0.97736 0.7559524,-1.5119 0.079684,-0.23905 -0.1126908,-0.53057 0,-0.75595 0.1593686,-0.31874 0.5965836,-0.43722 0.7559524,-0.75596 0.056345,-0.11268 -0.056345,-0.26528 0,-0.37797 0.079684,-0.15937 0.3216307,-0.20894 0.3779761,-0.37798 0.079684,-0.23905 -0.079684,-0.51689 0,-0.75595 0.056345,-0.16904 0.2982918,-0.21861 0.3779763,-0.37797 0.056345,-0.1127 -0.056345,-0.26529 0,-0.37798 0.079684,-0.15937 0.2791397,-0.22972 0.3779761,-0.37798 0.156274,-0.23441 0.2217023,-0.52154 0.3779761,-0.75595 0.098836,-0.14825 0.298292,-0.21861 0.3779763,-0.37798 0.056345,-0.11269 -0.039842,-0.25845 0,-0.37797 0.08909,-0.26727 0.2888864,-0.48868 0.3779761,-0.75596 0.039842,-0.11952 -0.056345,-0.26528 0,-0.37797 0.1593688,-0.31874 0.6432616,-0.41788 0.7559524,-0.75595 0.079684,-0.23906 -0.061115,-0.5115 0,-0.75596 0.068329,-0.27331 0.2888864,-0.48868 0.3779763,-0.75595 0.079684,-0.23905 -0.1126908,-0.53057 0,-0.75595 0.079684,-0.15937 0.2982918,-0.21861 0.3779761,-0.37798 0.1115068,-0.22301 -0.086661,-0.87394 0,-1.13392 0.08909,-0.26728 0.2888864,-0.48869 0.3779761,-0.75596 0.1186989,-0.35609 -0.1225296,-2.0228 0,-2.26786 0.079684,-0.15936 0.298292,-0.2186 0.3779763,-0.37797 0.1237525,-0.24751 -0.1118095,-1.55445 0,-1.88988 0.08909,-0.26727 0.3096474,-0.48264 0.3779761,-0.75596 0.069632,-0.27852 -0.1107234,-1.668428 0,-1.889874 0.079684,-0.159369 0.2982918,-0.218609 0.3779763,-0.377979 0.048863,-0.09772 0,-1.999945 0,-2.267854 0,-0.267912 0.048863,-2.170131 0,-2.267858 -0.079685,-0.159369 -0.2982918,-0.218609 -0.3779763,-0.377976 -0.1192268,-0.238455 0.1192268,-1.651428 0,-1.889881 -0.079684,-0.15937 -0.2982918,-0.218607 -0.3779761,-0.377976 -0.057516,-0.115033 0,-0.963705 0,-1.13393 0,-0.755952 0,-1.511904 0,-2.267858 z"
       id="path849"
       inkscape:connector-curvature="0" />
  </g>
</svg>
