solid Onshape
  facet normal 0 -0.999657 0.0261854
    outer loop
      vertex 161.612 216.03 50.2617
      vertex 161.605 216.023 50
      vertex 207.66 216.023 50
    endloop
  endfacet
  facet normal -3.57927e-5 -0.991444 0.130533
    outer loop
      vertex 161.667 216.085 50.7822
      vertex 161.633 216.051 50.5226
      vertex 207.569 216.062 50.6251
    endloop
  endfacet
  facet normal 1.62495e-5 -0.454007 0.890998
    outer loop
      vertex 200.18 218.999 54.5721
      vertex 164.572 218.99 54.5677
      vertex 164.105 218.523 54.3301
    endloop
  endfacet
  facet normal -0.000800106 -0.00953764 0.999954
    outer loop
      vertex 194.338 220.959 54.9996
      vertex 194.148 221.018 55
      vertex 166.083 220.501 54.9726
    endloop
  endfacet
  facet normal -0.00090872 -0.00364495 0.999993
    outer loop
      vertex 194.148 221.018 55
      vertex 194.13 221.023 55
      vertex 166.083 220.501 54.9726
    endloop
  endfacet
  facet normal 0 -0.0523388 0.998629
    outer loop
      vertex 166.083 220.501 54.9726
      vertex 194.13 221.023 55
      vertex 166.605 221.023 55
    endloop
  endfacet
  facet normal 1.11707e-6 -0.215406 0.976524
    outer loop
      vertex 165.566 219.984 54.8907
      vertex 197.353 219.988 54.8916
      vertex 197.352 219.988 54.8917
    endloop
  endfacet
  facet normal -1.44675e-6 -0.198415 0.980118
    outer loop
      vertex 197.352 219.988 54.8917
      vertex 197.097 220.074 54.909
      vertex 165.566 219.984 54.8907
    endloop
  endfacet
  facet normal -0.000125461 -0.156482 0.987681
    outer loop
      vertex 197.097 220.074 54.909
      vertex 196.066 220.413 54.9626
      vertex 165.566 219.984 54.8907
    endloop
  endfacet
  facet normal -0.000127987 -0.156307 0.987709
    outer loop
      vertex 165.566 219.984 54.8907
      vertex 196.066 220.413 54.9626
      vertex 166.083 220.501 54.9726
    endloop
  endfacet
  facet normal 5.56287e-7 -0.113093 0.993584
    outer loop
      vertex 196.066 220.413 54.9626
      vertex 195.788 220.503 54.9728
      vertex 166.083 220.501 54.9726
    endloop
  endfacet
  facet normal -3.17124e-6 -0.0585458 0.998285
    outer loop
      vertex 166.083 220.501 54.9726
      vertex 195.788 220.503 54.9728
      vertex 194.338 220.959 54.9996
    endloop
  endfacet
  facet normal 2.23851e-6 -0.22374 0.974649
    outer loop
      vertex 197.353 219.988 54.8916
      vertex 165.566 219.984 54.8907
      vertex 197.844 219.822 54.8535
    endloop
  endfacet
  facet normal -0.000182997 -0.25865 0.965971
    outer loop
      vertex 165.566 219.984 54.8907
      vertex 165.06 219.478 54.7553
      vertex 197.844 219.822 54.8535
    endloop
  endfacet
  facet normal -1.25248e-5 -0.273729 0.961807
    outer loop
      vertex 197.844 219.822 54.8535
      vertex 165.06 219.478 54.7553
      vertex 198.805 219.489 54.7589
    endloop
  endfacet
  facet normal 9.52624e-7 -0.408525 0.912747
    outer loop
      vertex 200.18 218.999 54.5721
      vertex 200.178 219 54.5725
      vertex 164.572 218.99 54.5677
    endloop
  endfacet
  facet normal -7.95096e-6 -0.383901 0.923374
    outer loop
      vertex 200.178 219 54.5725
      vertex 199.6 219.208 54.6589
      vertex 164.572 218.99 54.5677
    endloop
  endfacet
  facet normal -0.000195119 -0.358197 0.933646
    outer loop
      vertex 164.572 218.99 54.5677
      vertex 199.6 219.208 54.6589
      vertex 165.06 219.478 54.7553
    endloop
  endfacet
  facet normal 9.05287e-6 -0.335119 0.942176
    outer loop
      vertex 199.6 219.208 54.6589
      vertex 198.809 219.488 54.7586
      vertex 165.06 219.478 54.7553
    endloop
  endfacet
  facet normal -5.02618e-7 -0.306396 0.951904
    outer loop
      vertex 165.06 219.478 54.7553
      vertex 198.809 219.488 54.7586
      vertex 198.805 219.489 54.7589
    endloop
  endfacet
  facet normal -3.4743e-6 -0.578928 0.815379
    outer loop
      vertex 202.596 218.095 54.0531
      vertex 202.594 218.096 54.0536
      vertex 163.667 218.084 54.0451
    endloop
  endfacet
  facet normal -1.35327e-5 -0.556775 0.830663
    outer loop
      vertex 202.594 218.096 54.0536
      vertex 201.835 218.386 54.2481
      vertex 163.667 218.084 54.0451
    endloop
  endfacet
  facet normal -0.000153411 -0.544527 0.838743
    outer loop
      vertex 163.667 218.084 54.0451
      vertex 201.835 218.386 54.2481
      vertex 164.105 218.523 54.3301
    endloop
  endfacet
  facet normal 3.60051e-6 -0.513031 0.85837
    outer loop
      vertex 201.835 218.386 54.2481
      vertex 201.451 218.531 54.3345
      vertex 164.105 218.523 54.3301
    endloop
  endfacet
  facet normal -1.27664e-5 -0.45226 0.891886
    outer loop
      vertex 164.105 218.523 54.3301
      vertex 201.451 218.531 54.3345
      vertex 200.18 218.999 54.5721
    endloop
  endfacet
  facet normal 3.35847e-6 -0.59472 0.803933
    outer loop
      vertex 202.596 218.095 54.0531
      vertex 163.667 218.084 54.0451
      vertex 202.831 218.005 53.986
    endloop
  endfacet
  facet normal -0.000107225 -0.629255 0.777199
    outer loop
      vertex 163.667 218.084 54.0451
      vertex 163.26 217.678 53.7157
      vertex 202.831 218.005 53.986
    endloop
  endfacet
  facet normal -5.69586e-5 -0.632892 0.77424
    outer loop
      vertex 202.831 218.005 53.986
      vertex 163.26 217.678 53.7157
      vertex 203.564 217.718 53.7517
    endloop
  endfacet
  facet normal -3.28646e-7 -0.664958 0.746881
    outer loop
      vertex 203.564 217.718 53.7517
      vertex 163.26 217.678 53.7157
      vertex 203.662 217.679 53.7173
    endloop
  endfacet
  facet normal 3.0645e-6 -0.707108 0.707105
    outer loop
      vertex 163.26 217.678 53.7157
      vertex 162.89 217.308 53.3457
      vertex 203.662 217.679 53.7173
    endloop
  endfacet
  facet normal -2.77526e-5 -0.705416 0.708793
    outer loop
      vertex 203.662 217.679 53.7173
      vertex 162.89 217.308 53.3457
      vertex 204.555 217.322 53.362
    endloop
  endfacet
  facet normal 2.76006e-5 -0.77557 0.631261
    outer loop
      vertex 204.555 217.322 53.362
      vertex 162.89 217.308 53.3457
      vertex 205.395 216.98 52.941
    endloop
  endfacet
  facet normal -3.01911e-6 -0.777146 0.629321
    outer loop
      vertex 162.89 217.308 53.3457
      vertex 162.56 216.978 52.9389
      vertex 205.395 216.98 52.941
    endloop
  endfacet
  facet normal -7.47984e-6 -0.728207 0.685357
    outer loop
      vertex 205.395 216.98 52.941
      vertex 162.56 216.978 52.9389
      vertex 205.395 216.98 52.9409
    endloop
  endfacet
  facet normal 1.25124e-7 -0.811543 0.584292
    outer loop
      vertex 205.395 216.98 52.9409
      vertex 162.56 216.978 52.9389
      vertex 205.461 216.953 52.9036
    endloop
  endfacet
  facet normal -2.20352e-5 -0.824122 0.566412
    outer loop
      vertex 162.56 216.978 52.9389
      vertex 162.412 216.83 52.7232
      vertex 205.461 216.953 52.9036
    endloop
  endfacet
  facet normal 0.000141089 -0.841916 0.539609
    outer loop
      vertex 205.461 216.953 52.9036
      vertex 162.412 216.83 52.7232
      vertex 206.108 216.684 52.4841
    endloop
  endfacet
  facet normal 1.16664e-5 -0.852639 0.5225
    outer loop
      vertex 162.412 216.83 52.7232
      vertex 162.275 216.693 52.5
      vertex 206.108 216.684 52.4841
    endloop
  endfacet
  facet normal -1.80977e-5 -0.887657 0.460505
    outer loop
      vertex 206.108 216.684 52.4841
      vertex 162.275 216.693 52.5
      vertex 206.56 216.494 52.1173
    endloop
  endfacet
  facet normal 0.000164798 -0.878858 0.477083
    outer loop
      vertex 162.275 216.693 52.5
      vertex 162.15 216.568 52.27
      vertex 206.56 216.494 52.1173
    endloop
  endfacet
  facet normal -9.92495e-5 -0.909674 0.415324
    outer loop
      vertex 206.56 216.494 52.1173
      vertex 162.15 216.568 52.27
      vertex 206.648 216.457 52.0361
    endloop
  endfacet
  facet normal -1.62509e-6 -0.902583 0.430515
    outer loop
      vertex 162.15 216.568 52.27
      vertex 162.038 216.456 52.0337
      vertex 206.648 216.457 52.0361
    endloop
  endfacet
  facet normal -3.3914e-8 -0.913812 0.406138
    outer loop
      vertex 206.648 216.457 52.0361
      vertex 162.038 216.456 52.0337
      vertex 206.648 216.457 52.0361
    endloop
  endfacet
  facet normal -0.000451716 -0.955274 0.295721
    outer loop
      vertex 207.156 216.24 51.4572
      vertex 207.121 216.255 51.5053
      vertex 161.715 216.132 51.0396
    endloop
  endfacet
  facet normal -0.000154723 -0.964062 0.265678
    outer loop
      vertex 207.156 216.24 51.4572
      vertex 161.715 216.132 51.0396
      vertex 207.322 216.169 51.1992
    endloop
  endfacet
  facet normal 1.41432e-6 -0.923591 0.38338
    outer loop
      vertex 206.648 216.457 52.0361
      vertex 162.038 216.456 52.0337
      vertex 206.882 216.357 51.7967
    endloop
  endfacet
  facet normal -2.76974e-6 -0.923871 0.382705
    outer loop
      vertex 162.038 216.456 52.0337
      vertex 161.938 216.355 51.7918
      vertex 206.882 216.357 51.7967
    endloop
  endfacet
  facet normal 3.22548e-6 -0.942428 0.334409
    outer loop
      vertex 206.882 216.357 51.7967
      vertex 161.938 216.355 51.7918
      vertex 207.09 216.268 51.5463
    endloop
  endfacet
  facet normal -4.67727e-7 -0.942642 0.333806
    outer loop
      vertex 161.938 216.355 51.7918
      vertex 161.85 216.268 51.5451
      vertex 207.09 216.268 51.5463
    endloop
  endfacet
  facet normal 3.69069e-7 -0.952207 0.305454
    outer loop
      vertex 207.09 216.268 51.5463
      vertex 161.85 216.268 51.5451
      vertex 207.121 216.255 51.5053
    endloop
  endfacet
  facet normal -2.03351e-5 -0.958822 0.284007
    outer loop
      vertex 161.85 216.268 51.5451
      vertex 161.776 216.194 51.2941
      vertex 207.121 216.255 51.5053
    endloop
  endfacet
  facet normal 0.000233838 -0.972382 0.233394
    outer loop
      vertex 207.121 216.255 51.5053
      vertex 161.776 216.194 51.2941
      vertex 161.715 216.132 51.0396
    endloop
  endfacet
  facet normal -2.10689e-5 -0.990879 0.134756
    outer loop
      vertex 207.569 216.062 50.6251
      vertex 207.539 216.076 50.7213
      vertex 161.667 216.085 50.7822
    endloop
  endfacet
  facet normal 2.18511e-5 -0.986064 0.166368
    outer loop
      vertex 207.539 216.076 50.7213
      vertex 207.452 216.113 50.9425
      vertex 161.667 216.085 50.7822
    endloop
  endfacet
  facet normal -3.53825e-5 -0.983257 0.182225
    outer loop
      vertex 161.667 216.085 50.7822
      vertex 207.452 216.113 50.9425
      vertex 161.715 216.132 51.0396
    endloop
  endfacet
  facet normal 3.38653e-7 -0.980118 0.198417
    outer loop
      vertex 207.452 216.113 50.9425
      vertex 207.406 216.133 51.041
      vertex 161.715 216.132 51.0396
    endloop
  endfacet
  facet normal -5.22816e-7 -0.974577 0.224053
    outer loop
      vertex 161.715 216.132 51.0396
      vertex 207.406 216.133 51.041
      vertex 207.322 216.169 51.1992
    endloop
  endfacet
  facet normal -2.96637e-5 -0.99978 0.0209687
    outer loop
      vertex 207.66 216.023 50
      vertex 207.65 216.028 50.2096
      vertex 161.612 216.03 50.2617
    endloop
  endfacet
  facet normal 1.76677e-5 -0.998032 0.0627084
    outer loop
      vertex 207.65 216.028 50.2096
      vertex 207.62 216.041 50.4173
      vertex 161.612 216.03 50.2617
    endloop
  endfacet
  facet normal -3.583e-5 -0.996918 0.0784448
    outer loop
      vertex 161.612 216.03 50.2617
      vertex 207.62 216.041 50.4173
      vertex 161.633 216.051 50.5226
    endloop
  endfacet
  facet normal 1.25158e-7 -0.99557 0.0940189
    outer loop
      vertex 207.62 216.041 50.4173
      vertex 207.596 216.051 50.5232
      vertex 161.633 216.051 50.5226
    endloop
  endfacet
  facet normal -1.35009e-7 -0.993392 0.114772
    outer loop
      vertex 161.633 216.051 50.5226
      vertex 207.596 216.051 50.5232
      vertex 207.569 216.062 50.6251
    endloop
  endfacet
  facet normal 0.63274 0.772595 0.0523132
    outer loop
      vertex 203.012 220.496 50
      vertex 200.161 222.831 50
      vertex 200.144 222.81 50.5226
    endloop
  endfacet
  facet normal 0.558943 0.827553 0.0523265
    outer loop
      vertex 197.934 224.473 50
      vertex 195.897 225.849 50
      vertex 195.882 225.826 50.5226
    endloop
  endfacet
  facet normal 0.272412 0.960758 0.0522967
    outer loop
      vertex 180.659 233.046 50
      vertex 176.815 234.135 50
      vertex 176.809 234.109 50.5226
    endloop
  endfacet
  facet normal 0.182826 0.981752 0.0523236
    outer loop
      vertex 174.42 234.685 50
      vertex 171.7 235.191 50
      vertex 171.695 235.164 50.5226
    endloop
  endfacet
  facet normal 0.00788799 0.0973438 0.99522
    outer loop
      vertex 166.152 231.29 54.9794
      vertex 166.158 231.359 54.9726
      vertex 166.084 231.363 54.9728
    endloop
  endfacet
  facet normal 0.701997 0.711924 0.0190581
    outer loop
      vertex 207.65 216.028 50.2096
      vertex 207.66 216.023 50
      vertex 204.161 219.473 50
    endloop
  endfacet
  facet normal 0.696179 0.707283 0.122828
    outer loop
      vertex 207.539 216.076 50.7213
      vertex 207.569 216.062 50.6251
      vertex 204.143 219.453 50.5226
    endloop
  endfacet
  facet normal 0.697902 0.70848 0.104824
    outer loop
      vertex 207.569 216.062 50.6251
      vertex 207.596 216.051 50.5232
      vertex 204.143 219.453 50.5226
    endloop
  endfacet
  facet normal 0.700813 0.711427 0.0522813
    outer loop
      vertex 204.143 219.453 50.5226
      vertex 207.596 216.051 50.5232
      vertex 204.161 219.473 50
    endloop
  endfacet
  facet normal 0.696716 0.712303 0.0849158
    outer loop
      vertex 207.596 216.051 50.5232
      vertex 207.62 216.041 50.4173
      vertex 204.161 219.473 50
    endloop
  endfacet
  facet normal 0.699837 0.712036 0.0568568
    outer loop
      vertex 204.161 219.473 50
      vertex 207.62 216.041 50.4173
      vertex 207.65 216.028 50.2096
    endloop
  endfacet
  facet normal 0.674962 0.691023 0.258678
    outer loop
      vertex 203.996 219.292 51.5451
      vertex 207.121 216.255 51.5053
      vertex 204.087 219.392 51.0396
    endloop
  endfacet
  facet normal 0.67113 0.689389 0.272631
    outer loop
      vertex 207.121 216.255 51.5053
      vertex 207.156 216.24 51.4572
      vertex 204.087 219.392 51.0396
    endloop
  endfacet
  facet normal 0.678339 0.692732 0.244905
    outer loop
      vertex 207.156 216.24 51.4572
      vertex 207.322 216.169 51.1992
      vertex 204.087 219.392 51.0396
    endloop
  endfacet
  facet normal 0.685682 0.698169 0.205913
    outer loop
      vertex 207.322 216.169 51.1992
      vertex 207.406 216.133 51.041
      vertex 204.087 219.392 51.0396
    endloop
  endfacet
  facet normal 0.692094 0.704674 0.156333
    outer loop
      vertex 204.087 219.392 51.0396
      vertex 207.406 216.133 51.041
      vertex 204.143 219.453 50.5226
    endloop
  endfacet
  facet normal 0.687231 0.703664 0.180475
    outer loop
      vertex 207.406 216.133 51.041
      vertex 207.452 216.113 50.9425
      vertex 204.143 219.453 50.5226
    endloop
  endfacet
  facet normal 0.692475 0.705269 0.151901
    outer loop
      vertex 204.143 219.453 50.5226
      vertex 207.452 216.113 50.9425
      vertex 207.539 216.076 50.7213
    endloop
  endfacet
  facet normal 0.650204 0.670005 0.358228
    outer loop
      vertex 203.87 219.154 52.0337
      vertex 206.648 216.457 52.0361
      vertex 203.996 219.292 51.5451
    endloop
  endfacet
  facet normal 0.671825 0.679319 0.295258
    outer loop
      vertex 206.648 216.457 52.0361
      vertex 206.648 216.457 52.0361
      vertex 203.996 219.292 51.5451
    endloop
  endfacet
  facet normal 0.650372 0.670083 0.357779
    outer loop
      vertex 206.648 216.457 52.0361
      vertex 206.882 216.357 51.7967
      vertex 203.996 219.292 51.5451
    endloop
  endfacet
  facet normal 0.664195 0.679684 0.311246
    outer loop
      vertex 206.882 216.357 51.7967
      vertex 207.09 216.268 51.5463
      vertex 203.996 219.292 51.5451
    endloop
  endfacet
  facet normal 0.670498 0.686122 0.282257
    outer loop
      vertex 203.996 219.292 51.5451
      vertex 207.09 216.268 51.5463
      vertex 207.121 216.255 51.5053
    endloop
  endfacet
  facet normal 0.587338 0.612161 0.529427
    outer loop
      vertex 205.395 216.98 52.941
      vertex 205.395 216.98 52.9409
      vertex 203.71 218.978 52.5
    endloop
  endfacet
  facet normal 0.568479 0.602939 0.559729
    outer loop
      vertex 205.395 216.98 52.9409
      vertex 205.461 216.953 52.9036
      vertex 203.71 218.978 52.5
    endloop
  endfacet
  facet normal 0.592536 0.615705 0.51943
    outer loop
      vertex 205.461 216.953 52.9036
      vertex 206.108 216.684 52.4841
      vertex 203.71 218.978 52.5
    endloop
  endfacet
  facet normal 0.617589 0.642343 0.45385
    outer loop
      vertex 203.71 218.978 52.5
      vertex 206.108 216.684 52.4841
      vertex 203.87 219.154 52.0337
    endloop
  endfacet
  facet normal 0.625674 0.64651 0.436529
    outer loop
      vertex 206.108 216.684 52.4841
      vertex 206.56 216.494 52.1173
      vertex 203.87 219.154 52.0337
    endloop
  endfacet
  facet normal 0.641179 0.660738 0.390275
    outer loop
      vertex 203.87 219.154 52.0337
      vertex 206.56 216.494 52.1173
      vertex 206.648 216.457 52.0361
    endloop
  endfacet
  facet normal 0.455284 0.492249 0.741894
    outer loop
      vertex 203.564 217.718 53.7517
      vertex 203.662 217.679 53.7173
      vertex 203.046 218.251 53.7157
    endloop
  endfacet
  facet normal 0.487481 0.526788 0.696316
    outer loop
      vertex 203.662 217.679 53.7173
      vertex 204.555 217.322 53.362
      vertex 203.046 218.251 53.7157
    endloop
  endfacet
  facet normal 0.483419 0.516092 0.707075
    outer loop
      vertex 203.046 218.251 53.7157
      vertex 204.555 217.322 53.362
      vertex 203.296 218.524 53.3457
    endloop
  endfacet
  facet normal 0.541654 0.575816 0.612411
    outer loop
      vertex 204.555 217.322 53.362
      vertex 205.395 216.98 52.941
      vertex 203.296 218.524 53.3457
    endloop
  endfacet
  facet normal 0.535611 0.563196 0.629231
    outer loop
      vertex 203.296 218.524 53.3457
      vertex 205.395 216.98 52.941
      vertex 203.518 218.768 52.9389
    endloop
  endfacet
  facet normal 0.578069 0.607684 0.544569
    outer loop
      vertex 205.395 216.98 52.941
      vertex 203.71 218.978 52.5
      vertex 203.518 218.768 52.9389
    endloop
  endfacet
  facet normal 0.406072 0.493427 0.769179
    outer loop
      vertex 202.594 218.096 54.0536
      vertex 202.596 218.095 54.0531
      vertex 203.046 218.251 53.7157
    endloop
  endfacet
  facet normal 0.409154 0.488203 0.770877
    outer loop
      vertex 202.596 218.095 54.0531
      vertex 202.831 218.005 53.986
      vertex 203.046 218.251 53.7157
    endloop
  endfacet
  facet normal 0.430174 0.469823 0.770854
    outer loop
      vertex 203.046 218.251 53.7157
      vertex 202.831 218.005 53.986
      vertex 203.564 217.718 53.7517
    endloop
  endfacet
  facet normal 0.345676 0.421099 0.838561
    outer loop
      vertex 198.902 221.2 54.0451
      vertex 198.634 220.852 54.3301
      vertex 201.451 218.531 54.3345
    endloop
  endfacet
  facet normal 0.201322 0.273543 0.940555
    outer loop
      vertex 198.809 219.488 54.7586
      vertex 198.349 220.483 54.5677
      vertex 198.805 219.489 54.7589
    endloop
  endfacet
  facet normal 0.221712 0.281568 0.933576
    outer loop
      vertex 198.349 220.483 54.5677
      vertex 198.05 220.096 54.7553
      vertex 198.805 219.489 54.7589
    endloop
  endfacet
  facet normal 0.169318 0.216528 0.961482
    outer loop
      vertex 198.805 219.489 54.7589
      vertex 198.05 220.096 54.7553
      vertex 197.844 219.822 54.8535
    endloop
  endfacet
  facet normal 0.216589 0.279606 0.935366
    outer loop
      vertex 198.809 219.488 54.7586
      vertex 199.6 219.208 54.6589
      vertex 198.349 220.483 54.5677
    endloop
  endfacet
  facet normal 0.24908 0.310229 0.917451
    outer loop
      vertex 199.6 219.208 54.6589
      vertex 200.178 219 54.5725
      vertex 198.349 220.483 54.5677
    endloop
  endfacet
  facet normal 0.284523 0.353865 0.890969
    outer loop
      vertex 198.349 220.483 54.5677
      vertex 200.178 219 54.5725
      vertex 198.634 220.852 54.3301
    endloop
  endfacet
  facet normal 0.266609 0.340336 0.901716
    outer loop
      vertex 200.178 219 54.5725
      vertex 200.18 218.999 54.5721
      vertex 198.634 220.852 54.3301
    endloop
  endfacet
  facet normal 0.299508 0.365152 0.881453
    outer loop
      vertex 198.634 220.852 54.3301
      vertex 200.18 218.999 54.5721
      vertex 201.451 218.531 54.3345
    endloop
  endfacet
  facet normal 0.0733762 0.114394 0.990722
    outer loop
      vertex 195.788 220.503 54.9728
      vertex 196.066 220.413 54.9626
      vertex 193.745 222.524 54.8907
    endloop
  endfacet
  facet normal 0.0975975 0.140839 0.98521
    outer loop
      vertex 196.066 220.413 54.9626
      vertex 197.097 220.074 54.909
      vertex 193.745 222.524 54.8907
    endloop
  endfacet
  facet normal 0.126714 0.180593 0.975361
    outer loop
      vertex 197.097 220.074 54.909
      vertex 197.352 219.988 54.8917
      vertex 193.745 222.524 54.8907
    endloop
  endfacet
  facet normal 0.154214 0.219699 0.963302
    outer loop
      vertex 193.745 222.524 54.8907
      vertex 197.352 219.988 54.8917
      vertex 198.05 220.096 54.7553
    endloop
  endfacet
  facet normal 0.149796 0.242347 0.958556
    outer loop
      vertex 197.352 219.988 54.8917
      vertex 197.353 219.988 54.8916
      vertex 198.05 220.096 54.7553
    endloop
  endfacet
  facet normal 0.152377 0.229256 0.961365
    outer loop
      vertex 198.05 220.096 54.7553
      vertex 197.353 219.988 54.8916
      vertex 197.844 219.822 54.8535
    endloop
  endfacet
  facet normal 0.00995145 0.0318632 0.999443
    outer loop
      vertex 194.13 221.023 55
      vertex 194.148 221.018 55
      vertex 193.464 222.09 54.9726
    endloop
  endfacet
  facet normal 0.0123977 0.0334214 0.999364
    outer loop
      vertex 194.148 221.018 55
      vertex 194.338 220.959 54.9996
      vertex 193.464 222.09 54.9726
    endloop
  endfacet
  facet normal 0.0342706 0.0503053 0.998146
    outer loop
      vertex 193.464 222.09 54.9726
      vertex 194.338 220.959 54.9996
      vertex 195.788 220.503 54.9728
    endloop
  endfacet
  facet normal 0.0117951 0.0969734 0.995217
    outer loop
      vertex 166.158 231.359 54.9726
      vertex 166.152 231.29 54.9794
      vertex 170.976 230.773 54.9726
    endloop
  endfacet
  facet normal 0.0102857 0.0828887 0.996506
    outer loop
      vertex 166.152 231.29 54.9794
      vertex 166.264 231.169 54.9883
      vertex 170.976 230.773 54.9726
    endloop
  endfacet
  facet normal 0.00654717 0.0383132 0.999244
    outer loop
      vertex 170.976 230.773 54.9726
      vertex 166.264 231.169 54.9883
      vertex 166.596 230.807 55
    endloop
  endfacet
  facet normal 0.0183318 0.2604 0.965327
    outer loop
      vertex 166.24 232.378 54.7553
      vertex 165.062 232.458 54.7559
      vertex 165.557 231.931 54.8887
    endloop
  endfacet
  facet normal 0.0231257 0.330655 0.943468
    outer loop
      vertex 165.062 232.458 54.7559
      vertex 166.24 232.378 54.7553
      vertex 164.871 232.661 54.6894
    endloop
  endfacet
  facet normal 0.029098 0.357181 0.933582
    outer loop
      vertex 166.24 232.378 54.7553
      vertex 166.278 232.865 54.5677
      vertex 164.871 232.661 54.6894
    endloop
  endfacet
  facet normal 0.0276427 0.365378 0.930449
    outer loop
      vertex 164.871 232.661 54.6894
      vertex 166.278 232.865 54.5677
      vertex 164.744 232.796 54.6405
    endloop
  endfacet
  facet normal 0.0297362 0.453061 0.890983
    outer loop
      vertex 166.316 233.33 54.3301
      vertex 164.169 233.4 54.3663
      vertex 166.278 232.865 54.5677
    endloop
  endfacet
  facet normal 0.029718 0.453001 0.891014
    outer loop
      vertex 164.169 233.4 54.3663
      vertex 164.574 232.975 54.5686
      vertex 166.278 232.865 54.5677
    endloop
  endfacet
  facet normal 0.0258594 0.393035 0.91916
    outer loop
      vertex 166.278 232.865 54.5677
      vertex 164.574 232.975 54.5686
      vertex 164.744 232.796 54.6405
    endloop
  endfacet
  facet normal 0.0335132 0.54367 0.83863
    outer loop
      vertex 166.351 233.767 54.0451
      vertex 164.107 233.465 54.3307
      vertex 166.316 233.33 54.3301
    endloop
  endfacet
  facet normal 0.0322781 0.523435 0.851454
    outer loop
      vertex 164.107 233.465 54.3307
      vertex 164.107 233.465 54.3308
      vertex 166.316 233.33 54.3301
    endloop
  endfacet
  facet normal 0.0308228 0.499572 0.865724
    outer loop
      vertex 166.316 233.33 54.3301
      vertex 164.107 233.465 54.3308
      vertex 164.169 233.4 54.3663
    endloop
  endfacet
  facet normal 0.0368606 0.628326 0.777076
    outer loop
      vertex 166.383 234.173 53.7157
      vertex 163.64 233.951 54.0253
      vertex 166.351 233.767 54.0451
    endloop
  endfacet
  facet normal 0.0346735 0.598517 0.800359
    outer loop
      vertex 163.64 233.951 54.0253
      vertex 163.667 233.922 54.0455
      vertex 166.351 233.767 54.0451
    endloop
  endfacet
  facet normal 0.0319321 0.550959 0.833921
    outer loop
      vertex 166.351 233.767 54.0451
      vertex 163.667 233.922 54.0455
      vertex 164.107 233.465 54.3307
    endloop
  endfacet
  facet normal 0.0404183 0.697369 0.715571
    outer loop
      vertex 163.128 234.478 53.5929
      vertex 163.213 234.391 53.6734
      vertex 166.413 234.542 53.3457
    endloop
  endfacet
  facet normal 0.0421901 0.685105 0.727222
    outer loop
      vertex 163.213 234.391 53.6734
      vertex 163.261 234.342 53.7165
      vertex 166.413 234.542 53.3457
    endloop
  endfacet
  facet normal 0.038477 0.706172 0.706994
    outer loop
      vertex 166.413 234.542 53.3457
      vertex 163.261 234.342 53.7165
      vertex 166.383 234.173 53.7157
    endloop
  endfacet
  facet normal 0.0355147 0.651347 0.757948
    outer loop
      vertex 163.261 234.342 53.7165
      vertex 163.261 234.342 53.7165
      vertex 166.383 234.173 53.7157
    endloop
  endfacet
  facet normal 0.0348882 0.639752 0.767789
    outer loop
      vertex 166.383 234.173 53.7157
      vertex 163.261 234.342 53.7165
      vertex 163.64 233.951 54.0253
    endloop
  endfacet
  facet normal 0.0387731 0.795445 0.604784
    outer loop
      vertex 162.562 235.058 52.9406
      vertex 162.781 234.834 53.2212
      vertex 166.439 234.87 52.9389
    endloop
  endfacet
  facet normal 0.0420978 0.764013 0.643826
    outer loop
      vertex 162.781 234.834 53.2212
      vertex 162.891 234.721 53.3472
      vertex 166.439 234.87 52.9389
    endloop
  endfacet
  facet normal 0.0398989 0.776242 0.629172
    outer loop
      vertex 166.439 234.87 52.9389
      vertex 162.891 234.721 53.3472
      vertex 166.413 234.542 53.3457
    endloop
  endfacet
  facet normal 0.0371234 0.721313 0.691614
    outer loop
      vertex 162.891 234.721 53.3472
      vertex 162.891 234.721 53.3473
      vertex 166.413 234.542 53.3457
    endloop
  endfacet
  facet normal 0.037472 0.728212 0.684327
    outer loop
      vertex 166.413 234.542 53.3457
      vertex 162.891 234.721 53.3473
      vertex 163.128 234.478 53.5929
    endloop
  endfacet
  facet normal 0.0387603 0.795179 0.605135
    outer loop
      vertex 162.562 235.058 52.9406
      vertex 166.439 234.87 52.9389
      vertex 162.562 235.058 52.9405
    endloop
  endfacet
  facet normal 0.0407996 0.837799 0.544452
    outer loop
      vertex 166.439 234.87 52.9389
      vertex 166.462 235.154 52.5
      vertex 162.562 235.058 52.9405
    endloop
  endfacet
  facet normal 0.0430638 0.826063 0.56193
    outer loop
      vertex 162.562 235.058 52.9405
      vertex 166.462 235.154 52.5
      vertex 162.477 235.143 52.821
    endloop
  endfacet
  facet normal 0.0403777 0.897225 0.439724
    outer loop
      vertex 162.056 235.57 52.0751
      vertex 162.244 235.38 52.4455
      vertex 166.48 235.391 52.0337
    endloop
  endfacet
  facet normal 0.0443345 0.876227 0.479855
    outer loop
      vertex 162.244 235.38 52.4455
      vertex 162.276 235.348 52.5008
      vertex 166.48 235.391 52.0337
    endloop
  endfacet
  facet normal 0.0412954 0.890156 0.453781
    outer loop
      vertex 166.48 235.391 52.0337
      vertex 162.276 235.348 52.5008
      vertex 166.462 235.154 52.5
    endloop
  endfacet
  facet normal 0.0368962 0.794528 0.606106
    outer loop
      vertex 162.276 235.348 52.5008
      vertex 162.276 235.348 52.5008
      vertex 166.462 235.154 52.5
    endloop
  endfacet
  facet normal 0.0396021 0.853331 0.519864
    outer loop
      vertex 166.462 235.154 52.5
      vertex 162.276 235.348 52.5008
      vertex 162.477 235.143 52.821
    endloop
  endfacet
  facet normal 0.0417331 0.932717 0.358187
    outer loop
      vertex 166.495 235.578 51.5451
      vertex 161.902 235.726 51.6952
      vertex 166.48 235.391 52.0337
    endloop
  endfacet
  facet normal 0.0414398 0.931618 0.361069
    outer loop
      vertex 161.902 235.726 51.6952
      vertex 162.038 235.588 52.0342
      vertex 166.48 235.391 52.0337
    endloop
  endfacet
  facet normal 0.0407604 0.91624 0.39855
    outer loop
      vertex 166.48 235.391 52.0337
      vertex 162.038 235.588 52.0342
      vertex 162.056 235.57 52.0751
    endloop
  endfacet
  facet normal 0.0409837 0.978032 0.204388
    outer loop
      vertex 161.715 235.914 51.0398
      vertex 161.724 235.904 51.0821
      vertex 166.506 235.713 51.0396
    endloop
  endfacet
  facet normal 0.0409831 0.972338 0.229957
    outer loop
      vertex 161.724 235.904 51.0821
      vertex 161.778 235.85 51.3033
      vertex 166.506 235.713 51.0396
    endloop
  endfacet
  facet normal 0.0423728 0.96504 0.258654
    outer loop
      vertex 166.506 235.713 51.0396
      vertex 161.778 235.85 51.3033
      vertex 166.495 235.578 51.5451
    endloop
  endfacet
  facet normal 0.0412795 0.96057 0.274958
    outer loop
      vertex 161.778 235.85 51.3033
      vertex 161.85 235.777 51.5461
      vertex 166.495 235.578 51.5451
    endloop
  endfacet
  facet normal 0.0407825 0.94879 0.313263
    outer loop
      vertex 166.495 235.578 51.5451
      vertex 161.85 235.777 51.5461
      vertex 161.902 235.726 51.6952
    endloop
  endfacet
  facet normal 0.0412566 0.984586 0.169968
    outer loop
      vertex 161.715 235.914 51.0398
      vertex 166.506 235.713 51.0396
      vertex 161.658 235.97 50.7263
    endloop
  endfacet
  facet normal 0.042255 0.9868 0.156336
    outer loop
      vertex 166.506 235.713 51.0396
      vertex 166.513 235.794 50.5226
      vertex 161.658 235.97 50.7263
    endloop
  endfacet
  facet normal 0.0409202 0.991917 0.120107
    outer loop
      vertex 161.658 235.97 50.7263
      vertex 166.513 235.794 50.5226
      vertex 161.633 235.996 50.523
    endloop
  endfacet
  facet normal 0.0410655 0.995501 0.0853909
    outer loop
      vertex 161.633 235.996 50.523
      vertex 166.513 235.794 50.5226
      vertex 161.619 236.01 50.3662
    endloop
  endfacet
  facet normal 0.0422217 0.997739 0.0522913
    outer loop
      vertex 166.513 235.794 50.5226
      vertex 166.515 235.822 50
      vertex 161.619 236.01 50.3662
    endloop
  endfacet
  facet normal 0.0409757 0.998539 0.0352226
    outer loop
      vertex 161.619 236.01 50.3662
      vertex 166.515 235.822 50
      vertex 161.605 236.023 50
    endloop
  endfacet
  facet normal 0.0288765 0.0436544 0.998629
    outer loop
      vertex 194.13 221.023 55
      vertex 193.464 222.09 54.9726
      vertex 193.18 221.652 55
    endloop
  endfacet
  facet normal 0.0266349 0.0451058 0.998627
    outer loop
      vertex 193.464 222.09 54.9726
      vertex 189.284 224.559 54.9726
      vertex 193.18 221.652 55
    endloop
  endfacet
  facet normal 0.0266351 0.0451061 0.998627
    outer loop
      vertex 193.18 221.652 55
      vertex 189.284 224.559 54.9726
      vertex 189.037 224.098 55
    endloop
  endfacet
  facet normal 0.0228288 0.047147 0.998627
    outer loop
      vertex 189.284 224.559 54.9726
      vertex 184.915 226.674 54.9726
      vertex 189.037 224.098 55
    endloop
  endfacet
  facet normal 0.0228291 0.0471475 0.998627
    outer loop
      vertex 189.037 224.098 55
      vertex 184.915 226.674 54.9726
      vertex 184.707 226.195 55
    endloop
  endfacet
  facet normal 0.0188675 0.0488679 0.998627
    outer loop
      vertex 184.915 226.674 54.9726
      vertex 180.387 228.422 54.9726
      vertex 184.707 226.195 55
    endloop
  endfacet
  facet normal 0.0188673 0.0488675 0.998627
    outer loop
      vertex 184.707 226.195 55
      vertex 180.387 228.422 54.9726
      vertex 180.219 227.927 55
    endloop
  endfacet
  facet normal 0.0147774 0.0502556 0.998627
    outer loop
      vertex 180.387 228.422 54.9726
      vertex 175.73 229.792 54.9726
      vertex 180.219 227.927 55
    endloop
  endfacet
  facet normal 0.0147778 0.0502565 0.998627
    outer loop
      vertex 180.219 227.927 55
      vertex 175.73 229.792 54.9726
      vertex 175.604 229.284 55
    endloop
  endfacet
  facet normal 0.0105875 0.0513031 0.998627
    outer loop
      vertex 175.73 229.792 54.9726
      vertex 170.976 230.773 54.9726
      vertex 175.604 229.284 55
    endloop
  endfacet
  facet normal 0.0105868 0.0513009 0.998627
    outer loop
      vertex 175.604 229.284 55
      vertex 170.976 230.773 54.9726
      vertex 170.892 230.257 55
    endloop
  endfacet
  facet normal 0.00665025 0.0519455 0.998628
    outer loop
      vertex 170.976 230.773 54.9726
      vertex 166.596 230.807 55
      vertex 170.892 230.257 55
    endloop
  endfacet
  facet normal 0.000101531 0.000806397 1
    outer loop
      vertex 170.892 230.257 55
      vertex 166.596 230.807 55
      vertex 166.605 230.797 55
    endloop
  endfacet
  facet normal 0.088198 0.129253 0.987681
    outer loop
      vertex 195.788 220.503 54.9728
      vertex 193.745 222.524 54.8907
      vertex 193.464 222.09 54.9726
    endloop
  endfacet
  facet normal 0.0796074 0.134813 0.987668
    outer loop
      vertex 193.745 222.524 54.8907
      vertex 189.528 225.014 54.8907
      vertex 193.464 222.09 54.9726
    endloop
  endfacet
  facet normal 0.079606 0.134812 0.987668
    outer loop
      vertex 193.464 222.09 54.9726
      vertex 189.528 225.014 54.8907
      vertex 189.284 224.559 54.9726
    endloop
  endfacet
  facet normal 0.0682296 0.140911 0.987668
    outer loop
      vertex 189.528 225.014 54.8907
      vertex 185.121 227.148 54.8907
      vertex 189.284 224.559 54.9726
    endloop
  endfacet
  facet normal 0.0682304 0.140912 0.987668
    outer loop
      vertex 189.284 224.559 54.9726
      vertex 185.121 227.148 54.8907
      vertex 184.915 226.674 54.9726
    endloop
  endfacet
  facet normal 0.0563903 0.146054 0.987668
    outer loop
      vertex 185.121 227.148 54.8907
      vertex 180.553 228.912 54.8907
      vertex 184.915 226.674 54.9726
    endloop
  endfacet
  facet normal 0.0563904 0.146054 0.987668
    outer loop
      vertex 184.915 226.674 54.9726
      vertex 180.553 228.912 54.8907
      vertex 180.387 228.422 54.9726
    endloop
  endfacet
  facet normal 0.0441666 0.150204 0.987668
    outer loop
      vertex 180.553 228.912 54.8907
      vertex 175.856 230.293 54.8907
      vertex 180.387 228.422 54.9726
    endloop
  endfacet
  facet normal 0.0441664 0.150203 0.987668
    outer loop
      vertex 180.387 228.422 54.9726
      vertex 175.856 230.293 54.8907
      vertex 175.73 229.792 54.9726
    endloop
  endfacet
  facet normal 0.0316426 0.153331 0.987668
    outer loop
      vertex 175.856 230.293 54.8907
      vertex 171.06 231.283 54.8907
      vertex 175.73 229.792 54.9726
    endloop
  endfacet
  facet normal 0.0316443 0.153336 0.987667
    outer loop
      vertex 175.73 229.792 54.9726
      vertex 171.06 231.283 54.8907
      vertex 170.976 230.773 54.9726
    endloop
  endfacet
  facet normal 0.018905 0.155422 0.987667
    outer loop
      vertex 171.06 231.283 54.8907
      vertex 166.199 231.874 54.8907
      vertex 170.976 230.773 54.9726
    endloop
  endfacet
  facet normal 0.0189033 0.155414 0.987668
    outer loop
      vertex 170.976 230.773 54.9726
      vertex 166.199 231.874 54.8907
      vertex 166.158 231.359 54.9726
    endloop
  endfacet
  facet normal 0.0116005 0.156002 0.987689
    outer loop
      vertex 166.199 231.874 54.8907
      vertex 166.084 231.363 54.9727
      vertex 166.158 231.359 54.9726
    endloop
  endfacet
  facet normal 0.00827357 0.103986 0.994544
    outer loop
      vertex 166.158 231.359 54.9726
      vertex 166.084 231.363 54.9727
      vertex 166.084 231.363 54.9728
    endloop
  endfacet
  facet normal 0.0433028 0.356006 0.93348
    outer loop
      vertex 166.24 232.378 54.7553
      vertex 171.142 231.782 54.7553
      vertex 166.278 232.865 54.5677
    endloop
  endfacet
  facet normal 0.0433017 0.356002 0.933482
    outer loop
      vertex 171.142 231.782 54.7553
      vertex 171.221 232.264 54.5677
      vertex 166.278 232.865 54.5677
    endloop
  endfacet
  facet normal 0.0548546 0.450982 0.890846
    outer loop
      vertex 166.278 232.865 54.5677
      vertex 171.221 232.264 54.5677
      vertex 166.316 233.33 54.3301
    endloop
  endfacet
  facet normal 0.0548556 0.450987 0.890843
    outer loop
      vertex 171.221 232.264 54.5677
      vertex 171.296 232.724 54.3301
      vertex 166.316 233.33 54.3301
    endloop
  endfacet
  facet normal 0.0658016 0.540977 0.838459
    outer loop
      vertex 166.316 233.33 54.3301
      vertex 171.296 232.724 54.3301
      vertex 166.351 233.767 54.0451
    endloop
  endfacet
  facet normal 0.0658008 0.540974 0.838461
    outer loop
      vertex 171.296 232.724 54.3301
      vertex 171.367 233.157 54.0451
      vertex 166.351 233.767 54.0451
    endloop
  endfacet
  facet normal 0.0760258 0.625038 0.776884
    outer loop
      vertex 166.351 233.767 54.0451
      vertex 171.367 233.157 54.0451
      vertex 166.383 234.173 53.7157
    endloop
  endfacet
  facet normal 0.0760233 0.625028 0.776892
    outer loop
      vertex 171.367 233.157 54.0451
      vertex 171.433 233.559 53.7157
      vertex 166.383 234.173 53.7157
    endloop
  endfacet
  facet normal 0.0854136 0.702231 0.706807
    outer loop
      vertex 166.383 234.173 53.7157
      vertex 171.433 233.559 53.7157
      vertex 166.413 234.542 53.3457
    endloop
  endfacet
  facet normal 0.0854168 0.702243 0.706795
    outer loop
      vertex 171.433 233.559 53.7157
      vertex 171.492 233.924 53.3457
      vertex 166.413 234.542 53.3457
    endloop
  endfacet
  facet normal 0.0938671 0.771716 0.629002
    outer loop
      vertex 166.413 234.542 53.3457
      vertex 171.492 233.924 53.3457
      vertex 166.439 234.87 52.9389
    endloop
  endfacet
  facet normal 0.093867 0.771715 0.629003
    outer loop
      vertex 171.492 233.924 53.3457
      vertex 171.546 234.249 52.9389
      vertex 166.439 234.87 52.9389
    endloop
  endfacet
  facet normal 0.10129 0.832745 0.544312
    outer loop
      vertex 166.439 234.87 52.9389
      vertex 171.546 234.249 52.9389
      vertex 166.462 235.154 52.5
    endloop
  endfacet
  facet normal 0.101288 0.832739 0.544322
    outer loop
      vertex 171.546 234.249 52.9389
      vertex 171.592 234.53 52.5
      vertex 166.462 235.154 52.5
    endloop
  endfacet
  facet normal 0.107602 0.884647 0.453676
    outer loop
      vertex 166.462 235.154 52.5
      vertex 171.592 234.53 52.5
      vertex 166.48 235.391 52.0337
    endloop
  endfacet
  facet normal 0.107603 0.88465 0.45367
    outer loop
      vertex 171.592 234.53 52.5
      vertex 171.63 234.765 52.0337
      vertex 166.48 235.391 52.0337
    endloop
  endfacet
  facet normal 0.112736 0.926846 0.358115
    outer loop
      vertex 166.48 235.391 52.0337
      vertex 171.63 234.765 52.0337
      vertex 166.495 235.578 51.5451
    endloop
  endfacet
  facet normal 0.112738 0.926853 0.358098
    outer loop
      vertex 171.63 234.765 52.0337
      vertex 171.66 234.95 51.5451
      vertex 166.495 235.578 51.5451
    endloop
  endfacet
  facet normal 0.116638 0.958916 0.258603
    outer loop
      vertex 166.495 235.578 51.5451
      vertex 171.66 234.95 51.5451
      vertex 166.506 235.713 51.0396
    endloop
  endfacet
  facet normal 0.116637 0.958913 0.258616
    outer loop
      vertex 171.66 234.95 51.5451
      vertex 171.682 235.083 51.0396
      vertex 166.506 235.713 51.0396
    endloop
  endfacet
  facet normal 0.11926 0.980482 0.156311
    outer loop
      vertex 166.506 235.713 51.0396
      vertex 171.682 235.083 51.0396
      vertex 166.513 235.794 50.5226
    endloop
  endfacet
  facet normal 0.119261 0.980483 0.156303
    outer loop
      vertex 171.682 235.083 51.0396
      vertex 171.695 235.164 50.5226
      vertex 166.513 235.794 50.5226
    endloop
  endfacet
  facet normal 0.182355 0.308814 0.933478
    outer loop
      vertex 189.767 225.46 54.7553
      vertex 194.019 222.949 54.7553
      vertex 189.998 225.89 54.5677
    endloop
  endfacet
  facet normal 0.182357 0.308816 0.933477
    outer loop
      vertex 194.019 222.949 54.7553
      vertex 194.285 223.359 54.5677
      vertex 189.998 225.89 54.5677
    endloop
  endfacet
  facet normal 0.230998 0.39119 0.890848
    outer loop
      vertex 189.998 225.89 54.5677
      vertex 194.285 223.359 54.5677
      vertex 190.218 226.301 54.3301
    endloop
  endfacet
  facet normal 0.230994 0.391185 0.890851
    outer loop
      vertex 194.285 223.359 54.5677
      vertex 194.538 223.75 54.3301
      vertex 190.218 226.301 54.3301
    endloop
  endfacet
  facet normal 0.2771 0.469264 0.838455
    outer loop
      vertex 190.218 226.301 54.3301
      vertex 194.538 223.75 54.3301
      vertex 190.426 226.688 54.0451
    endloop
  endfacet
  facet normal 0.277095 0.469258 0.83846
    outer loop
      vertex 194.538 223.75 54.3301
      vertex 194.777 224.119 54.0451
      vertex 190.426 226.688 54.0451
    endloop
  endfacet
  facet normal 0.320148 0.542167 0.776892
    outer loop
      vertex 190.426 226.688 54.0451
      vertex 194.777 224.119 54.0451
      vertex 190.618 227.047 53.7157
    endloop
  endfacet
  facet normal 0.320152 0.542173 0.776886
    outer loop
      vertex 194.777 224.119 54.0451
      vertex 194.998 224.46 53.7157
      vertex 190.618 227.047 53.7157
    endloop
  endfacet
  facet normal 0.359694 0.609136 0.706806
    outer loop
      vertex 190.618 227.047 53.7157
      vertex 194.998 224.46 53.7157
      vertex 190.793 227.373 53.3457
    endloop
  endfacet
  facet normal 0.359698 0.609141 0.706799
    outer loop
      vertex 194.998 224.46 53.7157
      vertex 195.199 224.771 53.3457
      vertex 190.793 227.373 53.3457
    endloop
  endfacet
  facet normal 0.395287 0.66941 0.628998
    outer loop
      vertex 190.793 227.373 53.3457
      vertex 195.199 224.771 53.3457
      vertex 190.949 227.663 52.9389
    endloop
  endfacet
  facet normal 0.395287 0.669409 0.628999
    outer loop
      vertex 195.199 224.771 53.3457
      vertex 195.378 225.047 52.9389
      vertex 190.949 227.663 52.9389
    endloop
  endfacet
  facet normal 0.426549 0.722351 0.544302
    outer loop
      vertex 190.949 227.663 52.9389
      vertex 195.378 225.047 52.9389
      vertex 191.083 227.914 52.5
    endloop
  endfacet
  facet normal 0.426542 0.722343 0.544318
    outer loop
      vertex 195.378 225.047 52.9389
      vertex 195.533 225.286 52.5
      vertex 191.083 227.914 52.5
    endloop
  endfacet
  facet normal 0.453123 0.767358 0.453696
    outer loop
      vertex 191.083 227.914 52.5
      vertex 195.533 225.286 52.5
      vertex 191.195 228.124 52.0337
    endloop
  endfacet
  facet normal 0.453127 0.767363 0.453685
    outer loop
      vertex 195.533 225.286 52.5
      vertex 195.662 225.486 52.0337
      vertex 191.195 228.124 52.0337
    endloop
  endfacet
  facet normal 0.474745 0.803973 0.358113
    outer loop
      vertex 191.195 228.124 52.0337
      vertex 195.662 225.486 52.0337
      vertex 191.284 228.289 51.5451
    endloop
  endfacet
  facet normal 0.474749 0.803977 0.358098
    outer loop
      vertex 195.662 225.486 52.0337
      vertex 195.764 225.643 51.5451
      vertex 191.284 228.289 51.5451
    endloop
  endfacet
  facet normal 0.491173 0.83179 0.2586
    outer loop
      vertex 191.284 228.289 51.5451
      vertex 195.764 225.643 51.5451
      vertex 191.348 228.408 51.0396
    endloop
  endfacet
  facet normal 0.491171 0.831788 0.25861
    outer loop
      vertex 195.764 225.643 51.5451
      vertex 195.838 225.757 51.0396
      vertex 191.348 228.408 51.0396
    endloop
  endfacet
  facet normal 0.502218 0.850496 0.156311
    outer loop
      vertex 191.348 228.408 51.0396
      vertex 195.838 225.757 51.0396
      vertex 191.387 228.48 50.5226
    endloop
  endfacet
  facet normal 0.502219 0.850497 0.156304
    outer loop
      vertex 195.838 225.757 51.0396
      vertex 195.882 225.826 50.5226
      vertex 191.387 228.48 50.5226
    endloop
  endfacet
  facet normal 0.12058 0.991325 0.0522916
    outer loop
      vertex 171.695 235.164 50.5226
      vertex 171.7 235.191 50
      vertex 166.513 235.794 50.5226
    endloop
  endfacet
  facet normal 0.130832 0.976524 0.171124
    outer loop
      vertex 171.7 235.191 50
      vertex 168.047 235.681 50
      vertex 166.513 235.794 50.5226
    endloop
  endfacet
  facet normal 0.0916876 0.994412 0.0523248
    outer loop
      vertex 166.513 235.794 50.5226
      vertex 168.047 235.681 50
      vertex 166.515 235.822 50
    endloop
  endfacet
  facet normal 0.223144 0.973381 0.0523133
    outer loop
      vertex 176.815 234.135 50
      vertex 174.42 234.685 50
      vertex 176.809 234.109 50.5226
    endloop
  endfacet
  facet normal 0.199722 0.967801 0.153208
    outer loop
      vertex 174.42 234.685 50
      vertex 171.695 235.164 50.5226
      vertex 176.809 234.109 50.5226
    endloop
  endfacet
  facet normal 0.199624 0.967323 0.156321
    outer loop
      vertex 176.809 234.109 50.5226
      vertex 171.695 235.164 50.5226
      vertex 176.789 234.029 51.0396
    endloop
  endfacet
  facet normal 0.199626 0.967325 0.156304
    outer loop
      vertex 171.695 235.164 50.5226
      vertex 171.682 235.083 51.0396
      vertex 176.789 234.029 51.0396
    endloop
  endfacet
  facet normal 0.195235 0.946049 0.258601
    outer loop
      vertex 176.789 234.029 51.0396
      vertex 171.682 235.083 51.0396
      vertex 176.756 233.898 51.5451
    endloop
  endfacet
  facet normal 0.195233 0.946046 0.258615
    outer loop
      vertex 171.682 235.083 51.0396
      vertex 171.66 234.95 51.5451
      vertex 176.756 233.898 51.5451
    endloop
  endfacet
  facet normal 0.188704 0.914409 0.358115
    outer loop
      vertex 176.756 233.898 51.5451
      vertex 171.66 234.95 51.5451
      vertex 176.71 233.716 52.0337
    endloop
  endfacet
  facet normal 0.188707 0.914415 0.358098
    outer loop
      vertex 171.66 234.95 51.5451
      vertex 171.63 234.765 52.0337
      vertex 176.71 233.716 52.0337
    endloop
  endfacet
  facet normal 0.180113 0.87277 0.453688
    outer loop
      vertex 176.71 233.716 52.0337
      vertex 171.63 234.765 52.0337
      vertex 176.653 233.486 52.5
    endloop
  endfacet
  facet normal 0.180117 0.872778 0.45367
    outer loop
      vertex 171.63 234.765 52.0337
      vertex 171.592 234.53 52.5
      vertex 176.653 233.486 52.5
    endloop
  endfacet
  facet normal 0.169551 0.821581 0.544295
    outer loop
      vertex 176.653 233.486 52.5
      vertex 171.592 234.53 52.5
      vertex 176.584 233.209 52.9389
    endloop
  endfacet
  facet normal 0.169544 0.821564 0.544322
    outer loop
      vertex 171.592 234.53 52.5
      vertex 171.546 234.249 52.9389
      vertex 176.584 233.209 52.9389
    endloop
  endfacet
  facet normal 0.157119 0.761355 0.629009
    outer loop
      vertex 176.584 233.209 52.9389
      vertex 171.546 234.249 52.9389
      vertex 176.504 232.889 53.3457
    endloop
  endfacet
  facet normal 0.157121 0.76136 0.629002
    outer loop
      vertex 171.546 234.249 52.9389
      vertex 171.492 233.924 53.3457
      vertex 176.504 232.889 53.3457
    endloop
  endfacet
  facet normal 0.142974 0.692806 0.706808
    outer loop
      vertex 176.504 232.889 53.3457
      vertex 171.492 233.924 53.3457
      vertex 176.414 232.53 53.7157
    endloop
  endfacet
  facet normal 0.142978 0.692819 0.706795
    outer loop
      vertex 171.492 233.924 53.3457
      vertex 171.433 233.559 53.7157
      vertex 176.414 232.53 53.7157
    endloop
  endfacet
  facet normal 0.12726 0.616656 0.776879
    outer loop
      vertex 176.414 232.53 53.7157
      vertex 171.433 233.559 53.7157
      vertex 176.316 232.136 54.0451
    endloop
  endfacet
  facet normal 0.127255 0.61664 0.776892
    outer loop
      vertex 171.433 233.559 53.7157
      vertex 171.367 233.157 54.0451
      vertex 176.316 232.136 54.0451
    endloop
  endfacet
  facet normal 0.110142 0.533718 0.838459
    outer loop
      vertex 176.316 232.136 54.0451
      vertex 171.367 233.157 54.0451
      vertex 176.209 231.71 54.3301
    endloop
  endfacet
  facet normal 0.110141 0.533715 0.838461
    outer loop
      vertex 171.367 233.157 54.0451
      vertex 171.296 232.724 54.3301
      vertex 176.209 231.71 54.3301
    endloop
  endfacet
  facet normal 0.0918167 0.444918 0.890852
    outer loop
      vertex 176.209 231.71 54.3301
      vertex 171.296 232.724 54.3301
      vertex 176.096 231.258 54.5677
    endloop
  endfacet
  facet normal 0.0918221 0.444935 0.890843
    outer loop
      vertex 171.296 232.724 54.3301
      vertex 171.221 232.264 54.5677
      vertex 176.096 231.258 54.5677
    endloop
  endfacet
  facet normal 0.0724842 0.351231 0.933479
    outer loop
      vertex 176.096 231.258 54.5677
      vertex 171.221 232.264 54.5677
      vertex 175.978 230.784 54.7553
    endloop
  endfacet
  facet normal 0.072482 0.351224 0.933482
    outer loop
      vertex 171.221 232.264 54.5677
      vertex 171.142 231.782 54.7553
      vertex 175.978 230.784 54.7553
    endloop
  endfacet
  facet normal 0.311787 0.948709 0.0523456
    outer loop
      vertex 181.826 232.662 50
      vertex 180.659 233.046 50
      vertex 181.817 232.636 50.5226
    endloop
  endfacet
  facet normal 0.279875 0.951798 0.125502
    outer loop
      vertex 180.659 233.046 50
      vertex 176.809 234.109 50.5226
      vertex 181.817 232.636 50.5226
    endloop
  endfacet
  facet normal 0.278639 0.947596 0.156278
    outer loop
      vertex 181.817 232.636 50.5226
      vertex 176.809 234.109 50.5226
      vertex 181.791 232.559 51.0396
    endloop
  endfacet
  facet normal 0.278633 0.94759 0.156322
    outer loop
      vertex 176.809 234.109 50.5226
      vertex 176.789 234.029 51.0396
      vertex 181.791 232.559 51.0396
    endloop
  endfacet
  facet normal 0.272504 0.926746 0.258618
    outer loop
      vertex 181.791 232.559 51.0396
      vertex 176.789 234.029 51.0396
      vertex 181.747 232.43 51.5451
    endloop
  endfacet
  facet normal 0.272507 0.92675 0.2586
    outer loop
      vertex 176.789 234.029 51.0396
      vertex 176.756 233.898 51.5451
      vertex 181.747 232.43 51.5451
    endloop
  endfacet
  facet normal 0.263393 0.895757 0.358112
    outer loop
      vertex 181.747 232.43 51.5451
      vertex 176.756 233.898 51.5451
      vertex 181.687 232.253 52.0337
    endloop
  endfacet
  facet normal 0.263393 0.895756 0.358115
    outer loop
      vertex 176.756 233.898 51.5451
      vertex 176.71 233.716 52.0337
      vertex 181.687 232.253 52.0337
    endloop
  endfacet
  facet normal 0.251399 0.854968 0.453684
    outer loop
      vertex 181.687 232.253 52.0337
      vertex 176.71 233.716 52.0337
      vertex 181.611 232.028 52.5
    endloop
  endfacet
  facet normal 0.251398 0.854966 0.453688
    outer loop
      vertex 176.71 233.716 52.0337
      vertex 176.653 233.486 52.5
      vertex 181.611 232.028 52.5
    endloop
  endfacet
  facet normal 0.23665 0.804811 0.544313
    outer loop
      vertex 181.611 232.028 52.5
      vertex 176.653 233.486 52.5
      vertex 181.519 231.758 52.9389
    endloop
  endfacet
  facet normal 0.236655 0.804821 0.544295
    outer loop
      vertex 176.653 233.486 52.5
      vertex 176.584 233.209 52.9389
      vertex 181.519 231.758 52.9389
    endloop
  endfacet
  facet normal 0.219311 0.745836 0.628992
    outer loop
      vertex 181.519 231.758 52.9389
      vertex 176.584 233.209 52.9389
      vertex 181.413 231.446 53.3457
    endloop
  endfacet
  facet normal 0.219305 0.745824 0.629009
    outer loop
      vertex 176.584 233.209 52.9389
      vertex 176.504 232.889 53.3457
      vertex 181.413 231.446 53.3457
    endloop
  endfacet
  facet normal 0.199561 0.678676 0.706806
    outer loop
      vertex 181.413 231.446 53.3457
      vertex 176.504 232.889 53.3457
      vertex 181.294 231.095 53.7157
    endloop
  endfacet
  facet normal 0.19956 0.678674 0.706808
    outer loop
      vertex 176.504 232.889 53.3457
      vertex 176.414 232.53 53.7157
      vertex 181.294 231.095 53.7157
    endloop
  endfacet
  facet normal 0.177623 0.604069 0.776885
    outer loop
      vertex 181.294 231.095 53.7157
      vertex 176.414 232.53 53.7157
      vertex 181.164 230.71 54.0451
    endloop
  endfacet
  facet normal 0.177626 0.604076 0.776879
    outer loop
      vertex 176.414 232.53 53.7157
      vertex 176.316 232.136 54.0451
      vertex 181.164 230.71 54.0451
    endloop
  endfacet
  facet normal 0.153734 0.522826 0.838462
    outer loop
      vertex 181.164 230.71 54.0451
      vertex 176.316 232.136 54.0451
      vertex 181.023 230.295 54.3301
    endloop
  endfacet
  facet normal 0.153737 0.522831 0.838459
    outer loop
      vertex 176.316 232.136 54.0451
      vertex 176.209 231.71 54.3301
      vertex 181.023 230.295 54.3301
    endloop
  endfacet
  facet normal 0.128159 0.435845 0.890851
    outer loop
      vertex 181.023 230.295 54.3301
      vertex 176.209 231.71 54.3301
      vertex 180.873 229.853 54.5677
    endloop
  endfacet
  facet normal 0.128158 0.435842 0.890852
    outer loop
      vertex 176.209 231.71 54.3301
      vertex 176.096 231.258 54.5677
      vertex 180.873 229.853 54.5677
    endloop
  endfacet
  facet normal 0.101172 0.344068 0.933478
    outer loop
      vertex 180.873 229.853 54.5677
      vertex 176.096 231.258 54.5677
      vertex 180.716 229.39 54.7553
    endloop
  endfacet
  facet normal 0.101171 0.344066 0.933479
    outer loop
      vertex 176.096 231.258 54.5677
      vertex 175.978 230.784 54.7553
      vertex 180.716 229.39 54.7553
    endloop
  endfacet
  facet normal 0.129172 0.334564 0.933478
    outer loop
      vertex 180.716 229.39 54.7553
      vertex 185.323 227.612 54.7553
      vertex 180.873 229.853 54.5677
    endloop
  endfacet
  facet normal 0.129173 0.334566 0.933477
    outer loop
      vertex 185.323 227.612 54.7553
      vertex 185.517 228.06 54.5677
      vertex 180.873 229.853 54.5677
    endloop
  endfacet
  facet normal 0.163627 0.423806 0.89085
    outer loop
      vertex 180.873 229.853 54.5677
      vertex 185.517 228.06 54.5677
      vertex 181.023 230.295 54.3301
    endloop
  endfacet
  facet normal 0.163631 0.423813 0.890847
    outer loop
      vertex 185.517 228.06 54.5677
      vertex 185.703 228.488 54.3301
      vertex 181.023 230.295 54.3301
    endloop
  endfacet
  facet normal 0.196283 0.508383 0.838463
    outer loop
      vertex 181.023 230.295 54.3301
      vertex 185.703 228.488 54.3301
      vertex 181.164 230.71 54.0451
    endloop
  endfacet
  facet normal 0.19628 0.508378 0.838466
    outer loop
      vertex 185.703 228.488 54.3301
      vertex 185.878 228.89 54.0451
      vertex 181.164 230.71 54.0451
    endloop
  endfacet
  facet normal 0.226784 0.587384 0.776884
    outer loop
      vertex 181.164 230.71 54.0451
      vertex 185.878 228.89 54.0451
      vertex 181.294 231.095 53.7157
    endloop
  endfacet
  facet normal 0.226785 0.587387 0.776882
    outer loop
      vertex 185.878 228.89 54.0451
      vertex 186.04 229.263 53.7157
      vertex 181.294 231.095 53.7157
    endloop
  endfacet
  facet normal 0.254793 0.659928 0.706807
    outer loop
      vertex 181.294 231.095 53.7157
      vertex 186.04 229.263 53.7157
      vertex 181.413 231.446 53.3457
    endloop
  endfacet
  facet normal 0.254796 0.659935 0.706799
    outer loop
      vertex 186.04 229.263 53.7157
      vertex 186.187 229.603 53.3457
      vertex 181.413 231.446 53.3457
    endloop
  endfacet
  facet normal 0.280008 0.725234 0.628992
    outer loop
      vertex 181.413 231.446 53.3457
      vertex 186.187 229.603 53.3457
      vertex 181.519 231.758 52.9389
    endloop
  endfacet
  facet normal 0.280006 0.72523 0.628998
    outer loop
      vertex 186.187 229.603 53.3457
      vertex 186.318 229.905 52.9389
      vertex 181.519 231.758 52.9389
    endloop
  endfacet
  facet normal 0.302148 0.78258 0.544312
    outer loop
      vertex 181.519 231.758 52.9389
      vertex 186.318 229.905 52.9389
      vertex 181.611 232.028 52.5
    endloop
  endfacet
  facet normal 0.302146 0.782576 0.544318
    outer loop
      vertex 186.318 229.905 52.9389
      vertex 186.432 230.166 52.5
      vertex 181.611 232.028 52.5
    endloop
  endfacet
  facet normal 0.320977 0.831351 0.453684
    outer loop
      vertex 181.611 232.028 52.5
      vertex 186.432 230.166 52.5
      vertex 181.687 232.253 52.0337
    endloop
  endfacet
  facet normal 0.320975 0.831348 0.453691
    outer loop
      vertex 186.432 230.166 52.5
      vertex 186.527 230.384 52.0337
      vertex 181.687 232.253 52.0337
    endloop
  endfacet
  facet normal 0.33629 0.871014 0.358112
    outer loop
      vertex 181.687 232.253 52.0337
      vertex 186.527 230.384 52.0337
      vertex 181.747 232.43 51.5451
    endloop
  endfacet
  facet normal 0.336291 0.871016 0.358106
    outer loop
      vertex 186.527 230.384 52.0337
      vertex 186.601 230.556 51.5451
      vertex 181.747 232.43 51.5451
    endloop
  endfacet
  facet normal 0.347924 0.901146 0.258619
    outer loop
      vertex 181.747 232.43 51.5451
      vertex 186.601 230.556 51.5451
      vertex 181.791 232.559 51.0396
    endloop
  endfacet
  facet normal 0.347925 0.901147 0.258616
    outer loop
      vertex 186.601 230.556 51.5451
      vertex 186.655 230.681 51.0396
      vertex 181.791 232.559 51.0396
    endloop
  endfacet
  facet normal 0.355753 0.921422 0.156276
    outer loop
      vertex 181.791 232.559 51.0396
      vertex 186.655 230.681 51.0396
      vertex 181.817 232.636 50.5226
    endloop
  endfacet
  facet normal 0.355752 0.921421 0.156284
    outer loop
      vertex 186.655 230.681 51.0396
      vertex 186.688 230.756 50.5226
      vertex 181.817 232.636 50.5226
    endloop
  endfacet
  facet normal 0.359684 0.931607 0.0523037
    outer loop
      vertex 181.817 232.636 50.5226
      vertex 186.688 230.756 50.5226
      vertex 181.826 232.662 50
    endloop
  endfacet
  facet normal 0.359685 0.931607 0.0522991
    outer loop
      vertex 186.688 230.756 50.5226
      vertex 186.699 230.781 50
      vertex 181.826 232.662 50
    endloop
  endfacet
  facet normal 0.156295 0.322788 0.933477
    outer loop
      vertex 185.323 227.612 54.7553
      vertex 189.767 225.46 54.7553
      vertex 185.517 228.06 54.5677
    endloop
  endfacet
  facet normal 0.156295 0.322787 0.933478
    outer loop
      vertex 189.767 225.46 54.7553
      vertex 189.998 225.89 54.5677
      vertex 185.517 228.06 54.5677
    endloop
  endfacet
  facet normal 0.197987 0.408893 0.890847
    outer loop
      vertex 185.517 228.06 54.5677
      vertex 189.998 225.89 54.5677
      vertex 185.703 228.488 54.3301
    endloop
  endfacet
  facet normal 0.197986 0.40889 0.890848
    outer loop
      vertex 189.998 225.89 54.5677
      vertex 190.218 226.301 54.3301
      vertex 185.703 228.488 54.3301
    endloop
  endfacet
  facet normal 0.237492 0.490481 0.838466
    outer loop
      vertex 185.703 228.488 54.3301
      vertex 190.218 226.301 54.3301
      vertex 185.878 228.89 54.0451
    endloop
  endfacet
  facet normal 0.237502 0.490496 0.838455
    outer loop
      vertex 190.218 226.301 54.3301
      vertex 190.426 226.688 54.0451
      vertex 185.878 228.89 54.0451
    endloop
  endfacet
  facet normal 0.274404 0.566708 0.776882
    outer loop
      vertex 185.878 228.89 54.0451
      vertex 190.426 226.688 54.0451
      vertex 186.04 229.263 53.7157
    endloop
  endfacet
  facet normal 0.274397 0.566697 0.776892
    outer loop
      vertex 190.426 226.688 54.0451
      vertex 190.618 227.047 53.7157
      vertex 186.04 229.263 53.7157
    endloop
  endfacet
  facet normal 0.308294 0.636702 0.7068
    outer loop
      vertex 186.04 229.263 53.7157
      vertex 190.618 227.047 53.7157
      vertex 186.187 229.603 53.3457
    endloop
  endfacet
  facet normal 0.308291 0.636697 0.706805
    outer loop
      vertex 190.618 227.047 53.7157
      vertex 190.793 227.373 53.3457
      vertex 186.187 229.603 53.3457
    endloop
  endfacet
  facet normal 0.338797 0.699699 0.628997
    outer loop
      vertex 186.187 229.603 53.3457
      vertex 190.793 227.373 53.3457
      vertex 186.318 229.905 52.9389
    endloop
  endfacet
  facet normal 0.338796 0.699699 0.628999
    outer loop
      vertex 190.793 227.373 53.3457
      vertex 190.949 227.663 52.9389
      vertex 186.318 229.905 52.9389
    endloop
  endfacet
  facet normal 0.365586 0.755026 0.544319
    outer loop
      vertex 186.318 229.905 52.9389
      vertex 190.949 227.663 52.9389
      vertex 186.432 230.166 52.5
    endloop
  endfacet
  facet normal 0.365592 0.755035 0.544302
    outer loop
      vertex 190.949 227.663 52.9389
      vertex 191.083 227.914 52.5
      vertex 186.432 230.166 52.5
    endloop
  endfacet
  facet normal 0.388372 0.80208 0.45369
    outer loop
      vertex 186.432 230.166 52.5
      vertex 191.083 227.914 52.5
      vertex 186.527 230.384 52.0337
    endloop
  endfacet
  facet normal 0.38837 0.802078 0.453696
    outer loop
      vertex 191.083 227.914 52.5
      vertex 191.195 228.124 52.0337
      vertex 186.527 230.384 52.0337
    endloop
  endfacet
  facet normal 0.406902 0.840351 0.358107
    outer loop
      vertex 186.527 230.384 52.0337
      vertex 191.195 228.124 52.0337
      vertex 186.601 230.556 51.5451
    endloop
  endfacet
  facet normal 0.406901 0.840349 0.358113
    outer loop
      vertex 191.195 228.124 52.0337
      vertex 191.284 228.289 51.5451
      vertex 186.601 230.556 51.5451
    endloop
  endfacet
  facet normal 0.420978 0.869422 0.258616
    outer loop
      vertex 186.601 230.556 51.5451
      vertex 191.284 228.289 51.5451
      vertex 186.655 230.681 51.0396
    endloop
  endfacet
  facet normal 0.420981 0.869425 0.2586
    outer loop
      vertex 191.284 228.289 51.5451
      vertex 191.348 228.408 51.0396
      vertex 186.655 230.681 51.0396
    endloop
  endfacet
  facet normal 0.43045 0.888981 0.156284
    outer loop
      vertex 186.655 230.681 51.0396
      vertex 191.348 228.408 51.0396
      vertex 186.688 230.756 50.5226
    endloop
  endfacet
  facet normal 0.430446 0.888979 0.15631
    outer loop
      vertex 191.348 228.408 51.0396
      vertex 191.387 228.48 50.5226
      vertex 186.688 230.756 50.5226
    endloop
  endfacet
  facet normal 0.435207 0.89881 0.0523009
    outer loop
      vertex 186.688 230.756 50.5226
      vertex 191.387 228.48 50.5226
      vertex 186.699 230.781 50
    endloop
  endfacet
  facet normal 0.435208 0.89881 0.0522847
    outer loop
      vertex 191.387 228.48 50.5226
      vertex 191.4 228.504 50
      vertex 186.699 230.781 50
    endloop
  endfacet
  facet normal 0.507773 0.859902 0.0522921
    outer loop
      vertex 195.882 225.826 50.5226
      vertex 195.897 225.849 50
      vertex 191.387 228.48 50.5226
    endloop
  endfacet
  facet normal 0.511133 0.846728 0.147627
    outer loop
      vertex 195.897 225.849 50
      vertex 192.477 227.913 50
      vertex 191.387 228.48 50.5226
    endloop
  endfacet
  facet normal 0.480399 0.875488 0.0523258
    outer loop
      vertex 191.387 228.48 50.5226
      vertex 192.477 227.913 50
      vertex 191.4 228.504 50
    endloop
  endfacet
  facet normal 0.592585 0.803807 0.0523243
    outer loop
      vertex 200.161 222.831 50
      vertex 197.934 224.473 50
      vertex 200.144 222.81 50.5226
    endloop
  endfacet
  facet normal 0.570854 0.80663 0.153215
    outer loop
      vertex 197.934 224.473 50
      vertex 195.882 225.826 50.5226
      vertex 200.144 222.81 50.5226
    endloop
  endfacet
  facet normal 0.570573 0.806233 0.156316
    outer loop
      vertex 200.144 222.81 50.5226
      vertex 195.882 225.826 50.5226
      vertex 200.094 222.745 51.0396
    endloop
  endfacet
  facet normal 0.570575 0.806234 0.156303
    outer loop
      vertex 195.882 225.826 50.5226
      vertex 195.838 225.757 51.0396
      vertex 200.094 222.745 51.0396
    endloop
  endfacet
  facet normal 0.558026 0.788501 0.258598
    outer loop
      vertex 200.094 222.745 51.0396
      vertex 195.838 225.757 51.0396
      vertex 200.011 222.638 51.5451
    endloop
  endfacet
  facet normal 0.558023 0.788499 0.258611
    outer loop
      vertex 195.838 225.757 51.0396
      vertex 195.764 225.643 51.5451
      vertex 200.011 222.638 51.5451
    endloop
  endfacet
  facet normal 0.53936 0.762129 0.358121
    outer loop
      vertex 200.011 222.638 51.5451
      vertex 195.764 225.643 51.5451
      vertex 199.897 222.489 52.0337
    endloop
  endfacet
  facet normal 0.539367 0.762134 0.358098
    outer loop
      vertex 195.764 225.643 51.5451
      vertex 195.662 225.486 52.0337
      vertex 199.897 222.489 52.0337
    endloop
  endfacet
  facet normal 0.51481 0.727435 0.453661
    outer loop
      vertex 199.897 222.489 52.0337
      vertex 195.662 225.486 52.0337
      vertex 199.752 222.301 52.5
    endloop
  endfacet
  facet normal 0.514801 0.727426 0.453686
    outer loop
      vertex 195.662 225.486 52.0337
      vertex 195.533 225.286 52.5
      vertex 199.752 222.301 52.5
    endloop
  endfacet
  facet normal 0.484596 0.684746 0.544326
    outer loop
      vertex 199.752 222.301 52.5
      vertex 195.533 225.286 52.5
      vertex 199.577 222.075 52.9389
    endloop
  endfacet
  facet normal 0.4846 0.68475 0.544317
    outer loop
      vertex 195.533 225.286 52.5
      vertex 195.378 225.047 52.9389
      vertex 199.577 222.075 52.9389
    endloop
  endfacet
  facet normal 0.449092 0.634577 0.62899
    outer loop
      vertex 199.577 222.075 52.9389
      vertex 195.378 225.047 52.9389
      vertex 199.376 221.815 53.3457
    endloop
  endfacet
  facet normal 0.449087 0.634571 0.628999
    outer loop
      vertex 195.378 225.047 52.9389
      vertex 195.199 224.771 53.3457
      vertex 199.376 221.815 53.3457
    endloop
  endfacet
  facet normal 0.408653 0.577437 0.706802
    outer loop
      vertex 199.376 221.815 53.3457
      vertex 195.199 224.771 53.3457
      vertex 199.15 221.522 53.7157
    endloop
  endfacet
  facet normal 0.408655 0.57744 0.706798
    outer loop
      vertex 195.199 224.771 53.3457
      vertex 194.998 224.46 53.7157
      vertex 199.15 221.522 53.7157
    endloop
  endfacet
  facet normal 0.363727 0.513955 0.776886
    outer loop
      vertex 199.15 221.522 53.7157
      vertex 194.998 224.46 53.7157
      vertex 198.902 221.2 54.0451
    endloop
  endfacet
  facet normal 0.363728 0.513956 0.776886
    outer loop
      vertex 194.998 224.46 53.7157
      vertex 194.777 224.119 54.0451
      vertex 198.902 221.2 54.0451
    endloop
  endfacet
  facet normal 0.314809 0.444832 0.838463
    outer loop
      vertex 198.902 221.2 54.0451
      vertex 194.777 224.119 54.0451
      vertex 198.634 220.852 54.3301
    endloop
  endfacet
  facet normal 0.314812 0.444835 0.83846
    outer loop
      vertex 194.777 224.119 54.0451
      vertex 194.538 223.75 54.3301
      vertex 198.634 220.852 54.3301
    endloop
  endfacet
  facet normal 0.262436 0.370828 0.89085
    outer loop
      vertex 198.634 220.852 54.3301
      vertex 194.538 223.75 54.3301
      vertex 198.349 220.483 54.5677
    endloop
  endfacet
  facet normal 0.262434 0.370826 0.890852
    outer loop
      vertex 194.538 223.75 54.3301
      vertex 194.285 223.359 54.5677
      vertex 198.349 220.483 54.5677
    endloop
  endfacet
  facet normal 0.207172 0.292739 0.933479
    outer loop
      vertex 198.349 220.483 54.5677
      vertex 194.285 223.359 54.5677
      vertex 198.05 220.096 54.7553
    endloop
  endfacet
  facet normal 0.207177 0.292744 0.933477
    outer loop
      vertex 194.285 223.359 54.5677
      vertex 194.019 222.949 54.7553
      vertex 198.05 220.096 54.7553
    endloop
  endfacet
  facet normal 0.149632 0.211432 0.965871
    outer loop
      vertex 198.05 220.096 54.7553
      vertex 194.019 222.949 54.7553
      vertex 193.745 222.524 54.8907
    endloop
  endfacet
  facet normal 0.131705 0.22304 0.965871
    outer loop
      vertex 194.019 222.949 54.7553
      vertex 189.767 225.46 54.7553
      vertex 193.745 222.524 54.8907
    endloop
  endfacet
  facet normal 0.131705 0.223039 0.965871
    outer loop
      vertex 193.745 222.524 54.8907
      vertex 189.767 225.46 54.7553
      vertex 189.528 225.014 54.8907
    endloop
  endfacet
  facet normal 0.112883 0.233131 0.965871
    outer loop
      vertex 189.767 225.46 54.7553
      vertex 185.323 227.612 54.7553
      vertex 189.528 225.014 54.8907
    endloop
  endfacet
  facet normal 0.112882 0.23313 0.965872
    outer loop
      vertex 189.528 225.014 54.8907
      vertex 185.323 227.612 54.7553
      vertex 185.121 227.148 54.8907
    endloop
  endfacet
  facet normal 0.0932933 0.241637 0.965872
    outer loop
      vertex 185.323 227.612 54.7553
      vertex 180.716 229.39 54.7553
      vertex 185.121 227.148 54.8907
    endloop
  endfacet
  facet normal 0.0932955 0.241641 0.96587
    outer loop
      vertex 185.121 227.148 54.8907
      vertex 180.716 229.39 54.7553
      vertex 180.553 228.912 54.8907
    endloop
  endfacet
  facet normal 0.0730717 0.248505 0.96587
    outer loop
      vertex 180.716 229.39 54.7553
      vertex 175.978 230.784 54.7553
      vertex 180.553 228.912 54.8907
    endloop
  endfacet
  facet normal 0.0730715 0.248505 0.965871
    outer loop
      vertex 180.553 228.912 54.8907
      vertex 175.978 230.784 54.7553
      vertex 175.856 230.293 54.8907
    endloop
  endfacet
  facet normal 0.0523519 0.25368 0.96587
    outer loop
      vertex 175.978 230.784 54.7553
      vertex 171.142 231.782 54.7553
      vertex 175.856 230.293 54.8907
    endloop
  endfacet
  facet normal 0.0523507 0.253676 0.965872
    outer loop
      vertex 175.856 230.293 54.8907
      vertex 171.142 231.782 54.7553
      vertex 171.06 231.283 54.8907
    endloop
  endfacet
  facet normal 0.0312756 0.257126 0.965872
    outer loop
      vertex 171.142 231.782 54.7553
      vertex 166.24 232.378 54.7553
      vertex 171.06 231.283 54.8907
    endloop
  endfacet
  facet normal 0.0312767 0.257131 0.96587
    outer loop
      vertex 171.06 231.283 54.8907
      vertex 166.24 232.378 54.7553
      vertex 166.199 231.874 54.8907
    endloop
  endfacet
  facet normal 0.0199865 0.258049 0.965925
    outer loop
      vertex 166.24 232.378 54.7553
      vertex 165.557 231.931 54.8887
      vertex 166.199 231.874 54.8907
    endloop
  endfacet
  facet normal 0.0108478 0.156169 0.987671
    outer loop
      vertex 166.199 231.874 54.8907
      vertex 165.557 231.931 54.8887
      vertex 166.084 231.363 54.9727
    endloop
  endfacet
  facet normal 0.664057 0.745849 0.0523147
    outer loop
      vertex 204.161 219.473 50
      vertex 203.012 220.496 50
      vertex 204.143 219.453 50.5226
    endloop
  endfacet
  facet normal 0.63692 0.758714 0.136697
    outer loop
      vertex 203.012 220.496 50
      vertex 200.144 222.81 50.5226
      vertex 204.143 219.453 50.5226
    endloop
  endfacet
  facet normal 0.635052 0.75649 0.156306
    outer loop
      vertex 204.143 219.453 50.5226
      vertex 200.144 222.81 50.5226
      vertex 204.087 219.392 51.0396
    endloop
  endfacet
  facet normal 0.63505 0.756489 0.156318
    outer loop
      vertex 200.144 222.81 50.5226
      vertex 200.094 222.745 51.0396
      vertex 204.087 219.392 51.0396
    endloop
  endfacet
  facet normal 0.621081 0.739849 0.258615
    outer loop
      vertex 204.087 219.392 51.0396
      vertex 200.094 222.745 51.0396
      vertex 203.996 219.292 51.5451
    endloop
  endfacet
  facet normal 0.621086 0.739851 0.258597
    outer loop
      vertex 200.094 222.745 51.0396
      vertex 200.011 222.638 51.5451
      vertex 203.996 219.292 51.5451
    endloop
  endfacet
  facet normal 0.600314 0.715108 0.35811
    outer loop
      vertex 203.996 219.292 51.5451
      vertex 200.011 222.638 51.5451
      vertex 203.87 219.154 52.0337
    endloop
  endfacet
  facet normal 0.600311 0.715106 0.358121
    outer loop
      vertex 200.011 222.638 51.5451
      vertex 199.897 222.489 52.0337
      vertex 203.87 219.154 52.0337
    endloop
  endfacet
  facet normal 0.572983 0.682552 0.453667
    outer loop
      vertex 203.87 219.154 52.0337
      vertex 199.897 222.489 52.0337
      vertex 203.71 218.978 52.5
    endloop
  endfacet
  facet normal 0.572985 0.682554 0.453661
    outer loop
      vertex 199.897 222.489 52.0337
      vertex 199.752 222.301 52.5
      vertex 203.71 218.978 52.5
    endloop
  endfacet
  facet normal 0.539358 0.642496 0.544327
    outer loop
      vertex 203.71 218.978 52.5
      vertex 199.752 222.301 52.5
      vertex 203.518 218.768 52.9389
    endloop
  endfacet
  facet normal 0.539358 0.642497 0.544326
    outer loop
      vertex 199.752 222.301 52.5
      vertex 199.577 222.075 52.9389
      vertex 203.518 218.768 52.9389
    endloop
  endfacet
  facet normal 0.499843 0.595425 0.628989
    outer loop
      vertex 203.518 218.768 52.9389
      vertex 199.577 222.075 52.9389
      vertex 203.296 218.524 53.3457
    endloop
  endfacet
  facet normal 0.499842 0.595424 0.62899
    outer loop
      vertex 199.577 222.075 52.9389
      vertex 199.376 221.815 53.3457
      vertex 203.296 218.524 53.3457
    endloop
  endfacet
  facet normal 0.454832 0.541807 0.706805
    outer loop
      vertex 203.296 218.524 53.3457
      vertex 199.376 221.815 53.3457
      vertex 203.046 218.251 53.7157
    endloop
  endfacet
  facet normal 0.454834 0.541809 0.706802
    outer loop
      vertex 199.376 221.815 53.3457
      vertex 199.15 221.522 53.7157
      vertex 203.046 218.251 53.7157
    endloop
  endfacet
  facet normal 0.409424 0.487716 0.771042
    outer loop
      vertex 203.046 218.251 53.7157
      vertex 199.15 221.522 53.7157
      vertex 202.594 218.096 54.0536
    endloop
  endfacet
  facet normal 0.404037 0.482877 0.776907
    outer loop
      vertex 199.15 221.522 53.7157
      vertex 198.902 221.2 54.0451
      vertex 202.594 218.096 54.0536
    endloop
  endfacet
  facet normal 0.379717 0.454021 0.806027
    outer loop
      vertex 202.594 218.096 54.0536
      vertex 198.902 221.2 54.0451
      vertex 201.835 218.386 54.2481
    endloop
  endfacet
  facet normal 0.347524 0.422694 0.836993
    outer loop
      vertex 198.902 221.2 54.0451
      vertex 201.451 218.531 54.3345
      vertex 201.835 218.386 54.2481
    endloop
  endfacet
  facet normal 0 -1 0
    outer loop
      vertex 161.605 216.023 50
      vertex 161.605 216.023 35
      vertex 207.66 216.023 50
    endloop
  endfacet
  facet normal 0 -1 0
    outer loop
      vertex 161.605 216.023 35
      vertex 207.66 216.023 35
      vertex 207.66 216.023 50
    endloop
  endfacet
  facet normal -1 0 0
    outer loop
      vertex 161.605 236.023 50
      vertex 161.605 236.023 35
      vertex 161.605 216.023 50
    endloop
  endfacet
  facet normal -1 0 0
    outer loop
      vertex 161.605 236.023 35
      vertex 161.605 216.023 35
      vertex 161.605 216.023 50
    endloop
  endfacet
  facet normal -0.780871 -4.76226e-6 0.624693
    outer loop
      vertex 162.562 235.058 52.9406
      vertex 162.562 235.058 52.9405
      vertex 162.56 216.978 52.9389
    endloop
  endfacet
  facet normal -0.977252 -3.07719e-7 0.212079
    outer loop
      vertex 161.724 235.904 51.0821
      vertex 161.715 235.914 51.0398
      vertex 161.715 216.132 51.0396
    endloop
  endfacet
  facet normal -0.984263 1.27776e-7 0.176709
    outer loop
      vertex 161.715 235.914 51.0398
      vertex 161.658 235.97 50.7263
      vertex 161.715 216.132 51.0396
    endloop
  endfacet
  facet normal -0.983251 9.06028e-5 0.182257
    outer loop
      vertex 161.715 216.132 51.0396
      vertex 161.658 235.97 50.7263
      vertex 161.667 216.085 50.7822
    endloop
  endfacet
  facet normal -0.992167 -7.43137e-5 0.124918
    outer loop
      vertex 161.658 235.97 50.7263
      vertex 161.633 235.996 50.523
      vertex 161.667 216.085 50.7822
    endloop
  endfacet
  facet normal -0.991445 -4.51659e-8 0.130529
    outer loop
      vertex 161.667 216.085 50.7822
      vertex 161.633 235.996 50.523
      vertex 161.633 216.051 50.5226
    endloop
  endfacet
  facet normal -0.996039 6.87959e-7 0.0889156
    outer loop
      vertex 161.633 235.996 50.523
      vertex 161.619 236.01 50.3662
      vertex 161.633 216.051 50.5226
    endloop
  endfacet
  facet normal -0.996918 -8.19455e-5 0.0784484
    outer loop
      vertex 161.633 216.051 50.5226
      vertex 161.619 236.01 50.3662
      vertex 161.612 216.03 50.2617
    endloop
  endfacet
  facet normal -0.999327 0.000137459 0.0366791
    outer loop
      vertex 161.619 236.01 50.3662
      vertex 161.605 236.023 50
      vertex 161.612 216.03 50.2617
    endloop
  endfacet
  facet normal -0.999657 0 0.0261854
    outer loop
      vertex 161.612 216.03 50.2617
      vertex 161.605 236.023 50
      vertex 161.605 216.023 50
    endloop
  endfacet
  facet normal -0.971118 -6.02161e-5 0.238599
    outer loop
      vertex 161.724 235.904 51.0821
      vertex 161.715 216.132 51.0396
      vertex 161.778 235.85 51.3033
    endloop
  endfacet
  facet normal -0.97237 1.27762e-5 0.233444
    outer loop
      vertex 161.715 216.132 51.0396
      vertex 161.776 216.194 51.2941
      vertex 161.778 235.85 51.3033
    endloop
  endfacet
  facet normal -0.958519 -1.31828e-5 0.285028
    outer loop
      vertex 161.778 235.85 51.3033
      vertex 161.776 216.194 51.2941
      vertex 161.85 235.777 51.5461
    endloop
  endfacet
  facet normal -0.958824 1.19846e-6 0.284001
    outer loop
      vertex 161.776 216.194 51.2941
      vertex 161.85 216.268 51.5451
      vertex 161.85 235.777 51.5461
    endloop
  endfacet
  facet normal -0.942642 -1.6888e-6 0.333806
    outer loop
      vertex 161.85 216.268 51.5451
      vertex 161.938 216.355 51.7918
      vertex 161.85 235.777 51.5461
    endloop
  endfacet
  facet normal -0.946005 -0.000138925 0.324151
    outer loop
      vertex 161.85 235.777 51.5461
      vertex 161.938 216.355 51.7918
      vertex 161.902 235.726 51.6952
    endloop
  endfacet
  facet normal -0.9239 0.000193872 0.382635
    outer loop
      vertex 161.938 216.355 51.7918
      vertex 162.038 216.456 52.0337
      vertex 161.902 235.726 51.6952
    endloop
  endfacet
  facet normal -0.927753 8.14918e-7 0.373194
    outer loop
      vertex 161.902 235.726 51.6952
      vertex 162.038 216.456 52.0337
      vertex 162.038 235.588 52.0342
    endloop
  endfacet
  facet normal -0.82413 3.14754e-6 0.566401
    outer loop
      vertex 162.56 216.978 52.9389
      vertex 162.562 235.058 52.9405
      vertex 162.412 216.83 52.7232
    endloop
  endfacet
  facet normal -0.817349 -0.000168588 0.576142
    outer loop
      vertex 162.562 235.058 52.9405
      vertex 162.477 235.143 52.821
      vertex 162.412 216.83 52.7232
    endloop
  endfacet
  facet normal -0.846348 0.000166889 0.532631
    outer loop
      vertex 162.477 235.143 52.821
      vertex 162.276 235.348 52.5008
      vertex 162.412 216.83 52.7232
    endloop
  endfacet
  facet normal -0.852661 -1.68608e-6 0.522465
    outer loop
      vertex 162.412 216.83 52.7232
      vertex 162.276 235.348 52.5008
      vertex 162.275 216.693 52.5
    endloop
  endfacet
  facet normal -0.780872 -7.73425e-6 0.624691
    outer loop
      vertex 162.276 235.348 52.5008
      vertex 162.276 235.348 52.5008
      vertex 162.275 216.693 52.5
    endloop
  endfacet
  facet normal -0.878797 6.31223e-7 0.477196
    outer loop
      vertex 162.275 216.693 52.5
      vertex 162.276 235.348 52.5008
      vertex 162.15 216.568 52.27
    endloop
  endfacet
  facet normal -0.869161 -0.00027672 0.494529
    outer loop
      vertex 162.276 235.348 52.5008
      vertex 162.244 235.38 52.4455
      vertex 162.15 216.568 52.27
    endloop
  endfacet
  facet normal -0.902696 0.000490247 0.430278
    outer loop
      vertex 162.15 216.568 52.27
      vertex 162.244 235.38 52.4455
      vertex 162.038 216.456 52.0337
    endloop
  endfacet
  facet normal -0.891819 -0.00010974 0.452392
    outer loop
      vertex 162.244 235.38 52.4455
      vertex 162.056 235.57 52.0751
      vertex 162.038 216.456 52.0337
    endloop
  endfacet
  facet normal -0.911693 -2.99204e-7 0.410871
    outer loop
      vertex 162.038 216.456 52.0337
      vertex 162.056 235.57 52.0751
      vertex 162.038 235.588 52.0342
    endloop
  endfacet
  facet normal -0.777149 6.89375e-6 0.629316
    outer loop
      vertex 162.89 217.308 53.3457
      vertex 162.891 234.721 53.3472
      vertex 162.56 216.978 52.9389
    endloop
  endfacet
  facet normal -0.754409 -0.00104039 0.656403
    outer loop
      vertex 162.891 234.721 53.3472
      vertex 162.781 234.834 53.2212
      vertex 162.56 216.978 52.9389
    endloop
  endfacet
  facet normal -0.787306 -3.59216e-6 0.616562
    outer loop
      vertex 162.56 216.978 52.9389
      vertex 162.781 234.834 53.2212
      vertex 162.562 235.058 52.9406
    endloop
  endfacet
  facet normal -0.707094 3.00218e-6 0.70712
    outer loop
      vertex 163.26 217.678 53.7157
      vertex 163.261 234.342 53.7165
      vertex 162.89 217.308 53.3457
    endloop
  endfacet
  facet normal -0.674505 -0.00138461 0.738269
    outer loop
      vertex 163.261 234.342 53.7165
      vertex 163.213 234.391 53.6734
      vertex 162.89 217.308 53.3457
    endloop
  endfacet
  facet normal -0.687469 -0.00090774 0.726214
    outer loop
      vertex 163.213 234.391 53.6734
      vertex 163.128 234.478 53.5929
      vertex 162.89 217.308 53.3457
    endloop
  endfacet
  facet normal -0.719567 -4.23638e-6 0.694423
    outer loop
      vertex 163.128 234.478 53.5929
      vertex 162.891 234.721 53.3473
      vertex 162.89 217.308 53.3457
    endloop
  endfacet
  facet normal -0.780865 7.61672e-6 0.6247
    outer loop
      vertex 162.89 217.308 53.3457
      vertex 162.891 234.721 53.3473
      vertex 162.891 234.721 53.3472
    endloop
  endfacet
  facet normal -0.591284 -0.00154658 0.806462
    outer loop
      vertex 163.667 233.922 54.0455
      vertex 163.64 233.951 54.0253
      vertex 163.26 217.678 53.7157
    endloop
  endfacet
  facet normal -0.631838 -3.61802e-6 0.7751
    outer loop
      vertex 163.64 233.951 54.0253
      vertex 163.261 234.342 53.7165
      vertex 163.26 217.678 53.7157
    endloop
  endfacet
  facet normal -0.630595 -3.73001e-6 0.776112
    outer loop
      vertex 163.26 217.678 53.7157
      vertex 163.261 234.342 53.7165
      vertex 163.261 234.342 53.7165
    endloop
  endfacet
  facet normal -0.447217 -5.12867e-6 0.894425
    outer loop
      vertex 164.107 233.465 54.3308
      vertex 164.107 233.465 54.3307
      vertex 164.105 218.523 54.3301
    endloop
  endfacet
  facet normal -0.544492 4.04886e-6 0.838766
    outer loop
      vertex 164.107 233.465 54.3307
      vertex 163.667 233.922 54.0455
      vertex 164.105 218.523 54.3301
    endloop
  endfacet
  facet normal -0.544646 -2.18593e-6 0.838666
    outer loop
      vertex 164.105 218.523 54.3301
      vertex 163.667 233.922 54.0455
      vertex 163.667 218.084 54.0451
    endloop
  endfacet
  facet normal -0.629321 2.07836e-6 0.777146
    outer loop
      vertex 163.667 233.922 54.0455
      vertex 163.26 217.678 53.7157
      vertex 163.667 218.084 54.0451
    endloop
  endfacet
  facet normal -0.454001 8.32458e-6 0.891001
    outer loop
      vertex 164.572 218.99 54.5677
      vertex 164.574 232.975 54.5686
      vertex 164.105 218.523 54.3301
    endloop
  endfacet
  facet normal -0.447482 -0.000257221 0.894293
    outer loop
      vertex 164.574 232.975 54.5686
      vertex 164.169 233.4 54.3663
      vertex 164.105 218.523 54.3301
    endloop
  endfacet
  facet normal -0.493525 -3.65856e-7 0.869731
    outer loop
      vertex 164.105 218.523 54.3301
      vertex 164.169 233.4 54.3663
      vertex 164.107 233.465 54.3308
    endloop
  endfacet
  facet normal -0.329017 -0.00121103 0.944323
    outer loop
      vertex 165.062 232.458 54.7559
      vertex 164.871 232.661 54.6894
      vertex 164.572 218.99 54.5677
    endloop
  endfacet
  facet normal -0.360042 -0.000431209 0.932936
    outer loop
      vertex 164.871 232.661 54.6894
      vertex 164.744 232.796 54.6405
      vertex 164.572 218.99 54.5677
    endloop
  endfacet
  facet normal -0.389403 -2.71953e-6 0.921068
    outer loop
      vertex 164.572 218.99 54.5677
      vertex 164.744 232.796 54.6405
      vertex 164.574 232.975 54.5686
    endloop
  endfacet
  facet normal -0.102899 -3.2932e-7 0.994692
    outer loop
      vertex 166.084 231.363 54.9728
      vertex 166.084 231.363 54.9727
      vertex 166.083 220.501 54.9726
    endloop
  endfacet
  facet normal -0.157255 5.3412e-6 0.987558
    outer loop
      vertex 166.084 231.363 54.9727
      vertex 165.557 231.931 54.8887
      vertex 166.083 220.501 54.9726
    endloop
  endfacet
  facet normal -0.156473 4.22853e-5 0.987682
    outer loop
      vertex 166.083 220.501 54.9726
      vertex 165.557 231.931 54.8887
      vertex 165.566 219.984 54.8907
    endloop
  endfacet
  facet normal -0.259584 -4.18769e-5 0.96572
    outer loop
      vertex 165.557 231.931 54.8887
      vertex 165.062 232.458 54.7559
      vertex 165.566 219.984 54.8907
    endloop
  endfacet
  facet normal -0.258813 -8.50225e-6 0.965927
    outer loop
      vertex 165.566 219.984 54.8907
      vertex 165.062 232.458 54.7559
      vertex 165.06 219.478 54.7553
    endloop
  endfacet
  facet normal -0.358365 7.93285e-6 0.933582
    outer loop
      vertex 165.062 232.458 54.7559
      vertex 164.572 218.99 54.5677
      vertex 165.06 219.478 54.7553
    endloop
  endfacet
  facet normal -0.0523388 0 0.998629
    outer loop
      vertex 166.605 221.023 55
      vertex 166.605 230.797 55
      vertex 166.083 220.501 54.9726
    endloop
  endfacet
  facet normal -0.00348516 -0.00248354 0.999991
    outer loop
      vertex 166.605 230.797 55
      vertex 166.596 230.807 55
      vertex 166.083 220.501 54.9726
    endloop
  endfacet
  facet normal -0.0361066 -0.000857899 0.999348
    outer loop
      vertex 166.596 230.807 55
      vertex 166.264 231.169 54.9883
      vertex 166.083 220.501 54.9726
    endloop
  endfacet
  facet normal -0.0797336 -0.000115191 0.996816
    outer loop
      vertex 166.264 231.169 54.9883
      vertex 166.152 231.29 54.9794
      vertex 166.083 220.501 54.9726
    endloop
  endfacet
  facet normal -0.0974933 -1.10884e-6 0.995236
    outer loop
      vertex 166.083 220.501 54.9726
      vertex 166.152 231.29 54.9794
      vertex 166.084 231.363 54.9728
    endloop
  endfacet
  facet normal 0.702125 0.712054 0
    outer loop
      vertex 207.66 216.023 50
      vertex 207.66 216.023 35
      vertex 204.161 219.473 50
    endloop
  endfacet
  facet normal 0.693423 0.72052 -0.00397692
    outer loop
      vertex 207.66 216.023 35
      vertex 203.012 220.496 35
      vertex 204.161 219.473 50
    endloop
  endfacet
  facet normal 0.664968 0.746872 0
    outer loop
      vertex 204.161 219.473 50
      vertex 203.012 220.496 35
      vertex 203.012 220.496 50
    endloop
  endfacet
  facet normal 0.633607 0.773655 0
    outer loop
      vertex 203.012 220.496 50
      vertex 203.012 220.496 35
      vertex 200.161 222.831 50
    endloop
  endfacet
  facet normal 0.616552 0.787296 -0.00536585
    outer loop
      vertex 203.012 220.496 35
      vertex 197.934 224.473 35
      vertex 200.161 222.831 50
    endloop
  endfacet
  facet normal 0.593397 0.80491 0
    outer loop
      vertex 200.161 222.831 50
      vertex 197.934 224.473 35
      vertex 197.934 224.473 50
    endloop
  endfacet
  facet normal 0.55971 0.828689 0
    outer loop
      vertex 197.934 224.473 50
      vertex 197.934 224.473 35
      vertex 195.897 225.849 50
    endloop
  endfacet
  facet normal 0.533295 0.845914 -0.00516537
    outer loop
      vertex 197.934 224.473 35
      vertex 192.477 227.913 35
      vertex 195.897 225.849 50
    endloop
  endfacet
  facet normal 0.516796 0.856109 0
    outer loop
      vertex 195.897 225.849 50
      vertex 192.477 227.913 35
      vertex 192.477 227.913 50
    endloop
  endfacet
  facet normal 0.481058 0.876689 0
    outer loop
      vertex 192.477 227.913 50
      vertex 192.477 227.913 35
      vertex 191.4 228.504 50
    endloop
  endfacet
  facet normal 0.444509 0.895768 -0.00337647
    outer loop
      vertex 192.477 227.913 35
      vertex 186.699 230.781 35
      vertex 191.4 228.504 50
    endloop
  endfacet
  facet normal 0.435805 0.900041 0
    outer loop
      vertex 191.4 228.504 50
      vertex 186.699 230.781 35
      vertex 186.699 230.781 50
    endloop
  endfacet
  facet normal 0.360178 0.932884 0
    outer loop
      vertex 186.699 230.781 50
      vertex 186.699 230.781 35
      vertex 181.826 232.662 50
    endloop
  endfacet
  facet normal 0.351112 0.936327 -0.0033768
    outer loop
      vertex 186.699 230.781 35
      vertex 180.659 233.046 35
      vertex 181.826 232.662 50
    endloop
  endfacet
  facet normal 0.312216 0.950011 0
    outer loop
      vertex 181.826 232.662 50
      vertex 180.659 233.046 35
      vertex 180.659 233.046 50
    endloop
  endfacet
  facet normal 0.272786 0.962075 0
    outer loop
      vertex 180.659 233.046 50
      vertex 180.659 233.046 35
      vertex 176.815 234.135 50
    endloop
  endfacet
  facet normal 0.254072 0.967172 -0.00516565
    outer loop
      vertex 180.659 233.046 35
      vertex 174.42 234.685 35
      vertex 176.815 234.135 50
    endloop
  endfacet
  facet normal 0.22345 0.974715 0
    outer loop
      vertex 176.815 234.135 50
      vertex 174.42 234.685 35
      vertex 174.42 234.685 50
    endloop
  endfacet
  facet normal 0.183077 0.983099 0
    outer loop
      vertex 174.42 234.685 50
      vertex 174.42 234.685 35
      vertex 171.7 235.191 50
    endloop
  endfacet
  facet normal 0.154401 0.987994 -0.00536558
    outer loop
      vertex 174.42 234.685 35
      vertex 168.047 235.681 35
      vertex 171.7 235.191 50
    endloop
  endfacet
  facet normal 0.13279 0.991144 0
    outer loop
      vertex 171.7 235.191 50
      vertex 168.047 235.681 35
      vertex 168.047 235.681 50
    endloop
  endfacet
  facet normal 0.0918133 0.995776 0
    outer loop
      vertex 168.047 235.681 50
      vertex 168.047 235.681 35
      vertex 166.515 235.822 50
    endloop
  endfacet
  facet normal 0.0531289 0.99858 -0.00397719
    outer loop
      vertex 168.047 235.681 35
      vertex 161.605 236.023 35
      vertex 166.515 235.822 50
    endloop
  endfacet
  facet normal 0.0410011 0.999159 0
    outer loop
      vertex 166.515 235.822 50
      vertex 161.605 236.023 35
      vertex 161.605 236.023 50
    endloop
  endfacet
  facet normal 0 0 -1
    outer loop
      vertex 174.42 234.685 35
      vertex 161.605 216.023 35
      vertex 168.047 235.681 35
    endloop
  endfacet
  facet normal 0 0 -1
    outer loop
      vertex 161.605 216.023 35
      vertex 161.605 236.023 35
      vertex 168.047 235.681 35
    endloop
  endfacet
  facet normal 0 0 -1
    outer loop
      vertex 174.42 234.685 35
      vertex 180.659 233.046 35
      vertex 161.605 216.023 35
    endloop
  endfacet
  facet normal 0 0 -1
    outer loop
      vertex 180.659 233.046 35
      vertex 186.699 230.781 35
      vertex 161.605 216.023 35
    endloop
  endfacet
  facet normal 0 0 -1
    outer loop
      vertex 161.605 216.023 35
      vertex 186.699 230.781 35
      vertex 192.477 227.913 35
    endloop
  endfacet
  facet normal 0 0 -1
    outer loop
      vertex 192.477 227.913 35
      vertex 197.934 224.473 35
      vertex 161.605 216.023 35
    endloop
  endfacet
  facet normal 0 0 -1
    outer loop
      vertex 197.934 224.473 35
      vertex 203.012 220.496 35
      vertex 161.605 216.023 35
    endloop
  endfacet
  facet normal 0 0 -1
    outer loop
      vertex 161.605 216.023 35
      vertex 203.012 220.496 35
      vertex 207.66 216.023 35
    endloop
  endfacet
  facet normal 0 0 1
    outer loop
      vertex 170.892 230.257 55
      vertex 166.605 230.797 55
      vertex 166.605 221.023 55
    endloop
  endfacet
  facet normal 0 0 1
    outer loop
      vertex 194.13 221.023 55
      vertex 193.18 221.652 55
      vertex 166.605 221.023 55
    endloop
  endfacet
  facet normal 0 0 1
    outer loop
      vertex 193.18 221.652 55
      vertex 189.037 224.098 55
      vertex 166.605 221.023 55
    endloop
  endfacet
  facet normal 0 0 1
    outer loop
      vertex 166.605 221.023 55
      vertex 189.037 224.098 55
      vertex 184.707 226.195 55
    endloop
  endfacet
  facet normal 0 0 1
    outer loop
      vertex 184.707 226.195 55
      vertex 180.219 227.927 55
      vertex 166.605 221.023 55
    endloop
  endfacet
  facet normal 0 0 1
    outer loop
      vertex 180.219 227.927 55
      vertex 175.604 229.284 55
      vertex 166.605 221.023 55
    endloop
  endfacet
  facet normal 0 0 1
    outer loop
      vertex 166.605 221.023 55
      vertex 175.604 229.284 55
      vertex 170.892 230.257 55
    endloop
  endfacet
endsolid Onshape
